<?xml version="1.0" standalone="no"?>
<!DOCTYPE svg PUBLIC "-//W3C//DTD SVG 20010904//EN"
 "http://www.w3.org/TR/2001/REC-SVG-20010904/DTD/svg10.dtd">
<svg version="1.0" xmlns="http://www.w3.org/2000/svg"
 width="302.000000pt" height="302.000000pt" viewBox="0 0 302.000000 302.000000"
 preserveAspectRatio="xMidYMid meet">
<metadata>
Created by potrace 1.11, written by Peter Selinger 2001-2013
</metadata>
<g transform="translate(0.000000,302.000000) scale(0.100000,-0.100000)"
fill="#000000" stroke="none">
<path d="M1415 2473 c-48 -10 -74 -26 -83 -51 -6 -15 -26 -97 -47 -182 -95
-403 -298 -898 -481 -1172 -76 -115 -226 -269 -306 -317 -91 -53 -134 -65
-228 -65 -101 0 -150 21 -201 84 -50 62 -64 54 -60 -35 4 -104 144 -198 291
-196 110 1 179 23 278 89 185 124 326 307 492 641 75 151 200 459 200 492 0
27 11 -1 16 -42 33 -264 132 -464 273 -553 48 -31 140 -62 201 -69 93 -11 211
33 270 99 36 42 76 122 87 175 6 32 5 33 -12 19 -11 -8 -32 -30 -49 -48 -103
-116 -290 -168 -398 -112 -79 41 -122 94 -164 207 -62 164 -77 329 -61 658 10
202 15 250 31 311 13 51 13 55 -4 64 -10 6 -20 9 -22 9 -2 -1 -12 -3 -23 -6z"/>
<path d="M2207 2072 c-24 -27 -33 -91 -31 -227 2 -216 26 -364 79 -493 71
-172 148 -257 277 -310 210 -84 398 -9 471 188 30 82 22 89 -35 31 -95 -95
-224 -153 -322 -145 -53 5 -139 48 -171 86 -68 81 -117 229 -140 418 -6 55 -8
320 -2 326 11 11 -15 100 -35 121 -26 28 -69 30 -91 5z"/>
</g>
</svg>
