<svg id="Layer_1" data-name="Layer 1" xmlns="http://www.w3.org/2000/svg" viewBox="0 0 100 100"><defs><style>.cls-1{fill:none;stroke:#3e4f60;stroke-miterlimit:10;stroke-width:3.6px;}.cls-2{fill:#3e4f60;}.cls-3{fill:#4d6479;}.cls-4,.cls-5{fill:#fff;}.cls-5{font-size:12px;font-family:MyriadPro-Regular, Myriad Pro;}</style></defs><title>single-item-icons</title><path class="cls-1" d="M12.65,33.41V66.59A8.63,8.63,0,0,0,17,74.06L45.69,90.64a8.62,8.62,0,0,0,8.62,0L83,74.06a8.63,8.63,0,0,0,4.31-7.47V33.41A8.63,8.63,0,0,0,83,25.94L54.31,9.36a8.62,8.62,0,0,0-8.62,0L17,25.94A8.63,8.63,0,0,0,12.65,33.41Z"/><polygon class="cls-2" points="13.13 77.89 5 77.89 5 62.9 13.13 57.27 13.13 77.89"/><polygon class="cls-2" points="86.88 77.89 95 77.89 95 62.9 86.88 57.27 86.88 77.89"/><rect class="cls-3" x="5" y="62.9" width="90" height="15"/><path class="cls-4" d="M15.26,67.4v1.9H18v1.24H15.26V74h-1.6V66.15h5V67.4Z"/><path class="cls-4" d="M20.93,70.93V74H19.41V68.36H20.8l.07,1A2.38,2.38,0,0,1,23,68.2v1.48C21.94,69.43,20.93,70,20.93,70.93Z"/><path class="cls-4" d="M28.82,71.23H25A1.7,1.7,0,0,0,27,73.08a3,3,0,0,0,1.83-.67v1.1a3.76,3.76,0,0,1-2.3.67,3,3,0,0,1-.11-6,2.3,2.3,0,0,1,2.52,2.24A3.81,3.81,0,0,1,28.82,71.23Zm-2.39-2.06a1.31,1.31,0,0,0-1.33,1.25h2.43A1,1,0,0,0,26.43,69.17Z"/><path class="cls-4" d="M35.16,71.23H31.38a1.69,1.69,0,0,0,1.93,1.85,3,3,0,0,0,1.83-.67v1.1a3.78,3.78,0,0,1-2.31.67,3,3,0,0,1-.1-6,2.3,2.3,0,0,1,2.52,2.24A3.81,3.81,0,0,1,35.16,71.23Zm-2.39-2.06a1.3,1.3,0,0,0-1.33,1.25h2.43A1,1,0,0,0,32.77,69.17Z"/><path class="cls-4" d="M41.48,74.18a4.22,4.22,0,0,1-2.79-1l.37-1.26A3.53,3.53,0,0,0,41.48,73c.79,0,1.39-.39,1.39-1.09s-.36-1-1.65-1.31c-1.65-.41-2.31-1.29-2.31-2.41,0-1.29,1-2.22,2.72-2.22a4,4,0,0,1,2.36.77l-.34,1.12a3.94,3.94,0,0,0-2-.68c-.78,0-1.24.34-1.24.9s.29.8,1.35,1.08c1.84.46,2.63,1.23,2.63,2.6C44.36,73.45,43,74.18,41.48,74.18Z"/><path class="cls-4" d="M49.61,74V70.89c0-1.1-.38-1.47-1.08-1.47A1.57,1.57,0,0,0,47,70.86V74H45.5V66.15H47V69.3a2.57,2.57,0,0,1,2-1.1c1.51,0,2.07,1,2.07,2.45V74Z"/><path class="cls-4" d="M52.61,67.4V66.15h1.53V67.4Zm0,6.63V68.36h1.53V74Z"/><path class="cls-4" d="M59.18,74.18a2.55,2.55,0,0,1-2-.93v3.33H55.63V68.36H57l.05.9a2.59,2.59,0,0,1,2.12-1.06,3,3,0,0,1,0,6Zm-.48-4.85a1.88,1.88,0,1,0,1.62,1.86A1.66,1.66,0,0,0,58.7,69.33Z"/><path class="cls-4" d="M66.55,74.18a2.56,2.56,0,0,1-2-.93v3.33H63V68.36h1.38l0,.9a2.57,2.57,0,0,1,2.11-1.06,3,3,0,0,1,0,6Zm-.47-4.85a1.88,1.88,0,1,0,1.61,1.86A1.67,1.67,0,0,0,66.08,69.33Z"/><path class="cls-4" d="M70.39,67.4V66.15h1.52V67.4Zm0,6.63V68.36h1.52V74Z"/><path class="cls-4" d="M77.51,74V70.89c0-1.1-.38-1.47-1.07-1.47a1.56,1.56,0,0,0-1.51,1.44V74H73.4V68.36h1.39l.07,1A2.4,2.4,0,0,1,77,68.2c1.51,0,2.07,1,2.07,2.45V74Z"/><path class="cls-4" d="M83.18,76.7A5.49,5.49,0,0,1,80.69,76V74.87a4.32,4.32,0,0,0,2.47.73c.94,0,1.71-.55,1.71-2v-.37a2.55,2.55,0,0,1-2,.93,3,3,0,0,1,0-6A2.61,2.61,0,0,1,85,69.26l0-.9H86.4v5.1A2.89,2.89,0,0,1,83.18,76.7Zm.15-7.37a1.88,1.88,0,1,0,1.61,1.86A1.67,1.67,0,0,0,83.33,69.33Z"/><path class="cls-2" d="M34.11,46.39a6.59,6.59,0,0,1,6.06,4H57.71V26H25.47V50.41h2.58A6.58,6.58,0,0,1,34.11,46.39Z"/><path class="cls-2" d="M68.52,46.39a6.58,6.58,0,0,1,6.06,4h3V40.33L74.36,30.26h-15V50.41h3.14A6.59,6.59,0,0,1,68.52,46.39Z"/><path class="cls-2" d="M62.12,51.48H40.51A6.58,6.58,0,0,1,40.68,53c0,.23,0,.45,0,.67H62c0-.22,0-.44,0-.67A6.58,6.58,0,0,1,62.12,51.48Z"/><path class="cls-2" d="M27.71,51.48H23.32v2.15h4.25c0-.22,0-.44,0-.67A6.58,6.58,0,0,1,27.71,51.48Z"/><path class="cls-2" d="M79.08,51.48H74.92A6.58,6.58,0,0,1,75.09,53c0,.23,0,.45,0,.67h4Z"/><path class="cls-2" d="M73.73,51.48a5.84,5.84,0,0,0-.43-1.07,5.42,5.42,0,0,0-9.56,0,5.84,5.84,0,0,0-.43,1.07A5.63,5.63,0,0,0,63.1,53a4.91,4.91,0,0,0,0,.67,5.41,5.41,0,0,0,10.74,0,4.91,4.91,0,0,0,0-.67A5.63,5.63,0,0,0,73.73,51.48Zm-2.06,1.88a3.17,3.17,0,0,1-6.3,0c0-.13,0-.26,0-.4a3,3,0,0,1,.12-.86,3.18,3.18,0,0,1,6.11,0,3.43,3.43,0,0,1,.12.86A2.6,2.6,0,0,1,71.67,53.36Z"/><path class="cls-2" d="M39.32,51.48a5.84,5.84,0,0,0-.43-1.07,5.42,5.42,0,0,0-9.56,0,5.84,5.84,0,0,0-.43,1.07A5.63,5.63,0,0,0,28.69,53a4.91,4.91,0,0,0,0,.67,5.41,5.41,0,0,0,10.74,0,4.91,4.91,0,0,0,.05-.67A5.63,5.63,0,0,0,39.32,51.48Zm-2.06,1.88a3.17,3.17,0,0,1-6.3,0,2.6,2.6,0,0,1,0-.4,3,3,0,0,1,.13-.86,2.67,2.67,0,0,1,.25-.63,3.17,3.17,0,0,1,5.6,0,2.67,2.67,0,0,1,.25.63,3,3,0,0,1,.12.86C37.28,53.1,37.27,53.23,37.26,53.36Z"/><polygon class="cls-4" points="74.34 40.33 62.7 40.33 62.7 33.17 72.36 33.17 74.34 40.33"/><text class="cls-5" transform="translate(28.69 41.13)">$50+</text></svg>