<svg id="Layer_1" data-name="Layer 1" xmlns="http://www.w3.org/2000/svg" viewBox="0 0 100 100"><defs><style>.cls-1{fill:none;stroke:#3e4f60;stroke-miterlimit:10;stroke-width:3.6px;}.cls-2{fill:#3e4f60;}.cls-3{fill:#4d6479;}.cls-4{font-size:13.13px;font-family:MrEavesXLModOT-Bold, Mr Eaves XL Mod OT;font-weight:700;}.cls-4,.cls-6,.cls-7{fill:#fff;}.cls-5{letter-spacing:-0.01em;}.cls-7{font-size:12px;font-family:MyriadPro-Regular, Myriad Pro;}</style></defs><title>single-item-icons</title><path class="cls-1" d="M12.65,33.41V66.59A8.63,8.63,0,0,0,17,74.06L45.69,90.64a8.62,8.62,0,0,0,8.62,0L83,74.06a8.63,8.63,0,0,0,4.31-7.47V33.41A8.63,8.63,0,0,0,83,25.94L54.31,9.36a8.62,8.62,0,0,0-8.62,0L17,25.94A8.63,8.63,0,0,0,12.65,33.41Z"/><polygon class="cls-2" points="13.13 77.89 5 77.89 5 62.9 13.13 57.27 13.13 77.89"/><polygon class="cls-2" points="86.88 77.89 95 77.89 95 62.9 86.88 57.27 86.88 77.89"/><rect class="cls-3" x="5" y="62.9" width="90" height="15"/><text class="cls-4" transform="translate(12.86 74.03)"><tspan class="cls-5">F</tspan><tspan x="5.8" y="0">ree Shipping</tspan></text><path class="cls-2" d="M34.11,46.39a6.59,6.59,0,0,1,6.06,4H57.71V26H25.47V50.41h2.58A6.58,6.58,0,0,1,34.11,46.39Z"/><path class="cls-2" d="M68.52,46.39a6.58,6.58,0,0,1,6.06,4h3V40.33L74.36,30.26h-15V50.41h3.14A6.59,6.59,0,0,1,68.52,46.39Z"/><path class="cls-2" d="M62.12,51.48H40.51A6.58,6.58,0,0,1,40.68,53c0,.23,0,.45,0,.67H62c0-.22,0-.44,0-.67A6.58,6.58,0,0,1,62.12,51.48Z"/><path class="cls-2" d="M27.71,51.48H23.32v2.15h4.25c0-.22,0-.44,0-.67A6.58,6.58,0,0,1,27.71,51.48Z"/><path class="cls-2" d="M79.08,51.48H74.92A6.58,6.58,0,0,1,75.09,53c0,.23,0,.45,0,.67h4Z"/><path class="cls-2" d="M73.73,51.48a5.84,5.84,0,0,0-.43-1.07,5.42,5.42,0,0,0-9.56,0,5.84,5.84,0,0,0-.43,1.07A5.63,5.63,0,0,0,63.1,53a4.91,4.91,0,0,0,0,.67,5.41,5.41,0,0,0,10.74,0,4.91,4.91,0,0,0,0-.67A5.63,5.63,0,0,0,73.73,51.48Zm-2.06,1.88a3.17,3.17,0,0,1-6.3,0c0-.13,0-.26,0-.4a3,3,0,0,1,.12-.86,3.18,3.18,0,0,1,6.11,0,3.43,3.43,0,0,1,.12.86A2.6,2.6,0,0,1,71.67,53.36Z"/><path class="cls-2" d="M39.32,51.48a5.84,5.84,0,0,0-.43-1.07,5.42,5.42,0,0,0-9.56,0,5.84,5.84,0,0,0-.43,1.07A5.63,5.63,0,0,0,28.69,53a4.91,4.91,0,0,0,0,.67,5.41,5.41,0,0,0,10.74,0,4.91,4.91,0,0,0,.05-.67A5.63,5.63,0,0,0,39.32,51.48Zm-2.06,1.88a3.17,3.17,0,0,1-6.3,0,2.6,2.6,0,0,1,0-.4,3,3,0,0,1,.13-.86,2.67,2.67,0,0,1,.25-.63,3.17,3.17,0,0,1,5.6,0,2.67,2.67,0,0,1,.25.63,3,3,0,0,1,.12.86C37.28,53.1,37.27,53.23,37.26,53.36Z"/><polygon class="cls-6" points="74.34 40.33 62.7 40.33 62.7 33.17 72.36 33.17 74.34 40.33"/><text class="cls-7" transform="translate(28.69 41.13)">$50+</text></svg>