<svg id="Layer_1" data-name="Layer 1" xmlns="http://www.w3.org/2000/svg" viewBox="0 0 250 125"><defs><style>.cls-1{fill:#bbcada;}.cls-2,.cls-3{fill:#3e4f60;}.cls-3{font-size:20px;font-family:MrEavesXLModOT-Bold, Mr Eaves XL Mod OT;font-weight:700;}.cls-4{letter-spacing:-0.01em;}.cls-5{letter-spacing:0em;}</style></defs><title>base-design-icons</title><rect class="cls-1" x="4" y="78.49" width="242" height="22.41"/><path class="cls-2" d="M239.4,75.64H11.72l-1.56,3.41h6.72c1.44,0,3.93,2.06,6.48,2.06H92.2c2.55,0,5-2.06,6.47-2.06h53.78c1.43,0,3.92,2.06,6.47,2.06h68.84c2.55,0,5-2.06,6.48-2.06H241Z"/><rect class="cls-1" x="4" y="9.03" width="242" height="22.41"/><path class="cls-2" d="M239.4,3.55H11.72L10.16,7h6.72C18.32,7,20.81,9,23.36,9H92.2C94.75,9,97.24,7,98.67,7h53.78C153.88,7,156.37,9,158.92,9h68.84c2.55,0,5-2.06,6.48-2.06H241Z"/><text class="cls-3" transform="translate(43.12 48.24)">Groomers and Rails</text><text class="cls-3" transform="translate(93.64 117.71)">P<tspan class="cls-4" x="10.12" y="0">o</tspan><tspan class="cls-5" x="20.78" y="0">wder</tspan></text></svg>