<svg id="Layer_1" data-name="Layer 1" xmlns="http://www.w3.org/2000/svg" viewBox="0 0 250 125"><defs><style>.cls-1{fill:#fff;}.cls-2{fill:#f16145;}</style></defs><title>base-design-icons</title><rect class="cls-1" x="4.04" y="77.36" width="241.92" height="22.4"/><path class="cls-2" d="M238.8,74.5H11.2L9.64,77.92h6.72c1.43,0,3.92,2.06,6.47,2.06H227.17c2.55,0,5-2.06,6.47-2.06h6.72Z"/><rect class="cls-1" x="4.04" y="7.92" width="241.92" height="22.4"/><path class="cls-2" d="M238.8,2.44H11.2L9.64,5.86h6.72c1.43,0,3.92,2.06,6.47,2.06H227.17c2.55,0,5-2.06,6.47-2.06h6.72Z"/><path class="cls-1" d="M50.14,49.46a6.31,6.31,0,1,1,.16-12.61,7.42,7.42,0,0,1,4.26,1.23v2.21a6,6,0,0,0-4-1.47,4,4,0,0,0-4.24,4.4c0,2.7,1.7,4.4,4.1,4.4a5,5,0,0,0,2.32-.5V44.78H50.6V43h4.46v5.3A12.29,12.29,0,0,1,50.14,49.46Z"/><path class="cls-1" d="M59.74,44.4v4.72H57.42V40.48h2.12l.1,1.58a3.63,3.63,0,0,1,3.22-1.82V42.5C61.28,42.12,59.74,42.92,59.74,44.4Z"/><path class="cls-1" d="M68.48,49.44a4.64,4.64,0,1,1,4.84-4.64A4.65,4.65,0,0,1,68.48,49.44Zm0-7.58c-1.56,0-2.58,1.2-2.58,2.94s1,2.94,2.58,2.94S71,46.56,71,44.8,70,41.86,68.48,41.86Z"/><path class="cls-1" d="M79.34,49.44a4.64,4.64,0,1,1,4.84-4.64A4.65,4.65,0,0,1,79.34,49.44Zm0-7.58c-1.56,0-2.58,1.2-2.58,2.94s1,2.94,2.58,2.94,2.56-1.18,2.56-2.94S80.88,41.86,79.34,41.86Z"/><path class="cls-1" d="M97.74,49.12V44.26c0-1.56-.42-2.16-1.48-2.16a2.18,2.18,0,0,0-2.12,2.2v4.82H91.82V44.26c0-1.56-.4-2.16-1.48-2.16a2.18,2.18,0,0,0-2.12,2.2v4.82H85.9V40.48H88l.1,1.6a3.51,3.51,0,0,1,3-1.84,2.56,2.56,0,0,1,2.76,1.94,3.79,3.79,0,0,1,3.18-1.94c2.3,0,3,1.6,3,3.74v5.14Z"/><path class="cls-1" d="M109.9,44.86h-5.76c-.06,1.32.62,2.82,2.94,2.82a4.64,4.64,0,0,0,2.8-1v1.68a5.79,5.79,0,0,1-3.52,1,4.56,4.56,0,0,1-.16-9.12c2.2,0,3.84,1.38,3.84,3.42A5.49,5.49,0,0,1,109.9,44.86Zm-3.64-3.14a2,2,0,0,0-2,1.9h3.7A1.56,1.56,0,0,0,106.26,41.72Z"/><path class="cls-1" d="M114.3,44.4v4.72H112V40.48h2.12l.1,1.58a3.63,3.63,0,0,1,3.22-1.82V42.5C115.84,42.12,114.3,42.92,114.3,44.4Z"/><path class="cls-1" d="M121.6,49.4a6.8,6.8,0,0,1-3.46-1l.38-1.6a5.94,5.94,0,0,0,3,1c.92,0,1.56-.28,1.56-1s-.66-.84-1.84-1.12c-2.12-.46-2.88-1.58-2.88-2.8s1.06-2.65,3.4-2.65a6.36,6.36,0,0,1,2.94.79l-.38,1.52a5,5,0,0,0-2.5-.72c-.94,0-1.4.32-1.4.84s.6.84,1.52,1.06c2.28.48,3.2,1.54,3.2,2.7C125.18,48.26,123.82,49.4,121.6,49.4Z"/><path class="cls-1" d="M137.66,49.12l-.08-1.38a3.92,3.92,0,0,1-3.22,1.62c-2.34,0-4.06-2-4.06-4.56s1.72-4.56,4.06-4.56a3.89,3.89,0,0,1,3.22,1.62l.08-1.38h2.1v8.64ZM135.08,42a2.54,2.54,0,0,0-2.46,2.84,2.49,2.49,0,1,0,4.92,0A2.54,2.54,0,0,0,135.08,42Z"/><path class="cls-1" d="M148.3,49.12V44.34c0-1.68-.58-2.24-1.64-2.24a2.38,2.38,0,0,0-2.3,2.2v4.82H142V40.48h2.12l.1,1.6a3.68,3.68,0,0,1,3.2-1.84c2.3,0,3.16,1.6,3.16,3.74v5.14Z"/><path class="cls-1" d="M159.74,49.12l-.08-1.38a3.92,3.92,0,0,1-3.22,1.62c-2.34,0-4.06-2-4.06-4.56s1.72-4.56,4.06-4.56a3.92,3.92,0,0,1,3.08,1.42V37.11h2.32v12ZM157.16,42a2.54,2.54,0,0,0-2.46,2.84,2.49,2.49,0,1,0,4.92,0A2.54,2.54,0,0,0,157.16,42Z"/><path class="cls-1" d="M178.08,49.12H175.4l-3.32-4.78h-1.5v4.78h-2.44v-12h4.72c2.84,0,4.06,1.68,4.06,3.63a3.27,3.27,0,0,1-2.4,3.34Zm-7.5-6.5h1.88c1.52,0,2.06-.8,2.06-1.86s-.54-1.9-2.06-1.9h-1.88Z"/><path class="cls-1" d="M186.32,49.12l-.08-1.38A3.92,3.92,0,0,1,183,49.36c-2.34,0-4.06-2-4.06-4.56s1.72-4.56,4.06-4.56a3.89,3.89,0,0,1,3.22,1.62l.08-1.38h2.1v8.64ZM183.74,42a2.54,2.54,0,0,0-2.46,2.84,2.49,2.49,0,1,0,4.92,0A2.54,2.54,0,0,0,183.74,42Z"/><path class="cls-1" d="M190.7,39v-1.9H193V39Zm0,10.11V40.48H193v8.64Z"/><path class="cls-1" d="M195.3,49.12v-12h2.32v12Z"/><path class="cls-1" d="M202.76,49.4a6.8,6.8,0,0,1-3.46-1l.38-1.6a5.94,5.94,0,0,0,3,1c.92,0,1.56-.28,1.56-1s-.66-.84-1.84-1.12c-2.12-.46-2.88-1.58-2.88-2.8s1.06-2.65,3.4-2.65a6.36,6.36,0,0,1,2.94.79l-.38,1.52a5,5,0,0,0-2.5-.72c-.94,0-1.4.32-1.4.84s.6.84,1.52,1.06c2.28.48,3.2,1.54,3.2,2.7C206.34,48.26,205,49.4,202.76,49.4Z"/><path class="cls-1" d="M99.42,114.2H97.3v4.36H94.86v-12h4.56c2.88,0,4.16,1.77,4.16,3.83S102.3,114.2,99.42,114.2Zm-.4-5.9H97.3v4.16H99a2.08,2.08,0,1,0,0-4.16Z"/><path class="cls-1" d="M109.2,118.88a4.64,4.64,0,1,1,4.84-4.64A4.65,4.65,0,0,1,109.2,118.88Zm0-7.58c-1.56,0-2.58,1.2-2.58,2.94s1,2.94,2.58,2.94,2.56-1.18,2.56-2.94S110.74,111.3,109.2,111.3Z"/><path class="cls-1" d="M125.16,118.56h-1.54l-2.06-5.2-2.08,5.2H118l-3.48-8.64h2.26l2.1,5.62,2.08-5.62h1.44l2.12,5.62,2.08-5.62h2.06Z"/><path class="cls-1" d="M136.7,118.56l-.08-1.38a3.92,3.92,0,0,1-3.22,1.62c-2.34,0-4.06-2-4.06-4.56s1.72-4.56,4.06-4.56a3.92,3.92,0,0,1,3.08,1.42v-4.55h2.32v12Zm-2.58-7.16a2.87,2.87,0,1,0,2.46,2.84A2.54,2.54,0,0,0,134.12,111.4Z"/><path class="cls-1" d="M148.66,114.3H142.9c-.06,1.32.62,2.82,2.94,2.82a4.64,4.64,0,0,0,2.8-1v1.68a5.79,5.79,0,0,1-3.52,1,4.56,4.56,0,0,1-.16-9.12c2.2,0,3.84,1.38,3.84,3.42A5.49,5.49,0,0,1,148.66,114.3ZM145,111.16a2,2,0,0,0-2,1.9h3.7A1.56,1.56,0,0,0,145,111.16Z"/><path class="cls-1" d="M153.06,113.84v4.72h-2.32v-8.64h2.12l.1,1.58a3.63,3.63,0,0,1,3.22-1.82v2.26C154.6,111.56,153.06,112.36,153.06,113.84Z"/></svg>