<svg id="Layer_1" data-name="Layer 1" xmlns="http://www.w3.org/2000/svg" viewBox="0 0 250 125"><defs><style>.cls-1{fill:#bbcada;}.cls-2{fill:#3e4f60;}</style></defs><title>base-design-icons</title><rect class="cls-1" x="4.04" y="77.17" width="241.92" height="22.4"/><path class="cls-2" d="M238.8,74.31H11.2L9.64,77.73h6.72c1.43,0,3.92,2.06,6.47,2.06H227.17c2.55,0,5-2.06,6.47-2.06h6.72Z"/><rect class="cls-1" x="4.04" y="7.73" width="241.92" height="22.4"/><path class="cls-2" d="M238.8,2.25H11.2L9.64,5.67h6.72c1.43,0,3.92,2.06,6.47,2.06H227.17c2.55,0,5-2.06,6.47-2.06h6.72Z"/><path class="cls-2" d="M50.14,49.27a6.17,6.17,0,0,1-6.38-6.34c0-3.88,3-6.26,6.54-6.26a7.42,7.42,0,0,1,4.26,1.22v2.22a6,6,0,0,0-4-1.48A4,4,0,0,0,46.3,43c0,2.7,1.7,4.4,4.1,4.4a5,5,0,0,0,2.32-.5V44.59H50.6v-1.8h4.46v5.3A12.29,12.29,0,0,1,50.14,49.27Z"/><path class="cls-2" d="M59.74,44.21v4.72H57.42V40.29h2.12l.1,1.58a3.63,3.63,0,0,1,3.22-1.82v2.26C61.28,41.93,59.74,42.73,59.74,44.21Z"/><path class="cls-2" d="M68.48,49.25a4.64,4.64,0,1,1,4.84-4.64A4.65,4.65,0,0,1,68.48,49.25Zm0-7.58c-1.56,0-2.58,1.2-2.58,2.94s1,2.94,2.58,2.94S71,46.37,71,44.61,70,41.67,68.48,41.67Z"/><path class="cls-2" d="M79.34,49.25a4.64,4.64,0,1,1,4.84-4.64A4.65,4.65,0,0,1,79.34,49.25Zm0-7.58c-1.56,0-2.58,1.2-2.58,2.94s1,2.94,2.58,2.94,2.56-1.18,2.56-2.94S80.88,41.67,79.34,41.67Z"/><path class="cls-2" d="M97.74,48.93V44.07c0-1.56-.42-2.16-1.48-2.16a2.18,2.18,0,0,0-2.12,2.2v4.82H91.82V44.07c0-1.56-.4-2.16-1.48-2.16a2.18,2.18,0,0,0-2.12,2.2v4.82H85.9V40.29H88l.1,1.6a3.51,3.51,0,0,1,3-1.84A2.56,2.56,0,0,1,93.92,42a3.79,3.79,0,0,1,3.18-1.94c2.3,0,3,1.6,3,3.74v5.14Z"/><path class="cls-2" d="M109.9,44.67h-5.76c-.06,1.32.62,2.82,2.94,2.82a4.64,4.64,0,0,0,2.8-1v1.68a5.79,5.79,0,0,1-3.52,1,4.56,4.56,0,0,1-.16-9.12c2.2,0,3.84,1.38,3.84,3.42A5.49,5.49,0,0,1,109.9,44.67Zm-3.64-3.14a2,2,0,0,0-2,1.9h3.7A1.56,1.56,0,0,0,106.26,41.53Z"/><path class="cls-2" d="M114.3,44.21v4.72H112V40.29h2.12l.1,1.58a3.63,3.63,0,0,1,3.22-1.82v2.26C115.84,41.93,114.3,42.73,114.3,44.21Z"/><path class="cls-2" d="M121.6,49.21a6.8,6.8,0,0,1-3.46-1l.38-1.6a5.94,5.94,0,0,0,3,1c.92,0,1.56-.28,1.56-1s-.66-.84-1.84-1.12c-2.12-.46-2.88-1.58-2.88-2.8S119.46,40,121.8,40a6.52,6.52,0,0,1,2.94.78l-.38,1.52a5,5,0,0,0-2.5-.72c-.94,0-1.4.32-1.4.84s.6.84,1.52,1.06c2.28.48,3.2,1.54,3.2,2.7C125.18,48.07,123.82,49.21,121.6,49.21Z"/><path class="cls-2" d="M137.66,48.93l-.08-1.38a3.92,3.92,0,0,1-3.22,1.62c-2.34,0-4.06-2-4.06-4.56s1.72-4.56,4.06-4.56a3.92,3.92,0,0,1,3.22,1.62l.08-1.38h2.1v8.64Zm-2.58-7.16a2.54,2.54,0,0,0-2.46,2.84,2.49,2.49,0,1,0,4.92,0A2.54,2.54,0,0,0,135.08,41.77Z"/><path class="cls-2" d="M148.3,48.93V44.15c0-1.68-.58-2.24-1.64-2.24a2.38,2.38,0,0,0-2.3,2.2v4.82H142V40.29h2.12l.1,1.6a3.68,3.68,0,0,1,3.2-1.84c2.3,0,3.16,1.6,3.16,3.74v5.14Z"/><path class="cls-2" d="M159.74,48.93l-.08-1.38a3.92,3.92,0,0,1-3.22,1.62c-2.34,0-4.06-2-4.06-4.56s1.72-4.56,4.06-4.56a3.92,3.92,0,0,1,3.08,1.42V36.92h2.32v12Zm-2.58-7.16a2.54,2.54,0,0,0-2.46,2.84,2.49,2.49,0,1,0,4.92,0A2.54,2.54,0,0,0,157.16,41.77Z"/><path class="cls-2" d="M178.08,48.93H175.4l-3.32-4.78h-1.5v4.78h-2.44v-12h4.72c2.84,0,4.06,1.69,4.06,3.63a3.27,3.27,0,0,1-2.4,3.34Zm-7.5-6.5h1.88c1.52,0,2.06-.8,2.06-1.86s-.54-1.9-2.06-1.9h-1.88Z"/><path class="cls-2" d="M186.32,48.93l-.08-1.38A3.92,3.92,0,0,1,183,49.17c-2.34,0-4.06-2-4.06-4.56s1.72-4.56,4.06-4.56a3.92,3.92,0,0,1,3.22,1.62l.08-1.38h2.1v8.64Zm-2.58-7.16a2.54,2.54,0,0,0-2.46,2.84,2.49,2.49,0,1,0,4.92,0A2.54,2.54,0,0,0,183.74,41.77Z"/><path class="cls-2" d="M190.7,38.83V36.92H193v1.91Zm0,10.1V40.29H193v8.64Z"/><path class="cls-2" d="M195.3,48.93v-12h2.32v12Z"/><path class="cls-2" d="M202.76,49.21a6.8,6.8,0,0,1-3.46-1l.38-1.6a5.94,5.94,0,0,0,3,1c.92,0,1.56-.28,1.56-1s-.66-.84-1.84-1.12c-2.12-.46-2.88-1.58-2.88-2.8S200.62,40,203,40a6.52,6.52,0,0,1,2.94.78l-.38,1.52a5,5,0,0,0-2.5-.72c-.94,0-1.4.32-1.4.84s.6.84,1.52,1.06c2.28.48,3.2,1.54,3.2,2.7C206.34,48.07,205,49.21,202.76,49.21Z"/><path class="cls-2" d="M99.42,114H97.3v4.36H94.86v-12h4.56c2.88,0,4.16,1.76,4.16,3.82S102.3,114,99.42,114Zm-.4-5.9H97.3v4.16H99a2.08,2.08,0,1,0,0-4.16Z"/><path class="cls-2" d="M109.2,118.69a4.64,4.64,0,1,1,4.84-4.64A4.65,4.65,0,0,1,109.2,118.69Zm0-7.58c-1.56,0-2.58,1.2-2.58,2.94s1,2.94,2.58,2.94,2.56-1.18,2.56-2.94S110.74,111.11,109.2,111.11Z"/><path class="cls-2" d="M125.16,118.37h-1.54l-2.06-5.2-2.08,5.2H118l-3.48-8.64h2.26l2.1,5.62,2.08-5.62h1.44l2.12,5.62,2.08-5.62h2.06Z"/><path class="cls-2" d="M136.7,118.37l-.08-1.38a3.92,3.92,0,0,1-3.22,1.62c-2.34,0-4.06-2-4.06-4.56s1.72-4.56,4.06-4.56a3.92,3.92,0,0,1,3.08,1.42v-4.54h2.32v12Zm-2.58-7.16a2.87,2.87,0,1,0,2.46,2.84A2.54,2.54,0,0,0,134.12,111.21Z"/><path class="cls-2" d="M148.66,114.11H142.9c-.06,1.32.62,2.82,2.94,2.82a4.64,4.64,0,0,0,2.8-1v1.68a5.79,5.79,0,0,1-3.52,1,4.56,4.56,0,0,1-.16-9.12c2.2,0,3.84,1.38,3.84,3.42A5.49,5.49,0,0,1,148.66,114.11ZM145,111a2,2,0,0,0-2,1.9h3.7A1.56,1.56,0,0,0,145,111Z"/><path class="cls-2" d="M153.06,113.65v4.72h-2.32v-8.64h2.12l.1,1.58a3.63,3.63,0,0,1,3.22-1.82v2.26C154.6,111.37,153.06,112.17,153.06,113.65Z"/></svg>