<svg id="Layer_1" data-name="Layer 1" xmlns="http://www.w3.org/2000/svg" viewBox="0 0 250 125"><defs><style>.cls-1{fill:#fff;}.cls-2{fill:#f16145;}</style></defs><title>base-design-icons</title><rect class="cls-1" x="4" y="78.49" width="242" height="22.41"/><path class="cls-2" d="M239.4,75.64H11.72l-1.56,3.41h6.72c1.44,0,3.93,2.06,6.48,2.06H92.2c2.55,0,5-2.06,6.47-2.06h53.78c1.43,0,3.92,2.06,6.47,2.06h68.84c2.55,0,5-2.06,6.48-2.06H241Z"/><rect class="cls-1" x="4" y="9.03" width="242" height="22.41"/><path class="cls-2" d="M239.4,3.55H11.72L10.16,7h6.72C18.32,7,20.81,9,23.36,9H92.2C94.75,9,97.24,7,98.67,7h53.78C153.88,7,156.37,9,158.92,9h68.84c2.55,0,5-2.06,6.48-2.06H241Z"/><path class="cls-1" d="M50.14,48.58a6.17,6.17,0,0,1-6.38-6.34c0-3.88,3-6.26,6.54-6.26a7.49,7.49,0,0,1,4.26,1.22v2.22a6,6,0,0,0-4-1.48,4,4,0,0,0-4.24,4.4c0,2.7,1.7,4.4,4.1,4.4a5,5,0,0,0,2.32-.5V43.9H50.6V42.1h4.46v5.3A12.29,12.29,0,0,1,50.14,48.58Z"/><path class="cls-1" d="M59.74,43.52v4.72H57.42V39.6h2.12l.1,1.58a3.63,3.63,0,0,1,3.22-1.82v2.26C61.28,41.24,59.74,42,59.74,43.52Z"/><path class="cls-1" d="M68.48,48.56a4.64,4.64,0,1,1,4.84-4.64A4.65,4.65,0,0,1,68.48,48.56Zm0-7.58c-1.56,0-2.58,1.2-2.58,2.94s1,2.94,2.58,2.94S71,45.68,71,43.92,70,41,68.48,41Z"/><path class="cls-1" d="M79.34,48.56a4.64,4.64,0,1,1,4.84-4.64A4.65,4.65,0,0,1,79.34,48.56Zm0-7.58c-1.56,0-2.58,1.2-2.58,2.94s1,2.94,2.58,2.94,2.56-1.18,2.56-2.94S80.88,41,79.34,41Z"/><path class="cls-1" d="M97.74,48.24V43.38c0-1.56-.42-2.16-1.48-2.16a2.18,2.18,0,0,0-2.12,2.2v4.82H91.82V43.38c0-1.56-.4-2.16-1.48-2.16a2.18,2.18,0,0,0-2.12,2.2v4.82H85.9V39.6H88l.1,1.6a3.51,3.51,0,0,1,3-1.84,2.56,2.56,0,0,1,2.76,1.94,3.79,3.79,0,0,1,3.18-1.94c2.3,0,3,1.6,3,3.74v5.14Z"/><path class="cls-1" d="M109.9,44h-5.76c-.06,1.32.62,2.82,2.94,2.82a4.64,4.64,0,0,0,2.8-1v1.68a5.79,5.79,0,0,1-3.52,1,4.56,4.56,0,0,1-.16-9.12c2.2,0,3.84,1.38,3.84,3.42A5.49,5.49,0,0,1,109.9,44Zm-3.64-3.14a2,2,0,0,0-2,1.9h3.7A1.56,1.56,0,0,0,106.26,40.84Z"/><path class="cls-1" d="M114.3,43.52v4.72H112V39.6h2.12l.1,1.58a3.63,3.63,0,0,1,3.22-1.82v2.26C115.84,41.24,114.3,42,114.3,43.52Z"/><path class="cls-1" d="M121.6,48.52a6.8,6.8,0,0,1-3.46-1l.38-1.6a5.94,5.94,0,0,0,3,1c.92,0,1.56-.28,1.56-1s-.66-.84-1.84-1.12c-2.12-.46-2.88-1.58-2.88-2.8s1.06-2.64,3.4-2.64a6.52,6.52,0,0,1,2.94.78l-.38,1.52a5,5,0,0,0-2.5-.72c-.94,0-1.4.32-1.4.84s.6.84,1.52,1.06c2.28.48,3.2,1.54,3.2,2.7C125.18,47.38,123.82,48.52,121.6,48.52Z"/><path class="cls-1" d="M137.66,48.24l-.08-1.38a3.92,3.92,0,0,1-3.22,1.62c-2.34,0-4.06-2-4.06-4.56s1.72-4.56,4.06-4.56A3.92,3.92,0,0,1,137.58,41l.08-1.38h2.1v8.64Zm-2.58-7.16a2.54,2.54,0,0,0-2.46,2.84,2.49,2.49,0,1,0,4.92,0A2.54,2.54,0,0,0,135.08,41.08Z"/><path class="cls-1" d="M148.3,48.24V43.46c0-1.68-.58-2.24-1.64-2.24a2.38,2.38,0,0,0-2.3,2.2v4.82H142V39.6h2.12l.1,1.6a3.68,3.68,0,0,1,3.2-1.84c2.3,0,3.16,1.6,3.16,3.74v5.14Z"/><path class="cls-1" d="M159.74,48.24l-.08-1.38a3.92,3.92,0,0,1-3.22,1.62c-2.34,0-4.06-2-4.06-4.56s1.72-4.56,4.06-4.56a3.92,3.92,0,0,1,3.08,1.42V36.24h2.32v12Zm-2.58-7.16a2.54,2.54,0,0,0-2.46,2.84,2.49,2.49,0,1,0,4.92,0A2.54,2.54,0,0,0,157.16,41.08Z"/><path class="cls-1" d="M178.08,48.24H175.4l-3.32-4.78h-1.5v4.78h-2.44v-12h4.72c2.84,0,4.06,1.68,4.06,3.62a3.27,3.27,0,0,1-2.4,3.34Zm-7.5-6.5h1.88c1.52,0,2.06-.8,2.06-1.86S174,38,172.46,38h-1.88Z"/><path class="cls-1" d="M186.32,48.24l-.08-1.38A3.92,3.92,0,0,1,183,48.48c-2.34,0-4.06-2-4.06-4.56s1.72-4.56,4.06-4.56A3.92,3.92,0,0,1,186.24,41l.08-1.38h2.1v8.64Zm-2.58-7.16a2.54,2.54,0,0,0-2.46,2.84,2.49,2.49,0,1,0,4.92,0A2.54,2.54,0,0,0,183.74,41.08Z"/><path class="cls-1" d="M190.7,38.14v-1.9H193v1.9Zm0,10.1V39.6H193v8.64Z"/><path class="cls-1" d="M195.3,48.24v-12h2.32v12Z"/><path class="cls-1" d="M202.76,48.52a6.8,6.8,0,0,1-3.46-1l.38-1.6a5.94,5.94,0,0,0,3,1c.92,0,1.56-.28,1.56-1s-.66-.84-1.84-1.12c-2.12-.46-2.88-1.58-2.88-2.8s1.06-2.64,3.4-2.64a6.52,6.52,0,0,1,2.94.78l-.38,1.52a5,5,0,0,0-2.5-.72c-.94,0-1.4.32-1.4.84s.6.84,1.52,1.06c2.28.48,3.2,1.54,3.2,2.7C206.34,47.38,205,48.52,202.76,48.52Z"/><path class="cls-1" d="M99.42,113.34H97.3v4.37H94.86v-12h4.56c2.88,0,4.16,1.76,4.16,3.82S102.3,113.34,99.42,113.34Zm-.4-5.9H97.3v4.16H99a2.08,2.08,0,1,0,0-4.16Z"/><path class="cls-1" d="M109.2,118a4.65,4.65,0,1,1,4.84-4.65A4.65,4.65,0,0,1,109.2,118Zm0-7.59c-1.56,0-2.58,1.2-2.58,2.94s1,3,2.58,3,2.56-1.18,2.56-3S110.74,110.44,109.2,110.44Z"/><path class="cls-1" d="M125.16,117.71h-1.54l-2.06-5.21-2.08,5.21H118l-3.48-8.65h2.26l2.1,5.63,2.08-5.63h1.44l2.12,5.63,2.08-5.63h2.06Z"/><path class="cls-1" d="M136.7,117.71l-.08-1.38A3.92,3.92,0,0,1,133.4,118c-2.34,0-4.06-2-4.06-4.57s1.72-4.56,4.06-4.56a3.92,3.92,0,0,1,3.08,1.42V105.7h2.32v12Zm-2.58-7.17a2.88,2.88,0,1,0,2.46,2.84A2.54,2.54,0,0,0,134.12,110.54Z"/><path class="cls-1" d="M148.66,113.45H142.9c-.06,1.32.62,2.82,2.94,2.82a4.64,4.64,0,0,0,2.8-1v1.68a5.79,5.79,0,0,1-3.52,1,4.57,4.57,0,0,1-.16-9.13c2.2,0,3.84,1.38,3.84,3.43A5.56,5.56,0,0,1,148.66,113.45ZM145,110.3a2,2,0,0,0-2,1.91h3.7A1.57,1.57,0,0,0,145,110.3Z"/><path class="cls-1" d="M153.06,113v4.72h-2.32v-8.65h2.12l.1,1.58a3.63,3.63,0,0,1,3.22-1.82v2.26C154.6,110.7,153.06,111.5,153.06,113Z"/></svg>