<svg id="Layer_1" data-name="Layer 1" xmlns="http://www.w3.org/2000/svg" viewBox="0 0 819.21 550.73"><defs><style>.cls-1,.cls-5{fill:none;stroke:#666;stroke-linecap:round;stroke-linejoin:round;stroke-width:0.77px;}.cls-2{font-size:20px;fill:#808285;font-family:MrEavesXLModOT-Reg, Mr Eaves XL Mod OT;}.cls-3{letter-spacing:0.02em;}.cls-4{letter-spacing:-0.02em;}.cls-5{stroke-dasharray:1 3 1 3 1 3;}.cls-6{letter-spacing:-0.01em;}.cls-7{letter-spacing:0em;}.cls-8{letter-spacing:-0.01em;}</style></defs><title>board-outlines-vertical</title><polyline class="cls-1" points="9.63 521.91 9.75 525.27 9.99 528.75 10.35 532.11 10.83 535.47"/><polyline class="cls-1" points="14.31 536.31 16.47 533.31 18.63 530.31 20.55 527.19 22.59 524.07 24.39 520.83 26.31 517.59 28.11 514.35 29.79 510.99 33.03 504.15 35.91 497.19 38.55 490.11 40.95 482.91"/><path class="cls-1" d="M22.64,79.72A83.12,83.12,0,0,0,19.14,113" transform="translate(-11.76 -21.99)"/><polyline class="cls-1" points="9.63 521.91 12.03 486.03 13.83 450.03 15.27 414.15 16.23 378.27 16.71 342.27 16.71 306.39 16.23 270.39 15.39 234.39 14.07 198.51 12.27 162.63 9.99 126.75 7.35 90.87"/><path class="cls-1" d="M22.5,557.5a2,2,0,0,0,3.54.83" transform="translate(-11.76 -21.99)"/><polyline class="cls-1" points="10.83 57.63 15.99 68.07 20.67 78.63 24.87 89.43 28.59 100.47 31.83 111.63 34.59 122.91 36.87 134.19 38.67 145.71 39.87 157.23 40.71 168.87 40.95 180.39 40.95 482.91"/><path class="cls-1" d="M57.5,249.6a3.42,3.42,0,1,0,3.42-3.42,3.42,3.42,0,0,0-3.42,3.42" transform="translate(-11.76 -21.99)"/><path class="cls-1" d="M59.18,249.6a1.74,1.74,0,1,0,1.74-1.74,1.74,1.74,0,0,0-1.74,1.74" transform="translate(-11.76 -21.99)"/><path class="cls-1" d="M57.5,235.56a3.42,3.42,0,1,0,3.42-3.42,3.42,3.42,0,0,0-3.42,3.42" transform="translate(-11.76 -21.99)"/><path class="cls-1" d="M59.18,235.56a1.74,1.74,0,1,0,1.74-1.74,1.74,1.74,0,0,0-1.74,1.74" transform="translate(-11.76 -21.99)"/><path class="cls-1" d="M57.5,221.4A3.42,3.42,0,1,0,60.92,218a3.42,3.42,0,0,0-3.42,3.42" transform="translate(-11.76 -21.99)"/><path class="cls-1" d="M59.18,221.4a1.74,1.74,0,1,0,1.74-1.74,1.74,1.74,0,0,0-1.74,1.74" transform="translate(-11.76 -21.99)"/><path class="cls-1" d="M57.5,207.36a3.42,3.42,0,1,0,3.42-3.42,3.42,3.42,0,0,0-3.42,3.42" transform="translate(-11.76 -21.99)"/><path class="cls-1" d="M59.18,207.36a1.74,1.74,0,1,0,1.74-1.74,1.74,1.74,0,0,0-1.74,1.74" transform="translate(-11.76 -21.99)"/><path class="cls-1" d="M71.54,249.6A3.42,3.42,0,1,0,75,246.18a3.42,3.42,0,0,0-3.42,3.42" transform="translate(-11.76 -21.99)"/><path class="cls-1" d="M73.22,249.6A1.74,1.74,0,1,0,75,247.86a1.74,1.74,0,0,0-1.74,1.74" transform="translate(-11.76 -21.99)"/><path class="cls-1" d="M71.54,235.56A3.42,3.42,0,1,0,75,232.14a3.42,3.42,0,0,0-3.42,3.42" transform="translate(-11.76 -21.99)"/><path class="cls-1" d="M73.22,235.56A1.74,1.74,0,1,0,75,233.82a1.74,1.74,0,0,0-1.74,1.74" transform="translate(-11.76 -21.99)"/><path class="cls-1" d="M71.54,221.4A3.42,3.42,0,1,0,75,218a3.42,3.42,0,0,0-3.42,3.42" transform="translate(-11.76 -21.99)"/><path class="cls-1" d="M73.22,221.4A1.74,1.74,0,1,0,75,219.66a1.74,1.74,0,0,0-1.74,1.74" transform="translate(-11.76 -21.99)"/><path class="cls-1" d="M71.54,207.36A3.42,3.42,0,1,0,75,203.94a3.42,3.42,0,0,0-3.42,3.42" transform="translate(-11.76 -21.99)"/><path class="cls-1" d="M73.22,207.36A1.74,1.74,0,1,0,75,205.62a1.74,1.74,0,0,0-1.74,1.74" transform="translate(-11.76 -21.99)"/><path class="cls-1" d="M57.5,242.64a3.42,3.42,0,1,0,3.42-3.42,3.42,3.42,0,0,0-3.42,3.42" transform="translate(-11.76 -21.99)"/><path class="cls-1" d="M59.18,242.64a1.74,1.74,0,1,0,1.74-1.74,1.74,1.74,0,0,0-1.74,1.74" transform="translate(-11.76 -21.99)"/><path class="cls-1" d="M57.5,228.48a3.42,3.42,0,1,0,3.42-3.42,3.42,3.42,0,0,0-3.42,3.42" transform="translate(-11.76 -21.99)"/><path class="cls-1" d="M59.18,228.48a1.74,1.74,0,1,0,1.74-1.74,1.74,1.74,0,0,0-1.74,1.74" transform="translate(-11.76 -21.99)"/><path class="cls-1" d="M57.5,214.44A3.42,3.42,0,1,0,60.92,211a3.42,3.42,0,0,0-3.42,3.42" transform="translate(-11.76 -21.99)"/><path class="cls-1" d="M59.18,214.44a1.74,1.74,0,1,0,1.74-1.74,1.74,1.74,0,0,0-1.74,1.74" transform="translate(-11.76 -21.99)"/><path class="cls-1" d="M71.54,242.64A3.42,3.42,0,1,0,75,239.22a3.42,3.42,0,0,0-3.42,3.42" transform="translate(-11.76 -21.99)"/><path class="cls-1" d="M73.22,242.64A1.74,1.74,0,1,0,75,240.9a1.74,1.74,0,0,0-1.74,1.74" transform="translate(-11.76 -21.99)"/><path class="cls-1" d="M71.54,228.48A3.42,3.42,0,1,0,75,225.06a3.42,3.42,0,0,0-3.42,3.42" transform="translate(-11.76 -21.99)"/><path class="cls-1" d="M73.22,228.48A1.74,1.74,0,1,0,75,226.74a1.74,1.74,0,0,0-1.74,1.74" transform="translate(-11.76 -21.99)"/><path class="cls-1" d="M71.54,214.44A3.42,3.42,0,1,0,75,211a3.42,3.42,0,0,0-3.42,3.42" transform="translate(-11.76 -21.99)"/><path class="cls-1" d="M73.22,214.44A1.74,1.74,0,1,0,75,212.7a1.74,1.74,0,0,0-1.74,1.74" transform="translate(-11.76 -21.99)"/><path class="cls-1" d="M71.54,454.08A3.42,3.42,0,1,0,75,450.66a3.42,3.42,0,0,0-3.42,3.42" transform="translate(-11.76 -21.99)"/><path class="cls-1" d="M73.22,454.08A1.74,1.74,0,1,0,75,452.34a1.74,1.74,0,0,0-1.74,1.74" transform="translate(-11.76 -21.99)"/><path class="cls-1" d="M57.5,454.08a3.42,3.42,0,1,0,3.42-3.42,3.42,3.42,0,0,0-3.42,3.42" transform="translate(-11.76 -21.99)"/><path class="cls-1" d="M59.18,454.08a1.74,1.74,0,1,0,1.74-1.74,1.74,1.74,0,0,0-1.74,1.74" transform="translate(-11.76 -21.99)"/><path class="cls-1" d="M57.5,439.92a3.42,3.42,0,1,0,3.42-3.42,3.42,3.42,0,0,0-3.42,3.42" transform="translate(-11.76 -21.99)"/><path class="cls-1" d="M59.18,439.92a1.74,1.74,0,1,0,1.74-1.74,1.74,1.74,0,0,0-1.74,1.74" transform="translate(-11.76 -21.99)"/><path class="cls-1" d="M57.5,425.88a3.42,3.42,0,1,0,3.42-3.42,3.42,3.42,0,0,0-3.42,3.42" transform="translate(-11.76 -21.99)"/><path class="cls-1" d="M59.18,425.88a1.74,1.74,0,1,0,1.74-1.74,1.74,1.74,0,0,0-1.74,1.74" transform="translate(-11.76 -21.99)"/><path class="cls-1" d="M57.5,411.72a3.42,3.42,0,1,0,3.42-3.42,3.42,3.42,0,0,0-3.42,3.42" transform="translate(-11.76 -21.99)"/><path class="cls-1" d="M59.18,411.72A1.74,1.74,0,1,0,60.92,410a1.74,1.74,0,0,0-1.74,1.74" transform="translate(-11.76 -21.99)"/><path class="cls-1" d="M71.54,439.92A3.42,3.42,0,1,0,75,436.5a3.42,3.42,0,0,0-3.42,3.42" transform="translate(-11.76 -21.99)"/><path class="cls-1" d="M73.22,439.92A1.74,1.74,0,1,0,75,438.18a1.74,1.74,0,0,0-1.74,1.74" transform="translate(-11.76 -21.99)"/><path class="cls-1" d="M71.54,425.88A3.42,3.42,0,1,0,75,422.46a3.42,3.42,0,0,0-3.42,3.42" transform="translate(-11.76 -21.99)"/><path class="cls-1" d="M73.22,425.88A1.74,1.74,0,1,0,75,424.14a1.74,1.74,0,0,0-1.74,1.74" transform="translate(-11.76 -21.99)"/><path class="cls-1" d="M71.54,411.72A3.42,3.42,0,1,0,75,408.3a3.42,3.42,0,0,0-3.42,3.42" transform="translate(-11.76 -21.99)"/><path class="cls-1" d="M73.22,411.72A1.74,1.74,0,1,0,75,410a1.74,1.74,0,0,0-1.74,1.74" transform="translate(-11.76 -21.99)"/><path class="cls-1" d="M59.18,447a1.74,1.74,0,1,0,1.74-1.74A1.74,1.74,0,0,0,59.18,447" transform="translate(-11.76 -21.99)"/><path class="cls-1" d="M57.5,447a3.42,3.42,0,1,0,3.42-3.42A3.42,3.42,0,0,0,57.5,447" transform="translate(-11.76 -21.99)"/><path class="cls-1" d="M59.18,432.84a1.74,1.74,0,1,0,1.74-1.74,1.74,1.74,0,0,0-1.74,1.74" transform="translate(-11.76 -21.99)"/><path class="cls-1" d="M57.5,432.84a3.42,3.42,0,1,0,3.42-3.42,3.42,3.42,0,0,0-3.42,3.42" transform="translate(-11.76 -21.99)"/><path class="cls-1" d="M59.18,418.8a1.74,1.74,0,1,0,1.74-1.74,1.74,1.74,0,0,0-1.74,1.74" transform="translate(-11.76 -21.99)"/><path class="cls-1" d="M57.5,418.8a3.42,3.42,0,1,0,3.42-3.42,3.42,3.42,0,0,0-3.42,3.42" transform="translate(-11.76 -21.99)"/><path class="cls-1" d="M73.22,447A1.74,1.74,0,1,0,75,445.26,1.74,1.74,0,0,0,73.22,447" transform="translate(-11.76 -21.99)"/><path class="cls-1" d="M71.54,447A3.42,3.42,0,1,0,75,443.58,3.42,3.42,0,0,0,71.54,447" transform="translate(-11.76 -21.99)"/><path class="cls-1" d="M73.22,432.84A1.74,1.74,0,1,0,75,431.1a1.74,1.74,0,0,0-1.74,1.74" transform="translate(-11.76 -21.99)"/><path class="cls-1" d="M71.54,432.84A3.42,3.42,0,1,0,75,429.42a3.42,3.42,0,0,0-3.42,3.42" transform="translate(-11.76 -21.99)"/><path class="cls-1" d="M73.22,418.8A1.74,1.74,0,1,0,75,417.06a1.74,1.74,0,0,0-1.74,1.74" transform="translate(-11.76 -21.99)"/><path class="cls-1" d="M71.54,418.8A3.42,3.42,0,1,0,75,415.38a3.42,3.42,0,0,0-3.42,3.42" transform="translate(-11.76 -21.99)"/><polyline class="cls-1" points="9.51 64.83 14.07 74.67 18.27 84.75 21.99 94.95 25.35 105.27 28.23 115.83 30.75 126.39 32.79 137.07 34.35 147.87 35.55 158.67 36.27 169.59 36.51 180.39 36.51 494.19"/><polyline class="cls-1" points="102.27 521.91 102.15 525.27 101.91 528.63 101.55 531.99 101.07 535.35"/><polyline class="cls-1" points="98.57 535.98 96.03 533.31 93.87 530.31 91.83 527.19 89.91 524.07 87.99 520.83 86.19 517.59 84.39 514.35 82.71 510.99 79.47 504.15 76.59 497.19 73.83 490.11 71.43 482.91"/><path class="cls-1" d="M116.75,113a83.09,83.09,0,0,0-3.51-33.27" transform="translate(-11.76 -21.99)"/><path class="cls-1" d="M110.33,558a1.38,1.38,0,0,0,1.43.52,1.36,1.36,0,0,0,1-1.1" transform="translate(-11.76 -21.99)"/><polyline class="cls-1" points="101.67 57.63 96.51 68.07 91.83 78.63 87.63 89.43 83.91 100.47 80.67 111.63 77.91 122.91 75.63 134.19 73.83 145.71 72.51 157.23 71.79 168.87 71.43 180.39 71.43 482.91"/><polyline class="cls-1" points="102.99 64.83 98.43 74.67 94.23 84.75 90.51 94.95 87.15 105.27 84.15 115.83 81.75 126.39 79.71 137.07 78.03 147.87 76.95 158.67 76.23 169.59 75.99 180.39 75.99 494.19"/><polyline class="cls-1" points="104.99 90.99 101.91 126.75 99.63 162.63 97.83 198.51 96.51 234.39 95.67 270.39 95.19 306.39 95.19 342.27 95.79 378.27 96.63 414.15 98.07 450.03 99.99 486.03 102.27 521.91"/><polyline class="cls-1" points="3.03 521.91 5.43 486.03 7.23 450.03 8.67 414.15 9.63 378.27 10.11 342.27 10.11 306.39 9.75 270.39 8.79 234.39 7.47 198.51 5.67 162.63 3.51 126.75 0.75 90.87"/><path class="cls-1" d="M58.59,25.11a101.81,101.81,0,0,0-29,26.55" transform="translate(-11.76 -21.99)"/><path class="cls-1" d="M29.63,51.63A89.51,89.51,0,0,0,12.52,113" transform="translate(-11.76 -21.99)"/><polyline class="cls-1" points="109.35 521.91 109.35 526.23 109.11 530.43 108.63 534.75 108.03 539.07 107.31 543.15 106.35 547.35"/><polyline class="cls-1" points="98.31 548.55 94.71 544.11 91.35 539.55 87.99 534.87 84.87 530.07 81.87 525.15 79.11 520.11 76.35 514.95 73.83 509.67 71.43 504.27 69.27 498.87 67.11 493.35 65.19 487.83 63.51 482.07 61.95 476.43 60.51 470.67 59.31 464.79"/><path class="cls-1" d="M110,570.62a4.74,4.74,0,0,0,8-1.24" transform="translate(-11.76 -21.99)"/><path class="cls-1" d="M106.22,51.66a101.87,101.87,0,0,0-29-26.56" transform="translate(-11.76 -21.99)"/><path class="cls-1" d="M123.37,113a89.48,89.48,0,0,0-17.11-61.34" transform="translate(-11.76 -21.99)"/><path class="cls-1" d="M77.21,25a18,18,0,0,0-18.65,0" transform="translate(-11.76 -21.99)"/><polyline class="cls-1" points="111.75 90.87 108.99 126.75 106.83 162.63 105.03 198.51 103.71 234.39 102.75 270.39 102.39 306.39 102.39 342.27 102.87 378.27 103.83 414.15 105.27 450.03 107.07 486.03 109.35 521.91"/><path class="cls-1" d="M70.89,486.85a3.06,3.06,0,0,0-6,0" transform="translate(-11.76 -21.99)"/><polyline class="cls-1" points="14.19 548.55 17.79 544.11 21.15 539.55 24.39 534.87 27.63 530.07 30.51 525.15 33.39 520.11 36.15 514.95 38.67 509.67 41.07 504.27 43.23 498.87 45.39 493.35 47.19 487.83 48.99 482.07 50.55 476.43 51.99 470.67 53.19 464.79"/><path class="cls-1" d="M17.89,569.38a4.74,4.74,0,0,0,8.05,1.24" transform="translate(-11.76 -21.99)"/><polyline class="cls-1" points="3.03 521.91 3.15 526.23 3.39 530.43 3.87 534.75 4.47 539.07 5.19 543.15 6.15 547.35"/><text class="cls-2" transform="translate(151.91 182.45)">So<tspan class="cls-3" x="20.04" y="0">f</tspan><tspan x="25.9" y="0">t </tspan><tspan class="cls-4" x="35.86" y="0">E</tspan><tspan x="44.86" y="0">dge</tspan></text><line class="cls-5" x1="147.37" y1="176.45" x2="109.99" y2="176.45"/><line class="cls-5" x1="119.37" y1="283.95" x2="56.99" y2="283.95"/><text class="cls-2" transform="translate(137.27 80.95)">P<tspan class="cls-6" x="9.36" y="0">o</tspan><tspan class="cls-7" x="19.86" y="0">w </tspan><tspan class="cls-8" x="37.7" y="0">F</tspan><tspan x="46.18" y="0">unnel</tspan></text><text class="cls-2" transform="translate(122.87 289.95)">P<tspan class="cls-6" x="9.36" y="0">o</tspan><tspan class="cls-7" x="19.86" y="0">w Channel</tspan></text><text class="cls-2" transform="translate(438.95 182.45)">So<tspan class="cls-3" x="20.04" y="0">f</tspan><tspan x="25.9" y="0">t </tspan><tspan class="cls-4" x="35.86" y="0">E</tspan><tspan x="44.86" y="0">dge</tspan></text><line class="cls-5" x1="434.41" y1="176.45" x2="396.03" y2="176.45"/><line class="cls-5" x1="417.41" y1="283.95" x2="344.03" y2="283.95"/><text class="cls-2" transform="translate(421.09 289.95)">Central Flex</text><line class="cls-5" x1="406.41" y1="74.95" x2="344.03" y2="74.95"/><line class="cls-5" x1="133.41" y1="74.95" x2="61.03" y2="74.95"/><text class="cls-2" transform="translate(409.91 80.95)">P<tspan class="cls-6" x="9.36" y="0">o</tspan><tspan class="cls-7" x="19.86" y="0">w Channel</tspan></text><text class="cls-2" transform="translate(743.11 182.45)">So<tspan class="cls-3" x="20.04" y="0">f</tspan><tspan x="25.9" y="0">t </tspan><tspan class="cls-4" x="35.86" y="0">E</tspan><tspan x="44.86" y="0">dge</tspan></text><line class="cls-5" x1="738.57" y1="176.45" x2="700.19" y2="176.45"/><line class="cls-5" x1="721.57" y1="283.95" x2="648.19" y2="283.95"/><text class="cls-2" transform="translate(725.25 289.95)">Central Flex</text><line class="cls-5" x1="730.57" y1="74.95" x2="648.19" y2="74.95"/><text class="cls-2" transform="translate(735.99 80.95)">Butter Pad</text><line class="cls-1" x1="330.96" y1="539.4" x2="330.96" y2="11.33"/><line class="cls-1" x1="326.45" y1="536.18" x2="326.45" y2="14.55"/><line class="cls-1" x1="361.61" y1="539.4" x2="361.61" y2="11.33"/><line class="cls-1" x1="366.12" y1="536.18" x2="366.12" y2="14.55"/><polyline class="cls-1" points="301.08 482.6 301.21 486.98 301.46 491.36 302.11 495.61 302.88 499.73 303.91 503.85 305.2 507.84 306.74 511.84 308.42 515.57 310.22 519.05 312.28 522.4 314.47 525.62 316.92 528.58 319.5 531.28 322.2 533.73 325.03 535.79 328 537.72 330.96 539.4"/><polyline class="cls-1" points="361.61 539.4 364.57 537.72 367.54 535.79 370.37 533.73 373.07 531.28 375.65 528.58 377.97 525.62 380.29 522.4 382.35 519.05 384.15 515.57 385.82 511.84 387.37 507.84 388.66 503.85 389.69 499.73 390.46 495.61 391.11 491.36 391.36 486.98 391.49 482.6"/><polyline class="cls-1" points="301.08 482.6 303.52 444.99 305.46 407.38 307 369.64 307.9 331.91 308.42 294.17 308.42 256.43 307.9 218.82 307 181.09 305.46 143.35 303.52 105.74 301.08 68"/><polyline class="cls-1" points="391.49 68 391.36 63.75 391.11 59.38 390.46 55.13 389.69 50.88 388.66 46.75 387.37 42.76 385.82 38.9 384.15 35.16 382.35 31.68 380.29 28.21 377.97 25.11 375.65 22.15 373.07 19.45 370.37 17 367.54 14.81 364.57 12.88 361.61 11.33"/><polyline class="cls-1" points="330.96 11.33 328 12.88 325.03 14.81 322.2 17 319.5 19.45 316.92 22.15 314.47 25.11 312.28 28.21 310.22 31.68 308.42 35.16 306.74 38.9 305.2 42.76 303.91 46.75 302.88 50.88 302.11 55.13 301.46 59.38 301.21 63.75 301.08 68"/><polyline class="cls-1" points="391.49 68 389.05 105.74 387.11 143.35 385.57 181.09 384.67 218.82 384.15 256.43 384.15 294.17 384.67 331.91 385.57 369.64 387.11 407.38 389.05 444.99 391.49 482.6"/><path class="cls-1" d="M347.48,426.74a3.42,3.42,0,1,0,3.42-3.42,3.42,3.42,0,0,0-3.42,3.42" transform="translate(-11.76 -21.99)"/><path class="cls-1" d="M349.16,426.74A1.74,1.74,0,1,0,350.9,425a1.73,1.73,0,0,0-1.74,1.74" transform="translate(-11.76 -21.99)"/><path class="cls-1" d="M347.48,412.57a3.42,3.42,0,1,0,3.42-3.41,3.42,3.42,0,0,0-3.42,3.41" transform="translate(-11.76 -21.99)"/><path class="cls-1" d="M349.16,412.57a1.74,1.74,0,1,0,1.74-1.74,1.73,1.73,0,0,0-1.74,1.74" transform="translate(-11.76 -21.99)"/><path class="cls-1" d="M347.48,398.4A3.42,3.42,0,1,0,350.9,395a3.41,3.41,0,0,0-3.42,3.41" transform="translate(-11.76 -21.99)"/><path class="cls-1" d="M349.16,398.4a1.74,1.74,0,1,0,1.74-1.74,1.73,1.73,0,0,0-1.74,1.74" transform="translate(-11.76 -21.99)"/><path class="cls-1" d="M347.48,384.23a3.42,3.42,0,1,0,3.42-3.41,3.42,3.42,0,0,0-3.42,3.41" transform="translate(-11.76 -21.99)"/><path class="cls-1" d="M349.16,384.23a1.74,1.74,0,1,0,1.74-1.74,1.73,1.73,0,0,0-1.74,1.74" transform="translate(-11.76 -21.99)"/><path class="cls-1" d="M361.65,426.74a3.42,3.42,0,1,0,3.41-3.42,3.41,3.41,0,0,0-3.41,3.42" transform="translate(-11.76 -21.99)"/><path class="cls-1" d="M363.32,426.74a1.74,1.74,0,1,0,1.74-1.74,1.73,1.73,0,0,0-1.74,1.74" transform="translate(-11.76 -21.99)"/><path class="cls-1" d="M361.65,412.57a3.42,3.42,0,1,0,3.41-3.41,3.41,3.41,0,0,0-3.41,3.41" transform="translate(-11.76 -21.99)"/><path class="cls-1" d="M363.32,412.57a1.74,1.74,0,1,0,1.74-1.74,1.74,1.74,0,0,0-1.74,1.74" transform="translate(-11.76 -21.99)"/><path class="cls-1" d="M361.65,398.27a3.42,3.42,0,1,0,3.41-3.41,3.42,3.42,0,0,0-3.41,3.41" transform="translate(-11.76 -21.99)"/><path class="cls-1" d="M363.32,398.27a1.74,1.74,0,1,0,1.74-1.74,1.74,1.74,0,0,0-1.74,1.74" transform="translate(-11.76 -21.99)"/><path class="cls-1" d="M361.65,384.23a3.42,3.42,0,1,0,3.41-3.41,3.42,3.42,0,0,0-3.41,3.41" transform="translate(-11.76 -21.99)"/><path class="cls-1" d="M363.32,384.23a1.74,1.74,0,1,0,1.74-1.74,1.74,1.74,0,0,0-1.74,1.74" transform="translate(-11.76 -21.99)"/><path class="cls-1" d="M347.48,210.62a3.42,3.42,0,1,0,3.42-3.42,3.42,3.42,0,0,0-3.42,3.42" transform="translate(-11.76 -21.99)"/><path class="cls-1" d="M349.16,210.62a1.74,1.74,0,1,0,1.74-1.74,1.73,1.73,0,0,0-1.74,1.74" transform="translate(-11.76 -21.99)"/><path class="cls-1" d="M347.48,196.45A3.42,3.42,0,1,0,350.9,193a3.42,3.42,0,0,0-3.42,3.41" transform="translate(-11.76 -21.99)"/><path class="cls-1" d="M349.16,196.45a1.74,1.74,0,1,0,1.74-1.74,1.73,1.73,0,0,0-1.74,1.74" transform="translate(-11.76 -21.99)"/><path class="cls-1" d="M347.48,182.28a3.42,3.42,0,1,0,3.42-3.41,3.41,3.41,0,0,0-3.42,3.41" transform="translate(-11.76 -21.99)"/><path class="cls-1" d="M349.16,182.28a1.74,1.74,0,1,0,1.74-1.74,1.73,1.73,0,0,0-1.74,1.74" transform="translate(-11.76 -21.99)"/><path class="cls-1" d="M347.48,168.11a3.42,3.42,0,1,0,3.42-3.41,3.42,3.42,0,0,0-3.42,3.41" transform="translate(-11.76 -21.99)"/><path class="cls-1" d="M349.16,168.11a1.74,1.74,0,1,0,1.74-1.74,1.73,1.73,0,0,0-1.74,1.74" transform="translate(-11.76 -21.99)"/><path class="cls-1" d="M361.65,210.62a3.42,3.42,0,1,0,3.41-3.42,3.41,3.41,0,0,0-3.41,3.42" transform="translate(-11.76 -21.99)"/><path class="cls-1" d="M363.32,210.62a1.74,1.74,0,1,0,1.74-1.74,1.73,1.73,0,0,0-1.74,1.74" transform="translate(-11.76 -21.99)"/><path class="cls-1" d="M361.65,196.32a3.42,3.42,0,1,0,3.41-3.41,3.41,3.41,0,0,0-3.41,3.41" transform="translate(-11.76 -21.99)"/><path class="cls-1" d="M363.32,196.32a1.74,1.74,0,1,0,1.74-1.74,1.74,1.74,0,0,0-1.74,1.74" transform="translate(-11.76 -21.99)"/><path class="cls-1" d="M361.65,182.28a3.42,3.42,0,1,0,3.41-3.41,3.41,3.41,0,0,0-3.41,3.41" transform="translate(-11.76 -21.99)"/><path class="cls-1" d="M363.32,182.28a1.74,1.74,0,1,0,1.74-1.74,1.74,1.74,0,0,0-1.74,1.74" transform="translate(-11.76 -21.99)"/><path class="cls-1" d="M361.65,168.11a3.42,3.42,0,1,0,3.41-3.41,3.42,3.42,0,0,0-3.41,3.41" transform="translate(-11.76 -21.99)"/><path class="cls-1" d="M363.32,168.11a1.74,1.74,0,1,0,1.74-1.74,1.74,1.74,0,0,0-1.74,1.74" transform="translate(-11.76 -21.99)"/><path class="cls-1" d="M349.16,419.65a1.74,1.74,0,1,0,1.74-1.74,1.73,1.73,0,0,0-1.74,1.74" transform="translate(-11.76 -21.99)"/><path class="cls-1" d="M347.48,419.65a3.42,3.42,0,1,0,3.42-3.41,3.42,3.42,0,0,0-3.42,3.41" transform="translate(-11.76 -21.99)"/><path class="cls-1" d="M349.16,405.48a1.74,1.74,0,1,0,1.74-1.73,1.73,1.73,0,0,0-1.74,1.73" transform="translate(-11.76 -21.99)"/><path class="cls-1" d="M347.48,405.48a3.42,3.42,0,1,0,3.42-3.41,3.42,3.42,0,0,0-3.42,3.41" transform="translate(-11.76 -21.99)"/><path class="cls-1" d="M349.16,391.19a1.74,1.74,0,1,0,1.74-1.74,1.73,1.73,0,0,0-1.74,1.74" transform="translate(-11.76 -21.99)"/><path class="cls-1" d="M347.48,391.19a3.42,3.42,0,1,0,3.42-3.41,3.42,3.42,0,0,0-3.42,3.41" transform="translate(-11.76 -21.99)"/><path class="cls-1" d="M363.32,419.65a1.74,1.74,0,1,0,1.74-1.74,1.74,1.74,0,0,0-1.74,1.74" transform="translate(-11.76 -21.99)"/><path class="cls-1" d="M361.65,419.65a3.42,3.42,0,1,0,3.41-3.41,3.42,3.42,0,0,0-3.41,3.41" transform="translate(-11.76 -21.99)"/><path class="cls-1" d="M363.32,405.48a1.74,1.74,0,1,0,1.74-1.73,1.74,1.74,0,0,0-1.74,1.73" transform="translate(-11.76 -21.99)"/><path class="cls-1" d="M361.65,405.48a3.42,3.42,0,1,0,3.41-3.41,3.42,3.42,0,0,0-3.41,3.41" transform="translate(-11.76 -21.99)"/><path class="cls-1" d="M363.32,391.19a1.74,1.74,0,1,0,1.74-1.74,1.74,1.74,0,0,0-1.74,1.74" transform="translate(-11.76 -21.99)"/><path class="cls-1" d="M361.65,391.19a3.42,3.42,0,1,0,3.41-3.41,3.41,3.41,0,0,0-3.41,3.41" transform="translate(-11.76 -21.99)"/><path class="cls-1" d="M347.48,203.53a3.42,3.42,0,1,0,3.42-3.41,3.42,3.42,0,0,0-3.42,3.41" transform="translate(-11.76 -21.99)"/><path class="cls-1" d="M349.16,203.53a1.74,1.74,0,1,0,1.74-1.74,1.73,1.73,0,0,0-1.74,1.74" transform="translate(-11.76 -21.99)"/><path class="cls-1" d="M347.48,189.36A3.42,3.42,0,1,0,350.9,186a3.42,3.42,0,0,0-3.42,3.41" transform="translate(-11.76 -21.99)"/><path class="cls-1" d="M349.16,189.36a1.74,1.74,0,1,0,1.74-1.73,1.73,1.73,0,0,0-1.74,1.73" transform="translate(-11.76 -21.99)"/><path class="cls-1" d="M347.48,175.2a3.42,3.42,0,1,0,3.42-3.42,3.42,3.42,0,0,0-3.42,3.42" transform="translate(-11.76 -21.99)"/><path class="cls-1" d="M349.16,175.2a1.74,1.74,0,1,0,1.74-1.74,1.73,1.73,0,0,0-1.74,1.74" transform="translate(-11.76 -21.99)"/><path class="cls-1" d="M361.65,203.53a3.42,3.42,0,1,0,3.41-3.41,3.42,3.42,0,0,0-3.41,3.41" transform="translate(-11.76 -21.99)"/><path class="cls-1" d="M363.32,203.53a1.74,1.74,0,1,0,1.74-1.74,1.74,1.74,0,0,0-1.74,1.74" transform="translate(-11.76 -21.99)"/><path class="cls-1" d="M361.65,189.24a3.42,3.42,0,1,0,3.41-3.42,3.41,3.41,0,0,0-3.41,3.42" transform="translate(-11.76 -21.99)"/><path class="cls-1" d="M363.32,189.24a1.74,1.74,0,1,0,1.74-1.74,1.73,1.73,0,0,0-1.74,1.74" transform="translate(-11.76 -21.99)"/><path class="cls-1" d="M361.65,175.2a3.42,3.42,0,1,0,3.41-3.42,3.41,3.41,0,0,0-3.41,3.42" transform="translate(-11.76 -21.99)"/><path class="cls-1" d="M363.32,175.2a1.74,1.74,0,1,0,1.74-1.74,1.74,1.74,0,0,0-1.74,1.74" transform="translate(-11.76 -21.99)"/><polyline class="cls-1" points="398.19 67.62 397.93 62.85 397.55 58.22 396.9 53.58 396 48.94 394.97 44.56 393.55 40.18 392.01 35.93 390.08 31.81 388.14 27.95 385.82 24.34 383.51 20.74 380.8 17.52 378.1 14.55 375.13 11.72 372.04 9.27 368.95 7.08 365.6 5.15 362.26 3.61 358.78 2.32 355.3 1.29 351.69 0.64 348.09 0.39 344.48 0.39 340.88 0.64 337.27 1.29 333.79 2.32 330.31 3.61 326.96 5.15 323.62 7.08 320.4 9.27 317.43 11.72 314.47 14.55 311.77 17.52 309.06 20.74 306.74 24.34 304.43 27.95 302.49 31.81 300.56 35.93 299.02 40.18 297.6 44.56 296.57 48.94 295.67 53.58 295.02 58.22 294.51 62.85 294.38 67.62"/><polyline class="cls-1" points="294.38 483.12 294.51 487.88 295.02 492.52 295.67 497.15 296.57 501.66 297.6 506.17 299.02 510.55 300.56 514.8 302.49 518.79 304.43 522.65 306.74 526.39 309.06 529.87 311.77 533.22 314.47 536.18 317.43 538.88 320.4 541.46 323.62 543.65 326.96 545.58 330.31 547.13 333.79 548.41 337.27 549.45 340.88 550.09 344.48 550.35 348.09 550.35 351.69 550.09 355.3 549.45 358.78 548.41 362.26 547.13 365.6 545.58 368.95 543.65 372.04 541.46 375.13 538.88 378.1 536.18 380.8 533.22 383.51 529.87 385.82 526.39 388.14 522.65 390.08 518.79 392.01 514.8 393.55 510.55 394.97 506.17 396 501.66 396.9 497.15 397.55 492.52 397.93 487.88 398.19 483.12"/><polyline class="cls-1" points="294.51 482.21 296.96 444.61 298.89 407 300.31 369.39 301.33 331.78 301.85 294.17 301.85 256.56 301.33 218.95 300.31 181.22 298.89 143.61 296.96 106.13 294.51 68.52"/><polyline class="cls-1" points="398.06 68.52 395.61 106.13 393.68 143.61 392.26 181.22 391.24 218.95 390.72 256.56 390.72 294.17 391.24 331.78 392.26 369.39 393.68 407 395.61 444.61 398.06 482.21"/><path class="cls-1" d="M306.17,504.28q0,.48,0,1" transform="translate(-11.76 -21.99)"/><path class="cls-1" d="M409.82,505.24q0-.48,0-1" transform="translate(-11.76 -21.99)"/><path class="cls-1" d="M409.79,90.57q0-.48,0-1" transform="translate(-11.76 -21.99)"/><path class="cls-1" d="M306.14,89.61q0,.48,0,1" transform="translate(-11.76 -21.99)"/><polyline class="cls-1" points="696.37 73.35 693.85 110.79 691.93 148.23 690.49 185.79 689.53 223.23 689.05 260.79 689.05 298.23 689.53 335.79 690.49 373.35 691.93 410.79 693.85 448.23 696.37 485.67"/><polyline class="cls-1" points="606.37 485.67 608.77 448.23 610.81 410.79 612.25 373.35 613.21 335.79 613.69 298.23 613.69 260.79 613.21 223.23 612.25 185.79 610.81 148.23 608.77 110.79 606.37 73.35"/><polyline class="cls-1" points="696.37 485.67 696.25 489.99 695.89 494.19 695.29 498.39 694.57 502.47 693.49 506.55 692.29 510.39 690.97 514.23 689.29 517.95 687.49 521.43 685.45 524.79 683.29 527.91 681.01 530.79"/><polyline class="cls-1" points="621.61 530.79 619.33 527.91 617.17 524.79 615.25 521.43 613.33 517.95 611.77 514.23 610.33 510.39 609.13 506.55 608.17 502.47 607.33 498.39 606.85 494.19 606.49 489.99 606.37 485.67"/><line class="cls-1" x1="631.09" y1="535.11" x2="671.65" y2="535.11"/><path class="cls-1" d="M683.46,557a12.3,12.3,0,0,0,9.36-4.31" transform="translate(-11.76 -21.99)"/><path class="cls-1" d="M633.55,552.67A12.3,12.3,0,0,0,642.9,557" transform="translate(-11.76 -21.99)"/><polyline class="cls-1" points="696.37 73.35 696.25 69.03 695.89 64.83 695.29 60.63 694.57 56.55 693.49 52.47 692.29 48.63 690.97 44.79 689.29 41.07 687.49 37.59 685.45 34.35 683.29 31.23 681.01 28.23"/><polyline class="cls-1" points="621.61 28.23 619.33 31.23 617.17 34.35 615.25 37.59 613.33 41.07 611.77 44.79 610.33 48.63 609.13 52.47 608.17 56.55 607.33 60.63 606.85 64.83 606.49 69.03 606.37 73.35"/><line class="cls-1" x1="631.09" y1="23.91" x2="671.65" y2="23.91"/><path class="cls-1" d="M692.82,50.21a12.3,12.3,0,0,0-9.36-4.31" transform="translate(-11.76 -21.99)"/><path class="cls-1" d="M642.9,45.9a12.3,12.3,0,0,0-9.35,4.31" transform="translate(-11.76 -21.99)"/><path class="cls-1" d="M673.68,187a3.42,3.42,0,1,0-3.42,3.42,3.42,3.42,0,0,0,3.42-3.42" transform="translate(-11.76 -21.99)"/><path class="cls-1" d="M672,187a1.75,1.75,0,1,0-1.75,1.74A1.74,1.74,0,0,0,672,187" transform="translate(-11.76 -21.99)"/><path class="cls-1" d="M673.68,201a3.42,3.42,0,1,0-3.42,3.42,3.42,3.42,0,0,0,3.42-3.42" transform="translate(-11.76 -21.99)"/><path class="cls-1" d="M672,201a1.75,1.75,0,1,0-1.75,1.74A1.74,1.74,0,0,0,672,201" transform="translate(-11.76 -21.99)"/><path class="cls-1" d="M673.68,215a3.42,3.42,0,1,0-3.42,3.42,3.42,3.42,0,0,0,3.42-3.42" transform="translate(-11.76 -21.99)"/><path class="cls-1" d="M672,215a1.75,1.75,0,1,0-1.75,1.74A1.74,1.74,0,0,0,672,215" transform="translate(-11.76 -21.99)"/><path class="cls-1" d="M659.52,187a3.42,3.42,0,1,0-3.41,3.42,3.42,3.42,0,0,0,3.41-3.42" transform="translate(-11.76 -21.99)"/><path class="cls-1" d="M657.84,187a1.74,1.74,0,1,0-1.73,1.74,1.73,1.73,0,0,0,1.73-1.74" transform="translate(-11.76 -21.99)"/><path class="cls-1" d="M659.52,201.12a3.42,3.42,0,1,0-3.41,3.42,3.42,3.42,0,0,0,3.41-3.42" transform="translate(-11.76 -21.99)"/><path class="cls-1" d="M657.84,201.12a1.74,1.74,0,1,0-1.73,1.74,1.73,1.73,0,0,0,1.73-1.74" transform="translate(-11.76 -21.99)"/><path class="cls-1" d="M659.52,215a3.42,3.42,0,1,0-3.41,3.42,3.42,3.42,0,0,0,3.41-3.42" transform="translate(-11.76 -21.99)"/><path class="cls-1" d="M657.84,215a1.74,1.74,0,1,0-1.73,1.74,1.73,1.73,0,0,0,1.73-1.74" transform="translate(-11.76 -21.99)"/><path class="cls-1" d="M673.68,387.84a3.42,3.42,0,1,0-3.42,3.42,3.42,3.42,0,0,0,3.42-3.42" transform="translate(-11.76 -21.99)"/><path class="cls-1" d="M672,387.84a1.75,1.75,0,1,0-1.75,1.74,1.74,1.74,0,0,0,1.75-1.74" transform="translate(-11.76 -21.99)"/><path class="cls-1" d="M673.68,401.88a3.42,3.42,0,1,0-3.42,3.42,3.42,3.42,0,0,0,3.42-3.42" transform="translate(-11.76 -21.99)"/><path class="cls-1" d="M672,401.88a1.75,1.75,0,1,0-1.75,1.74,1.74,1.74,0,0,0,1.75-1.74" transform="translate(-11.76 -21.99)"/><path class="cls-1" d="M673.68,416a3.42,3.42,0,1,0-3.42,3.42,3.42,3.42,0,0,0,3.42-3.42" transform="translate(-11.76 -21.99)"/><path class="cls-1" d="M672,416a1.75,1.75,0,1,0-1.75,1.74A1.74,1.74,0,0,0,672,416" transform="translate(-11.76 -21.99)"/><path class="cls-1" d="M659.52,387.84a3.42,3.42,0,1,0-3.41,3.42,3.42,3.42,0,0,0,3.41-3.42" transform="translate(-11.76 -21.99)"/><path class="cls-1" d="M657.84,387.84a1.74,1.74,0,1,0-1.73,1.74,1.73,1.73,0,0,0,1.73-1.74" transform="translate(-11.76 -21.99)"/><path class="cls-1" d="M659.52,402a3.42,3.42,0,1,0-3.41,3.42,3.42,3.42,0,0,0,3.41-3.42" transform="translate(-11.76 -21.99)"/><path class="cls-1" d="M657.84,402a1.74,1.74,0,1,0-1.73,1.74,1.73,1.73,0,0,0,1.73-1.74" transform="translate(-11.76 -21.99)"/><path class="cls-1" d="M659.52,416a3.42,3.42,0,1,0-3.41,3.42,3.42,3.42,0,0,0,3.41-3.42" transform="translate(-11.76 -21.99)"/><path class="cls-1" d="M657.84,416a1.74,1.74,0,1,0-1.73,1.74,1.73,1.73,0,0,0,1.73-1.74" transform="translate(-11.76 -21.99)"/><path class="cls-1" d="M672,179.88a1.75,1.75,0,1,0-1.75,1.74,1.74,1.74,0,0,0,1.75-1.74" transform="translate(-11.76 -21.99)"/><path class="cls-1" d="M673.68,179.88a3.42,3.42,0,1,0-3.42,3.42,3.42,3.42,0,0,0,3.42-3.42" transform="translate(-11.76 -21.99)"/><path class="cls-1" d="M672,194a1.75,1.75,0,1,0-1.75,1.74A1.74,1.74,0,0,0,672,194" transform="translate(-11.76 -21.99)"/><path class="cls-1" d="M673.68,194a3.42,3.42,0,1,0-3.42,3.42,3.42,3.42,0,0,0,3.42-3.42" transform="translate(-11.76 -21.99)"/><path class="cls-1" d="M672,208.08a1.75,1.75,0,1,0-1.75,1.74,1.74,1.74,0,0,0,1.75-1.74" transform="translate(-11.76 -21.99)"/><path class="cls-1" d="M673.68,208.08a3.42,3.42,0,1,0-3.42,3.42,3.42,3.42,0,0,0,3.42-3.42" transform="translate(-11.76 -21.99)"/><path class="cls-1" d="M657.84,179.88a1.74,1.74,0,1,0-1.73,1.74,1.73,1.73,0,0,0,1.73-1.74" transform="translate(-11.76 -21.99)"/><path class="cls-1" d="M659.52,179.88a3.42,3.42,0,1,0-3.41,3.42,3.42,3.42,0,0,0,3.41-3.42" transform="translate(-11.76 -21.99)"/><path class="cls-1" d="M657.84,194a1.74,1.74,0,1,0-1.73,1.74,1.73,1.73,0,0,0,1.73-1.74" transform="translate(-11.76 -21.99)"/><path class="cls-1" d="M659.52,194a3.42,3.42,0,1,0-3.41,3.42,3.42,3.42,0,0,0,3.41-3.42" transform="translate(-11.76 -21.99)"/><path class="cls-1" d="M657.84,208.08a1.74,1.74,0,1,0-1.73,1.74,1.73,1.73,0,0,0,1.73-1.74" transform="translate(-11.76 -21.99)"/><path class="cls-1" d="M659.52,208.08a3.42,3.42,0,1,0-3.41,3.42,3.42,3.42,0,0,0,3.41-3.42" transform="translate(-11.76 -21.99)"/><path class="cls-1" d="M673.68,394.8a3.42,3.42,0,1,0-3.42,3.42,3.42,3.42,0,0,0,3.42-3.42" transform="translate(-11.76 -21.99)"/><path class="cls-1" d="M672,394.8a1.75,1.75,0,1,0-1.75,1.74A1.74,1.74,0,0,0,672,394.8" transform="translate(-11.76 -21.99)"/><path class="cls-1" d="M673.68,408.84a3.42,3.42,0,1,0-3.42,3.42,3.42,3.42,0,0,0,3.42-3.42" transform="translate(-11.76 -21.99)"/><path class="cls-1" d="M672,408.84a1.75,1.75,0,1,0-1.75,1.74,1.74,1.74,0,0,0,1.75-1.74" transform="translate(-11.76 -21.99)"/><path class="cls-1" d="M673.68,423a3.42,3.42,0,1,0-3.42,3.42,3.42,3.42,0,0,0,3.42-3.42" transform="translate(-11.76 -21.99)"/><path class="cls-1" d="M672,423a1.75,1.75,0,1,0-1.75,1.74A1.74,1.74,0,0,0,672,423" transform="translate(-11.76 -21.99)"/><path class="cls-1" d="M659.52,394.8a3.42,3.42,0,1,0-3.41,3.42,3.42,3.42,0,0,0,3.41-3.42" transform="translate(-11.76 -21.99)"/><path class="cls-1" d="M657.84,394.8a1.74,1.74,0,1,0-1.73,1.74,1.73,1.73,0,0,0,1.73-1.74" transform="translate(-11.76 -21.99)"/><path class="cls-1" d="M659.52,409a3.42,3.42,0,1,0-3.41,3.42,3.42,3.42,0,0,0,3.41-3.42" transform="translate(-11.76 -21.99)"/><path class="cls-1" d="M657.84,409a1.74,1.74,0,1,0-1.73,1.74,1.73,1.73,0,0,0,1.73-1.74" transform="translate(-11.76 -21.99)"/><path class="cls-1" d="M659.52,423a3.42,3.42,0,1,0-3.41,3.42,3.42,3.42,0,0,0,3.41-3.42" transform="translate(-11.76 -21.99)"/><path class="cls-1" d="M657.84,423a1.74,1.74,0,1,0-1.73,1.74,1.73,1.73,0,0,0,1.73-1.74" transform="translate(-11.76 -21.99)"/><path class="cls-1" d="M673.68,222.12a3.42,3.42,0,1,0-3.42,3.42,3.42,3.42,0,0,0,3.42-3.42" transform="translate(-11.76 -21.99)"/><path class="cls-1" d="M672,222.12a1.75,1.75,0,1,0-1.75,1.74,1.74,1.74,0,0,0,1.75-1.74" transform="translate(-11.76 -21.99)"/><path class="cls-1" d="M659.52,222.12a3.42,3.42,0,1,0-3.41,3.42,3.42,3.42,0,0,0,3.41-3.42" transform="translate(-11.76 -21.99)"/><path class="cls-1" d="M657.84,222.12a1.74,1.74,0,1,0-1.73,1.74,1.73,1.73,0,0,0,1.73-1.74" transform="translate(-11.76 -21.99)"/><path class="cls-1" d="M673.68,380.76a3.42,3.42,0,1,0-3.42,3.42,3.42,3.42,0,0,0,3.42-3.42" transform="translate(-11.76 -21.99)"/><path class="cls-1" d="M672,380.76a1.75,1.75,0,1,0-1.75,1.74,1.74,1.74,0,0,0,1.75-1.74" transform="translate(-11.76 -21.99)"/><path class="cls-1" d="M659.52,380.76a3.42,3.42,0,1,0-3.41,3.42,3.42,3.42,0,0,0,3.41-3.42" transform="translate(-11.76 -21.99)"/><path class="cls-1" d="M657.84,380.76a1.74,1.74,0,1,0-1.73,1.74,1.73,1.73,0,0,0,1.73-1.74" transform="translate(-11.76 -21.99)"/><polyline class="cls-1" points="702.85 73.83 700.45 111.15 698.53 148.59 697.09 185.91 696.13 223.35 695.65 260.79 695.65 298.23 696.13 335.67 697.09 373.11 698.53 410.55 700.45 447.87 702.85 485.19"/><polyline class="cls-1" points="599.77 485.19 602.17 447.87 604.21 410.55 605.65 373.11 606.61 335.67 607.09 298.23 607.09 260.79 606.61 223.35 605.65 185.91 604.21 148.59 602.17 111.15 599.77 73.83"/><polyline class="cls-1" points="702.97 486.15 702.85 490.59 702.49 494.79 701.89 499.11 701.17 503.31 700.21 507.51 699.01 511.59 697.57 515.43 696.01 519.27 694.33 522.99 692.41 526.59 690.25 529.95 688.09 533.07 685.69 536.07 683.05 538.83"/><polyline class="cls-1" points="619.57 538.83 617.05 536.07 614.65 533.07 612.37 529.95 610.33 526.59 608.41 522.99 606.61 519.27 605.05 515.43 603.73 511.59 602.53 507.51 601.57 503.31 600.73 499.11 600.25 494.79 599.89 490.59 599.77 486.15"/><line class="cls-1" x1="674.29" y1="542.55" x2="628.45" y2="542.55"/><path class="cls-1" d="M686.11,564.42a12.29,12.29,0,0,0,8.78-3.69" transform="translate(-11.76 -21.99)"/><path class="cls-1" d="M631.48,560.73a12.29,12.29,0,0,0,8.78,3.69" transform="translate(-11.76 -21.99)"/><polyline class="cls-1" points="702.97 72.87 702.85 68.55 702.49 64.23 701.89 59.91 701.17 55.71 700.21 51.51 699.01 47.55 697.57 43.59 696.01 39.75 694.33 36.03 692.41 32.55 690.25 29.19 688.09 25.95 685.69 22.95 683.05 20.19"/><polyline class="cls-1" points="619.57 20.19 617.05 22.95 614.65 25.95 612.37 29.19 610.33 32.55 608.41 36.03 606.61 39.75 605.05 43.59 603.73 47.55 602.53 51.51 601.57 55.71 600.73 59.91 600.25 64.23 599.89 68.55 599.77 72.87"/><line class="cls-1" x1="674.29" y1="16.47" x2="628.45" y2="16.47"/><path class="cls-1" d="M694.89,42.15a12.29,12.29,0,0,0-8.78-3.69" transform="translate(-11.76 -21.99)"/><path class="cls-1" d="M640.26,38.46a12.29,12.29,0,0,0-8.78,3.69" transform="translate(-11.76 -21.99)"/><path class="cls-1" d="M714.69,95.68a7.54,7.54,0,0,0,0-1" transform="translate(-11.76 -21.99)"/><path class="cls-1" d="M714.72,508.15a7.54,7.54,0,0,0,0-.95" transform="translate(-11.76 -21.99)"/><path class="cls-1" d="M611.65,94.73a7.54,7.54,0,0,0,0,1" transform="translate(-11.76 -21.99)"/><path class="cls-1" d="M611.68,507.2a7.54,7.54,0,0,0,0,.95" transform="translate(-11.76 -21.99)"/></svg>