<svg id="Layer_1" data-name="Layer 1" xmlns="http://www.w3.org/2000/svg" viewBox="0 0 250 600"><defs><style>.cls-1{fill:#f16145;}.cls-2{fill:#3e4f60;}.cls-3{fill:#4d6479;}.cls-4,.cls-6{fill:none;stroke:#666;stroke-linecap:round;stroke-linejoin:round;stroke-width:0.77px;}.cls-5{fill:#fff;}.cls-6{stroke-dasharray:1 3 1 3 1 3;}</style></defs><title>board-outlines-vertical-color</title><rect class="cls-1" x="159.13" y="181.37" width="88.46" height="36.02"/><rect class="cls-2" x="145.17" y="78.94" width="102.42" height="36.02"/><rect class="cls-3" x="131.13" y="287.93" width="116.46" height="36.02"/><polyline class="cls-4" points="21.39 543.9 21.5 547.26 21.75 550.74 22.11 554.1 22.59 557.46"/><polyline class="cls-4" points="26.07 558.3 28.23 555.3 30.39 552.3 32.3 549.18 34.34 546.06 36.15 542.82 38.06 539.58 39.87 536.34 41.55 532.98 44.78 526.14 47.66 519.18 50.3 512.1 52.7 504.9"/><path class="cls-4" d="M22.64,79.72A83.12,83.12,0,0,0,19.14,113"/><polyline class="cls-4" points="21.39 543.9 23.79 508.02 25.59 472.02 27.02 436.14 27.98 400.26 28.46 364.26 28.46 328.38 27.98 292.38 27.14 256.38 25.82 220.5 24.02 184.62 21.75 148.74 19.11 112.86"/><path class="cls-4" d="M22.5,557.5a2,2,0,0,0,3.54.83"/><polyline class="cls-4" points="22.59 79.62 27.75 90.06 32.42 100.62 36.63 111.42 40.34 122.46 43.59 133.62 46.34 144.9 48.63 156.18 50.42 167.7 51.63 179.22 52.47 190.86 52.7 202.38 52.7 504.9"/><path class="cls-4" d="M57.5,249.6a3.42,3.42,0,1,0,3.42-3.42,3.42,3.42,0,0,0-3.42,3.42"/><path class="cls-4" d="M59.18,249.6a1.74,1.74,0,1,0,1.74-1.74,1.74,1.74,0,0,0-1.74,1.74"/><path class="cls-4" d="M57.5,235.56a3.42,3.42,0,1,0,3.42-3.42,3.42,3.42,0,0,0-3.42,3.42"/><path class="cls-4" d="M59.18,235.56a1.74,1.74,0,1,0,1.74-1.74,1.74,1.74,0,0,0-1.74,1.74"/><path class="cls-4" d="M57.5,221.4A3.42,3.42,0,1,0,60.92,218a3.42,3.42,0,0,0-3.42,3.42"/><path class="cls-4" d="M59.18,221.4a1.74,1.74,0,1,0,1.74-1.74,1.74,1.74,0,0,0-1.74,1.74"/><path class="cls-4" d="M57.5,207.36a3.42,3.42,0,1,0,3.42-3.42,3.42,3.42,0,0,0-3.42,3.42"/><path class="cls-4" d="M59.18,207.36a1.74,1.74,0,1,0,1.74-1.74,1.74,1.74,0,0,0-1.74,1.74"/><path class="cls-4" d="M71.54,249.6A3.42,3.42,0,1,0,75,246.18a3.42,3.42,0,0,0-3.42,3.42"/><path class="cls-4" d="M73.22,249.6A1.74,1.74,0,1,0,75,247.86a1.74,1.74,0,0,0-1.74,1.74"/><path class="cls-4" d="M71.54,235.56A3.42,3.42,0,1,0,75,232.14a3.42,3.42,0,0,0-3.42,3.42"/><path class="cls-4" d="M73.22,235.56A1.74,1.74,0,1,0,75,233.82a1.74,1.74,0,0,0-1.74,1.74"/><path class="cls-4" d="M71.54,221.4A3.42,3.42,0,1,0,75,218a3.42,3.42,0,0,0-3.42,3.42"/><path class="cls-4" d="M73.22,221.4A1.74,1.74,0,1,0,75,219.66a1.74,1.74,0,0,0-1.74,1.74"/><path class="cls-4" d="M71.54,207.36A3.42,3.42,0,1,0,75,203.94a3.42,3.42,0,0,0-3.42,3.42"/><path class="cls-4" d="M73.22,207.36A1.74,1.74,0,1,0,75,205.62a1.74,1.74,0,0,0-1.74,1.74"/><path class="cls-4" d="M57.5,242.64a3.42,3.42,0,1,0,3.42-3.42,3.42,3.42,0,0,0-3.42,3.42"/><path class="cls-4" d="M59.18,242.64a1.74,1.74,0,1,0,1.74-1.74,1.74,1.74,0,0,0-1.74,1.74"/><path class="cls-4" d="M57.5,228.48a3.42,3.42,0,1,0,3.42-3.42,3.42,3.42,0,0,0-3.42,3.42"/><path class="cls-4" d="M59.18,228.48a1.74,1.74,0,1,0,1.74-1.74,1.74,1.74,0,0,0-1.74,1.74"/><path class="cls-4" d="M57.5,214.44A3.42,3.42,0,1,0,60.92,211a3.42,3.42,0,0,0-3.42,3.42"/><path class="cls-4" d="M59.18,214.44a1.74,1.74,0,1,0,1.74-1.74,1.74,1.74,0,0,0-1.74,1.74"/><path class="cls-4" d="M71.54,242.64A3.42,3.42,0,1,0,75,239.22a3.42,3.42,0,0,0-3.42,3.42"/><path class="cls-4" d="M73.22,242.64A1.74,1.74,0,1,0,75,240.9a1.74,1.74,0,0,0-1.74,1.74"/><path class="cls-4" d="M71.54,228.48A3.42,3.42,0,1,0,75,225.06a3.42,3.42,0,0,0-3.42,3.42"/><path class="cls-4" d="M73.22,228.48A1.74,1.74,0,1,0,75,226.74a1.74,1.74,0,0,0-1.74,1.74"/><path class="cls-4" d="M71.54,214.44A3.42,3.42,0,1,0,75,211a3.42,3.42,0,0,0-3.42,3.42"/><path class="cls-4" d="M73.22,214.44A1.74,1.74,0,1,0,75,212.7a1.74,1.74,0,0,0-1.74,1.74"/><path class="cls-4" d="M71.54,454.08A3.42,3.42,0,1,0,75,450.66a3.42,3.42,0,0,0-3.42,3.42"/><path class="cls-4" d="M73.22,454.08A1.74,1.74,0,1,0,75,452.34a1.74,1.74,0,0,0-1.74,1.74"/><path class="cls-4" d="M57.5,454.08a3.42,3.42,0,1,0,3.42-3.42,3.42,3.42,0,0,0-3.42,3.42"/><path class="cls-4" d="M59.18,454.08a1.74,1.74,0,1,0,1.74-1.74,1.74,1.74,0,0,0-1.74,1.74"/><path class="cls-4" d="M57.5,439.92a3.42,3.42,0,1,0,3.42-3.42,3.42,3.42,0,0,0-3.42,3.42"/><path class="cls-4" d="M59.18,439.92a1.74,1.74,0,1,0,1.74-1.74,1.74,1.74,0,0,0-1.74,1.74"/><path class="cls-4" d="M57.5,425.88a3.42,3.42,0,1,0,3.42-3.42,3.42,3.42,0,0,0-3.42,3.42"/><path class="cls-4" d="M59.18,425.88a1.74,1.74,0,1,0,1.74-1.74,1.74,1.74,0,0,0-1.74,1.74"/><path class="cls-4" d="M57.5,411.72a3.42,3.42,0,1,0,3.42-3.42,3.42,3.42,0,0,0-3.42,3.42"/><path class="cls-4" d="M59.18,411.72A1.74,1.74,0,1,0,60.92,410a1.74,1.74,0,0,0-1.74,1.74"/><path class="cls-4" d="M71.54,439.92A3.42,3.42,0,1,0,75,436.5a3.42,3.42,0,0,0-3.42,3.42"/><path class="cls-4" d="M73.22,439.92A1.74,1.74,0,1,0,75,438.18a1.74,1.74,0,0,0-1.74,1.74"/><path class="cls-4" d="M71.54,425.88A3.42,3.42,0,1,0,75,422.46a3.42,3.42,0,0,0-3.42,3.42"/><path class="cls-4" d="M73.22,425.88A1.74,1.74,0,1,0,75,424.14a1.74,1.74,0,0,0-1.74,1.74"/><path class="cls-4" d="M71.54,411.72A3.42,3.42,0,1,0,75,408.3a3.42,3.42,0,0,0-3.42,3.42"/><path class="cls-4" d="M73.22,411.72A1.74,1.74,0,1,0,75,410a1.74,1.74,0,0,0-1.74,1.74"/><path class="cls-4" d="M59.18,447a1.74,1.74,0,1,0,1.74-1.74A1.74,1.74,0,0,0,59.18,447"/><path class="cls-4" d="M57.5,447a3.42,3.42,0,1,0,3.42-3.42A3.42,3.42,0,0,0,57.5,447"/><path class="cls-4" d="M59.18,432.84a1.74,1.74,0,1,0,1.74-1.74,1.74,1.74,0,0,0-1.74,1.74"/><path class="cls-4" d="M57.5,432.84a3.42,3.42,0,1,0,3.42-3.42,3.42,3.42,0,0,0-3.42,3.42"/><path class="cls-4" d="M59.18,418.8a1.74,1.74,0,1,0,1.74-1.74,1.74,1.74,0,0,0-1.74,1.74"/><path class="cls-4" d="M57.5,418.8a3.42,3.42,0,1,0,3.42-3.42,3.42,3.42,0,0,0-3.42,3.42"/><path class="cls-4" d="M73.22,447A1.74,1.74,0,1,0,75,445.26,1.74,1.74,0,0,0,73.22,447"/><path class="cls-4" d="M71.54,447A3.42,3.42,0,1,0,75,443.58,3.42,3.42,0,0,0,71.54,447"/><path class="cls-4" d="M73.22,432.84A1.74,1.74,0,1,0,75,431.1a1.74,1.74,0,0,0-1.74,1.74"/><path class="cls-4" d="M71.54,432.84A3.42,3.42,0,1,0,75,429.42a3.42,3.42,0,0,0-3.42,3.42"/><path class="cls-4" d="M73.22,418.8A1.74,1.74,0,1,0,75,417.06a1.74,1.74,0,0,0-1.74,1.74"/><path class="cls-4" d="M71.54,418.8A3.42,3.42,0,1,0,75,415.38a3.42,3.42,0,0,0-3.42,3.42"/><polyline class="cls-4" points="21.27 86.82 25.82 96.66 30.02 106.74 33.74 116.94 37.1 127.26 39.98 137.82 42.51 148.38 44.55 159.06 46.1 169.86 47.3 180.66 48.02 191.58 48.27 202.38 48.27 516.18"/><polyline class="cls-4" points="114.03 543.9 113.91 547.26 113.67 550.62 113.31 553.98 112.83 557.34"/><polyline class="cls-4" points="110.33 557.98 107.78 555.3 105.63 552.3 103.58 549.18 101.67 546.06 99.75 542.82 97.94 539.58 96.14 536.34 94.47 532.98 91.22 526.14 88.34 519.18 85.58 512.1 83.19 504.9"/><path class="cls-4" d="M116.75,113a83.09,83.09,0,0,0-3.51-33.27"/><path class="cls-4" d="M110.33,558a1.38,1.38,0,0,0,1.43.52,1.36,1.36,0,0,0,1-1.1"/><polyline class="cls-4" points="113.42 79.62 108.27 90.06 103.58 100.62 99.39 111.42 95.67 122.46 92.42 133.62 89.67 144.9 87.39 156.18 85.58 167.7 84.27 179.22 83.55 190.86 83.19 202.38 83.19 504.9"/><polyline class="cls-4" points="114.75 86.82 110.19 96.66 105.98 106.74 102.27 116.94 98.91 127.26 95.91 137.82 93.5 148.38 91.47 159.06 89.78 169.86 88.7 180.66 87.98 191.58 87.75 202.38 87.75 516.18"/><polyline class="cls-4" points="116.75 112.99 113.67 148.74 111.39 184.62 109.58 220.5 108.27 256.38 107.42 292.38 106.94 328.38 106.94 364.26 107.55 400.26 108.39 436.14 109.83 472.02 111.75 508.02 114.03 543.9"/><polyline class="cls-4" points="14.79 543.9 17.18 508.02 18.98 472.02 20.43 436.14 21.39 400.26 21.86 364.26 21.86 328.38 21.5 292.38 20.55 256.38 19.23 220.5 17.43 184.62 15.27 148.74 12.51 112.86"/><path class="cls-4" d="M58.59,25.11a101.81,101.81,0,0,0-29,26.55"/><path class="cls-4" d="M29.63,51.63A89.51,89.51,0,0,0,12.52,113"/><polyline class="cls-4" points="121.11 543.9 121.11 548.22 120.86 552.42 120.39 556.74 119.78 561.06 119.06 565.14 118.11 569.34"/><polyline class="cls-4" points="110.06 570.54 106.47 566.1 103.11 561.54 99.75 556.86 96.63 552.06 93.63 547.14 90.86 542.1 88.11 536.94 85.58 531.66 83.19 526.26 81.03 520.86 78.86 515.34 76.94 509.82 75.27 504.06 73.7 498.42 72.27 492.66 71.06 486.78"/><path class="cls-4" d="M110,570.62a4.74,4.74,0,0,0,8-1.24"/><path class="cls-4" d="M106.22,51.66a101.87,101.87,0,0,0-29-26.56"/><path class="cls-4" d="M123.37,113a89.48,89.48,0,0,0-17.11-61.34"/><path class="cls-4" d="M77.21,25a18,18,0,0,0-18.65,0"/><polyline class="cls-4" points="123.5 112.86 120.75 148.74 118.58 184.62 116.78 220.5 115.47 256.38 114.5 292.38 114.14 328.38 114.14 364.26 114.63 400.26 115.58 436.14 117.03 472.02 118.83 508.02 121.11 543.9"/><path class="cls-4" d="M70.89,486.85a3.06,3.06,0,0,0-6,0"/><polyline class="cls-4" points="25.95 570.54 29.55 566.1 32.91 561.54 36.15 556.86 39.38 552.06 42.27 547.14 45.15 542.1 47.91 536.94 50.42 531.66 52.83 526.26 54.98 520.86 57.15 515.34 58.95 509.82 60.74 504.06 62.3 498.42 63.74 492.66 64.94 486.78"/><path class="cls-4" d="M17.89,569.38a4.74,4.74,0,0,0,8.05,1.24"/><polyline class="cls-4" points="14.79 543.9 14.9 548.22 15.14 552.42 15.63 556.74 16.23 561.06 16.95 565.14 17.91 569.34"/><path class="cls-5" d="M165,202.32a6.17,6.17,0,0,0,3.12.88c1.78,0,2.82-.94,2.82-2.3s-.72-2-2.54-2.68c-2.2-.78-3.56-1.92-3.56-3.82,0-2.1,1.74-3.66,4.36-3.66a6.12,6.12,0,0,1,3,.66l-.48,1.42a5.37,5.37,0,0,0-2.56-.64c-1.84,0-2.54,1.1-2.54,2,0,1.26.82,1.88,2.68,2.6,2.28.88,3.44,2,3.44,4s-1.54,3.88-4.72,3.88a7,7,0,0,1-3.45-.86Z"/><path class="cls-5" d="M183.87,199.52c0,3.58-2.48,5.14-4.82,5.14-2.63,0-4.65-1.92-4.65-5,0-3.24,2.13-5.14,4.81-5.14S183.87,196.56,183.87,199.52Zm-7.68.1c0,2.12,1.22,3.72,2.94,3.72s2.94-1.58,2.94-3.76c0-1.64-.82-3.72-2.9-3.72S176.19,197.78,176.19,199.62Z"/><path class="cls-5" d="M186.27,204.44V196.1h-1.36v-1.34h1.36v-.46a4.56,4.56,0,0,1,1.12-3.38,3.37,3.37,0,0,1,2.36-.9,4.08,4.08,0,0,1,1.5.28l-.24,1.36a2.63,2.63,0,0,0-1.12-.22c-1.5,0-1.88,1.32-1.88,2.8v.52h2.34v1.34H188v8.34Z"/><path class="cls-5" d="M194.27,192v2.78h2.52v1.34h-2.52v5.22c0,1.2.34,1.88,1.32,1.88a3.92,3.92,0,0,0,1-.12l.08,1.32a4.31,4.31,0,0,1-1.56.24,2.44,2.44,0,0,1-1.9-.74,3.54,3.54,0,0,1-.69-2.52V196.1H191v-1.34h1.5v-2.32Z"/><path class="cls-5" d="M210.05,198.12H204.8V203h5.85v1.46h-7.59V191h7.29v1.46H204.8v4.26h5.25Z"/><path class="cls-5" d="M221.13,190.24v11.7c0,.86,0,1.84.08,2.5h-1.58l-.08-1.68h0a3.58,3.58,0,0,1-3.3,1.9c-2.35,0-4.15-2-4.15-4.92,0-3.22,2-5.2,4.35-5.2a3.25,3.25,0,0,1,2.92,1.48h0v-5.78Zm-1.76,8.46a3.11,3.11,0,0,0-.08-.74,2.59,2.59,0,0,0-2.54-2c-1.83,0-2.91,1.6-2.91,3.74,0,2,1,3.58,2.87,3.58a2.65,2.65,0,0,0,2.58-2.1,3.06,3.06,0,0,0,.08-.76Z"/><path class="cls-5" d="M232.39,194.76c0,.7-.08,1.48-.08,2.66V203c0,2.22-.44,3.58-1.38,4.42a5.15,5.15,0,0,1-3.52,1.16,6.29,6.29,0,0,1-3.23-.8l.44-1.34a5.46,5.46,0,0,0,2.84.76c1.81,0,3.13-.94,3.13-3.38v-1.08h0a3.46,3.46,0,0,1-3.09,1.62c-2.4,0-4.12-2-4.12-4.72,0-3.28,2.14-5.14,4.37-5.14a3.22,3.22,0,0,1,3,1.68h0l.08-1.46Zm-1.82,3.82a2.51,2.51,0,0,0-.1-.8,2.54,2.54,0,0,0-2.47-1.86c-1.67,0-2.88,1.42-2.88,3.66,0,1.9,1,3.48,2.87,3.48a2.57,2.57,0,0,0,2.44-1.8,3.06,3.06,0,0,0,.14-.94Z"/><path class="cls-5" d="M236.2,199.92a3.1,3.1,0,0,0,3.32,3.36,6.42,6.42,0,0,0,2.69-.5l.3,1.26a7.84,7.84,0,0,1-3.22.6c-3,0-4.77-2-4.77-4.88s1.72-5.22,4.54-5.22c3.17,0,4,2.78,4,4.56a6.64,6.64,0,0,1-.06.82Zm5.17-1.26c0-1.12-.46-2.86-2.45-2.86-1.78,0-2.56,1.64-2.7,2.86Z"/><line class="cls-6" x1="159.13" y1="198.44" x2="121.75" y2="198.44"/><line class="cls-6" x1="131.13" y1="305.94" x2="68.75" y2="305.94"/><path class="cls-5" d="M150.55,89.62a20.17,20.17,0,0,1,3.34-.26,5.59,5.59,0,0,1,3.78,1.12,3.65,3.65,0,0,1,1.18,2.83,4,4,0,0,1-1,2.88,5.59,5.59,0,0,1-4.12,1.48,6,6,0,0,1-1.4-.12V103h-1.74Zm1.74,6.51a5.84,5.84,0,0,0,1.44.14c2.1,0,3.38-1,3.38-2.88s-1.26-2.64-3.18-2.64a7.3,7.3,0,0,0-1.64.14Z"/><path class="cls-5" d="M169.39,98c0,3.58-2.48,5.14-4.82,5.14-2.62,0-4.65-1.92-4.65-5,0-3.24,2.13-5.14,4.81-5.14S169.39,95.07,169.39,98Zm-7.68.1c0,2.12,1.22,3.72,2.94,3.72s2.94-1.58,2.94-3.76c0-1.64-.82-3.72-2.9-3.72S161.71,96.29,161.71,98.13Z"/><path class="cls-5" d="M172.17,93.27l1.28,4.92c.28,1.08.54,2.08.72,3.08h.06c.22-1,.54-2,.86-3.06l1.58-4.94h1.48l1.5,4.84c.36,1.16.64,2.18.86,3.16h.06a29.11,29.11,0,0,1,.74-3.14l1.38-4.86h1.74L181.31,103h-1.6l-1.48-4.62a32.26,32.26,0,0,1-.86-3.18h0a28.64,28.64,0,0,1-.88,3.2l-1.56,4.6h-1.6l-2.92-9.68Z"/><path class="cls-5" d="M190.49,89.46h7.26v1.47h-5.52v4.48h5.1v1.44h-5.1V103h-1.74Z"/><path class="cls-5" d="M207.57,100.31c0,1,0,1.88.08,2.64h-1.56l-.1-1.58h0a3.64,3.64,0,0,1-3.2,1.8c-1.52,0-3.34-.84-3.34-4.24V93.27h1.76v5.36c0,1.84.56,3.08,2.16,3.08a2.54,2.54,0,0,0,2.32-1.6,2.57,2.57,0,0,0,.16-.9V93.27h1.76Z"/><path class="cls-5" d="M210.49,95.89c0-1,0-1.82-.08-2.62H212l.1,1.6h0a3.56,3.56,0,0,1,3.2-1.82c1.34,0,3.42.8,3.42,4.12V103H217V97.37c0-1.56-.58-2.86-2.24-2.86a2.5,2.5,0,0,0-2.36,1.8,2.53,2.53,0,0,0-.12.82V103h-1.76Z"/><path class="cls-5" d="M221.58,95.89c0-1,0-1.82-.08-2.62h1.57l.1,1.6h0a3.56,3.56,0,0,1,3.2-1.82c1.34,0,3.42.8,3.42,4.12V103h-1.76V97.37c0-1.56-.58-2.86-2.24-2.86a2.5,2.5,0,0,0-2.36,1.8,2.53,2.53,0,0,0-.12.82V103h-1.77Z"/><path class="cls-5" d="M233.67,98.43a3.1,3.1,0,0,0,3.32,3.36,6.36,6.36,0,0,0,2.68-.5l.3,1.26a7.84,7.84,0,0,1-3.22.6A4.5,4.5,0,0,1,232,98.27c0-2.92,1.73-5.22,4.55-5.22,3.16,0,4,2.78,4,4.56a6.64,6.64,0,0,1-.06.82Zm5.16-1.26c0-1.12-.46-2.86-2.44-2.86-1.78,0-2.56,1.64-2.7,2.86Z"/><path class="cls-5" d="M242.71,88.74h1.76V103h-1.76Z"/><path class="cls-5" d="M136.15,298.62a20.17,20.17,0,0,1,3.34-.26,5.54,5.54,0,0,1,3.78,1.12,3.62,3.62,0,0,1,1.18,2.82,4,4,0,0,1-1,2.88,5.59,5.59,0,0,1-4.12,1.48,6,6,0,0,1-1.4-.12v5.4h-1.74Zm1.74,6.5a5.84,5.84,0,0,0,1.44.14c2.1,0,3.38-1,3.38-2.88s-1.26-2.64-3.18-2.64a7.3,7.3,0,0,0-1.64.14Z"/><path class="cls-5" d="M155,307c0,3.58-2.48,5.14-4.82,5.14-2.63,0-4.65-1.92-4.65-5,0-3.24,2.13-5.14,4.81-5.14S155,304.06,155,307Zm-7.68.1c0,2.12,1.22,3.72,2.94,3.72s2.94-1.58,2.94-3.76c0-1.64-.82-3.72-2.9-3.72S147.31,305.28,147.31,307.12Z"/><path class="cls-5" d="M157.77,302.26l1.28,4.92c.28,1.08.54,2.08.72,3.08h.06c.22-1,.54-2,.86-3.06l1.58-4.94h1.48l1.5,4.84c.36,1.16.64,2.18.86,3.16h.06a29.11,29.11,0,0,1,.74-3.14l1.38-4.86H170l-3.12,9.68h-1.6l-1.48-4.62a32.26,32.26,0,0,1-.86-3.18h0a28.64,28.64,0,0,1-.88,3.2l-1.56,4.6h-1.6L156,302.26Z"/><path class="cls-5" d="M185.51,311.5a8.64,8.64,0,0,1-3.56.64c-3.8,0-6.67-2.4-6.67-6.82a6.72,6.72,0,0,1,7.05-7.08,7.23,7.23,0,0,1,3.2.6l-.42,1.42a6.34,6.34,0,0,0-2.72-.56c-3.16,0-5.27,2-5.27,5.56,0,3.3,1.91,5.42,5.19,5.42a7,7,0,0,0,2.84-.56Z"/><path class="cls-5" d="M187.62,297.74h1.77v6h0a3.27,3.27,0,0,1,1.26-1.24,3.62,3.62,0,0,1,1.8-.5c1.3,0,3.38.8,3.38,4.14v5.76h-1.76v-5.56c0-1.56-.58-2.88-2.24-2.88a2.53,2.53,0,0,0-2.36,1.76,2.13,2.13,0,0,0-.12.84v5.84h-1.77Z"/><path class="cls-5" d="M204.09,311.94l-.14-1.22h-.06a3.61,3.61,0,0,1-3,1.44,2.76,2.76,0,0,1-3-2.78c0-2.34,2.08-3.62,5.83-3.6v-.2a2,2,0,0,0-2.2-2.24,4.82,4.82,0,0,0-2.52.72l-.4-1.16a6,6,0,0,1,3.18-.86c3,0,3.68,2,3.68,4v3.62a13.63,13.63,0,0,0,.16,2.32Zm-.26-4.94c-1.92,0-4.1.3-4.1,2.18a1.56,1.56,0,0,0,1.66,1.68,2.41,2.41,0,0,0,2.34-1.62,1.84,1.84,0,0,0,.1-.56Z"/><path class="cls-5" d="M208.36,304.88c0-1,0-1.82-.08-2.62h1.56l.11,1.6h0a3.54,3.54,0,0,1,3.2-1.82c1.34,0,3.42.8,3.42,4.12v5.78h-1.76v-5.58c0-1.56-.58-2.86-2.24-2.86a2.49,2.49,0,0,0-2.36,1.8,2.52,2.52,0,0,0-.13.82v5.82h-1.76Z"/><path class="cls-5" d="M219.46,304.88c0-1,0-1.82-.08-2.62h1.56l.1,1.6h0a3.56,3.56,0,0,1,3.21-1.82c1.34,0,3.42.8,3.42,4.12v5.78H226v-5.58c0-1.56-.58-2.86-2.24-2.86a2.5,2.5,0,0,0-2.37,1.8,2.53,2.53,0,0,0-.12.82v5.82h-1.76Z"/><path class="cls-5" d="M231.54,307.42a3.11,3.11,0,0,0,3.33,3.36,6.36,6.36,0,0,0,2.68-.5l.3,1.26a7.84,7.84,0,0,1-3.22.6,4.5,4.5,0,0,1-4.77-4.88c0-2.92,1.72-5.22,4.55-5.22,3.16,0,4,2.78,4,4.56a6.64,6.64,0,0,1-.06.82Zm5.17-1.26c0-1.12-.46-2.86-2.44-2.86-1.78,0-2.56,1.64-2.7,2.86Z"/><path class="cls-5" d="M240.58,297.74h1.76v14.2h-1.76Z"/><line class="cls-6" x1="145.17" y1="96.95" x2="72.79" y2="96.95"/></svg>