<svg id="Layer_1" data-name="Layer 1" xmlns="http://www.w3.org/2000/svg" viewBox="0 0 250 600"><defs><style>.cls-1{font-size:20px;fill:#808285;font-family:MrEavesXLModOT-Reg, Mr Eaves XL Mod OT;}.cls-2{letter-spacing:0.02em;}.cls-3{letter-spacing:-0.02em;}.cls-4,.cls-5{fill:none;stroke:#666;stroke-linecap:round;stroke-linejoin:round;stroke-width:0.77px;}.cls-4{stroke-dasharray:1 3 1 3 1 3;}</style></defs><title>board-outlines-vertical</title><text class="cls-1" transform="translate(163.91 204.44)">So<tspan class="cls-2" x="20.04" y="0">f</tspan><tspan x="25.9" y="0">t </tspan><tspan class="cls-3" x="35.86" y="0">E</tspan><tspan x="44.86" y="0">dge</tspan></text><line class="cls-4" x1="159.37" y1="198.44" x2="120.99" y2="198.44"/><line class="cls-4" x1="142.37" y1="305.94" x2="68.99" y2="305.94"/><text class="cls-1" transform="translate(146.05 311.94)">Central Flex</text><line class="cls-4" x1="151.37" y1="96.95" x2="68.99" y2="96.95"/><text class="cls-1" transform="translate(156.79 102.95)">Butter Pad</text><polyline class="cls-5" points="117.17 95.34 114.65 132.78 112.73 170.22 111.29 207.78 110.33 245.22 109.85 282.78 109.85 320.22 110.33 357.78 111.29 395.34 112.73 432.78 114.65 470.22 117.17 507.66"/><polyline class="cls-5" points="27.17 507.66 29.57 470.22 31.61 432.78 33.05 395.34 34.01 357.78 34.49 320.22 34.49 282.78 34.01 245.22 33.05 207.78 31.61 170.22 29.57 132.78 27.17 95.34"/><polyline class="cls-5" points="117.17 507.66 117.05 511.98 116.69 516.18 116.09 520.38 115.37 524.46 114.29 528.54 113.09 532.38 111.77 536.22 110.09 539.94 108.29 543.42 106.25 546.78 104.09 549.9 101.81 552.78"/><polyline class="cls-5" points="42.41 552.78 40.13 549.9 37.97 546.78 36.05 543.42 34.13 539.94 32.57 536.22 31.13 532.38 29.93 528.54 28.97 524.46 28.13 520.38 27.65 516.18 27.29 511.98 27.17 507.66"/><line class="cls-5" x1="51.89" y1="557.1" x2="92.45" y2="557.1"/><path class="cls-5" d="M92.51,557a12.3,12.3,0,0,0,9.35-4.31"/><path class="cls-5" d="M42.6,552.67A12.27,12.27,0,0,0,52,557"/><polyline class="cls-5" points="117.17 95.34 117.05 91.02 116.69 86.82 116.09 82.62 115.37 78.54 114.29 74.46 113.09 70.62 111.77 66.78 110.09 63.06 108.29 59.58 106.25 56.34 104.09 53.22 101.81 50.22"/><polyline class="cls-5" points="42.41 50.22 40.13 53.22 37.97 56.34 36.05 59.58 34.13 63.06 32.57 66.78 31.13 70.62 29.93 74.46 28.97 78.54 28.13 82.62 27.65 86.82 27.29 91.02 27.17 95.34"/><line class="cls-5" x1="51.89" y1="45.9" x2="92.45" y2="45.9"/><path class="cls-5" d="M101.86,50.21a12.3,12.3,0,0,0-9.35-4.31"/><path class="cls-5" d="M52,45.9a12.27,12.27,0,0,0-9.35,4.31"/><path class="cls-5" d="M82.73,187a3.42,3.42,0,1,0-3.42,3.42A3.42,3.42,0,0,0,82.73,187"/><path class="cls-5" d="M81.05,187a1.74,1.74,0,1,0-1.74,1.74A1.74,1.74,0,0,0,81.05,187"/><path class="cls-5" d="M82.73,201a3.42,3.42,0,1,0-3.42,3.42A3.42,3.42,0,0,0,82.73,201"/><path class="cls-5" d="M81.05,201a1.74,1.74,0,1,0-1.74,1.74A1.74,1.74,0,0,0,81.05,201"/><path class="cls-5" d="M82.73,215a3.42,3.42,0,1,0-3.42,3.42A3.42,3.42,0,0,0,82.73,215"/><path class="cls-5" d="M81.05,215a1.74,1.74,0,1,0-1.74,1.74A1.74,1.74,0,0,0,81.05,215"/><path class="cls-5" d="M68.57,187a3.42,3.42,0,1,0-3.42,3.42A3.42,3.42,0,0,0,68.57,187"/><path class="cls-5" d="M66.89,187a1.74,1.74,0,1,0-1.74,1.74A1.74,1.74,0,0,0,66.89,187"/><path class="cls-5" d="M68.57,201.12a3.42,3.42,0,1,0-3.42,3.42,3.42,3.42,0,0,0,3.42-3.42"/><path class="cls-5" d="M66.89,201.12a1.74,1.74,0,1,0-1.74,1.74,1.74,1.74,0,0,0,1.74-1.74"/><path class="cls-5" d="M68.57,215a3.42,3.42,0,1,0-3.42,3.42A3.42,3.42,0,0,0,68.57,215"/><path class="cls-5" d="M66.89,215a1.74,1.74,0,1,0-1.74,1.74A1.74,1.74,0,0,0,66.89,215"/><path class="cls-5" d="M82.73,387.84a3.42,3.42,0,1,0-3.42,3.42,3.42,3.42,0,0,0,3.42-3.42"/><path class="cls-5" d="M81.05,387.84a1.74,1.74,0,1,0-1.74,1.74,1.74,1.74,0,0,0,1.74-1.74"/><path class="cls-5" d="M82.73,401.88a3.42,3.42,0,1,0-3.42,3.42,3.42,3.42,0,0,0,3.42-3.42"/><path class="cls-5" d="M81.05,401.88a1.74,1.74,0,1,0-1.74,1.74,1.74,1.74,0,0,0,1.74-1.74"/><path class="cls-5" d="M82.73,416a3.42,3.42,0,1,0-3.42,3.42A3.42,3.42,0,0,0,82.73,416"/><path class="cls-5" d="M81.05,416a1.74,1.74,0,1,0-1.74,1.74A1.74,1.74,0,0,0,81.05,416"/><path class="cls-5" d="M68.57,387.84a3.42,3.42,0,1,0-3.42,3.42,3.42,3.42,0,0,0,3.42-3.42"/><path class="cls-5" d="M66.89,387.84a1.74,1.74,0,1,0-1.74,1.74,1.74,1.74,0,0,0,1.74-1.74"/><path class="cls-5" d="M68.57,402a3.42,3.42,0,1,0-3.42,3.42A3.42,3.42,0,0,0,68.57,402"/><path class="cls-5" d="M66.89,402a1.74,1.74,0,1,0-1.74,1.74A1.74,1.74,0,0,0,66.89,402"/><path class="cls-5" d="M68.57,416a3.42,3.42,0,1,0-3.42,3.42A3.42,3.42,0,0,0,68.57,416"/><path class="cls-5" d="M66.89,416a1.74,1.74,0,1,0-1.74,1.74A1.74,1.74,0,0,0,66.89,416"/><path class="cls-5" d="M81.05,179.88a1.74,1.74,0,1,0-1.74,1.74,1.74,1.74,0,0,0,1.74-1.74"/><path class="cls-5" d="M82.73,179.88a3.42,3.42,0,1,0-3.42,3.42,3.42,3.42,0,0,0,3.42-3.42"/><path class="cls-5" d="M81.05,194a1.74,1.74,0,1,0-1.74,1.74A1.74,1.74,0,0,0,81.05,194"/><path class="cls-5" d="M82.73,194a3.42,3.42,0,1,0-3.42,3.42A3.42,3.42,0,0,0,82.73,194"/><path class="cls-5" d="M81.05,208.08a1.74,1.74,0,1,0-1.74,1.74,1.74,1.74,0,0,0,1.74-1.74"/><path class="cls-5" d="M82.73,208.08a3.42,3.42,0,1,0-3.42,3.42,3.42,3.42,0,0,0,3.42-3.42"/><path class="cls-5" d="M66.89,179.88a1.74,1.74,0,1,0-1.74,1.74,1.74,1.74,0,0,0,1.74-1.74"/><path class="cls-5" d="M68.57,179.88a3.42,3.42,0,1,0-3.42,3.42,3.42,3.42,0,0,0,3.42-3.42"/><path class="cls-5" d="M66.89,194a1.74,1.74,0,1,0-1.74,1.74A1.74,1.74,0,0,0,66.89,194"/><path class="cls-5" d="M68.57,194a3.42,3.42,0,1,0-3.42,3.42A3.42,3.42,0,0,0,68.57,194"/><path class="cls-5" d="M66.89,208.08a1.74,1.74,0,1,0-1.74,1.74,1.74,1.74,0,0,0,1.74-1.74"/><path class="cls-5" d="M68.57,208.08a3.42,3.42,0,1,0-3.42,3.42,3.42,3.42,0,0,0,3.42-3.42"/><path class="cls-5" d="M82.73,394.8a3.42,3.42,0,1,0-3.42,3.42,3.42,3.42,0,0,0,3.42-3.42"/><path class="cls-5" d="M81.05,394.8a1.74,1.74,0,1,0-1.74,1.74,1.74,1.74,0,0,0,1.74-1.74"/><path class="cls-5" d="M82.73,408.84a3.42,3.42,0,1,0-3.42,3.42,3.42,3.42,0,0,0,3.42-3.42"/><path class="cls-5" d="M81.05,408.84a1.74,1.74,0,1,0-1.74,1.74,1.74,1.74,0,0,0,1.74-1.74"/><path class="cls-5" d="M82.73,423a3.42,3.42,0,1,0-3.42,3.42A3.42,3.42,0,0,0,82.73,423"/><path class="cls-5" d="M81.05,423a1.74,1.74,0,1,0-1.74,1.74A1.74,1.74,0,0,0,81.05,423"/><path class="cls-5" d="M68.57,394.8a3.42,3.42,0,1,0-3.42,3.42,3.42,3.42,0,0,0,3.42-3.42"/><path class="cls-5" d="M66.89,394.8a1.74,1.74,0,1,0-1.74,1.74,1.74,1.74,0,0,0,1.74-1.74"/><path class="cls-5" d="M68.57,409a3.42,3.42,0,1,0-3.42,3.42A3.42,3.42,0,0,0,68.57,409"/><path class="cls-5" d="M66.89,409a1.74,1.74,0,1,0-1.74,1.74A1.74,1.74,0,0,0,66.89,409"/><path class="cls-5" d="M68.57,423a3.42,3.42,0,1,0-3.42,3.42A3.42,3.42,0,0,0,68.57,423"/><path class="cls-5" d="M66.89,423a1.74,1.74,0,1,0-1.74,1.74A1.74,1.74,0,0,0,66.89,423"/><path class="cls-5" d="M82.73,222.12a3.42,3.42,0,1,0-3.42,3.42,3.42,3.42,0,0,0,3.42-3.42"/><path class="cls-5" d="M81.05,222.12a1.74,1.74,0,1,0-1.74,1.74,1.74,1.74,0,0,0,1.74-1.74"/><path class="cls-5" d="M68.57,222.12a3.42,3.42,0,1,0-3.42,3.42,3.42,3.42,0,0,0,3.42-3.42"/><path class="cls-5" d="M66.89,222.12a1.74,1.74,0,1,0-1.74,1.74,1.74,1.74,0,0,0,1.74-1.74"/><path class="cls-5" d="M82.73,380.76a3.42,3.42,0,1,0-3.42,3.42,3.42,3.42,0,0,0,3.42-3.42"/><path class="cls-5" d="M81.05,380.76a1.74,1.74,0,1,0-1.74,1.74,1.74,1.74,0,0,0,1.74-1.74"/><path class="cls-5" d="M68.57,380.76a3.42,3.42,0,1,0-3.42,3.42,3.42,3.42,0,0,0,3.42-3.42"/><path class="cls-5" d="M66.89,380.76a1.74,1.74,0,1,0-1.74,1.74,1.74,1.74,0,0,0,1.74-1.74"/><polyline class="cls-5" points="123.65 95.82 121.25 133.14 119.33 170.58 117.89 207.9 116.93 245.34 116.45 282.78 116.45 320.22 116.93 357.66 117.89 395.1 119.33 432.54 121.25 469.86 123.65 507.18"/><polyline class="cls-5" points="20.57 507.18 22.97 469.86 25.01 432.54 26.45 395.1 27.41 357.66 27.89 320.22 27.89 282.78 27.41 245.34 26.45 207.9 25.01 170.58 22.97 133.14 20.57 95.82"/><polyline class="cls-5" points="123.77 508.14 123.65 512.58 123.29 516.78 122.69 521.1 121.97 525.3 121.01 529.5 119.81 533.58 118.37 537.42 116.81 541.26 115.13 544.98 113.21 548.58 111.05 551.94 108.89 555.06 106.49 558.06 103.85 560.82"/><polyline class="cls-5" points="40.37 560.82 37.85 558.06 35.45 555.06 33.17 551.94 31.13 548.58 29.21 544.98 27.41 541.26 25.85 537.42 24.53 533.58 23.33 529.5 22.37 525.3 21.53 521.1 21.05 516.78 20.69 512.58 20.57 508.14"/><line class="cls-5" x1="95.09" y1="564.54" x2="49.25" y2="564.54"/><path class="cls-5" d="M95.15,564.42a12.29,12.29,0,0,0,8.78-3.69"/><path class="cls-5" d="M40.52,560.73a12.3,12.3,0,0,0,8.79,3.69"/><polyline class="cls-5" points="123.77 94.86 123.65 90.54 123.29 86.22 122.69 81.9 121.97 77.7 121.01 73.5 119.81 69.54 118.37 65.58 116.81 61.74 115.13 58.02 113.21 54.54 111.05 51.18 108.89 47.94 106.49 44.94 103.85 42.18"/><polyline class="cls-5" points="40.37 42.18 37.85 44.94 35.45 47.94 33.17 51.18 31.13 54.54 29.21 58.02 27.41 61.74 25.85 65.58 24.53 69.54 23.33 73.5 22.37 77.7 21.53 81.9 21.05 86.22 20.69 90.54 20.57 94.86"/><line class="cls-5" x1="95.09" y1="38.46" x2="49.25" y2="38.46"/><path class="cls-5" d="M103.93,42.15a12.29,12.29,0,0,0-8.78-3.69"/><path class="cls-5" d="M49.31,38.46a12.3,12.3,0,0,0-8.79,3.69"/><path class="cls-5" d="M123.74,95.68c0-.32,0-.63,0-1"/><path class="cls-5" d="M123.77,508.15c0-.32,0-.63,0-.95"/><path class="cls-5" d="M20.69,94.73c0,.32,0,.63,0,1"/><path class="cls-5" d="M20.72,507.2c0,.32,0,.63,0,.95"/></svg>