<svg id="Layer_1" data-name="Layer 1" xmlns="http://www.w3.org/2000/svg" viewBox="0 0 250 600"><defs><style>.cls-1,.cls-5{fill:none;stroke:#666;stroke-linecap:round;stroke-linejoin:round;stroke-width:0.77px;}.cls-2{font-size:20px;fill:#808285;font-family:MrEavesXLModOT-Reg, Mr Eaves XL Mod OT;}.cls-3{letter-spacing:0.02em;}.cls-4{letter-spacing:-0.02em;}.cls-5{stroke-dasharray:1 3 1 3 1 3;}.cls-6{letter-spacing:-0.01em;}.cls-7{letter-spacing:0em;}.cls-8{letter-spacing:-0.01em;}</style></defs><title>board-outlines-vertical</title><polyline class="cls-1" points="21.39 543.9 21.5 547.26 21.75 550.74 22.11 554.1 22.59 557.46"/><polyline class="cls-1" points="26.07 558.3 28.23 555.3 30.39 552.3 32.3 549.18 34.34 546.06 36.15 542.82 38.06 539.58 39.87 536.34 41.55 532.98 44.78 526.14 47.66 519.18 50.3 512.1 52.7 504.9"/><path class="cls-1" d="M22.64,79.72A83.12,83.12,0,0,0,19.14,113"/><polyline class="cls-1" points="21.39 543.9 23.79 508.02 25.59 472.02 27.02 436.14 27.98 400.26 28.46 364.26 28.46 328.38 27.98 292.38 27.14 256.38 25.82 220.5 24.02 184.62 21.75 148.74 19.11 112.86"/><path class="cls-1" d="M22.5,557.5a2,2,0,0,0,3.54.83"/><polyline class="cls-1" points="22.59 79.62 27.75 90.06 32.42 100.62 36.63 111.42 40.34 122.46 43.59 133.62 46.34 144.9 48.63 156.18 50.42 167.7 51.63 179.22 52.47 190.86 52.7 202.38 52.7 504.9"/><path class="cls-1" d="M57.5,249.6a3.42,3.42,0,1,0,3.42-3.42,3.42,3.42,0,0,0-3.42,3.42"/><path class="cls-1" d="M59.18,249.6a1.74,1.74,0,1,0,1.74-1.74,1.74,1.74,0,0,0-1.74,1.74"/><path class="cls-1" d="M57.5,235.56a3.42,3.42,0,1,0,3.42-3.42,3.42,3.42,0,0,0-3.42,3.42"/><path class="cls-1" d="M59.18,235.56a1.74,1.74,0,1,0,1.74-1.74,1.74,1.74,0,0,0-1.74,1.74"/><path class="cls-1" d="M57.5,221.4A3.42,3.42,0,1,0,60.92,218a3.42,3.42,0,0,0-3.42,3.42"/><path class="cls-1" d="M59.18,221.4a1.74,1.74,0,1,0,1.74-1.74,1.74,1.74,0,0,0-1.74,1.74"/><path class="cls-1" d="M57.5,207.36a3.42,3.42,0,1,0,3.42-3.42,3.42,3.42,0,0,0-3.42,3.42"/><path class="cls-1" d="M59.18,207.36a1.74,1.74,0,1,0,1.74-1.74,1.74,1.74,0,0,0-1.74,1.74"/><path class="cls-1" d="M71.54,249.6A3.42,3.42,0,1,0,75,246.18a3.42,3.42,0,0,0-3.42,3.42"/><path class="cls-1" d="M73.22,249.6A1.74,1.74,0,1,0,75,247.86a1.74,1.74,0,0,0-1.74,1.74"/><path class="cls-1" d="M71.54,235.56A3.42,3.42,0,1,0,75,232.14a3.42,3.42,0,0,0-3.42,3.42"/><path class="cls-1" d="M73.22,235.56A1.74,1.74,0,1,0,75,233.82a1.74,1.74,0,0,0-1.74,1.74"/><path class="cls-1" d="M71.54,221.4A3.42,3.42,0,1,0,75,218a3.42,3.42,0,0,0-3.42,3.42"/><path class="cls-1" d="M73.22,221.4A1.74,1.74,0,1,0,75,219.66a1.74,1.74,0,0,0-1.74,1.74"/><path class="cls-1" d="M71.54,207.36A3.42,3.42,0,1,0,75,203.94a3.42,3.42,0,0,0-3.42,3.42"/><path class="cls-1" d="M73.22,207.36A1.74,1.74,0,1,0,75,205.62a1.74,1.74,0,0,0-1.74,1.74"/><path class="cls-1" d="M57.5,242.64a3.42,3.42,0,1,0,3.42-3.42,3.42,3.42,0,0,0-3.42,3.42"/><path class="cls-1" d="M59.18,242.64a1.74,1.74,0,1,0,1.74-1.74,1.74,1.74,0,0,0-1.74,1.74"/><path class="cls-1" d="M57.5,228.48a3.42,3.42,0,1,0,3.42-3.42,3.42,3.42,0,0,0-3.42,3.42"/><path class="cls-1" d="M59.18,228.48a1.74,1.74,0,1,0,1.74-1.74,1.74,1.74,0,0,0-1.74,1.74"/><path class="cls-1" d="M57.5,214.44A3.42,3.42,0,1,0,60.92,211a3.42,3.42,0,0,0-3.42,3.42"/><path class="cls-1" d="M59.18,214.44a1.74,1.74,0,1,0,1.74-1.74,1.74,1.74,0,0,0-1.74,1.74"/><path class="cls-1" d="M71.54,242.64A3.42,3.42,0,1,0,75,239.22a3.42,3.42,0,0,0-3.42,3.42"/><path class="cls-1" d="M73.22,242.64A1.74,1.74,0,1,0,75,240.9a1.74,1.74,0,0,0-1.74,1.74"/><path class="cls-1" d="M71.54,228.48A3.42,3.42,0,1,0,75,225.06a3.42,3.42,0,0,0-3.42,3.42"/><path class="cls-1" d="M73.22,228.48A1.74,1.74,0,1,0,75,226.74a1.74,1.74,0,0,0-1.74,1.74"/><path class="cls-1" d="M71.54,214.44A3.42,3.42,0,1,0,75,211a3.42,3.42,0,0,0-3.42,3.42"/><path class="cls-1" d="M73.22,214.44A1.74,1.74,0,1,0,75,212.7a1.74,1.74,0,0,0-1.74,1.74"/><path class="cls-1" d="M71.54,454.08A3.42,3.42,0,1,0,75,450.66a3.42,3.42,0,0,0-3.42,3.42"/><path class="cls-1" d="M73.22,454.08A1.74,1.74,0,1,0,75,452.34a1.74,1.74,0,0,0-1.74,1.74"/><path class="cls-1" d="M57.5,454.08a3.42,3.42,0,1,0,3.42-3.42,3.42,3.42,0,0,0-3.42,3.42"/><path class="cls-1" d="M59.18,454.08a1.74,1.74,0,1,0,1.74-1.74,1.74,1.74,0,0,0-1.74,1.74"/><path class="cls-1" d="M57.5,439.92a3.42,3.42,0,1,0,3.42-3.42,3.42,3.42,0,0,0-3.42,3.42"/><path class="cls-1" d="M59.18,439.92a1.74,1.74,0,1,0,1.74-1.74,1.74,1.74,0,0,0-1.74,1.74"/><path class="cls-1" d="M57.5,425.88a3.42,3.42,0,1,0,3.42-3.42,3.42,3.42,0,0,0-3.42,3.42"/><path class="cls-1" d="M59.18,425.88a1.74,1.74,0,1,0,1.74-1.74,1.74,1.74,0,0,0-1.74,1.74"/><path class="cls-1" d="M57.5,411.72a3.42,3.42,0,1,0,3.42-3.42,3.42,3.42,0,0,0-3.42,3.42"/><path class="cls-1" d="M59.18,411.72A1.74,1.74,0,1,0,60.92,410a1.74,1.74,0,0,0-1.74,1.74"/><path class="cls-1" d="M71.54,439.92A3.42,3.42,0,1,0,75,436.5a3.42,3.42,0,0,0-3.42,3.42"/><path class="cls-1" d="M73.22,439.92A1.74,1.74,0,1,0,75,438.18a1.74,1.74,0,0,0-1.74,1.74"/><path class="cls-1" d="M71.54,425.88A3.42,3.42,0,1,0,75,422.46a3.42,3.42,0,0,0-3.42,3.42"/><path class="cls-1" d="M73.22,425.88A1.74,1.74,0,1,0,75,424.14a1.74,1.74,0,0,0-1.74,1.74"/><path class="cls-1" d="M71.54,411.72A3.42,3.42,0,1,0,75,408.3a3.42,3.42,0,0,0-3.42,3.42"/><path class="cls-1" d="M73.22,411.72A1.74,1.74,0,1,0,75,410a1.74,1.74,0,0,0-1.74,1.74"/><path class="cls-1" d="M59.18,447a1.74,1.74,0,1,0,1.74-1.74A1.74,1.74,0,0,0,59.18,447"/><path class="cls-1" d="M57.5,447a3.42,3.42,0,1,0,3.42-3.42A3.42,3.42,0,0,0,57.5,447"/><path class="cls-1" d="M59.18,432.84a1.74,1.74,0,1,0,1.74-1.74,1.74,1.74,0,0,0-1.74,1.74"/><path class="cls-1" d="M57.5,432.84a3.42,3.42,0,1,0,3.42-3.42,3.42,3.42,0,0,0-3.42,3.42"/><path class="cls-1" d="M59.18,418.8a1.74,1.74,0,1,0,1.74-1.74,1.74,1.74,0,0,0-1.74,1.74"/><path class="cls-1" d="M57.5,418.8a3.42,3.42,0,1,0,3.42-3.42,3.42,3.42,0,0,0-3.42,3.42"/><path class="cls-1" d="M73.22,447A1.74,1.74,0,1,0,75,445.26,1.74,1.74,0,0,0,73.22,447"/><path class="cls-1" d="M71.54,447A3.42,3.42,0,1,0,75,443.58,3.42,3.42,0,0,0,71.54,447"/><path class="cls-1" d="M73.22,432.84A1.74,1.74,0,1,0,75,431.1a1.74,1.74,0,0,0-1.74,1.74"/><path class="cls-1" d="M71.54,432.84A3.42,3.42,0,1,0,75,429.42a3.42,3.42,0,0,0-3.42,3.42"/><path class="cls-1" d="M73.22,418.8A1.74,1.74,0,1,0,75,417.06a1.74,1.74,0,0,0-1.74,1.74"/><path class="cls-1" d="M71.54,418.8A3.42,3.42,0,1,0,75,415.38a3.42,3.42,0,0,0-3.42,3.42"/><polyline class="cls-1" points="21.27 86.82 25.82 96.66 30.02 106.74 33.74 116.94 37.1 127.26 39.98 137.82 42.51 148.38 44.55 159.06 46.1 169.86 47.3 180.66 48.02 191.58 48.27 202.38 48.27 516.18"/><polyline class="cls-1" points="114.03 543.9 113.91 547.26 113.67 550.62 113.31 553.98 112.83 557.34"/><polyline class="cls-1" points="110.33 557.98 107.78 555.3 105.63 552.3 103.58 549.18 101.67 546.06 99.75 542.82 97.94 539.58 96.14 536.34 94.47 532.98 91.22 526.14 88.34 519.18 85.58 512.1 83.19 504.9"/><path class="cls-1" d="M116.75,113a83.09,83.09,0,0,0-3.51-33.27"/><path class="cls-1" d="M110.33,558a1.38,1.38,0,0,0,1.43.52,1.36,1.36,0,0,0,1-1.1"/><polyline class="cls-1" points="113.42 79.62 108.27 90.06 103.58 100.62 99.39 111.42 95.67 122.46 92.42 133.62 89.67 144.9 87.39 156.18 85.58 167.7 84.27 179.22 83.55 190.86 83.19 202.38 83.19 504.9"/><polyline class="cls-1" points="114.75 86.82 110.19 96.66 105.98 106.74 102.27 116.94 98.91 127.26 95.91 137.82 93.5 148.38 91.47 159.06 89.78 169.86 88.7 180.66 87.98 191.58 87.75 202.38 87.75 516.18"/><polyline class="cls-1" points="116.75 112.99 113.67 148.74 111.39 184.62 109.58 220.5 108.27 256.38 107.42 292.38 106.94 328.38 106.94 364.26 107.55 400.26 108.39 436.14 109.83 472.02 111.75 508.02 114.03 543.9"/><polyline class="cls-1" points="14.79 543.9 17.18 508.02 18.98 472.02 20.43 436.14 21.39 400.26 21.86 364.26 21.86 328.38 21.5 292.38 20.55 256.38 19.23 220.5 17.43 184.62 15.27 148.74 12.51 112.86"/><path class="cls-1" d="M58.59,25.11a101.81,101.81,0,0,0-29,26.55"/><path class="cls-1" d="M29.63,51.63A89.51,89.51,0,0,0,12.52,113"/><polyline class="cls-1" points="121.11 543.9 121.11 548.22 120.86 552.42 120.39 556.74 119.78 561.06 119.06 565.14 118.11 569.34"/><polyline class="cls-1" points="110.06 570.54 106.47 566.1 103.11 561.54 99.75 556.86 96.63 552.06 93.63 547.14 90.86 542.1 88.11 536.94 85.58 531.66 83.19 526.26 81.03 520.86 78.86 515.34 76.94 509.82 75.27 504.06 73.7 498.42 72.27 492.66 71.06 486.78"/><path class="cls-1" d="M110,570.62a4.74,4.74,0,0,0,8-1.24"/><path class="cls-1" d="M106.22,51.66a101.87,101.87,0,0,0-29-26.56"/><path class="cls-1" d="M123.37,113a89.48,89.48,0,0,0-17.11-61.34"/><path class="cls-1" d="M77.21,25a18,18,0,0,0-18.65,0"/><polyline class="cls-1" points="123.5 112.86 120.75 148.74 118.58 184.62 116.78 220.5 115.47 256.38 114.5 292.38 114.14 328.38 114.14 364.26 114.63 400.26 115.58 436.14 117.03 472.02 118.83 508.02 121.11 543.9"/><path class="cls-1" d="M70.89,486.85a3.06,3.06,0,0,0-6,0"/><polyline class="cls-1" points="25.95 570.54 29.55 566.1 32.91 561.54 36.15 556.86 39.38 552.06 42.27 547.14 45.15 542.1 47.91 536.94 50.42 531.66 52.83 526.26 54.98 520.86 57.15 515.34 58.95 509.82 60.74 504.06 62.3 498.42 63.74 492.66 64.94 486.78"/><path class="cls-1" d="M17.89,569.38a4.74,4.74,0,0,0,8.05,1.24"/><polyline class="cls-1" points="14.79 543.9 14.9 548.22 15.14 552.42 15.63 556.74 16.23 561.06 16.95 565.14 17.91 569.34"/><text class="cls-2" transform="translate(163.67 204.44)">So<tspan class="cls-3" x="20.04" y="0">f</tspan><tspan x="25.9" y="0">t </tspan><tspan class="cls-4" x="35.86" y="0">E</tspan><tspan x="44.86" y="0">dge</tspan></text><line class="cls-5" x1="159.13" y1="198.44" x2="121.75" y2="198.44"/><line class="cls-5" x1="131.13" y1="305.94" x2="68.75" y2="305.94"/><text class="cls-2" transform="translate(149.03 102.95)">P<tspan class="cls-6" x="9.36" y="0">o</tspan><tspan class="cls-7" x="19.86" y="0">w </tspan><tspan class="cls-8" x="37.7" y="0">F</tspan><tspan x="46.18" y="0">unnel</tspan></text><text class="cls-2" transform="translate(134.63 311.94)">P<tspan class="cls-6" x="9.36" y="0">o</tspan><tspan class="cls-7" x="19.86" y="0">w Channel</tspan></text><line class="cls-5" x1="145.17" y1="96.95" x2="72.79" y2="96.95"/></svg>