<svg id="Layer_1" data-name="Layer 1" xmlns="http://www.w3.org/2000/svg" viewBox="0 0 250 600"><defs><style>.cls-1{font-size:20px;fill:#808285;font-family:MrEavesXLModOT-Reg, Mr Eaves XL Mod OT;}.cls-2{letter-spacing:0.02em;}.cls-3{letter-spacing:-0.02em;}.cls-4,.cls-7{fill:none;stroke:#666;stroke-linecap:round;stroke-linejoin:round;stroke-width:0.77px;}.cls-4{stroke-dasharray:1 3 1 3 1 3;}.cls-5{letter-spacing:-0.01em;}.cls-6{letter-spacing:0em;}</style></defs><title>board-outlines-vertical</title><text class="cls-1" transform="translate(165.75 204.44)">So<tspan class="cls-2" x="20.04" y="0">f</tspan><tspan x="25.9" y="0">t </tspan><tspan class="cls-3" x="35.86" y="0">E</tspan><tspan x="44.86" y="0">dge</tspan></text><line class="cls-4" x1="161.21" y1="198.44" x2="122.83" y2="198.44"/><line class="cls-4" x1="144.21" y1="305.94" x2="70.83" y2="305.94"/><text class="cls-1" transform="translate(147.89 311.94)">Central Flex</text><line class="cls-4" x1="133.21" y1="96.95" x2="70.83" y2="96.95"/><text class="cls-1" transform="translate(136.71 102.95)">P<tspan class="cls-5" x="9.36" y="0">o</tspan><tspan class="cls-6" x="19.86" y="0">w Channel</tspan></text><line class="cls-7" x1="57.76" y1="561.39" x2="57.76" y2="33.33"/><line class="cls-7" x1="53.25" y1="558.17" x2="53.25" y2="36.55"/><line class="cls-7" x1="88.41" y1="561.39" x2="88.41" y2="33.33"/><line class="cls-7" x1="92.92" y1="558.17" x2="92.92" y2="36.55"/><polyline class="cls-7" points="27.88 504.59 28.01 508.97 28.26 513.35 28.91 517.6 29.68 521.72 30.71 525.85 32 529.84 33.54 533.83 35.22 537.57 37.02 541.04 39.08 544.39 41.27 547.61 43.72 550.57 46.3 553.28 49 555.73 51.83 557.79 54.8 559.72 57.76 561.39"/><polyline class="cls-7" points="88.41 561.39 91.37 559.72 94.34 557.79 97.17 555.73 99.88 553.28 102.45 550.57 104.77 547.61 107.09 544.39 109.15 541.04 110.95 537.57 112.63 533.83 114.17 529.84 115.46 525.85 116.49 521.72 117.26 517.6 117.91 513.35 118.16 508.97 118.29 504.59"/><polyline class="cls-7" points="27.88 504.59 30.32 466.99 32.26 429.38 33.8 391.64 34.7 353.9 35.22 316.16 35.22 278.43 34.7 240.82 33.8 203.08 32.26 165.34 30.32 127.73 27.88 90"/><polyline class="cls-7" points="118.29 90 118.16 85.75 117.91 81.37 117.26 77.12 116.49 72.87 115.46 68.75 114.17 64.75 112.63 60.89 110.95 57.16 109.15 53.68 107.09 50.2 104.77 47.11 102.45 44.15 99.88 41.44 97.17 38.99 94.34 36.8 91.37 34.87 88.41 33.33"/><polyline class="cls-7" points="57.76 33.33 54.8 34.87 51.83 36.8 49 38.99 46.3 41.44 43.72 44.15 41.27 47.11 39.08 50.2 37.02 53.68 35.22 57.16 33.54 60.89 32 64.75 30.71 68.75 29.68 72.87 28.91 77.12 28.26 81.37 28.01 85.75 27.88 90"/><polyline class="cls-7" points="118.29 90 115.84 127.73 113.91 165.34 112.37 203.08 111.47 240.82 110.95 278.43 110.95 316.16 111.47 353.9 112.37 391.64 113.91 429.38 115.84 466.99 118.29 504.59"/><path class="cls-7" d="M62.52,426.74a3.42,3.42,0,1,0,3.42-3.42,3.42,3.42,0,0,0-3.42,3.42"/><path class="cls-7" d="M64.2,426.74A1.74,1.74,0,1,0,65.94,425a1.73,1.73,0,0,0-1.74,1.74"/><path class="cls-7" d="M62.52,412.57a3.42,3.42,0,1,0,3.42-3.41,3.42,3.42,0,0,0-3.42,3.41"/><path class="cls-7" d="M64.2,412.57a1.74,1.74,0,1,0,1.74-1.74,1.74,1.74,0,0,0-1.74,1.74"/><path class="cls-7" d="M62.52,398.4A3.42,3.42,0,1,0,65.94,395a3.41,3.41,0,0,0-3.42,3.41"/><path class="cls-7" d="M64.2,398.4a1.74,1.74,0,1,0,1.74-1.74,1.74,1.74,0,0,0-1.74,1.74"/><path class="cls-7" d="M62.52,384.23a3.42,3.42,0,1,0,3.42-3.41,3.42,3.42,0,0,0-3.42,3.41"/><path class="cls-7" d="M64.2,384.23a1.74,1.74,0,1,0,1.74-1.74,1.74,1.74,0,0,0-1.74,1.74"/><path class="cls-7" d="M76.69,426.74a3.42,3.42,0,1,0,3.41-3.42,3.41,3.41,0,0,0-3.41,3.42"/><path class="cls-7" d="M78.37,426.74A1.74,1.74,0,1,0,80.1,425a1.72,1.72,0,0,0-1.73,1.74"/><path class="cls-7" d="M76.69,412.57a3.42,3.42,0,1,0,3.41-3.41,3.41,3.41,0,0,0-3.41,3.41"/><path class="cls-7" d="M78.37,412.57a1.74,1.74,0,1,0,1.73-1.74,1.73,1.73,0,0,0-1.73,1.74"/><path class="cls-7" d="M76.69,398.27a3.42,3.42,0,1,0,3.41-3.41,3.42,3.42,0,0,0-3.41,3.41"/><path class="cls-7" d="M78.37,398.27a1.74,1.74,0,1,0,1.73-1.74,1.73,1.73,0,0,0-1.73,1.74"/><path class="cls-7" d="M76.69,384.23a3.42,3.42,0,1,0,3.41-3.41,3.42,3.42,0,0,0-3.41,3.41"/><path class="cls-7" d="M78.37,384.23a1.74,1.74,0,1,0,1.73-1.74,1.73,1.73,0,0,0-1.73,1.74"/><path class="cls-7" d="M62.52,210.62a3.42,3.42,0,1,0,3.42-3.42,3.42,3.42,0,0,0-3.42,3.42"/><path class="cls-7" d="M64.2,210.62a1.74,1.74,0,1,0,1.74-1.74,1.73,1.73,0,0,0-1.74,1.74"/><path class="cls-7" d="M62.52,196.45A3.42,3.42,0,1,0,65.94,193a3.42,3.42,0,0,0-3.42,3.41"/><path class="cls-7" d="M64.2,196.45a1.74,1.74,0,1,0,1.74-1.74,1.74,1.74,0,0,0-1.74,1.74"/><path class="cls-7" d="M62.52,182.28a3.42,3.42,0,1,0,3.42-3.41,3.41,3.41,0,0,0-3.42,3.41"/><path class="cls-7" d="M64.2,182.28a1.74,1.74,0,1,0,1.74-1.74,1.74,1.74,0,0,0-1.74,1.74"/><path class="cls-7" d="M62.52,168.11a3.42,3.42,0,1,0,3.42-3.41,3.42,3.42,0,0,0-3.42,3.41"/><path class="cls-7" d="M64.2,168.11a1.74,1.74,0,1,0,1.74-1.74,1.74,1.74,0,0,0-1.74,1.74"/><path class="cls-7" d="M76.69,210.62a3.42,3.42,0,1,0,3.41-3.42,3.41,3.41,0,0,0-3.41,3.42"/><path class="cls-7" d="M78.37,210.62a1.74,1.74,0,1,0,1.73-1.74,1.72,1.72,0,0,0-1.73,1.74"/><path class="cls-7" d="M76.69,196.32a3.42,3.42,0,1,0,3.41-3.41,3.41,3.41,0,0,0-3.41,3.41"/><path class="cls-7" d="M78.37,196.32a1.74,1.74,0,1,0,1.73-1.74,1.73,1.73,0,0,0-1.73,1.74"/><path class="cls-7" d="M76.69,182.28a3.42,3.42,0,1,0,3.41-3.41,3.41,3.41,0,0,0-3.41,3.41"/><path class="cls-7" d="M78.37,182.28a1.74,1.74,0,1,0,1.73-1.74,1.73,1.73,0,0,0-1.73,1.74"/><path class="cls-7" d="M76.69,168.11a3.42,3.42,0,1,0,3.41-3.41,3.42,3.42,0,0,0-3.41,3.41"/><path class="cls-7" d="M78.37,168.11a1.74,1.74,0,1,0,1.73-1.74,1.73,1.73,0,0,0-1.73,1.74"/><path class="cls-7" d="M64.2,419.65a1.74,1.74,0,1,0,1.74-1.74,1.74,1.74,0,0,0-1.74,1.74"/><path class="cls-7" d="M62.52,419.65a3.42,3.42,0,1,0,3.42-3.41,3.42,3.42,0,0,0-3.42,3.41"/><path class="cls-7" d="M64.2,405.48a1.74,1.74,0,1,0,1.74-1.73,1.74,1.74,0,0,0-1.74,1.73"/><path class="cls-7" d="M62.52,405.48a3.42,3.42,0,1,0,3.42-3.41,3.42,3.42,0,0,0-3.42,3.41"/><path class="cls-7" d="M64.2,391.19a1.74,1.74,0,1,0,1.74-1.74,1.74,1.74,0,0,0-1.74,1.74"/><path class="cls-7" d="M62.52,391.19a3.42,3.42,0,1,0,3.42-3.41,3.42,3.42,0,0,0-3.42,3.41"/><path class="cls-7" d="M78.37,419.65a1.74,1.74,0,1,0,1.73-1.74,1.73,1.73,0,0,0-1.73,1.74"/><path class="cls-7" d="M76.69,419.65a3.42,3.42,0,1,0,3.41-3.41,3.42,3.42,0,0,0-3.41,3.41"/><path class="cls-7" d="M78.37,405.48a1.74,1.74,0,1,0,1.73-1.73,1.73,1.73,0,0,0-1.73,1.73"/><path class="cls-7" d="M76.69,405.48a3.42,3.42,0,1,0,3.41-3.41,3.42,3.42,0,0,0-3.41,3.41"/><path class="cls-7" d="M78.37,391.19a1.74,1.74,0,1,0,1.73-1.74,1.73,1.73,0,0,0-1.73,1.74"/><path class="cls-7" d="M76.69,391.19a3.42,3.42,0,1,0,3.41-3.41,3.41,3.41,0,0,0-3.41,3.41"/><path class="cls-7" d="M62.52,203.53a3.42,3.42,0,1,0,3.42-3.41,3.42,3.42,0,0,0-3.42,3.41"/><path class="cls-7" d="M64.2,203.53a1.74,1.74,0,1,0,1.74-1.74,1.74,1.74,0,0,0-1.74,1.74"/><path class="cls-7" d="M62.52,189.36A3.42,3.42,0,1,0,65.94,186a3.42,3.42,0,0,0-3.42,3.41"/><path class="cls-7" d="M64.2,189.36a1.74,1.74,0,1,0,1.74-1.73,1.74,1.74,0,0,0-1.74,1.73"/><path class="cls-7" d="M62.52,175.2a3.42,3.42,0,1,0,3.42-3.42,3.42,3.42,0,0,0-3.42,3.42"/><path class="cls-7" d="M64.2,175.2a1.74,1.74,0,1,0,1.74-1.74,1.74,1.74,0,0,0-1.74,1.74"/><path class="cls-7" d="M76.69,203.53a3.42,3.42,0,1,0,3.41-3.41,3.42,3.42,0,0,0-3.41,3.41"/><path class="cls-7" d="M78.37,203.53a1.74,1.74,0,1,0,1.73-1.74,1.73,1.73,0,0,0-1.73,1.74"/><path class="cls-7" d="M76.69,189.24a3.42,3.42,0,1,0,3.41-3.42,3.41,3.41,0,0,0-3.41,3.42"/><path class="cls-7" d="M78.37,189.24a1.74,1.74,0,1,0,1.73-1.74,1.72,1.72,0,0,0-1.73,1.74"/><path class="cls-7" d="M76.69,175.2a3.42,3.42,0,1,0,3.41-3.42,3.41,3.41,0,0,0-3.41,3.42"/><path class="cls-7" d="M78.37,175.2a1.74,1.74,0,1,0,1.73-1.74,1.73,1.73,0,0,0-1.73,1.74"/><polyline class="cls-7" points="124.99 89.61 124.73 84.85 124.35 80.21 123.7 75.57 122.8 70.94 121.77 66.56 120.35 62.18 118.81 57.93 116.88 53.81 114.94 49.94 112.63 46.34 110.31 42.73 107.6 39.51 104.9 36.55 101.94 33.71 98.84 31.27 95.75 29.08 92.4 27.15 89.06 25.6 85.58 24.31 82.1 23.28 78.49 22.64 74.89 22.38 71.28 22.38 67.67 22.64 64.07 23.28 60.59 24.31 57.11 25.6 53.77 27.15 50.42 29.08 47.2 31.27 44.23 33.71 41.27 36.55 38.57 39.51 35.86 42.73 33.54 46.34 31.23 49.94 29.29 53.81 27.36 57.93 25.82 62.18 24.4 66.56 23.37 70.94 22.47 75.57 21.82 80.21 21.31 84.85 21.18 89.61"/><polyline class="cls-7" points="21.18 505.11 21.31 509.87 21.82 514.51 22.47 519.15 23.37 523.65 24.4 528.16 25.82 532.54 27.36 536.79 29.29 540.78 31.23 544.65 33.54 548.38 35.86 551.86 38.57 555.21 41.27 558.17 44.23 560.88 47.2 563.45 50.42 565.64 53.77 567.58 57.11 569.12 60.59 570.41 64.07 571.44 67.67 572.08 71.28 572.34 74.89 572.34 78.49 572.08 82.1 571.44 85.58 570.41 89.06 569.12 92.4 567.58 95.75 565.64 98.84 563.45 101.94 560.88 104.9 558.17 107.6 555.21 110.31 551.86 112.63 548.38 114.94 544.65 116.88 540.78 118.81 536.79 120.35 532.54 121.77 528.16 122.8 523.65 123.7 519.15 124.35 514.51 124.73 509.87 124.99 505.11"/><polyline class="cls-7" points="21.31 504.21 23.76 466.6 25.69 428.99 27.11 391.38 28.14 353.77 28.65 316.16 28.65 278.56 28.14 240.95 27.11 203.21 25.69 165.6 23.76 128.12 21.31 90.51"/><polyline class="cls-7" points="124.86 90.51 122.41 128.12 120.48 165.6 119.06 203.21 118.03 240.95 117.52 278.56 117.52 316.16 118.03 353.77 119.06 391.38 120.48 428.99 122.41 466.6 124.86 504.21"/><path class="cls-7" d="M21.21,504.28q0,.48,0,1"/><path class="cls-7" d="M124.86,505.24q0-.48,0-1"/><path class="cls-7" d="M124.83,90.57q0-.48,0-1"/><path class="cls-7" d="M21.18,89.61q0,.48,0,1"/></svg>