<svg id="Layer_1" data-name="Layer 1" xmlns="http://www.w3.org/2000/svg" viewBox="0 0 1200 400"><defs><style>.cls-1,.cls-2,.cls-3,.cls-4{fill:none;stroke-linecap:round;stroke-linejoin:round;stroke-width:1.62px;}.cls-1,.cls-3,.cls-4{stroke:#ccc;}.cls-2{stroke:#666;}.cls-3{stroke-dasharray:7.8 7.8;}.cls-4{stroke-dasharray:7.84;}.cls-5{fill:#fff;}.cls-6,.cls-8{font-size:30px;fill:#808285;font-family:MrEavesXLModOT-Reg, Mr Eaves XL Mod OT;}.cls-6{letter-spacing:-0.1em;}.cls-7{letter-spacing:0em;}.cls-9{letter-spacing:-0.05em;}</style></defs><title>board-outlines</title><line class="cls-1" x1="47.28" y1="115.68" x2="1152.72" y2="115.68"/><line class="cls-1" x1="54.02" y1="106.24" x2="1145.98" y2="106.24"/><line class="cls-1" x1="47.28" y1="179.85" x2="1152.72" y2="179.85"/><line class="cls-1" x1="54.02" y1="189.29" x2="1145.98" y2="189.29"/><polyline class="cls-1" points="166.18 53.13 157.01 53.4 147.84 53.94 138.95 55.28 130.32 56.9 121.69 59.06 113.33 61.75 104.97 64.99 97.16 68.5 89.88 72.27 82.87 76.58 76.13 81.17 69.92 86.29 64.26 91.68 59.14 97.34 54.83 103.28 50.78 109.48 47.28 115.68"/><polyline class="cls-1" points="47.28 179.85 50.78 186.05 54.83 192.25 59.14 198.18 64.26 203.84 69.92 209.24 76.13 214.09 82.87 218.94 89.88 223.26 97.16 227.03 104.97 230.54 113.33 233.77 121.69 236.47 130.32 238.63 138.95 240.24 147.84 241.59 157.01 242.13 166.18 242.4"/><polyline class="cls-1" points="166.18 53.13 244.91 58.25 323.64 62.29 402.64 65.53 481.64 67.42 560.63 68.5 639.63 68.5 718.36 67.42 797.36 65.53 876.36 62.29 955.09 58.25 1034.09 53.13"/><polyline class="cls-1" points="1034.09 242.4 1042.99 242.13 1052.15 241.59 1061.05 240.24 1069.95 238.63 1078.58 236.47 1086.94 233.77 1095.03 230.54 1102.84 227.03 1110.12 223.26 1117.4 218.94 1123.87 214.09 1130.08 209.24 1135.74 203.84 1140.86 198.18 1145.44 192.25 1149.49 186.05 1152.72 179.85"/><polyline class="cls-1" points="1152.72 115.68 1149.49 109.48 1145.44 103.28 1140.86 97.34 1135.74 91.68 1130.08 86.29 1123.87 81.17 1117.4 76.58 1110.12 72.27 1102.84 68.5 1095.03 64.99 1086.94 61.75 1078.58 59.06 1069.95 56.9 1061.05 55.28 1052.15 53.94 1042.99 53.4 1034.09 53.13"/><polyline class="cls-1" points="1034.09 242.4 955.09 237.28 876.36 233.23 797.36 230 718.36 228.11 639.63 227.03 560.63 227.03 481.64 228.11 402.64 230 323.64 233.23 244.91 237.28 166.18 242.4"/><path class="cls-2" d="M329.17,125.65a7.15,7.15,0,1,0,7.14,7.15,7.15,7.15,0,0,0-7.14-7.15"/><path class="cls-2" d="M329.17,129.16a3.64,3.64,0,1,0,3.64,3.64,3.64,3.64,0,0,0-3.64-3.64"/><path class="cls-2" d="M358.82,125.65A7.15,7.15,0,1,0,366,132.8a7.15,7.15,0,0,0-7.15-7.15"/><path class="cls-2" d="M358.82,129.16a3.64,3.64,0,1,0,3.64,3.64,3.64,3.64,0,0,0-3.64-3.64"/><path class="cls-2" d="M388.48,125.65a7.15,7.15,0,1,0,7.15,7.15,7.15,7.15,0,0,0-7.15-7.15"/><path class="cls-2" d="M388.48,129.16a3.64,3.64,0,1,0,3.64,3.64,3.64,3.64,0,0,0-3.64-3.64"/><path class="cls-2" d="M418.14,125.65a7.15,7.15,0,1,0,7.15,7.15,7.14,7.14,0,0,0-7.15-7.15"/><path class="cls-2" d="M418.14,129.16a3.64,3.64,0,1,0,3.64,3.64,3.64,3.64,0,0,0-3.64-3.64"/><path class="cls-2" d="M329.17,155.31a7.15,7.15,0,1,0,7.14,7.15,7.15,7.15,0,0,0-7.14-7.15"/><path class="cls-2" d="M329.17,158.82a3.64,3.64,0,1,0,3.64,3.64,3.64,3.64,0,0,0-3.64-3.64"/><path class="cls-2" d="M358.82,155.31a7.15,7.15,0,1,0,7.15,7.15,7.15,7.15,0,0,0-7.15-7.15"/><path class="cls-2" d="M358.82,158.82a3.64,3.64,0,1,0,3.64,3.64,3.64,3.64,0,0,0-3.64-3.64"/><path class="cls-2" d="M388.75,155.31a7.15,7.15,0,1,0,7.15,7.15,7.15,7.15,0,0,0-7.15-7.15"/><path class="cls-2" d="M388.75,158.82a3.64,3.64,0,1,0,3.64,3.64,3.64,3.64,0,0,0-3.64-3.64"/><path class="cls-2" d="M418.14,155.31a7.15,7.15,0,1,0,7.15,7.15,7.14,7.14,0,0,0-7.15-7.15"/><path class="cls-2" d="M418.14,158.82a3.64,3.64,0,1,0,3.64,3.64,3.64,3.64,0,0,0-3.64-3.64"/><path class="cls-2" d="M781.59,125.65a7.15,7.15,0,1,0,7.14,7.15,7.15,7.15,0,0,0-7.14-7.15"/><path class="cls-2" d="M781.59,129.16a3.64,3.64,0,1,0,3.64,3.64,3.64,3.64,0,0,0-3.64-3.64"/><path class="cls-2" d="M811.25,125.65a7.15,7.15,0,1,0,7.14,7.15,7.15,7.15,0,0,0-7.14-7.15"/><path class="cls-2" d="M811.25,129.16a3.64,3.64,0,1,0,3.64,3.64,3.64,3.64,0,0,0-3.64-3.64"/><path class="cls-2" d="M840.91,125.65a7.15,7.15,0,1,0,7.14,7.15,7.15,7.15,0,0,0-7.14-7.15"/><path class="cls-2" d="M840.91,129.16a3.64,3.64,0,1,0,3.64,3.64,3.64,3.64,0,0,0-3.64-3.64"/><path class="cls-2" d="M870.56,125.65a7.15,7.15,0,1,0,7.15,7.15,7.15,7.15,0,0,0-7.15-7.15"/><path class="cls-2" d="M870.56,129.16a3.64,3.64,0,1,0,3.64,3.64,3.63,3.63,0,0,0-3.64-3.64"/><path class="cls-2" d="M781.59,155.31a7.15,7.15,0,1,0,7.14,7.15,7.15,7.15,0,0,0-7.14-7.15"/><path class="cls-2" d="M781.59,158.82a3.64,3.64,0,1,0,3.64,3.64,3.64,3.64,0,0,0-3.64-3.64"/><path class="cls-2" d="M811.52,155.31a7.15,7.15,0,1,0,7.14,7.15,7.15,7.15,0,0,0-7.14-7.15"/><path class="cls-2" d="M811.52,158.82a3.64,3.64,0,1,0,3.64,3.64,3.64,3.64,0,0,0-3.64-3.64"/><path class="cls-2" d="M840.91,155.31a7.15,7.15,0,1,0,7.14,7.15,7.15,7.15,0,0,0-7.14-7.15"/><path class="cls-2" d="M840.91,158.82a3.64,3.64,0,1,0,3.64,3.64,3.64,3.64,0,0,0-3.64-3.64"/><path class="cls-2" d="M870.56,155.31a7.15,7.15,0,1,0,7.15,7.15,7.15,7.15,0,0,0-7.15-7.15"/><path class="cls-2" d="M870.56,158.82a3.64,3.64,0,1,0,3.64,3.64,3.63,3.63,0,0,0-3.64-3.64"/><path class="cls-2" d="M344,129.16a3.64,3.64,0,1,0,3.64,3.64,3.64,3.64,0,0,0-3.64-3.64"/><path class="cls-2" d="M344,125.65a7.15,7.15,0,1,0,7.15,7.15,7.15,7.15,0,0,0-7.15-7.15"/><path class="cls-2" d="M373.65,129.16a3.64,3.64,0,1,0,3.64,3.64,3.64,3.64,0,0,0-3.64-3.64"/><path class="cls-2" d="M373.65,125.65a7.15,7.15,0,1,0,7.15,7.15,7.15,7.15,0,0,0-7.15-7.15"/><path class="cls-2" d="M403.58,129.16a3.64,3.64,0,1,0,3.64,3.64,3.64,3.64,0,0,0-3.64-3.64"/><path class="cls-2" d="M403.58,125.65a7.15,7.15,0,1,0,7.15,7.15,7.14,7.14,0,0,0-7.15-7.15"/><path class="cls-2" d="M344,158.82a3.64,3.64,0,1,0,3.64,3.64,3.64,3.64,0,0,0-3.64-3.64"/><path class="cls-2" d="M344,155.31a7.15,7.15,0,1,0,7.15,7.15,7.15,7.15,0,0,0-7.15-7.15"/><path class="cls-2" d="M373.65,158.82a3.64,3.64,0,1,0,3.64,3.64,3.64,3.64,0,0,0-3.64-3.64"/><path class="cls-2" d="M373.65,155.31a7.15,7.15,0,1,0,7.15,7.15,7.15,7.15,0,0,0-7.15-7.15"/><path class="cls-2" d="M403.58,158.82a3.64,3.64,0,1,0,3.64,3.64,3.64,3.64,0,0,0-3.64-3.64"/><path class="cls-2" d="M403.58,155.31a7.15,7.15,0,1,0,7.15,7.15,7.14,7.14,0,0,0-7.15-7.15"/><path class="cls-2" d="M796.42,125.65a7.15,7.15,0,1,0,7.14,7.15,7.15,7.15,0,0,0-7.14-7.15"/><path class="cls-2" d="M796.42,129.16a3.64,3.64,0,1,0,3.64,3.64,3.64,3.64,0,0,0-3.64-3.64"/><path class="cls-2" d="M826.08,125.65a7.15,7.15,0,1,0,7.14,7.15,7.15,7.15,0,0,0-7.14-7.15"/><path class="cls-2" d="M826.08,129.16a3.64,3.64,0,1,0,3.64,3.64,3.64,3.64,0,0,0-3.64-3.64"/><path class="cls-2" d="M855.74,125.65a7.15,7.15,0,1,0,7.14,7.15,7.15,7.15,0,0,0-7.14-7.15"/><path class="cls-2" d="M855.74,129.16a3.64,3.64,0,1,0,3.64,3.64,3.64,3.64,0,0,0-3.64-3.64"/><path class="cls-2" d="M796.42,155.31a7.15,7.15,0,1,0,7.14,7.15,7.15,7.15,0,0,0-7.14-7.15"/><path class="cls-2" d="M796.42,158.82a3.64,3.64,0,1,0,3.64,3.64,3.64,3.64,0,0,0-3.64-3.64"/><path class="cls-2" d="M826.35,155.31a7.15,7.15,0,1,0,7.14,7.15,7.15,7.15,0,0,0-7.14-7.15"/><path class="cls-2" d="M826.35,158.82a3.64,3.64,0,1,0,3.64,3.64,3.64,3.64,0,0,0-3.64-3.64"/><path class="cls-2" d="M855.74,155.31a7.15,7.15,0,1,0,7.14,7.15,7.15,7.15,0,0,0-7.14-7.15"/><path class="cls-2" d="M855.74,158.82a3.64,3.64,0,1,0,3.64,3.64,3.64,3.64,0,0,0-3.64-3.64"/><polyline class="cls-2" points="1034.9 256.42 1044.88 255.88 1054.58 255.07 1064.29 253.72 1073.99 251.84 1083.16 249.68 1092.33 246.72 1101.23 243.48 1109.85 239.44 1117.94 235.39 1125.49 230.54 1133.04 225.68 1139.78 220.02 1145.98 214.36 1151.91 208.16 1157.04 201.69 1161.62 195.22 1165.66 188.21 1168.9 181.2 1171.6 173.92 1173.75 166.64 1175.1 159.09 1175.64 151.54 1175.64 143.99 1175.1 136.44 1173.75 128.89 1171.6 121.61 1168.9 114.33 1165.66 107.32 1161.62 100.31 1157.04 93.57 1151.91 87.37 1145.98 81.17 1139.78 75.5 1133.04 69.84 1125.49 64.99 1117.94 60.14 1109.85 56.09 1101.23 52.05 1092.33 48.81 1083.16 45.85 1073.99 43.69 1064.29 41.8 1054.58 40.45 1044.88 39.38 1034.9 39.11"/><polyline class="cls-2" points="165.1 39.11 155.13 39.38 145.42 40.45 135.71 41.8 126.28 43.69 116.84 45.85 107.67 48.81 98.77 52.05 90.42 56.09 82.33 60.14 74.51 64.99 67.23 69.84 60.22 75.5 54.02 81.17 48.35 87.37 42.96 93.57 38.38 100.31 34.34 107.32 31.1 114.33 28.4 121.61 26.25 128.89 24.9 136.44 24.36 143.99 24.36 151.54 24.9 159.09 26.25 166.64 28.4 173.92 31.1 181.2 34.34 188.21 38.38 195.22 42.96 201.69 48.35 208.16 54.02 214.36 60.22 220.02 67.23 225.68 74.51 230.54 82.33 235.39 90.42 239.44 98.77 243.48 107.67 246.72 116.84 249.68 126.28 251.84 135.71 253.72 145.42 255.07 155.13 255.88 165.1 256.42"/><polyline class="cls-2" points="166.99 39.38 245.72 44.5 324.45 48.54 403.18 51.51 481.91 53.67 560.63 54.74 639.37 54.74 718.09 53.67 797.09 51.51 875.82 48.54 954.28 44.5 1033.01 39.38"/><polyline class="cls-2" points="1033.01 256.15 954.28 251.03 875.82 246.98 797.09 244.02 718.09 241.86 639.37 240.78 560.63 240.78 481.91 241.86 403.18 244.02 324.45 246.98 245.72 251.03 166.99 256.15"/><path class="cls-2" d="M166.83,39.17q-1-.08-2-.06"/><path class="cls-2" d="M164.82,256.15c.67,0,1.34,0,2-.07"/><path class="cls-2" d="M1032.9,256.08c.67.05,1.34.07,2,.07"/><path class="cls-2" d="M1034.91,39.11c-.67,0-1.34,0-2,.06"/><polyline class="cls-2" points="1029.51 359.33 906.83 355.82 784.15 353.4 661.47 352.32 538.8 352.32 416.12 353.4 293.44 355.82 170.76 359.33"/><path class="cls-2" d="M1045.71,359A222.6,222.6,0,0,0,1185,300.23"/><path class="cls-2" d="M1029.2,359.22q8.16.27,16.32-.16"/><path class="cls-2" d="M15,300.23A222.6,222.6,0,0,0,154.29,359"/><path class="cls-2" d="M154.21,359.06q8.16.44,16.32.16"/><line class="cls-1" x1="15" y1="360.89" x2="18.92" y2="360.89"/><line class="cls-3" x1="26.72" y1="360.89" x2="1177.18" y2="360.89"/><line class="cls-1" x1="1181.08" y1="360.89" x2="1185" y2="360.89"/><line class="cls-4" x1="162.37" y1="43.33" x2="162.37" y2="248.47"/><line class="cls-4" x1="600" y1="60.33" x2="600" y2="235.47"/><line class="cls-4" x1="1037.36" y1="43.33" x2="1037.36" y2="248.47"/><path class="cls-4" d="M111,274.67s42.15-29,488.17-29,489.91,29,489.91,29"/><rect class="cls-5" x="134.67" y="136.44" width="55.33" height="26.02"/><rect class="cls-5" x="572.33" y="136.44" width="55.33" height="29.66"/><rect class="cls-5" x="1009.69" y="136.44" width="55.33" height="26.02"/><text class="cls-6" transform="translate(67.67 155.31)">T<tspan class="cls-7" x="12.63" y="0">ail/Nose Width</tspan></text><text class="cls-6" transform="translate(944.33 155.31)">T<tspan class="cls-7" x="12.63" y="0">ail/Nose Width</tspan></text><text class="cls-8" transform="translate(527.75 155.31)"><tspan class="cls-9">W</tspan><tspan x="23.34" y="0">aist Width</tspan></text><text class="cls-8" transform="translate(511.94 268)">Sidecut Radius</text></svg>