<svg id="Layer_1" data-name="Layer 1" xmlns="http://www.w3.org/2000/svg" viewBox="0 0 1200 400"><defs><style>.cls-1,.cls-2,.cls-3,.cls-4,.cls-5{fill:none;stroke-linecap:round;stroke-linejoin:round;}.cls-1,.cls-2,.cls-3{stroke:#ccc;}.cls-1,.cls-2,.cls-3,.cls-4{stroke-width:1.62px;}.cls-2{stroke-dasharray:7.8 7.8;}.cls-3{stroke-dasharray:7.84;}.cls-4{stroke:#666;}.cls-5{stroke:#000;stroke-width:0.72px;}.cls-6{fill:#fff;}.cls-7,.cls-9{font-size:30px;fill:#808285;font-family:MrEavesXLModOT-Reg, Mr Eaves XL Mod OT;}.cls-7{letter-spacing:-0.1em;}.cls-8{letter-spacing:0em;}.cls-10{letter-spacing:-0.05em;}</style></defs><title>board-outlines</title><line class="cls-1" x1="15" y1="369.71" x2="18.92" y2="369.71"/><line class="cls-2" x1="26.72" y1="369.71" x2="1177.18" y2="369.71"/><line class="cls-1" x1="1181.08" y1="369.71" x2="1185" y2="369.71"/><path class="cls-3" d="M71.34,273.7s39.53-29,457.84-29,459.48,29,459.48,29"/><polyline class="cls-1" points="92.73 49.29 85.82 49.53 78.67 50.03 71.76 50.77 64.85 51.75"/><polyline class="cls-1" points="63.13 58.91 69.29 63.35 75.46 67.79 81.87 71.73 88.29 75.93 94.95 79.63 101.61 83.57 108.27 87.27 115.17 90.73 129.23 97.39 143.54 103.31 158.09 108.73 172.89 113.67"/><path class="cls-1" d="M1046.86,51.88a170.76,170.76,0,0,0-68.37-7.2"/><polyline class="cls-1" points="92.73 49.29 166.48 54.22 240.48 57.92 314.23 60.88 387.99 62.85 461.98 63.84 535.74 63.84 609.74 62.85 683.74 61.13 757.49 58.41 831.24 54.71 905 50.03 978.75 44.6"/><path class="cls-1" d="M64.76,51.57a4.08,4.08,0,0,0-1.7,7.29"/><polyline class="cls-1" points="1047.07 51.75 1025.61 62.36 1003.91 71.98 981.71 80.61 959.01 88.26 936.08 94.92 912.89 100.59 889.7 105.28 866.02 108.98 842.34 111.45 818.42 113.17 794.74 113.67 172.89 113.67"/><path class="cls-4" d="M697.67,123.53a7,7,0,1,0,7,7,7,7,0,0,0-7-7"/><path class="cls-4" d="M697.67,127a3.58,3.58,0,1,0,3.58,3.57,3.57,3.57,0,0,0-3.58-3.57"/><path class="cls-4" d="M726.53,123.53a7,7,0,1,0,7,7,7,7,0,0,0-7-7"/><path class="cls-4" d="M726.53,127a3.58,3.58,0,1,0,3.58,3.57,3.57,3.57,0,0,0-3.58-3.57"/><path class="cls-4" d="M755.64,123.53a7,7,0,1,0,7,7,7,7,0,0,0-7-7"/><path class="cls-4" d="M755.64,127a3.58,3.58,0,1,0,3.58,3.57,3.57,3.57,0,0,0-3.58-3.57"/><path class="cls-4" d="M784.5,123.53a7,7,0,1,0,7,7,7,7,0,0,0-7-7"/><path class="cls-4" d="M784.5,127a3.58,3.58,0,1,0,3.58,3.57A3.57,3.57,0,0,0,784.5,127"/><path class="cls-4" d="M697.67,152.39a7,7,0,1,0,7,7,7,7,0,0,0-7-7"/><path class="cls-4" d="M697.67,155.85a3.58,3.58,0,1,0,3.58,3.57,3.57,3.57,0,0,0-3.58-3.57"/><path class="cls-4" d="M726.53,152.39a7,7,0,1,0,7,7,7,7,0,0,0-7-7"/><path class="cls-4" d="M726.53,155.85a3.58,3.58,0,1,0,3.58,3.57,3.57,3.57,0,0,0-3.58-3.57"/><path class="cls-4" d="M755.64,152.39a7,7,0,1,0,7,7,7,7,0,0,0-7-7"/><path class="cls-4" d="M755.64,155.85a3.58,3.58,0,1,0,3.58,3.57,3.57,3.57,0,0,0-3.58-3.57"/><path class="cls-4" d="M784.5,152.39a7,7,0,1,0,7,7,7,7,0,0,0-7-7"/><path class="cls-4" d="M784.5,155.85a3.58,3.58,0,1,0,3.58,3.57,3.57,3.57,0,0,0-3.58-3.57"/><path class="cls-4" d="M712,123.53a7,7,0,1,0,7,7,7,7,0,0,0-7-7"/><path class="cls-4" d="M712,127a3.58,3.58,0,1,0,3.58,3.57A3.57,3.57,0,0,0,712,127"/><path class="cls-4" d="M741.09,123.53a7,7,0,1,0,7,7,7,7,0,0,0-7-7"/><path class="cls-4" d="M741.09,127a3.58,3.58,0,1,0,3.57,3.57,3.57,3.57,0,0,0-3.57-3.57"/><path class="cls-4" d="M770,123.53a7,7,0,1,0,7,7,7,7,0,0,0-7-7"/><path class="cls-4" d="M770,127a3.58,3.58,0,1,0,3.57,3.57A3.57,3.57,0,0,0,770,127"/><path class="cls-4" d="M712,152.39a7,7,0,1,0,7,7,7,7,0,0,0-7-7"/><path class="cls-4" d="M712,155.85a3.58,3.58,0,1,0,3.58,3.57,3.57,3.57,0,0,0-3.58-3.57"/><path class="cls-4" d="M741.09,152.39a7,7,0,1,0,7,7,7,7,0,0,0-7-7"/><path class="cls-4" d="M741.09,155.85a3.58,3.58,0,1,0,3.57,3.57,3.57,3.57,0,0,0-3.57-3.57"/><path class="cls-4" d="M770,152.39a7,7,0,1,0,7,7,7,7,0,0,0-7-7"/><path class="cls-4" d="M770,155.85a3.58,3.58,0,1,0,3.57,3.57,3.57,3.57,0,0,0-3.57-3.57"/><path class="cls-4" d="M277.36,152.39a7,7,0,1,0,7,7,7,7,0,0,0-7-7"/><path class="cls-4" d="M277.36,155.85a3.58,3.58,0,1,0,3.57,3.57,3.57,3.57,0,0,0-3.57-3.57"/><path class="cls-4" d="M277.36,123.53a7,7,0,1,0,7,7,7,7,0,0,0-7-7"/><path class="cls-4" d="M277.36,127a3.58,3.58,0,1,0,3.57,3.57,3.57,3.57,0,0,0-3.57-3.57"/><path class="cls-4" d="M306.46,123.53a7,7,0,1,0,7,7,7,7,0,0,0-7-7"/><path class="cls-4" d="M306.46,127a3.58,3.58,0,1,0,3.58,3.57,3.57,3.57,0,0,0-3.58-3.57"/><path class="cls-4" d="M335.32,123.53a7,7,0,1,0,7,7,7,7,0,0,0-7-7"/><path class="cls-4" d="M335.32,127a3.58,3.58,0,1,0,3.58,3.57,3.57,3.57,0,0,0-3.58-3.57"/><path class="cls-4" d="M364.43,123.53a7,7,0,1,0,7,7,7,7,0,0,0-7-7"/><path class="cls-4" d="M364.43,127a3.58,3.58,0,1,0,3.57,3.57,3.57,3.57,0,0,0-3.57-3.57"/><path class="cls-4" d="M306.46,152.39a7,7,0,1,0,7,7,7,7,0,0,0-7-7"/><path class="cls-4" d="M306.46,155.85a3.58,3.58,0,1,0,3.58,3.57,3.57,3.57,0,0,0-3.58-3.57"/><path class="cls-4" d="M335.32,152.39a7,7,0,1,0,7,7,7,7,0,0,0-7-7"/><path class="cls-4" d="M335.32,155.85a3.58,3.58,0,1,0,3.58,3.57,3.57,3.57,0,0,0-3.58-3.57"/><path class="cls-4" d="M364.43,152.39a7,7,0,1,0,7,7,7,7,0,0,0-7-7"/><path class="cls-4" d="M364.43,155.85a3.58,3.58,0,1,0,3.57,3.57,3.57,3.57,0,0,0-3.57-3.57"/><path class="cls-4" d="M291.91,127a3.58,3.58,0,1,0,3.58,3.57,3.57,3.57,0,0,0-3.58-3.57"/><path class="cls-4" d="M291.91,123.53a7,7,0,1,0,7,7,7,7,0,0,0-7-7"/><path class="cls-4" d="M321,127a3.58,3.58,0,1,0,3.57,3.57A3.57,3.57,0,0,0,321,127"/><path class="cls-4" d="M321,123.53a7,7,0,1,0,7,7,7,7,0,0,0-7-7"/><path class="cls-4" d="M349.87,127a3.58,3.58,0,1,0,3.58,3.57,3.57,3.57,0,0,0-3.58-3.57"/><path class="cls-4" d="M349.87,123.53a7,7,0,1,0,7,7,7,7,0,0,0-7-7"/><path class="cls-4" d="M291.91,155.85a3.58,3.58,0,1,0,3.58,3.57,3.57,3.57,0,0,0-3.58-3.57"/><path class="cls-4" d="M291.91,152.39a7,7,0,1,0,7,7,7,7,0,0,0-7-7"/><path class="cls-4" d="M321,155.85a3.58,3.58,0,1,0,3.57,3.57,3.57,3.57,0,0,0-3.57-3.57"/><path class="cls-4" d="M321,152.39a7,7,0,1,0,7,7,7,7,0,0,0-7-7"/><path class="cls-4" d="M349.87,155.85a3.58,3.58,0,1,0,3.58,3.57,3.57,3.57,0,0,0-3.58-3.57"/><path class="cls-4" d="M349.87,152.39a7,7,0,1,0,7,7,7,7,0,0,0-7-7"/><polyline class="cls-1" points="1032.27 49.04 1012.05 58.41 991.33 67.05 970.36 74.69 949.15 81.6 927.44 87.52 905.74 92.7 883.78 96.89 861.58 100.1 839.38 102.57 816.93 104.05 794.74 104.54 149.71 104.54"/><polyline class="cls-1" points="92.73 240.95 85.82 240.7 78.67 240.21 71.76 239.47 64.85 238.48"/><polyline class="cls-1" points="63.13 231.08 69.29 226.89 75.46 222.45 81.87 218.25 88.29 214.31 94.95 210.36 101.61 206.66 108.27 202.96 115.17 199.51 129.23 192.85 143.54 186.93 158.09 181.25 172.89 176.32"/><path class="cls-1" d="M978.49,245.31a170.85,170.85,0,0,0,68.39-7.2"/><path class="cls-1" d="M63.06,231.13a4.08,4.08,0,0,0,1.7,7.29"/><polyline class="cls-1" points="1047.07 238.48 1025.61 227.87 1003.91 218.25 981.71 209.62 959.01 201.97 936.08 195.31 912.89 189.64 889.7 184.95 866.02 181.25 842.34 178.54 818.42 177.06 794.74 176.32 172.89 176.32"/><polyline class="cls-1" points="1032.27 241.19 1012.05 231.82 991.33 223.19 970.36 215.54 949.15 208.63 927.44 202.47 905.74 197.53 883.78 193.34 861.58 189.89 839.38 187.67 816.93 186.19 794.74 185.69 149.71 185.69"/><polyline class="cls-1" points="978.75 245.63 905 239.96 831.24 235.52 757.49 231.82 683.74 229.11 609.74 227.13 535.74 226.39 461.98 226.39 387.99 227.38 314.23 229.35 240.48 232.31 166.48 236.01 92.73 240.95"/><polyline class="cls-4" points="92.73 35.72 166.48 40.65 240.48 44.35 314.23 47.31 387.99 49.29 461.98 50.27 535.74 50.27 609.74 49.53 683.74 47.56 757.49 44.85 831.24 41.15 905 36.71 978.75 31.03"/><path class="cls-4" d="M1159.13,125.76a209.78,209.78,0,0,0-54.59-59.7"/><path class="cls-4" d="M1104.6,66.23A183.9,183.9,0,0,0,978.53,31.07"/><polyline class="cls-4" points="92.73 254.27 83.85 254.27 75.21 253.77 66.33 252.79 57.45 251.55 49.07 250.07 40.43 248.1"/><polyline class="cls-4" points="37.97 231.57 47.09 224.17 56.47 217.27 66.09 210.36 75.95 203.95 86.07 197.78 96.43 192.11 107.03 186.43 117.89 181.25 128.99 176.32 140.09 171.88 151.43 167.44 162.78 163.49 174.62 160.04 186.21 156.83 198.05 153.87 210.14 151.41"/><path class="cls-4" d="M37.81,231.33a9.75,9.75,0,0,0,2.53,16.55"/><path class="cls-5" d="M1104.56,223.66a209.33,209.33,0,0,0,54.58-59.7"/><path class="cls-4" d="M978.53,258.92a183.87,183.87,0,0,0,126.08-35.17"/><path class="cls-4" d="M1159.36,164a36.87,36.87,0,0,0,0-38.32"/><polyline class="cls-4" points="978.75 259.2 905 253.53 831.24 249.09 757.49 245.39 683.74 242.67 609.74 240.7 535.74 239.96 461.98 239.96 387.99 240.95 314.23 242.92 240.48 245.88 166.48 249.58 92.73 254.27"/><path class="cls-4" d="M210,151a6.29,6.29,0,0,0,0-12.34"/><polyline class="cls-4" points="37.97 58.66 47.09 66.06 56.47 72.97 66.09 79.63 75.95 86.29 86.07 92.21 96.43 98.13 107.03 103.8 117.89 108.98 128.99 113.91 140.09 118.35 151.43 122.79 162.78 126.49 174.62 130.19 186.21 133.4 198.05 136.36 210.14 138.83"/><path class="cls-4" d="M40.34,42.11a9.74,9.74,0,0,0-2.53,16.54"/><polyline class="cls-4" points="92.73 35.72 83.85 35.97 75.21 36.46 66.33 37.45 57.45 38.68 49.07 40.16 40.43 42.13"/><path class="cls-4" d="M24.9,348.82a466.77,466.77,0,0,0,128.77,18.4"/><path class="cls-4" d="M879,367.61a638.27,638.27,0,0,0,287-62.41"/><line class="cls-4" x1="740.12" y1="367.47" x2="878.99" y2="367.47"/><polyline class="cls-4" points="153.79 367.47 180.43 366.73 206.33 365.74 231.74 365 256.65 364.26 280.83 363.52 304.51 362.78 327.45 362.29 349.89 361.79 371.6 361.3 392.81 360.81 413.53 360.56 433.51 360.31 453 360.07 471.75 359.82 490 359.57 507.51 359.57 524.53 359.57 541.06 359.57 556.84 359.57 572.14 359.82 586.69 360.07 600.75 360.31 614.07 360.56 626.9 361.05 639.23 361.55 650.82 362.04 661.68 362.53 672.28 363.03 682.15 363.77 691.28 364.51 699.91 365.25 707.8 366.23"/><path class="cls-4" d="M707.69,365.8q16.11,1.43,32.3,1.42"/><line class="cls-3" x1="162.37" y1="40.06" x2="162.37" y2="245.19"/><line class="cls-3" x1="531.05" y1="57.06" x2="531.05" y2="232.19"/><line class="cls-3" x1="1037.36" y1="40.06" x2="1037.36" y2="245.19"/><rect class="cls-6" x="525.21" y="133.17" width="55.33" height="29.66"/><rect class="cls-6" x="1009.69" y="133.17" width="55.33" height="26.02"/><text class="cls-7" transform="translate(21.67 152.04)">T<tspan class="cls-8" x="12.63" y="0">ail Width</tspan></text><text class="cls-9" transform="translate(969.33 152.04)">Nose Width</text><text class="cls-9" transform="translate(458.93 152.04)"><tspan class="cls-10">W</tspan><tspan x="23.34" y="0">aist Width</tspan></text><text class="cls-9" transform="translate(443.12 271.73)">Sidecut Radius</text></svg>