<svg id="Layer_1" data-name="Layer 1" xmlns="http://www.w3.org/2000/svg" viewBox="0 0 250 600"><defs><style>.cls-1{fill:#f0eee1;}.cls-2{fill:#f16145;}.cls-3{fill:#bbcada;}.cls-4{fill:#fff;}.cls-5,.cls-7{fill:none;stroke:#666;stroke-linecap:round;stroke-linejoin:round;stroke-width:0.77px;}.cls-5{stroke-dasharray:1 3 1 3 1 3;}.cls-6{fill:#3e4f60;}</style></defs><title>board-outlines-vertical-color</title><rect class="cls-1" x="151.37" y="78.94" width="97.63" height="36.02"/><rect class="cls-2" x="159.37" y="181.37" width="88.46" height="36.02"/><rect class="cls-3" x="141.3" y="287.93" width="104.06" height="36.02"/><path class="cls-4" d="M165.19,202.32a6.17,6.17,0,0,0,3.12.88c1.78,0,2.82-.94,2.82-2.3s-.72-2-2.54-2.68c-2.2-.78-3.56-1.92-3.56-3.82,0-2.1,1.74-3.66,4.36-3.66a6.12,6.12,0,0,1,3,.66l-.48,1.42a5.37,5.37,0,0,0-2.56-.64c-1.84,0-2.54,1.1-2.54,2,0,1.26.82,1.88,2.68,2.6,2.28.88,3.44,2,3.44,4s-1.54,3.88-4.72,3.88a7,7,0,0,1-3.44-.86Z"/><path class="cls-4" d="M184.11,199.52c0,3.58-2.48,5.14-4.82,5.14-2.62,0-4.64-1.92-4.64-5,0-3.24,2.12-5.14,4.8-5.14S184.11,196.56,184.11,199.52Zm-7.68.1c0,2.12,1.22,3.72,2.94,3.72s2.94-1.58,2.94-3.76c0-1.64-.82-3.72-2.9-3.72S176.43,197.78,176.43,199.62Z"/><path class="cls-4" d="M186.51,204.44V196.1h-1.36v-1.34h1.36v-.46a4.56,4.56,0,0,1,1.12-3.38A3.37,3.37,0,0,1,190,190a4.08,4.08,0,0,1,1.5.28l-.24,1.36a2.63,2.63,0,0,0-1.12-.22c-1.5,0-1.88,1.32-1.88,2.8v.52h2.34v1.34h-2.34v8.34Z"/><path class="cls-4" d="M194.51,192v2.78H197v1.34h-2.52v5.22c0,1.2.34,1.88,1.32,1.88a3.92,3.92,0,0,0,1-.12l.08,1.32a4.31,4.31,0,0,1-1.56.24,2.44,2.44,0,0,1-1.9-.74,3.59,3.59,0,0,1-.68-2.52V196.1h-1.5v-1.34h1.5v-2.32Z"/><path class="cls-4" d="M210.29,198.12h-5.24V203h5.84v1.46h-7.58V191h7.28v1.46h-5.54v4.26h5.24Z"/><path class="cls-4" d="M221.37,190.24v11.7c0,.86,0,1.84.08,2.5h-1.58l-.08-1.68h0a3.58,3.58,0,0,1-3.3,1.9c-2.34,0-4.14-2-4.14-4.92,0-3.22,2-5.2,4.34-5.2a3.24,3.24,0,0,1,2.92,1.48h0v-5.78Zm-1.76,8.46a3.11,3.11,0,0,0-.08-.74,2.59,2.59,0,0,0-2.54-2c-1.82,0-2.9,1.6-2.9,3.74,0,2,1,3.58,2.86,3.58a2.65,2.65,0,0,0,2.58-2.1,3.06,3.06,0,0,0,.08-.76Z"/><path class="cls-4" d="M232.63,194.76c0,.7-.08,1.48-.08,2.66V203c0,2.22-.44,3.58-1.38,4.42a5.13,5.13,0,0,1-3.52,1.16,6.25,6.25,0,0,1-3.22-.8l.44-1.34a5.46,5.46,0,0,0,2.84.76c1.8,0,3.12-.94,3.12-3.38v-1.08h0a3.46,3.46,0,0,1-3.08,1.62c-2.4,0-4.12-2-4.12-4.72,0-3.28,2.14-5.14,4.36-5.14a3.22,3.22,0,0,1,3,1.68h0l.08-1.46Zm-1.82,3.82a2.51,2.51,0,0,0-.1-.8,2.54,2.54,0,0,0-2.46-1.86c-1.68,0-2.88,1.42-2.88,3.66,0,1.9,1,3.48,2.86,3.48a2.57,2.57,0,0,0,2.44-1.8,3.06,3.06,0,0,0,.14-.94Z"/><path class="cls-4" d="M236.45,199.92a3.1,3.1,0,0,0,3.32,3.36,6.36,6.36,0,0,0,2.68-.5l.3,1.26a7.84,7.84,0,0,1-3.22.6c-3,0-4.76-2-4.76-4.88s1.72-5.22,4.54-5.22c3.16,0,4,2.78,4,4.56a6.64,6.64,0,0,1-.06.82Zm5.16-1.26c0-1.12-.46-2.86-2.44-2.86-1.78,0-2.56,1.64-2.7,2.86Z"/><line class="cls-5" x1="159.37" y1="198.44" x2="120.99" y2="198.44"/><line class="cls-5" x1="142.37" y1="305.94" x2="68.99" y2="305.94"/><path class="cls-6" d="M157,311.5a8.64,8.64,0,0,1-3.56.64c-3.8,0-6.66-2.4-6.66-6.82a6.71,6.71,0,0,1,7-7.08,7.23,7.23,0,0,1,3.2.6l-.42,1.42a6.34,6.34,0,0,0-2.72-.56c-3.16,0-5.26,2-5.26,5.56,0,3.3,1.9,5.42,5.18,5.42a7,7,0,0,0,2.84-.56Z"/><path class="cls-6" d="M159.87,307.42a3.1,3.1,0,0,0,3.32,3.36,6.36,6.36,0,0,0,2.68-.5l.3,1.26a7.84,7.84,0,0,1-3.22.6c-3,0-4.76-2-4.76-4.88s1.72-5.22,4.54-5.22c3.16,0,4,2.78,4,4.56a6.64,6.64,0,0,1-.06.82Zm5.16-1.26c0-1.12-.46-2.86-2.44-2.86-1.78,0-2.56,1.64-2.7,2.86Z"/><path class="cls-6" d="M168.91,304.88c0-1,0-1.82-.08-2.62h1.56l.1,1.6h0a3.56,3.56,0,0,1,3.2-1.82c1.34,0,3.42.8,3.42,4.12v5.78h-1.76v-5.58c0-1.56-.58-2.86-2.24-2.86a2.5,2.5,0,0,0-2.36,1.8,2.53,2.53,0,0,0-.12.82v5.82h-1.76Z"/><path class="cls-6" d="M182.05,299.48v2.78h2.52v1.34h-2.52v5.22c0,1.2.34,1.88,1.32,1.88a3.92,3.92,0,0,0,1-.12l.08,1.32a4.31,4.31,0,0,1-1.56.24,2.44,2.44,0,0,1-1.9-.74,3.59,3.59,0,0,1-.68-2.52V303.6h-1.5v-1.34h1.5v-2.32Z"/><path class="cls-6" d="M186.55,305.28c0-1.14,0-2.12-.08-3H188l.06,1.9h.08a2.9,2.9,0,0,1,2.68-2.12,1.9,1.9,0,0,1,.5.06v1.66a2.64,2.64,0,0,0-.6-.06,2.47,2.47,0,0,0-2.36,2.26,5,5,0,0,0-.08.82v5.16h-1.74Z"/><path class="cls-6" d="M198.35,311.94l-.14-1.22h-.06a3.61,3.61,0,0,1-3,1.44,2.76,2.76,0,0,1-3-2.78c0-2.34,2.08-3.62,5.82-3.6v-.2a2,2,0,0,0-2.2-2.24,4.82,4.82,0,0,0-2.52.72l-.4-1.16a6,6,0,0,1,3.18-.86c3,0,3.68,2,3.68,4v3.62a13.63,13.63,0,0,0,.16,2.32Zm-.26-4.94c-1.92,0-4.1.3-4.1,2.18a1.56,1.56,0,0,0,1.66,1.68,2.41,2.41,0,0,0,2.34-1.62,1.84,1.84,0,0,0,.1-.56Z"/><path class="cls-6" d="M202.63,297.74h1.76v14.2h-1.76Z"/><path class="cls-6" d="M211.65,298.46h7.26v1.46h-5.52v4.48h5.1v1.44h-5.1v6.1h-1.74Z"/><path class="cls-6" d="M221,297.74h1.76v14.2H221Z"/><path class="cls-6" d="M226.69,307.42a3.1,3.1,0,0,0,3.32,3.36,6.36,6.36,0,0,0,2.68-.5l.3,1.26a7.84,7.84,0,0,1-3.22.6c-3,0-4.76-2-4.76-4.88s1.72-5.22,4.54-5.22c3.16,0,4,2.78,4,4.56a6.64,6.64,0,0,1-.06.82Zm5.16-1.26c0-1.12-.46-2.86-2.44-2.86-1.78,0-2.56,1.64-2.7,2.86Z"/><path class="cls-6" d="M236.49,302.26l1.38,2.08c.36.54.66,1,1,1.58h.06c.32-.58.64-1.08,1-1.6l1.36-2.06h1.9l-3.3,4.68,3.4,5h-2l-1.42-2.18c-.38-.56-.7-1.1-1-1.68h0c-.32.58-.66,1.1-1,1.68l-1.4,2.18h-1.94l3.44-4.94-3.28-4.74Z"/><line class="cls-5" x1="151.37" y1="96.95" x2="68.99" y2="96.95"/><path class="cls-6" d="M158.31,89.65a16,16,0,0,1,3.18-.29,5.57,5.57,0,0,1,3.7,1,2.83,2.83,0,0,1,1.12,2.38,3.2,3.2,0,0,1-2.28,3v0a3.47,3.47,0,0,1,2.78,3.38,3.63,3.63,0,0,1-1.14,2.7c-.94.86-2.46,1.26-4.66,1.26a20.34,20.34,0,0,1-2.7-.16Zm1.74,5.52h1.58c1.84,0,2.92-1,2.92-2.26,0-1.58-1.2-2.2-3-2.2a7.46,7.46,0,0,0-1.54.12Zm0,6.46a9.3,9.3,0,0,0,1.46.08c1.8,0,3.46-.66,3.46-2.62s-1.58-2.6-3.48-2.6h-1.44Z"/><path class="cls-6" d="M177.19,100.31c0,1,0,1.88.08,2.64h-1.56l-.1-1.58h0a3.64,3.64,0,0,1-3.2,1.8c-1.52,0-3.34-.84-3.34-4.24V93.27h1.76v5.36c0,1.84.56,3.08,2.16,3.08a2.54,2.54,0,0,0,2.32-1.6,2.57,2.57,0,0,0,.16-.9V93.27h1.76Z"/><path class="cls-6" d="M182.23,90.48v2.79h2.52v1.34h-2.52v5.22c0,1.2.34,1.88,1.32,1.88a3.92,3.92,0,0,0,1-.12l.08,1.32a4.31,4.31,0,0,1-1.56.24,2.44,2.44,0,0,1-1.9-.74,3.59,3.59,0,0,1-.68-2.52V94.61H179V93.27h1.5V91Z"/><path class="cls-6" d="M188.85,90.48v2.79h2.52v1.34h-2.52v5.22c0,1.2.34,1.88,1.32,1.88a3.92,3.92,0,0,0,1-.12l.08,1.32a4.31,4.31,0,0,1-1.56.24,2.44,2.44,0,0,1-1.9-.74,3.59,3.59,0,0,1-.68-2.52V94.61h-1.5V93.27h1.5V91Z"/><path class="cls-6" d="M194.21,98.43a3.1,3.1,0,0,0,3.32,3.36,6.36,6.36,0,0,0,2.68-.5l.3,1.26a7.84,7.84,0,0,1-3.22.6c-3,0-4.76-2-4.76-4.88s1.72-5.22,4.54-5.22c3.16,0,4,2.78,4,4.56a6.64,6.64,0,0,1-.06.82Zm5.16-1.26c0-1.12-.46-2.86-2.44-2.86-1.78,0-2.56,1.64-2.7,2.86Z"/><path class="cls-6" d="M203.25,96.29c0-1.14,0-2.12-.08-3h1.54l.06,1.9h.08a2.9,2.9,0,0,1,2.68-2.12,1.9,1.9,0,0,1,.5.06v1.66a2.64,2.64,0,0,0-.6-.06A2.47,2.47,0,0,0,205.07,97a5,5,0,0,0-.08.82V103h-1.74Z"/><path class="cls-6" d="M214.09,89.62a20.17,20.17,0,0,1,3.34-.26,5.59,5.59,0,0,1,3.78,1.12,3.65,3.65,0,0,1,1.18,2.83,4,4,0,0,1-1,2.88,5.59,5.59,0,0,1-4.12,1.48,6,6,0,0,1-1.4-.12V103h-1.74Zm1.74,6.51a5.84,5.84,0,0,0,1.44.14c2.1,0,3.38-1,3.38-2.88s-1.26-2.64-3.18-2.64a7.3,7.3,0,0,0-1.64.14Z"/><path class="cls-6" d="M229.51,103l-.14-1.22h-.06a3.61,3.61,0,0,1-3,1.44,2.76,2.76,0,0,1-3-2.78c0-2.34,2.08-3.62,5.82-3.6v-.2a2,2,0,0,0-2.2-2.24,4.82,4.82,0,0,0-2.52.72l-.4-1.16a6,6,0,0,1,3.18-.86c3,0,3.68,2,3.68,4v3.62a13.63,13.63,0,0,0,.16,2.32ZM229.25,98c-1.92,0-4.1.3-4.1,2.18a1.56,1.56,0,0,0,1.66,1.68,2.41,2.41,0,0,0,2.34-1.62,1.84,1.84,0,0,0,.1-.56Z"/><path class="cls-6" d="M242.15,88.74v11.71c0,.86,0,1.84.08,2.5h-1.58l-.08-1.68h0a3.58,3.58,0,0,1-3.3,1.9c-2.34,0-4.14-2-4.14-4.92,0-3.22,2-5.2,4.34-5.2a3.24,3.24,0,0,1,2.92,1.48h0V88.74Zm-1.76,8.47a3.11,3.11,0,0,0-.08-.74,2.59,2.59,0,0,0-2.54-2c-1.82,0-2.9,1.6-2.9,3.74,0,2,1,3.58,2.86,3.58a2.65,2.65,0,0,0,2.58-2.1,3.06,3.06,0,0,0,.08-.76Z"/><polyline class="cls-7" points="117.17 95.34 114.65 132.78 112.73 170.22 111.29 207.78 110.33 245.22 109.85 282.78 109.85 320.22 110.33 357.78 111.29 395.34 112.73 432.78 114.65 470.22 117.17 507.66"/><polyline class="cls-7" points="27.17 507.66 29.57 470.22 31.61 432.78 33.05 395.34 34.01 357.78 34.49 320.22 34.49 282.78 34.01 245.22 33.05 207.78 31.61 170.22 29.57 132.78 27.17 95.34"/><polyline class="cls-7" points="117.17 507.66 117.05 511.98 116.69 516.18 116.09 520.38 115.37 524.46 114.29 528.54 113.09 532.38 111.77 536.22 110.09 539.94 108.29 543.42 106.25 546.78 104.09 549.9 101.81 552.78"/><polyline class="cls-7" points="42.41 552.78 40.13 549.9 37.97 546.78 36.05 543.42 34.13 539.94 32.57 536.22 31.13 532.38 29.93 528.54 28.97 524.46 28.13 520.38 27.65 516.18 27.29 511.98 27.17 507.66"/><line class="cls-7" x1="51.89" y1="557.1" x2="92.45" y2="557.1"/><path class="cls-7" d="M92.51,557a12.3,12.3,0,0,0,9.35-4.31"/><path class="cls-7" d="M42.6,552.67A12.27,12.27,0,0,0,52,557"/><polyline class="cls-7" points="117.17 95.34 117.05 91.02 116.69 86.82 116.09 82.62 115.37 78.54 114.29 74.46 113.09 70.62 111.77 66.78 110.09 63.06 108.29 59.58 106.25 56.34 104.09 53.22 101.81 50.22"/><polyline class="cls-7" points="42.41 50.22 40.13 53.22 37.97 56.34 36.05 59.58 34.13 63.06 32.57 66.78 31.13 70.62 29.93 74.46 28.97 78.54 28.13 82.62 27.65 86.82 27.29 91.02 27.17 95.34"/><line class="cls-7" x1="51.89" y1="45.9" x2="92.45" y2="45.9"/><path class="cls-7" d="M101.86,50.21a12.3,12.3,0,0,0-9.35-4.31"/><path class="cls-7" d="M52,45.9a12.27,12.27,0,0,0-9.35,4.31"/><path class="cls-7" d="M82.73,187a3.42,3.42,0,1,0-3.42,3.42A3.42,3.42,0,0,0,82.73,187"/><path class="cls-7" d="M81.05,187a1.74,1.74,0,1,0-1.74,1.74A1.74,1.74,0,0,0,81.05,187"/><path class="cls-7" d="M82.73,201a3.42,3.42,0,1,0-3.42,3.42A3.42,3.42,0,0,0,82.73,201"/><path class="cls-7" d="M81.05,201a1.74,1.74,0,1,0-1.74,1.74A1.74,1.74,0,0,0,81.05,201"/><path class="cls-7" d="M82.73,215a3.42,3.42,0,1,0-3.42,3.42A3.42,3.42,0,0,0,82.73,215"/><path class="cls-7" d="M81.05,215a1.74,1.74,0,1,0-1.74,1.74A1.74,1.74,0,0,0,81.05,215"/><path class="cls-7" d="M68.57,187a3.42,3.42,0,1,0-3.42,3.42A3.42,3.42,0,0,0,68.57,187"/><path class="cls-7" d="M66.89,187a1.74,1.74,0,1,0-1.74,1.74A1.74,1.74,0,0,0,66.89,187"/><path class="cls-7" d="M68.57,201.12a3.42,3.42,0,1,0-3.42,3.42,3.42,3.42,0,0,0,3.42-3.42"/><path class="cls-7" d="M66.89,201.12a1.74,1.74,0,1,0-1.74,1.74,1.74,1.74,0,0,0,1.74-1.74"/><path class="cls-7" d="M68.57,215a3.42,3.42,0,1,0-3.42,3.42A3.42,3.42,0,0,0,68.57,215"/><path class="cls-7" d="M66.89,215a1.74,1.74,0,1,0-1.74,1.74A1.74,1.74,0,0,0,66.89,215"/><path class="cls-7" d="M82.73,387.84a3.42,3.42,0,1,0-3.42,3.42,3.42,3.42,0,0,0,3.42-3.42"/><path class="cls-7" d="M81.05,387.84a1.74,1.74,0,1,0-1.74,1.74,1.74,1.74,0,0,0,1.74-1.74"/><path class="cls-7" d="M82.73,401.88a3.42,3.42,0,1,0-3.42,3.42,3.42,3.42,0,0,0,3.42-3.42"/><path class="cls-7" d="M81.05,401.88a1.74,1.74,0,1,0-1.74,1.74,1.74,1.74,0,0,0,1.74-1.74"/><path class="cls-7" d="M82.73,416a3.42,3.42,0,1,0-3.42,3.42A3.42,3.42,0,0,0,82.73,416"/><path class="cls-7" d="M81.05,416a1.74,1.74,0,1,0-1.74,1.74A1.74,1.74,0,0,0,81.05,416"/><path class="cls-7" d="M68.57,387.84a3.42,3.42,0,1,0-3.42,3.42,3.42,3.42,0,0,0,3.42-3.42"/><path class="cls-7" d="M66.89,387.84a1.74,1.74,0,1,0-1.74,1.74,1.74,1.74,0,0,0,1.74-1.74"/><path class="cls-7" d="M68.57,402a3.42,3.42,0,1,0-3.42,3.42A3.42,3.42,0,0,0,68.57,402"/><path class="cls-7" d="M66.89,402a1.74,1.74,0,1,0-1.74,1.74A1.74,1.74,0,0,0,66.89,402"/><path class="cls-7" d="M68.57,416a3.42,3.42,0,1,0-3.42,3.42A3.42,3.42,0,0,0,68.57,416"/><path class="cls-7" d="M66.89,416a1.74,1.74,0,1,0-1.74,1.74A1.74,1.74,0,0,0,66.89,416"/><path class="cls-7" d="M81.05,179.88a1.74,1.74,0,1,0-1.74,1.74,1.74,1.74,0,0,0,1.74-1.74"/><path class="cls-7" d="M82.73,179.88a3.42,3.42,0,1,0-3.42,3.42,3.42,3.42,0,0,0,3.42-3.42"/><path class="cls-7" d="M81.05,194a1.74,1.74,0,1,0-1.74,1.74A1.74,1.74,0,0,0,81.05,194"/><path class="cls-7" d="M82.73,194a3.42,3.42,0,1,0-3.42,3.42A3.42,3.42,0,0,0,82.73,194"/><path class="cls-7" d="M81.05,208.08a1.74,1.74,0,1,0-1.74,1.74,1.74,1.74,0,0,0,1.74-1.74"/><path class="cls-7" d="M82.73,208.08a3.42,3.42,0,1,0-3.42,3.42,3.42,3.42,0,0,0,3.42-3.42"/><path class="cls-7" d="M66.89,179.88a1.74,1.74,0,1,0-1.74,1.74,1.74,1.74,0,0,0,1.74-1.74"/><path class="cls-7" d="M68.57,179.88a3.42,3.42,0,1,0-3.42,3.42,3.42,3.42,0,0,0,3.42-3.42"/><path class="cls-7" d="M66.89,194a1.74,1.74,0,1,0-1.74,1.74A1.74,1.74,0,0,0,66.89,194"/><path class="cls-7" d="M68.57,194a3.42,3.42,0,1,0-3.42,3.42A3.42,3.42,0,0,0,68.57,194"/><path class="cls-7" d="M66.89,208.08a1.74,1.74,0,1,0-1.74,1.74,1.74,1.74,0,0,0,1.74-1.74"/><path class="cls-7" d="M68.57,208.08a3.42,3.42,0,1,0-3.42,3.42,3.42,3.42,0,0,0,3.42-3.42"/><path class="cls-7" d="M82.73,394.8a3.42,3.42,0,1,0-3.42,3.42,3.42,3.42,0,0,0,3.42-3.42"/><path class="cls-7" d="M81.05,394.8a1.74,1.74,0,1,0-1.74,1.74,1.74,1.74,0,0,0,1.74-1.74"/><path class="cls-7" d="M82.73,408.84a3.42,3.42,0,1,0-3.42,3.42,3.42,3.42,0,0,0,3.42-3.42"/><path class="cls-7" d="M81.05,408.84a1.74,1.74,0,1,0-1.74,1.74,1.74,1.74,0,0,0,1.74-1.74"/><path class="cls-7" d="M82.73,423a3.42,3.42,0,1,0-3.42,3.42A3.42,3.42,0,0,0,82.73,423"/><path class="cls-7" d="M81.05,423a1.74,1.74,0,1,0-1.74,1.74A1.74,1.74,0,0,0,81.05,423"/><path class="cls-7" d="M68.57,394.8a3.42,3.42,0,1,0-3.42,3.42,3.42,3.42,0,0,0,3.42-3.42"/><path class="cls-7" d="M66.89,394.8a1.74,1.74,0,1,0-1.74,1.74,1.74,1.74,0,0,0,1.74-1.74"/><path class="cls-7" d="M68.57,409a3.42,3.42,0,1,0-3.42,3.42A3.42,3.42,0,0,0,68.57,409"/><path class="cls-7" d="M66.89,409a1.74,1.74,0,1,0-1.74,1.74A1.74,1.74,0,0,0,66.89,409"/><path class="cls-7" d="M68.57,423a3.42,3.42,0,1,0-3.42,3.42A3.42,3.42,0,0,0,68.57,423"/><path class="cls-7" d="M66.89,423a1.74,1.74,0,1,0-1.74,1.74A1.74,1.74,0,0,0,66.89,423"/><path class="cls-7" d="M82.73,222.12a3.42,3.42,0,1,0-3.42,3.42,3.42,3.42,0,0,0,3.42-3.42"/><path class="cls-7" d="M81.05,222.12a1.74,1.74,0,1,0-1.74,1.74,1.74,1.74,0,0,0,1.74-1.74"/><path class="cls-7" d="M68.57,222.12a3.42,3.42,0,1,0-3.42,3.42,3.42,3.42,0,0,0,3.42-3.42"/><path class="cls-7" d="M66.89,222.12a1.74,1.74,0,1,0-1.74,1.74,1.74,1.74,0,0,0,1.74-1.74"/><path class="cls-7" d="M82.73,380.76a3.42,3.42,0,1,0-3.42,3.42,3.42,3.42,0,0,0,3.42-3.42"/><path class="cls-7" d="M81.05,380.76a1.74,1.74,0,1,0-1.74,1.74,1.74,1.74,0,0,0,1.74-1.74"/><path class="cls-7" d="M68.57,380.76a3.42,3.42,0,1,0-3.42,3.42,3.42,3.42,0,0,0,3.42-3.42"/><path class="cls-7" d="M66.89,380.76a1.74,1.74,0,1,0-1.74,1.74,1.74,1.74,0,0,0,1.74-1.74"/><polyline class="cls-7" points="123.65 95.82 121.25 133.14 119.33 170.58 117.89 207.9 116.93 245.34 116.45 282.78 116.45 320.22 116.93 357.66 117.89 395.1 119.33 432.54 121.25 469.86 123.65 507.18"/><polyline class="cls-7" points="20.57 507.18 22.97 469.86 25.01 432.54 26.45 395.1 27.41 357.66 27.89 320.22 27.89 282.78 27.41 245.34 26.45 207.9 25.01 170.58 22.97 133.14 20.57 95.82"/><polyline class="cls-7" points="123.77 508.14 123.65 512.58 123.29 516.78 122.69 521.1 121.97 525.3 121.01 529.5 119.81 533.58 118.37 537.42 116.81 541.26 115.13 544.98 113.21 548.58 111.05 551.94 108.89 555.06 106.49 558.06 103.85 560.82"/><polyline class="cls-7" points="40.37 560.82 37.85 558.06 35.45 555.06 33.17 551.94 31.13 548.58 29.21 544.98 27.41 541.26 25.85 537.42 24.53 533.58 23.33 529.5 22.37 525.3 21.53 521.1 21.05 516.78 20.69 512.58 20.57 508.14"/><line class="cls-7" x1="95.09" y1="564.54" x2="49.25" y2="564.54"/><path class="cls-7" d="M95.15,564.42a12.29,12.29,0,0,0,8.78-3.69"/><path class="cls-7" d="M40.52,560.73a12.3,12.3,0,0,0,8.79,3.69"/><polyline class="cls-7" points="123.77 94.86 123.65 90.54 123.29 86.22 122.69 81.9 121.97 77.7 121.01 73.5 119.81 69.54 118.37 65.58 116.81 61.74 115.13 58.02 113.21 54.54 111.05 51.18 108.89 47.94 106.49 44.94 103.85 42.18"/><polyline class="cls-7" points="40.37 42.18 37.85 44.94 35.45 47.94 33.17 51.18 31.13 54.54 29.21 58.02 27.41 61.74 25.85 65.58 24.53 69.54 23.33 73.5 22.37 77.7 21.53 81.9 21.05 86.22 20.69 90.54 20.57 94.86"/><line class="cls-7" x1="95.09" y1="38.46" x2="49.25" y2="38.46"/><path class="cls-7" d="M103.93,42.15a12.29,12.29,0,0,0-8.78-3.69"/><path class="cls-7" d="M49.31,38.46a12.3,12.3,0,0,0-8.79,3.69"/><path class="cls-7" d="M123.74,95.68c0-.32,0-.63,0-1"/><path class="cls-7" d="M123.77,508.15c0-.32,0-.63,0-.95"/><path class="cls-7" d="M20.69,94.73c0,.32,0,.63,0,1"/><path class="cls-7" d="M20.72,507.2c0,.32,0,.63,0,.95"/></svg>