<svg id="Layer_1" data-name="Layer 1" xmlns="http://www.w3.org/2000/svg" viewBox="0 0 1200 480"><defs><style>.cls-1,.cls-10,.cls-7,.cls-8,.cls-9{fill:none;stroke-linecap:round;stroke-linejoin:round;}.cls-1,.cls-7,.cls-8{stroke:#ccc;}.cls-1,.cls-7,.cls-8,.cls-9{stroke-width:1.62px;}.cls-1{stroke-dasharray:7.84;}.cls-2{fill:#fff;}.cls-3,.cls-5{font-size:30px;fill:#808285;font-family:MrEavesXLModOT-Reg, Mr Eaves XL Mod OT;}.cls-3{letter-spacing:-0.1em;}.cls-4{letter-spacing:0em;}.cls-6{letter-spacing:-0.05em;}.cls-8{stroke-dasharray:7.8 7.8;}.cls-9{stroke:#666;}.cls-10{stroke:#000;stroke-width:0.72px;}</style></defs><title>board-outlines</title><line class="cls-1" x1="162.37" y1="74.29" x2="162.37" y2="279.42"/><line class="cls-1" x1="596.69" y1="91.29" x2="596.69" y2="266.42"/><line class="cls-1" x1="1037.36" y1="74.29" x2="1037.36" y2="279.42"/><rect class="cls-2" x="134.67" y="167.39" width="55.33" height="26.02"/><rect class="cls-2" x="572.33" y="167.39" width="55.33" height="29.66"/><rect class="cls-2" x="1009.69" y="167.39" width="55.33" height="26.02"/><text class="cls-3" transform="translate(69.67 186.27)">T<tspan class="cls-4" x="12.63" y="0">ail/Nose Width</tspan></text><text class="cls-3" transform="translate(947.33 186.27)">T<tspan class="cls-4" x="12.63" y="0">ail/Nose Width</tspan></text><text class="cls-5" transform="translate(524.57 186.27)"><tspan class="cls-6">W</tspan><tspan x="23.34" y="0">aist Width</tspan></text><text class="cls-5" transform="translate(508.76 313.96)">Sidecut Radius</text><path class="cls-1" d="M111,310.39s42.15-29,488.17-29,489.91,29,489.91,29"/><line class="cls-7" x1="15" y1="411.43" x2="18.92" y2="411.43"/><line class="cls-8" x1="26.72" y1="411.43" x2="1177.18" y2="411.43"/><line class="cls-7" x1="1181.08" y1="411.43" x2="1185" y2="411.43"/><polyline class="cls-7" points="155.91 82.68 235.98 88.07 316.05 92.18 396.38 95.26 476.45 97.31 556.78 98.34 636.85 98.34 717.18 97.31 797.51 95.26 877.58 92.18 957.65 88.07 1037.72 82.68"/><polyline class="cls-7" points="1037.72 275.16 957.65 270.03 877.58 265.67 797.51 262.59 717.18 260.53 636.85 259.51 556.78 259.51 476.45 260.53 396.38 262.59 316.05 265.67 235.98 270.03 155.91 275.16"/><polyline class="cls-7" points="1037.72 82.68 1046.96 82.94 1055.94 83.71 1064.92 84.99 1073.65 86.53 1082.37 88.84 1090.59 91.41 1098.8 94.23 1106.75 97.83 1114.2 101.67 1121.38 106.04 1128.06 110.66 1134.21 115.53"/><polyline class="cls-7" points="1134.21 242.57 1128.06 247.44 1121.38 252.06 1114.2 256.17 1106.75 260.28 1098.8 263.61 1090.59 266.69 1082.37 269.26 1073.65 271.31 1064.92 273.11 1055.94 274.13 1046.96 274.9 1037.72 275.16"/><line class="cls-7" x1="1143.45" y1="222.29" x2="1143.45" y2="135.55"/><path class="cls-7" d="M1143.2,135.42a26.28,26.28,0,0,0-9.22-20"/><path class="cls-7" d="M1134,242.16a26.28,26.28,0,0,0,9.22-20"/><polyline class="cls-7" points="155.91 82.68 146.67 82.94 137.69 83.71 128.71 84.99 119.98 86.53 111.26 88.84 103.05 91.41 94.83 94.23 86.88 97.83 79.44 101.67 72.51 106.04 65.83 110.66 59.42 115.53"/><polyline class="cls-7" points="59.42 242.57 65.83 247.44 72.51 252.06 79.44 256.17 86.88 260.28 94.83 263.61 103.05 266.69 111.26 269.26 119.98 271.31 128.71 273.11 137.69 274.13 146.67 274.9 155.91 275.16"/><line class="cls-7" x1="50.18" y1="222.29" x2="50.18" y2="135.55"/><path class="cls-7" d="M59.39,115.43a26.3,26.3,0,0,0-9.21,20"/><path class="cls-7" d="M50.18,222.17a26.3,26.3,0,0,0,9.21,20"/><path class="cls-9" d="M351.86,156.34a7.32,7.32,0,1,0,7.31,7.31,7.31,7.31,0,0,0-7.31-7.31"/><path class="cls-9" d="M351.86,159.93a3.72,3.72,0,1,0,3.72,3.72,3.73,3.73,0,0,0-3.72-3.72"/><path class="cls-9" d="M381.88,156.34a7.32,7.32,0,1,0,7.32,7.31,7.31,7.31,0,0,0-7.32-7.31"/><path class="cls-9" d="M381.88,159.93a3.72,3.72,0,1,0,3.72,3.72,3.73,3.73,0,0,0-3.72-3.72"/><path class="cls-9" d="M411.91,156.34a7.32,7.32,0,1,0,7.31,7.31,7.31,7.31,0,0,0-7.31-7.31"/><path class="cls-9" d="M411.91,159.93a3.72,3.72,0,1,0,3.72,3.72,3.72,3.72,0,0,0-3.72-3.72"/><path class="cls-9" d="M351.86,186.62a7.32,7.32,0,1,0,7.31,7.32,7.32,7.32,0,0,0-7.31-7.32"/><path class="cls-9" d="M351.86,190.22a3.72,3.72,0,1,0,3.72,3.72,3.72,3.72,0,0,0-3.72-3.72"/><path class="cls-9" d="M382.14,186.62a7.32,7.32,0,1,0,7.31,7.32,7.32,7.32,0,0,0-7.31-7.32"/><path class="cls-9" d="M382.14,190.22a3.72,3.72,0,1,0,3.72,3.72,3.71,3.71,0,0,0-3.72-3.72"/><path class="cls-9" d="M411.91,186.62a7.32,7.32,0,1,0,7.31,7.32,7.32,7.32,0,0,0-7.31-7.32"/><path class="cls-9" d="M411.91,190.22a3.72,3.72,0,1,0,3.72,3.72,3.71,3.71,0,0,0-3.72-3.72"/><path class="cls-9" d="M781.47,156.34a7.32,7.32,0,1,0,7.31,7.31,7.31,7.31,0,0,0-7.31-7.31"/><path class="cls-9" d="M781.47,159.93a3.72,3.72,0,1,0,3.72,3.72,3.73,3.73,0,0,0-3.72-3.72"/><path class="cls-9" d="M811.49,156.34a7.32,7.32,0,1,0,7.32,7.31,7.31,7.31,0,0,0-7.32-7.31"/><path class="cls-9" d="M811.49,159.93a3.72,3.72,0,1,0,3.72,3.72,3.73,3.73,0,0,0-3.72-3.72"/><path class="cls-9" d="M841.78,156.34a7.32,7.32,0,1,0,7.31,7.31,7.31,7.31,0,0,0-7.31-7.31"/><path class="cls-9" d="M841.78,159.93a3.72,3.72,0,1,0,3.72,3.72,3.73,3.73,0,0,0-3.72-3.72"/><path class="cls-9" d="M781.47,186.62a7.32,7.32,0,1,0,7.31,7.32,7.32,7.32,0,0,0-7.31-7.32"/><path class="cls-9" d="M781.47,190.22a3.72,3.72,0,1,0,3.72,3.72,3.72,3.72,0,0,0-3.72-3.72"/><path class="cls-9" d="M811.75,186.62a7.32,7.32,0,1,0,7.31,7.32,7.31,7.31,0,0,0-7.31-7.32"/><path class="cls-9" d="M811.75,190.22a3.72,3.72,0,1,0,3.72,3.72,3.71,3.71,0,0,0-3.72-3.72"/><path class="cls-9" d="M841.78,186.62a7.32,7.32,0,1,0,7.31,7.32,7.32,7.32,0,0,0-7.31-7.32"/><path class="cls-9" d="M841.78,190.22a3.72,3.72,0,1,0,3.72,3.72,3.72,3.72,0,0,0-3.72-3.72"/><path class="cls-9" d="M336.71,159.93a3.72,3.72,0,1,0,3.72,3.72,3.73,3.73,0,0,0-3.72-3.72"/><path class="cls-9" d="M336.71,156.34a7.32,7.32,0,1,0,7.32,7.31,7.31,7.31,0,0,0-7.32-7.31"/><path class="cls-9" d="M367,159.93a3.72,3.72,0,1,0,3.72,3.72,3.72,3.72,0,0,0-3.72-3.72"/><path class="cls-9" d="M367,156.34a7.32,7.32,0,1,0,7.31,7.31,7.31,7.31,0,0,0-7.31-7.31"/><path class="cls-9" d="M397,159.93a3.72,3.72,0,1,0,3.72,3.72,3.73,3.73,0,0,0-3.72-3.72"/><path class="cls-9" d="M397,156.34a7.32,7.32,0,1,0,7.32,7.31,7.31,7.31,0,0,0-7.32-7.31"/><path class="cls-9" d="M336.71,190.22a3.72,3.72,0,1,0,3.72,3.72,3.72,3.72,0,0,0-3.72-3.72"/><path class="cls-9" d="M336.71,186.62a7.32,7.32,0,1,0,7.32,7.32,7.31,7.31,0,0,0-7.32-7.32"/><path class="cls-9" d="M367,190.22a3.72,3.72,0,1,0,3.72,3.72,3.71,3.71,0,0,0-3.72-3.72"/><path class="cls-9" d="M367,186.62a7.32,7.32,0,1,0,7.31,7.32,7.32,7.32,0,0,0-7.31-7.32"/><path class="cls-9" d="M397,190.22a3.72,3.72,0,1,0,3.72,3.72,3.72,3.72,0,0,0-3.72-3.72"/><path class="cls-9" d="M397,186.62a7.32,7.32,0,1,0,7.32,7.32,7.31,7.31,0,0,0-7.32-7.32"/><path class="cls-9" d="M796.35,156.34a7.32,7.32,0,1,0,7.32,7.31,7.31,7.31,0,0,0-7.32-7.31"/><path class="cls-9" d="M796.35,159.93a3.72,3.72,0,1,0,3.72,3.72,3.73,3.73,0,0,0-3.72-3.72"/><path class="cls-9" d="M826.38,156.34a7.32,7.32,0,1,0,7.31,7.31,7.31,7.31,0,0,0-7.31-7.31"/><path class="cls-9" d="M826.38,159.93a3.72,3.72,0,1,0,3.72,3.72,3.72,3.72,0,0,0-3.72-3.72"/><path class="cls-9" d="M856.66,156.34a7.32,7.32,0,1,0,7.31,7.31,7.31,7.31,0,0,0-7.31-7.31"/><path class="cls-9" d="M856.66,159.93a3.72,3.72,0,1,0,3.72,3.72,3.73,3.73,0,0,0-3.72-3.72"/><path class="cls-9" d="M796.35,186.62a7.32,7.32,0,1,0,7.32,7.32,7.31,7.31,0,0,0-7.32-7.32"/><path class="cls-9" d="M796.35,190.22a3.72,3.72,0,1,0,3.72,3.72,3.72,3.72,0,0,0-3.72-3.72"/><path class="cls-9" d="M826.63,186.62a7.32,7.32,0,1,0,7.32,7.32,7.31,7.31,0,0,0-7.32-7.32"/><path class="cls-9" d="M826.63,190.22a3.72,3.72,0,1,0,3.73,3.72,3.72,3.72,0,0,0-3.73-3.72"/><path class="cls-9" d="M856.66,186.62a7.32,7.32,0,1,0,7.31,7.32,7.31,7.31,0,0,0-7.31-7.32"/><path class="cls-9" d="M856.66,190.22a3.72,3.72,0,1,0,3.72,3.72,3.72,3.72,0,0,0-3.72-3.72"/><path class="cls-9" d="M427.05,156.34a7.32,7.32,0,1,0,7.31,7.31,7.31,7.31,0,0,0-7.31-7.31"/><path class="cls-9" d="M427.05,159.93a3.72,3.72,0,1,0,3.72,3.72,3.72,3.72,0,0,0-3.72-3.72"/><path class="cls-9" d="M427.05,186.62a7.32,7.32,0,1,0,7.31,7.32,7.31,7.31,0,0,0-7.31-7.32"/><path class="cls-9" d="M427.05,190.22a3.72,3.72,0,1,0,3.72,3.72,3.71,3.71,0,0,0-3.72-3.72"/><path class="cls-9" d="M766.32,156.34a7.32,7.32,0,1,0,7.32,7.31,7.31,7.31,0,0,0-7.32-7.31"/><path class="cls-9" d="M766.32,159.93a3.72,3.72,0,1,0,3.73,3.72,3.73,3.73,0,0,0-3.73-3.72"/><path class="cls-9" d="M766.32,186.62a7.32,7.32,0,1,0,7.32,7.32,7.31,7.31,0,0,0-7.32-7.32"/><path class="cls-9" d="M766.32,190.22a3.72,3.72,0,1,0,3.73,3.72,3.72,3.72,0,0,0-3.73-3.72"/><polyline class="cls-9" points="156.94 68.83 236.75 73.96 316.82 78.06 396.64 81.14 476.71 83.2 556.78 84.22 636.85 84.22 716.92 83.2 796.99 81.14 877.06 78.06 956.88 73.96 1036.69 68.83"/><polyline class="cls-9" points="1036.69 289.28 956.88 284.14 877.06 279.78 796.99 276.7 716.92 274.65 636.85 273.62 556.78 273.62 476.71 274.65 396.64 276.7 316.82 279.78 236.75 284.14 156.94 289.28"/><polyline class="cls-9" points="1038.74 68.57 1048.24 68.83 1057.22 69.6 1066.46 70.88 1075.44 72.42 1084.43 74.47 1093.15 77.04 1101.36 80.12 1109.58 83.45 1117.53 87.05 1125.23 91.15 1132.42 95.77 1139.09 100.39 1145.51 105.53 1151.41 111.17"/><polyline class="cls-9" points="1151.41 246.93 1145.51 252.32 1139.09 257.45 1132.42 262.33 1125.23 266.69 1117.53 270.8 1109.58 274.65 1101.36 277.99 1093.15 280.81 1084.43 283.37 1075.44 285.43 1066.46 287.22 1057.22 288.25 1048.24 289.02 1038.74 289.28"/><line class="cls-9" x1="1159.36" y1="129.91" x2="1159.36" y2="227.94"/><path class="cls-9" d="M1159.11,129.77a26.29,26.29,0,0,0-7.9-18.78"/><path class="cls-9" d="M1151.21,246.6a26.31,26.31,0,0,0,7.9-18.79"/><polyline class="cls-9" points="154.89 68.57 145.65 68.83 136.41 69.6 127.17 70.88 118.19 72.42 109.2 74.47 100.74 77.04 92.27 80.12 84.05 83.45 76.1 87.05 68.66 91.15 61.47 95.77 54.54 100.39 48.13 105.53 42.22 111.17"/><polyline class="cls-9" points="42.22 246.93 48.13 252.32 54.54 257.45 61.47 262.33 68.66 266.69 76.1 270.8 84.05 274.65 92.27 277.99 100.74 280.81 109.2 283.37 118.19 285.43 127.17 287.22 136.41 288.25 145.65 289.02 154.89 289.28"/><line class="cls-9" x1="34.27" y1="129.91" x2="34.27" y2="227.94"/><path class="cls-10" d="M42.16,111a26.3,26.3,0,0,0-7.89,18.79"/><path class="cls-9" d="M34.27,227.81a26.3,26.3,0,0,0,7.89,18.79"/><path class="cls-10" d="M156.64,68.64c-.68,0-1.35-.07-2-.07"/><path class="cls-10" d="M1038.76,68.57c-.67,0-1.35,0-2,.07"/><path class="cls-10" d="M154.61,289c.68,0,1.35,0,2-.07"/><path class="cls-10" d="M1036.73,289c.68.05,1.36.07,2,.07"/><line class="cls-9" x1="276.92" y1="409.43" x2="909.2" y2="409.43"/><polyline class="cls-9" points="171.87 401.31 205.08 405 238.05 407.71 271.26 409.43"/><path class="cls-9" d="M271.3,409.35c1.83,0,3.66.08,5.5.08"/><path class="cls-9" d="M19.68,346.87a470.13,470.13,0,0,0,101.91,43.65"/><path class="cls-9" d="M121.71,390.31a330.26,330.26,0,0,0,50.14,10.63"/><polyline class="cls-9" points="914.86 409.43 948.07 407.71 981.28 405 1014.25 401.31"/><path class="cls-9" d="M909.08,409.43c1.83,0,3.66,0,5.49-.08"/><path class="cls-9" d="M1064.28,390.52a470.13,470.13,0,0,0,101.91-43.65"/><path class="cls-9" d="M1014,400.94a330,330,0,0,0,50.14-10.63"/></svg>