<svg id="Layer_1" data-name="Layer 1" xmlns="http://www.w3.org/2000/svg" viewBox="0 0 1200 400"><defs><style>.cls-1,.cls-2,.cls-3,.cls-4,.cls-5{fill:none;stroke-linecap:round;stroke-linejoin:round;}.cls-1,.cls-4,.cls-5{stroke:#ccc;}.cls-1,.cls-2,.cls-4,.cls-5{stroke-width:1.62px;}.cls-2{stroke:#666;}.cls-3{stroke:#000;stroke-width:0.72px;}.cls-4{stroke-dasharray:7.8 7.8;}.cls-5{stroke-dasharray:7.84;}.cls-6{fill:#fff;}.cls-7,.cls-9{font-size:30px;fill:#808285;font-family:MrEavesXLModOT-Reg, Mr Eaves XL Mod OT;}.cls-7{letter-spacing:-0.1em;}.cls-8{letter-spacing:0em;}.cls-10{letter-spacing:-0.05em;}</style></defs><title>board-outlines</title><path class="cls-1" d="M1135.49,122.77a166.86,166.86,0,0,0-94.11-55.86"/><path class="cls-1" d="M1041.34,67a157.94,157.94,0,0,0-42.12-2.84"/><path class="cls-2" d="M731.46,131.76a6.49,6.49,0,1,0,6.49,6.49,6.5,6.5,0,0,0-6.49-6.49"/><path class="cls-2" d="M731.46,135.07a3.18,3.18,0,1,0,3.18,3.18,3.18,3.18,0,0,0-3.18-3.18"/><path class="cls-2" d="M757.94,131.76a6.49,6.49,0,1,0,6.49,6.49,6.5,6.5,0,0,0-6.49-6.49"/><path class="cls-2" d="M757.94,135.07a3.18,3.18,0,1,0,3.18,3.18,3.18,3.18,0,0,0-3.18-3.18"/><path class="cls-2" d="M784.67,131.76a6.49,6.49,0,1,0,6.49,6.49,6.49,6.49,0,0,0-6.49-6.49"/><path class="cls-2" d="M784.67,135.07a3.18,3.18,0,1,0,3.18,3.18,3.18,3.18,0,0,0-3.18-3.18"/><path class="cls-2" d="M811.4,131.76a6.49,6.49,0,1,0,6.49,6.49,6.5,6.5,0,0,0-6.49-6.49"/><path class="cls-2" d="M811.4,135.07a3.18,3.18,0,1,0,3.18,3.18,3.18,3.18,0,0,0-3.18-3.18"/><path class="cls-2" d="M731.46,158.49A6.5,6.5,0,1,0,738,165a6.5,6.5,0,0,0-6.49-6.49"/><path class="cls-2" d="M731.46,161.8a3.19,3.19,0,1,0,3.18,3.18,3.19,3.19,0,0,0-3.18-3.18"/><path class="cls-2" d="M757.94,158.49a6.5,6.5,0,1,0,6.49,6.49,6.5,6.5,0,0,0-6.49-6.49"/><path class="cls-2" d="M757.94,161.8a3.19,3.19,0,1,0,3.18,3.18,3.19,3.19,0,0,0-3.18-3.18"/><path class="cls-2" d="M784.67,158.49a6.5,6.5,0,1,0,6.49,6.49,6.49,6.49,0,0,0-6.49-6.49"/><path class="cls-2" d="M784.67,161.8a3.19,3.19,0,1,0,3.18,3.18,3.18,3.18,0,0,0-3.18-3.18"/><path class="cls-2" d="M811.4,158.49a6.5,6.5,0,1,0,6.49,6.49,6.5,6.5,0,0,0-6.49-6.49"/><path class="cls-2" d="M811.4,161.8a3.19,3.19,0,1,0,3.18,3.18,3.18,3.18,0,0,0-3.18-3.18"/><path class="cls-2" d="M744.7,131.76a6.49,6.49,0,1,0,6.49,6.49,6.5,6.5,0,0,0-6.49-6.49"/><path class="cls-2" d="M744.7,135.07a3.18,3.18,0,1,0,3.18,3.18,3.18,3.18,0,0,0-3.18-3.18"/><path class="cls-2" d="M771.43,131.76a6.49,6.49,0,1,0,6.49,6.49,6.49,6.49,0,0,0-6.49-6.49"/><path class="cls-2" d="M771.43,135.07a3.18,3.18,0,1,0,3.18,3.18,3.18,3.18,0,0,0-3.18-3.18"/><path class="cls-2" d="M797.91,131.76a6.49,6.49,0,1,0,6.49,6.49,6.49,6.49,0,0,0-6.49-6.49"/><path class="cls-2" d="M797.91,135.07a3.18,3.18,0,1,0,3.18,3.18,3.18,3.18,0,0,0-3.18-3.18"/><path class="cls-2" d="M744.7,158.49a6.5,6.5,0,1,0,6.49,6.49,6.5,6.5,0,0,0-6.49-6.49"/><path class="cls-2" d="M744.7,161.8a3.19,3.19,0,1,0,3.18,3.18,3.19,3.19,0,0,0-3.18-3.18"/><path class="cls-2" d="M771.43,158.49a6.5,6.5,0,1,0,6.49,6.49,6.49,6.49,0,0,0-6.49-6.49"/><path class="cls-2" d="M771.43,161.8a3.19,3.19,0,1,0,3.18,3.18,3.18,3.18,0,0,0-3.18-3.18"/><path class="cls-2" d="M797.91,158.49A6.5,6.5,0,1,0,804.4,165a6.49,6.49,0,0,0-6.49-6.49"/><path class="cls-2" d="M797.91,161.8a3.19,3.19,0,1,0,3.18,3.18,3.18,3.18,0,0,0-3.18-3.18"/><path class="cls-2" d="M305,158.49a6.5,6.5,0,1,0,6.5,6.49,6.5,6.5,0,0,0-6.5-6.49"/><path class="cls-2" d="M305,161.8a3.19,3.19,0,1,0,3.19,3.18A3.19,3.19,0,0,0,305,161.8"/><path class="cls-2" d="M305,131.76a6.49,6.49,0,1,0,6.5,6.49,6.5,6.5,0,0,0-6.5-6.49"/><path class="cls-2" d="M305,135.07a3.18,3.18,0,1,0,3.19,3.18,3.18,3.18,0,0,0-3.19-3.18"/><path class="cls-2" d="M331.73,131.76a6.49,6.49,0,1,0,6.49,6.49,6.49,6.49,0,0,0-6.49-6.49"/><path class="cls-2" d="M331.73,135.07a3.18,3.18,0,1,0,3.18,3.18,3.18,3.18,0,0,0-3.18-3.18"/><path class="cls-2" d="M358.21,131.76a6.49,6.49,0,1,0,6.49,6.49,6.5,6.5,0,0,0-6.49-6.49"/><path class="cls-2" d="M358.21,135.07a3.18,3.18,0,1,0,3.18,3.18,3.18,3.18,0,0,0-3.18-3.18"/><path class="cls-2" d="M384.94,131.76a6.49,6.49,0,1,0,6.49,6.49,6.49,6.49,0,0,0-6.49-6.49"/><path class="cls-2" d="M384.94,135.07a3.18,3.18,0,1,0,3.18,3.18,3.18,3.18,0,0,0-3.18-3.18"/><path class="cls-2" d="M331.73,158.49a6.5,6.5,0,1,0,6.49,6.49,6.49,6.49,0,0,0-6.49-6.49"/><path class="cls-2" d="M331.73,161.8a3.19,3.19,0,1,0,3.18,3.18,3.18,3.18,0,0,0-3.18-3.18"/><path class="cls-2" d="M358.21,158.49A6.5,6.5,0,1,0,364.7,165a6.5,6.5,0,0,0-6.49-6.49"/><path class="cls-2" d="M358.21,161.8a3.19,3.19,0,1,0,3.18,3.18,3.19,3.19,0,0,0-3.18-3.18"/><path class="cls-2" d="M384.94,158.49a6.5,6.5,0,1,0,6.49,6.49,6.49,6.49,0,0,0-6.49-6.49"/><path class="cls-2" d="M384.94,161.8a3.19,3.19,0,1,0,3.18,3.18,3.18,3.18,0,0,0-3.18-3.18"/><path class="cls-2" d="M318.23,135.07a3.18,3.18,0,1,0,3.19,3.18,3.18,3.18,0,0,0-3.19-3.18"/><path class="cls-2" d="M318.23,131.76a6.49,6.49,0,1,0,6.5,6.49,6.5,6.5,0,0,0-6.5-6.49"/><path class="cls-2" d="M345,135.07a3.18,3.18,0,1,0,3.18,3.18,3.18,3.18,0,0,0-3.18-3.18"/><path class="cls-2" d="M345,131.76a6.49,6.49,0,1,0,6.49,6.49,6.49,6.49,0,0,0-6.49-6.49"/><path class="cls-2" d="M371.7,135.07a3.18,3.18,0,1,0,3.18,3.18,3.18,3.18,0,0,0-3.18-3.18"/><path class="cls-2" d="M371.7,131.76a6.49,6.49,0,1,0,6.49,6.49,6.5,6.5,0,0,0-6.49-6.49"/><path class="cls-2" d="M318.23,161.8a3.19,3.19,0,1,0,3.19,3.18,3.19,3.19,0,0,0-3.19-3.18"/><path class="cls-2" d="M318.23,158.49a6.5,6.5,0,1,0,6.5,6.49,6.5,6.5,0,0,0-6.5-6.49"/><path class="cls-2" d="M345,161.8a3.19,3.19,0,1,0,3.18,3.18A3.19,3.19,0,0,0,345,161.8"/><path class="cls-2" d="M345,158.49a6.5,6.5,0,1,0,6.49,6.49,6.49,6.49,0,0,0-6.49-6.49"/><path class="cls-2" d="M371.7,161.8a3.19,3.19,0,1,0,3.18,3.18,3.18,3.18,0,0,0-3.18-3.18"/><path class="cls-2" d="M371.7,158.49a6.5,6.5,0,1,0,6.49,6.49,6.5,6.5,0,0,0-6.49-6.49"/><polyline class="cls-1" points="161.78 70.4 153.12 70.65 144.47 71.16 136.06 72.44 127.66 73.96 119.52 76 111.37 78.55 103.73 81.35 96.6 84.66 89.47 88.48 83.11 92.55 77 96.88 71.4 101.46 66.3 106.55 61.72 111.9 57.65 117.25 54.34 122.85"/><polyline class="cls-1" points="54.34 180.64 57.65 186.24 61.72 191.59 66.3 196.94 71.4 201.77 77 206.61 83.11 210.94 89.47 215.01 96.6 218.58 103.73 221.89 111.37 224.94 119.52 227.49 127.66 229.53 136.06 231.05 144.47 232.07 153.12 232.84 161.78 233.09"/><polyline class="cls-1" points="161.78 70.4 245.54 73.96 329.31 76.51 413.07 78.29 496.84 79.06 580.86 79.06 664.62 78.04 748.39 76 832.15 72.94 915.92 69.13 999.43 64.29"/><path class="cls-1" d="M1041.39,236.33a166.86,166.86,0,0,0,94.11-55.88"/><path class="cls-1" d="M999.22,239.11a158.4,158.4,0,0,0,42.13-2.84"/><polyline class="cls-1" points="999.43 239.2 915.92 234.36 832.15 230.54 748.39 227.49 664.62 225.45 580.86 224.43 496.84 224.18 413.07 224.94 329.31 226.73 245.54 229.53 161.78 233.09"/><line class="cls-1" x1="54.34" y1="122.85" x2="1135.64" y2="122.85"/><line class="cls-1" x1="54.34" y1="180.64" x2="1135.64" y2="180.64"/><line class="cls-1" x1="60.96" y1="114.45" x2="1126.47" y2="114.45"/><line class="cls-1" x1="60.96" y1="189.04" x2="1126.47" y2="189.04"/><polyline class="cls-2" points="161.27 57.92 152.1 58.18 143.19 58.94 134.28 60.22 125.37 61.74 116.97 63.78 108.57 66.58 100.42 69.38 92.53 72.94 85.14 76.76 78.02 80.84 71.4 85.42 65.28 90.51 59.68 95.61 54.59 101.21 50.01 106.81 45.94 112.92 42.37 119.03 39.57 125.39 37.28 131.76 35.75 138.38 34.73 145 34.48 151.62 34.73 158.49 35.75 165.11 37.28 171.48 39.57 178.1 42.37 184.46 45.94 190.57 50.01 196.68 54.59 202.28 59.68 207.88 65.28 212.98 71.4 217.81 78.02 222.4 85.14 226.73 92.53 230.54 100.42 233.85 108.57 236.91 116.97 239.46 125.37 241.75 134.28 243.28 143.19 244.55 152.1 245.31 161.27 245.57"/><polyline class="cls-2" points="162.54 57.92 246.05 61.49 329.82 64.29 413.58 65.82 497.35 66.58 581.11 66.58 664.88 65.56 748.39 63.52 832.15 60.47 915.92 56.65 999.43 51.81"/><polyline class="cls-2" points="999.43 251.68 915.92 246.84 832.15 243.02 748.39 239.97 664.88 237.93 581.11 236.91 497.35 236.66 413.58 237.42 329.82 239.2 246.05 242 162.54 245.57"/><path class="cls-2" d="M1162.73,139.77a179.37,179.37,0,0,0-118.85-85.09"/><path class="cls-2" d="M1043.87,54.73a169.37,169.37,0,0,0-44.59-3.09"/><path class="cls-2" d="M1043.89,248.55a179.37,179.37,0,0,0,118.85-85.1"/><path class="cls-2" d="M1162.75,163.26a23.32,23.32,0,0,0,0-23.54"/><path class="cls-3" d="M999.28,251.59a169.09,169.09,0,0,0,44.61-3.09"/><path class="cls-2" d="M999.28,251.59a169.09,169.09,0,0,0,44.61-3.09"/><path class="cls-3" d="M161.11,245.31c.41,0,.82,0,1.22,0"/><path class="cls-3" d="M162.33,57.7c-.41,0-.81,0-1.22,0"/><polyline class="cls-2" points="1006.56 346.22 903.7 342.66 800.58 340.11 697.47 338.84 594.61 338.33 491.49 338.58 388.38 340.11 285.26 342.4 182.4 345.97"/><path class="cls-3" d="M1006.63,345.84c2.64.11,5.28.14,7.93.12"/><path class="cls-2" d="M19.68,293.08a298.52,298.52,0,0,0,136.79,51.71"/><path class="cls-2" d="M156.67,344.61a169,169,0,0,0,25.55,1"/><path class="cls-2" d="M1014.4,346a294.11,294.11,0,0,0,165.92-53.05"/><line class="cls-1" x1="1166.19" y1="151.62" x2="34.48" y2="151.62"/><line class="cls-1" x1="15" y1="348.7" x2="18.92" y2="348.7"/><line class="cls-4" x1="26.72" y1="348.7" x2="1177.18" y2="348.7"/><line class="cls-1" x1="1181.08" y1="348.7" x2="1185" y2="348.7"/><line class="cls-5" x1="162.37" y1="57.67" x2="162.37" y2="246.5"/><line class="cls-5" x1="559.02" y1="73.32" x2="559.02" y2="234.53"/><line class="cls-5" x1="1037.36" y1="57.67" x2="1037.36" y2="246.5"/><rect class="cls-6" x="94.73" y="135.07" width="131.03" height="33.1"/><rect class="cls-6" x="500.83" y="131.76" width="111.43" height="37.59"/><rect class="cls-6" x="967.49" y="139.69" width="147.87" height="23.57"/><path class="cls-5" d="M64.63,270.48s42.15-29,488.17-29,489.91,29,489.91,29"/><text class="cls-7" transform="translate(102.67 157.13)">T<tspan class="cls-8" x="12.63" y="0">ail Width</tspan></text><text class="cls-9" transform="translate(968.33 157.13)">Nose Width</text><text class="cls-9" transform="translate(486.08 157.13)"><tspan class="cls-10">W</tspan><tspan x="23.34" y="0">aist Width</tspan></text><text class="cls-9" transform="translate(470.27 270.81)">Sidecut Radius</text></svg>