<svg id="Layer_1" data-name="Layer 1" xmlns="http://www.w3.org/2000/svg" viewBox="0 0 250 600"><defs><style>.cls-1{fill:#4d6479;}.cls-2{fill:#f16145;}.cls-3{fill:#bbcada;}.cls-4{fill:#fff;}.cls-5,.cls-7{fill:none;stroke:#666;stroke-linecap:round;stroke-linejoin:round;stroke-width:0.77px;}.cls-5{stroke-dasharray:1 3 1 3 1 3;}.cls-6{fill:#3e4f60;}</style></defs><title>board-outlines-vertical-color</title><rect class="cls-1" x="134.01" y="78.94" width="114.26" height="36.02"/><rect class="cls-2" x="159.81" y="181.37" width="88.46" height="36.02"/><rect class="cls-3" x="144.21" y="287.93" width="104.06" height="36.02"/><path class="cls-4" d="M167,202.32a6.17,6.17,0,0,0,3.12.88c1.78,0,2.82-.94,2.82-2.3s-.72-2-2.54-2.68c-2.2-.78-3.56-1.92-3.56-3.82,0-2.1,1.74-3.66,4.36-3.66a6.12,6.12,0,0,1,3,.66l-.48,1.42a5.37,5.37,0,0,0-2.56-.64c-1.84,0-2.54,1.1-2.54,2,0,1.26.82,1.88,2.68,2.6,2.28.88,3.44,2,3.44,4s-1.54,3.88-4.72,3.88a7,7,0,0,1-3.44-.86Z"/><path class="cls-4" d="M186,199.52c0,3.58-2.48,5.14-4.82,5.14-2.62,0-4.64-1.92-4.64-5,0-3.24,2.12-5.14,4.8-5.14S186,196.56,186,199.52Zm-7.68.1c0,2.12,1.22,3.72,2.94,3.72s2.94-1.58,2.94-3.76c0-1.64-.82-3.72-2.9-3.72S178.27,197.78,178.27,199.62Z"/><path class="cls-4" d="M188.35,204.44V196.1H187v-1.34h1.36v-.46a4.56,4.56,0,0,1,1.12-3.38,3.37,3.37,0,0,1,2.36-.9,4.08,4.08,0,0,1,1.5.28l-.24,1.36a2.63,2.63,0,0,0-1.12-.22c-1.5,0-1.88,1.32-1.88,2.8v.52h2.34v1.34h-2.34v8.34Z"/><path class="cls-4" d="M196.35,192v2.78h2.52v1.34h-2.52v5.22c0,1.2.34,1.88,1.32,1.88a3.92,3.92,0,0,0,1-.12l.08,1.32a4.31,4.31,0,0,1-1.56.24,2.44,2.44,0,0,1-1.9-.74,3.59,3.59,0,0,1-.68-2.52V196.1h-1.5v-1.34h1.5v-2.32Z"/><path class="cls-4" d="M212.13,198.12h-5.24V203h5.84v1.46h-7.58V191h7.28v1.46h-5.54v4.26h5.24Z"/><path class="cls-4" d="M223.21,190.24v11.7c0,.86,0,1.84.08,2.5h-1.58l-.08-1.68h0a3.58,3.58,0,0,1-3.3,1.9c-2.34,0-4.14-2-4.14-4.92,0-3.22,2-5.2,4.34-5.2a3.24,3.24,0,0,1,2.92,1.48h0v-5.78Zm-1.76,8.46a3.11,3.11,0,0,0-.08-.74,2.59,2.59,0,0,0-2.54-2c-1.82,0-2.9,1.6-2.9,3.74,0,2,1,3.58,2.86,3.58a2.65,2.65,0,0,0,2.58-2.1,3.06,3.06,0,0,0,.08-.76Z"/><path class="cls-4" d="M234.47,194.76c0,.7-.08,1.48-.08,2.66V203c0,2.22-.44,3.58-1.38,4.42a5.13,5.13,0,0,1-3.52,1.16,6.25,6.25,0,0,1-3.22-.8l.44-1.34a5.46,5.46,0,0,0,2.84.76c1.8,0,3.12-.94,3.12-3.38v-1.08h0a3.46,3.46,0,0,1-3.08,1.62c-2.4,0-4.12-2-4.12-4.72,0-3.28,2.14-5.14,4.36-5.14a3.22,3.22,0,0,1,3,1.68h0l.08-1.46Zm-1.82,3.82a2.51,2.51,0,0,0-.1-.8,2.54,2.54,0,0,0-2.46-1.86c-1.68,0-2.88,1.42-2.88,3.66,0,1.9,1,3.48,2.86,3.48a2.57,2.57,0,0,0,2.44-1.8,3.06,3.06,0,0,0,.14-.94Z"/><path class="cls-4" d="M238.29,199.92a3.1,3.1,0,0,0,3.32,3.36,6.36,6.36,0,0,0,2.68-.5l.3,1.26a7.84,7.84,0,0,1-3.22.6c-3,0-4.76-2-4.76-4.88s1.72-5.22,4.54-5.22c3.16,0,4,2.78,4,4.56a6.64,6.64,0,0,1-.06.82Zm5.16-1.26c0-1.12-.46-2.86-2.44-2.86-1.78,0-2.56,1.64-2.7,2.86Z"/><line class="cls-5" x1="161.21" y1="198.44" x2="122.83" y2="198.44"/><line class="cls-5" x1="144.21" y1="305.94" x2="70.83" y2="305.94"/><path class="cls-6" d="M158.84,311.5a8.71,8.71,0,0,1-3.56.64c-3.81,0-6.67-2.4-6.67-6.82a6.71,6.71,0,0,1,7-7.08,7.24,7.24,0,0,1,3.21.6l-.42,1.42a6.35,6.35,0,0,0-2.73-.56c-3.16,0-5.26,2-5.26,5.56,0,3.3,1.9,5.42,5.18,5.42a7,7,0,0,0,2.85-.56Z"/><path class="cls-6" d="M161.71,307.42a3.1,3.1,0,0,0,3.32,3.36,6.36,6.36,0,0,0,2.68-.5l.31,1.26a7.9,7.9,0,0,1-3.23.6c-3,0-4.76-2-4.76-4.88s1.72-5.22,4.54-5.22c3.17,0,4,2.78,4,4.56,0,.36,0,.64,0,.82Zm5.16-1.26c0-1.12-.46-2.86-2.44-2.86-1.78,0-2.56,1.64-2.7,2.86Z"/><path class="cls-6" d="M170.75,304.88c0-1,0-1.82-.08-2.62h1.56l.1,1.6h0a3.56,3.56,0,0,1,3.2-1.82c1.34,0,3.42.8,3.42,4.12v5.78h-1.76v-5.58c0-1.56-.58-2.86-2.24-2.86a2.5,2.5,0,0,0-2.36,1.8,2.53,2.53,0,0,0-.12.82v5.82h-1.76Z"/><path class="cls-6" d="M183.89,299.48v2.78h2.52v1.34h-2.52v5.22c0,1.2.34,1.88,1.32,1.88a3.92,3.92,0,0,0,1-.12l.08,1.32a4.31,4.31,0,0,1-1.56.24,2.44,2.44,0,0,1-1.9-.74,3.59,3.59,0,0,1-.68-2.52V303.6h-1.5v-1.34h1.5v-2.32Z"/><path class="cls-6" d="M188.39,305.28c0-1.14,0-2.12-.08-3h1.54l.06,1.9H190a2.9,2.9,0,0,1,2.68-2.12,1.9,1.9,0,0,1,.5.06v1.66a2.64,2.64,0,0,0-.6-.06,2.47,2.47,0,0,0-2.36,2.26,5,5,0,0,0-.08.82v5.16h-1.74Z"/><path class="cls-6" d="M200.19,311.94l-.14-1.22H200a3.61,3.61,0,0,1-3,1.44,2.76,2.76,0,0,1-3-2.78c0-2.34,2.08-3.62,5.82-3.6v-.2a2,2,0,0,0-2.2-2.24,4.82,4.82,0,0,0-2.52.72l-.4-1.16A6,6,0,0,1,198,302c3,0,3.68,2,3.68,4v3.62a13.63,13.63,0,0,0,.16,2.32Zm-.26-4.94c-1.92,0-4.1.3-4.1,2.18a1.56,1.56,0,0,0,1.66,1.68,2.41,2.41,0,0,0,2.34-1.62,1.84,1.84,0,0,0,.1-.56Z"/><path class="cls-6" d="M204.47,297.74h1.76v14.2h-1.76Z"/><path class="cls-6" d="M213.49,298.46h7.26v1.46h-5.52v4.48h5.1v1.44h-5.1v6.1h-1.74Z"/><path class="cls-6" d="M222.83,297.74h1.76v14.2h-1.76Z"/><path class="cls-6" d="M228.53,307.42a3.1,3.1,0,0,0,3.32,3.36,6.36,6.36,0,0,0,2.68-.5l.3,1.26a7.84,7.84,0,0,1-3.22.6c-3,0-4.76-2-4.76-4.88s1.72-5.22,4.54-5.22c3.16,0,4,2.78,4,4.56a6.64,6.64,0,0,1-.06.82Zm5.16-1.26c0-1.12-.46-2.86-2.44-2.86-1.78,0-2.56,1.64-2.7,2.86Z"/><path class="cls-6" d="M238.33,302.26l1.38,2.08c.36.54.66,1,1,1.58h.06c.32-.58.64-1.08,1-1.6l1.36-2.06H245l-3.3,4.68,3.4,5h-2l-1.42-2.18c-.38-.56-.7-1.1-1-1.68h0c-.32.58-.66,1.1-1,1.68l-1.4,2.18h-1.94l3.44-4.94-3.28-4.74Z"/><line class="cls-5" x1="133.21" y1="96.95" x2="70.83" y2="96.95"/><path class="cls-4" d="M138.23,89.62a20.17,20.17,0,0,1,3.34-.26,5.59,5.59,0,0,1,3.78,1.12,3.65,3.65,0,0,1,1.18,2.83,4,4,0,0,1-1,2.88,5.59,5.59,0,0,1-4.12,1.48,6,6,0,0,1-1.4-.12V103h-1.74ZM140,96.13a5.84,5.84,0,0,0,1.44.14c2.1,0,3.38-1,3.38-2.88s-1.26-2.64-3.18-2.64a7.3,7.3,0,0,0-1.64.14Z"/><path class="cls-4" d="M157.07,98c0,3.58-2.48,5.14-4.82,5.14-2.62,0-4.64-1.92-4.64-5,0-3.24,2.12-5.14,4.8-5.14S157.07,95.07,157.07,98Zm-7.68.1c0,2.12,1.22,3.72,2.94,3.72s2.94-1.58,2.94-3.76c0-1.64-.82-3.72-2.9-3.72S149.39,96.29,149.39,98.13Z"/><path class="cls-4" d="M159.85,93.27l1.28,4.92c.28,1.08.54,2.08.72,3.08h.06c.22-1,.54-2,.86-3.06l1.58-4.94h1.48l1.5,4.84c.36,1.16.65,2.18.86,3.16h.07a29.11,29.11,0,0,1,.74-3.14l1.38-4.86h1.74L169,103h-1.6l-1.49-4.62a32.26,32.26,0,0,1-.86-3.18h0a28.64,28.64,0,0,1-.88,3.2l-1.56,4.6H161l-2.92-9.68Z"/><path class="cls-4" d="M187.59,102.51a8.64,8.64,0,0,1-3.56.64c-3.8,0-6.66-2.4-6.66-6.82a6.72,6.72,0,0,1,7-7.09,7.23,7.23,0,0,1,3.2.6l-.42,1.43a6.34,6.34,0,0,0-2.72-.56c-3.16,0-5.26,2-5.26,5.56,0,3.3,1.9,5.42,5.18,5.42a7,7,0,0,0,2.84-.56Z"/><path class="cls-4" d="M189.71,88.74h1.76v6.05h0a3.27,3.27,0,0,1,1.26-1.24,3.62,3.62,0,0,1,1.8-.5c1.3,0,3.38.8,3.38,4.14V103h-1.76V97.39c0-1.56-.58-2.88-2.24-2.88a2.53,2.53,0,0,0-2.36,1.76,2.13,2.13,0,0,0-.12.84V103h-1.76Z"/><path class="cls-4" d="M206.17,103l-.14-1.22H206a3.61,3.61,0,0,1-3,1.44,2.76,2.76,0,0,1-3-2.78c0-2.34,2.08-3.62,5.82-3.6v-.2a2,2,0,0,0-2.2-2.24,4.82,4.82,0,0,0-2.52.72l-.4-1.16a6,6,0,0,1,3.18-.86c3,0,3.68,2,3.68,4v3.62a13.63,13.63,0,0,0,.16,2.32ZM205.91,98c-1.92,0-4.1.3-4.1,2.18a1.56,1.56,0,0,0,1.66,1.68,2.41,2.41,0,0,0,2.34-1.62,1.84,1.84,0,0,0,.1-.56Z"/><path class="cls-4" d="M210.45,95.89c0-1,0-1.82-.08-2.62h1.56l.1,1.6h0a3.56,3.56,0,0,1,3.2-1.82c1.34,0,3.42.8,3.42,4.12V103h-1.76V97.37c0-1.56-.58-2.86-2.24-2.86a2.5,2.5,0,0,0-2.36,1.8,2.53,2.53,0,0,0-.12.82V103h-1.76Z"/><path class="cls-4" d="M221.55,95.89c0-1,0-1.82-.08-2.62H223l.1,1.6h0a3.56,3.56,0,0,1,3.2-1.82c1.34,0,3.42.8,3.42,4.12V103H228V97.37c0-1.56-.58-2.86-2.24-2.86a2.5,2.5,0,0,0-2.36,1.8,2.53,2.53,0,0,0-.12.82V103h-1.76Z"/><path class="cls-4" d="M233.63,98.43a3.1,3.1,0,0,0,3.32,3.36,6.36,6.36,0,0,0,2.68-.5l.3,1.26a7.84,7.84,0,0,1-3.22.6c-3,0-4.76-2-4.76-4.88s1.72-5.22,4.54-5.22c3.16,0,4,2.78,4,4.56a6.64,6.64,0,0,1-.06.82Zm5.16-1.26c0-1.12-.46-2.86-2.44-2.86-1.78,0-2.56,1.64-2.7,2.86Z"/><path class="cls-4" d="M242.67,88.74h1.76V103h-1.76Z"/><line class="cls-7" x1="57.76" y1="561.39" x2="57.76" y2="33.33"/><line class="cls-7" x1="53.25" y1="558.17" x2="53.25" y2="36.55"/><line class="cls-7" x1="88.41" y1="561.39" x2="88.41" y2="33.33"/><line class="cls-7" x1="92.92" y1="558.17" x2="92.92" y2="36.55"/><polyline class="cls-7" points="27.88 504.59 28.01 508.97 28.26 513.35 28.91 517.6 29.68 521.72 30.71 525.85 32 529.84 33.54 533.83 35.22 537.57 37.02 541.04 39.08 544.39 41.27 547.61 43.72 550.57 46.3 553.28 49 555.73 51.83 557.79 54.8 559.72 57.76 561.39"/><polyline class="cls-7" points="88.41 561.39 91.37 559.72 94.34 557.79 97.17 555.73 99.88 553.28 102.45 550.57 104.77 547.61 107.09 544.39 109.15 541.04 110.95 537.57 112.63 533.83 114.17 529.84 115.46 525.85 116.49 521.72 117.26 517.6 117.91 513.35 118.16 508.97 118.29 504.59"/><polyline class="cls-7" points="27.88 504.59 30.32 466.99 32.26 429.38 33.8 391.64 34.7 353.9 35.22 316.16 35.22 278.43 34.7 240.82 33.8 203.08 32.26 165.34 30.32 127.73 27.88 90"/><polyline class="cls-7" points="118.29 90 118.16 85.75 117.91 81.37 117.26 77.12 116.49 72.87 115.46 68.75 114.17 64.75 112.63 60.89 110.95 57.16 109.15 53.68 107.09 50.2 104.77 47.11 102.45 44.15 99.88 41.44 97.17 38.99 94.34 36.8 91.37 34.87 88.41 33.33"/><polyline class="cls-7" points="57.76 33.33 54.8 34.87 51.83 36.8 49 38.99 46.3 41.44 43.72 44.15 41.27 47.11 39.08 50.2 37.02 53.68 35.22 57.16 33.54 60.89 32 64.75 30.71 68.75 29.68 72.87 28.91 77.12 28.26 81.37 28.01 85.75 27.88 90"/><polyline class="cls-7" points="118.29 90 115.84 127.73 113.91 165.34 112.37 203.08 111.47 240.82 110.95 278.43 110.95 316.16 111.47 353.9 112.37 391.64 113.91 429.38 115.84 466.99 118.29 504.59"/><path class="cls-7" d="M62.52,426.74a3.42,3.42,0,1,0,3.42-3.42,3.42,3.42,0,0,0-3.42,3.42"/><path class="cls-7" d="M64.2,426.74A1.74,1.74,0,1,0,65.94,425a1.73,1.73,0,0,0-1.74,1.74"/><path class="cls-7" d="M62.52,412.57a3.42,3.42,0,1,0,3.42-3.41,3.42,3.42,0,0,0-3.42,3.41"/><path class="cls-7" d="M64.2,412.57a1.74,1.74,0,1,0,1.74-1.74,1.74,1.74,0,0,0-1.74,1.74"/><path class="cls-7" d="M62.52,398.4A3.42,3.42,0,1,0,65.94,395a3.41,3.41,0,0,0-3.42,3.41"/><path class="cls-7" d="M64.2,398.4a1.74,1.74,0,1,0,1.74-1.74,1.74,1.74,0,0,0-1.74,1.74"/><path class="cls-7" d="M62.52,384.23a3.42,3.42,0,1,0,3.42-3.41,3.42,3.42,0,0,0-3.42,3.41"/><path class="cls-7" d="M64.2,384.23a1.74,1.74,0,1,0,1.74-1.74,1.74,1.74,0,0,0-1.74,1.74"/><path class="cls-7" d="M76.69,426.74a3.42,3.42,0,1,0,3.41-3.42,3.41,3.41,0,0,0-3.41,3.42"/><path class="cls-7" d="M78.37,426.74A1.74,1.74,0,1,0,80.1,425a1.72,1.72,0,0,0-1.73,1.74"/><path class="cls-7" d="M76.69,412.57a3.42,3.42,0,1,0,3.41-3.41,3.41,3.41,0,0,0-3.41,3.41"/><path class="cls-7" d="M78.37,412.57a1.74,1.74,0,1,0,1.73-1.74,1.73,1.73,0,0,0-1.73,1.74"/><path class="cls-7" d="M76.69,398.27a3.42,3.42,0,1,0,3.41-3.41,3.42,3.42,0,0,0-3.41,3.41"/><path class="cls-7" d="M78.37,398.27a1.74,1.74,0,1,0,1.73-1.74,1.73,1.73,0,0,0-1.73,1.74"/><path class="cls-7" d="M76.69,384.23a3.42,3.42,0,1,0,3.41-3.41,3.42,3.42,0,0,0-3.41,3.41"/><path class="cls-7" d="M78.37,384.23a1.74,1.74,0,1,0,1.73-1.74,1.73,1.73,0,0,0-1.73,1.74"/><path class="cls-7" d="M62.52,210.62a3.42,3.42,0,1,0,3.42-3.42,3.42,3.42,0,0,0-3.42,3.42"/><path class="cls-7" d="M64.2,210.62a1.74,1.74,0,1,0,1.74-1.74,1.73,1.73,0,0,0-1.74,1.74"/><path class="cls-7" d="M62.52,196.45A3.42,3.42,0,1,0,65.94,193a3.42,3.42,0,0,0-3.42,3.41"/><path class="cls-7" d="M64.2,196.45a1.74,1.74,0,1,0,1.74-1.74,1.74,1.74,0,0,0-1.74,1.74"/><path class="cls-7" d="M62.52,182.28a3.42,3.42,0,1,0,3.42-3.41,3.41,3.41,0,0,0-3.42,3.41"/><path class="cls-7" d="M64.2,182.28a1.74,1.74,0,1,0,1.74-1.74,1.74,1.74,0,0,0-1.74,1.74"/><path class="cls-7" d="M62.52,168.11a3.42,3.42,0,1,0,3.42-3.41,3.42,3.42,0,0,0-3.42,3.41"/><path class="cls-7" d="M64.2,168.11a1.74,1.74,0,1,0,1.74-1.74,1.74,1.74,0,0,0-1.74,1.74"/><path class="cls-7" d="M76.69,210.62a3.42,3.42,0,1,0,3.41-3.42,3.41,3.41,0,0,0-3.41,3.42"/><path class="cls-7" d="M78.37,210.62a1.74,1.74,0,1,0,1.73-1.74,1.72,1.72,0,0,0-1.73,1.74"/><path class="cls-7" d="M76.69,196.32a3.42,3.42,0,1,0,3.41-3.41,3.41,3.41,0,0,0-3.41,3.41"/><path class="cls-7" d="M78.37,196.32a1.74,1.74,0,1,0,1.73-1.74,1.73,1.73,0,0,0-1.73,1.74"/><path class="cls-7" d="M76.69,182.28a3.42,3.42,0,1,0,3.41-3.41,3.41,3.41,0,0,0-3.41,3.41"/><path class="cls-7" d="M78.37,182.28a1.74,1.74,0,1,0,1.73-1.74,1.73,1.73,0,0,0-1.73,1.74"/><path class="cls-7" d="M76.69,168.11a3.42,3.42,0,1,0,3.41-3.41,3.42,3.42,0,0,0-3.41,3.41"/><path class="cls-7" d="M78.37,168.11a1.74,1.74,0,1,0,1.73-1.74,1.73,1.73,0,0,0-1.73,1.74"/><path class="cls-7" d="M64.2,419.65a1.74,1.74,0,1,0,1.74-1.74,1.74,1.74,0,0,0-1.74,1.74"/><path class="cls-7" d="M62.52,419.65a3.42,3.42,0,1,0,3.42-3.41,3.42,3.42,0,0,0-3.42,3.41"/><path class="cls-7" d="M64.2,405.48a1.74,1.74,0,1,0,1.74-1.73,1.74,1.74,0,0,0-1.74,1.73"/><path class="cls-7" d="M62.52,405.48a3.42,3.42,0,1,0,3.42-3.41,3.42,3.42,0,0,0-3.42,3.41"/><path class="cls-7" d="M64.2,391.19a1.74,1.74,0,1,0,1.74-1.74,1.74,1.74,0,0,0-1.74,1.74"/><path class="cls-7" d="M62.52,391.19a3.42,3.42,0,1,0,3.42-3.41,3.42,3.42,0,0,0-3.42,3.41"/><path class="cls-7" d="M78.37,419.65a1.74,1.74,0,1,0,1.73-1.74,1.73,1.73,0,0,0-1.73,1.74"/><path class="cls-7" d="M76.69,419.65a3.42,3.42,0,1,0,3.41-3.41,3.42,3.42,0,0,0-3.41,3.41"/><path class="cls-7" d="M78.37,405.48a1.74,1.74,0,1,0,1.73-1.73,1.73,1.73,0,0,0-1.73,1.73"/><path class="cls-7" d="M76.69,405.48a3.42,3.42,0,1,0,3.41-3.41,3.42,3.42,0,0,0-3.41,3.41"/><path class="cls-7" d="M78.37,391.19a1.74,1.74,0,1,0,1.73-1.74,1.73,1.73,0,0,0-1.73,1.74"/><path class="cls-7" d="M76.69,391.19a3.42,3.42,0,1,0,3.41-3.41,3.41,3.41,0,0,0-3.41,3.41"/><path class="cls-7" d="M62.52,203.53a3.42,3.42,0,1,0,3.42-3.41,3.42,3.42,0,0,0-3.42,3.41"/><path class="cls-7" d="M64.2,203.53a1.74,1.74,0,1,0,1.74-1.74,1.74,1.74,0,0,0-1.74,1.74"/><path class="cls-7" d="M62.52,189.36A3.42,3.42,0,1,0,65.94,186a3.42,3.42,0,0,0-3.42,3.41"/><path class="cls-7" d="M64.2,189.36a1.74,1.74,0,1,0,1.74-1.73,1.74,1.74,0,0,0-1.74,1.73"/><path class="cls-7" d="M62.52,175.2a3.42,3.42,0,1,0,3.42-3.42,3.42,3.42,0,0,0-3.42,3.42"/><path class="cls-7" d="M64.2,175.2a1.74,1.74,0,1,0,1.74-1.74,1.74,1.74,0,0,0-1.74,1.74"/><path class="cls-7" d="M76.69,203.53a3.42,3.42,0,1,0,3.41-3.41,3.42,3.42,0,0,0-3.41,3.41"/><path class="cls-7" d="M78.37,203.53a1.74,1.74,0,1,0,1.73-1.74,1.73,1.73,0,0,0-1.73,1.74"/><path class="cls-7" d="M76.69,189.24a3.42,3.42,0,1,0,3.41-3.42,3.41,3.41,0,0,0-3.41,3.42"/><path class="cls-7" d="M78.37,189.24a1.74,1.74,0,1,0,1.73-1.74,1.72,1.72,0,0,0-1.73,1.74"/><path class="cls-7" d="M76.69,175.2a3.42,3.42,0,1,0,3.41-3.42,3.41,3.41,0,0,0-3.41,3.42"/><path class="cls-7" d="M78.37,175.2a1.74,1.74,0,1,0,1.73-1.74,1.73,1.73,0,0,0-1.73,1.74"/><polyline class="cls-7" points="124.99 89.61 124.73 84.85 124.35 80.21 123.7 75.57 122.8 70.94 121.77 66.56 120.35 62.18 118.81 57.93 116.88 53.81 114.94 49.94 112.63 46.34 110.31 42.73 107.6 39.51 104.9 36.55 101.94 33.71 98.84 31.27 95.75 29.08 92.4 27.15 89.06 25.6 85.58 24.31 82.1 23.28 78.49 22.64 74.89 22.38 71.28 22.38 67.67 22.64 64.07 23.28 60.59 24.31 57.11 25.6 53.77 27.15 50.42 29.08 47.2 31.27 44.23 33.71 41.27 36.55 38.57 39.51 35.86 42.73 33.54 46.34 31.23 49.94 29.29 53.81 27.36 57.93 25.82 62.18 24.4 66.56 23.37 70.94 22.47 75.57 21.82 80.21 21.31 84.85 21.18 89.61"/><polyline class="cls-7" points="21.18 505.11 21.31 509.87 21.82 514.51 22.47 519.15 23.37 523.65 24.4 528.16 25.82 532.54 27.36 536.79 29.29 540.78 31.23 544.65 33.54 548.38 35.86 551.86 38.57 555.21 41.27 558.17 44.23 560.88 47.2 563.45 50.42 565.64 53.77 567.58 57.11 569.12 60.59 570.41 64.07 571.44 67.67 572.08 71.28 572.34 74.89 572.34 78.49 572.08 82.1 571.44 85.58 570.41 89.06 569.12 92.4 567.58 95.75 565.64 98.84 563.45 101.94 560.88 104.9 558.17 107.6 555.21 110.31 551.86 112.63 548.38 114.94 544.65 116.88 540.78 118.81 536.79 120.35 532.54 121.77 528.16 122.8 523.65 123.7 519.15 124.35 514.51 124.73 509.87 124.99 505.11"/><polyline class="cls-7" points="21.31 504.21 23.76 466.6 25.69 428.99 27.11 391.38 28.14 353.77 28.65 316.16 28.65 278.56 28.14 240.95 27.11 203.21 25.69 165.6 23.76 128.12 21.31 90.51"/><polyline class="cls-7" points="124.86 90.51 122.41 128.12 120.48 165.6 119.06 203.21 118.03 240.95 117.52 278.56 117.52 316.16 118.03 353.77 119.06 391.38 120.48 428.99 122.41 466.6 124.86 504.21"/><path class="cls-7" d="M21.21,504.28q0,.48,0,1"/><path class="cls-7" d="M124.86,505.24q0-.48,0-1"/><path class="cls-7" d="M124.83,90.57q0-.48,0-1"/><path class="cls-7" d="M21.18,89.61q0,.48,0,1"/></svg>