<svg id="Layer_1" data-name="Layer 1" xmlns="http://www.w3.org/2000/svg" viewBox="0 0 100 100"><defs><style>.cls-1{fill:#f16145;}.cls-2,.cls-3,.cls-4,.cls-5,.cls-6{fill:none;stroke-miterlimit:10;}.cls-2,.cls-3,.cls-4,.cls-5{stroke:#4d6479;stroke-linecap:square;stroke-width:1.04px;}.cls-3{stroke-dasharray:0.66 1.99 0.66 1.99;}.cls-4{stroke-dasharray:0.65 1.95 0.65 1.95;}.cls-5{stroke-dasharray:0.65 1.95 0.65 1.95 0.65 1.95;}.cls-6{stroke:#3e4f60;stroke-width:3.6px;}.cls-7{fill:#3e4f60;}.cls-8{fill:#4d6479;}.cls-9{fill:#fff;}</style></defs><title>single-item-icons</title><path class="cls-1" d="M86.88,28.76H12.33l-1.2,2.4s3.83-.27,5.8,1c2.75,1.74,3.8,3.83,6,3.83H76.24c2.24,0,3.29-2.09,6-3.83,2-1.24,5.8-1,5.8-1Z"/><line class="cls-2" x1="44.1" y1="44.78" x2="44.47" y2="44.41"/><line class="cls-3" x1="45.88" y1="43.01" x2="48.93" y2="39.96"/><polyline class="cls-2" points="49.63 39.26 50 38.89 50.37 39.26"/><line class="cls-3" x1="51.78" y1="40.66" x2="54.82" y2="43.71"/><line class="cls-2" x1="55.53" y1="44.41" x2="55.9" y2="44.78"/><line class="cls-2" x1="50.13" y1="42.44" x2="50.13" y2="42.97"/><line class="cls-4" x1="50.13" y1="44.92" x2="50.13" y2="49.15"/><line class="cls-5" x1="50.13" y1="50.13" x2="50.13" y2="56.97"/><line class="cls-2" x1="50.13" y1="57.95" x2="50.13" y2="58.47"/><path class="cls-6" d="M12.65,33.41V66.59A8.63,8.63,0,0,0,17,74.06L45.69,90.64a8.62,8.62,0,0,0,8.62,0L83,74.06a8.63,8.63,0,0,0,4.31-7.47V33.41A8.63,8.63,0,0,0,83,25.94L54.31,9.36a8.62,8.62,0,0,0-8.62,0L17,25.94A8.63,8.63,0,0,0,12.65,33.41Z"/><polygon class="cls-7" points="13.13 77.89 5 77.89 5 62.9 13.13 57.27 13.13 77.89"/><polygon class="cls-7" points="86.88 77.89 95 77.89 95 62.9 86.88 57.27 86.88 77.89"/><rect class="cls-8" x="5" y="62.9" width="90" height="15"/><path class="cls-9" d="M25.25,74H22.06V66.15h3.06c1.69,0,2.38.93,2.38,2.06a2.09,2.09,0,0,1-.84,1.55,2.15,2.15,0,0,1,1.26,2C27.92,73,27.14,74,25.25,74Zm-1.59-4.71h1.2c.8,0,1.13-.44,1.13-1s-.33-1-1.13-1h-1.2ZM25,70.43H23.66v2.48H25c1,0,1.39-.54,1.39-1.25S26,70.43,25,70.43Z"/><path class="cls-9" d="M33.23,74l-.06-1a2.43,2.43,0,0,1-2.1,1.2c-1.51,0-2.08-1.05-2.08-2.45V68.36h1.53v3.13c0,1.1.36,1.47,1.07,1.47a1.56,1.56,0,0,0,1.51-1.44V68.36h1.52V74Z"/><path class="cls-9" d="M38.29,69.35V74H36.76V69.35H35.57v-1h1.19V66.81h1.53v1.55h1.19v1Z"/><path class="cls-9" d="M42.59,69.35V74H41.07V69.35h-1.2v-1h1.2V66.81h1.52v1.55h1.19v1Z"/><path class="cls-9" d="M49.7,71.23H45.92a1.7,1.7,0,0,0,1.93,1.85,3,3,0,0,0,1.84-.67v1.1a3.8,3.8,0,0,1-2.31.67,3,3,0,0,1-.1-6,2.3,2.3,0,0,1,2.52,2.24A3.22,3.22,0,0,1,49.7,71.23Zm-2.39-2.06A1.29,1.29,0,0,0,46,70.42h2.43A1,1,0,0,0,47.31,69.17Z"/><path class="cls-9" d="M52.59,70.93V74H51.07V68.36h1.39l.06,1a2.41,2.41,0,0,1,2.12-1.19v1.48C53.6,69.43,52.59,70,52.59,70.93Z"/><path class="cls-9" d="M61.14,71.16h-1.4V74h-1.6V66.15h3a2.51,2.51,0,1,1,0,5Zm-.27-3.87H59.74V70h1.13a1.37,1.37,0,1,0,0-2.73Z"/><path class="cls-9" d="M69.23,74l0-.9a2.57,2.57,0,0,1-2.11,1.06,3,3,0,0,1,0-6,2.57,2.57,0,0,1,2.11,1.06l0-.9h1.38V74Zm-1.69-4.69a1.88,1.88,0,1,0,1.61,1.86A1.66,1.66,0,0,0,67.54,69.33Z"/><path class="cls-9" d="M76.61,74l0-.9a2.61,2.61,0,0,1-2.12,1.06,3,3,0,0,1,0-6,2.55,2.55,0,0,1,2,.93v-3H78V74Zm-1.69-4.69a1.88,1.88,0,1,0,1.61,1.86A1.67,1.67,0,0,0,74.92,69.33Z"/></svg>