<svg id="Layer_1" data-name="Layer 1" xmlns="http://www.w3.org/2000/svg" viewBox="0 0 100 100"><defs><style>.cls-1,.cls-2,.cls-3,.cls-4{fill:none;stroke-miterlimit:10;}.cls-1,.cls-2,.cls-3{stroke:#f16145;stroke-linecap:round;}.cls-1{stroke-width:6.18px;}.cls-2,.cls-3{stroke-width:2.65px;opacity:0.5;}.cls-2{stroke-dasharray:1.8 4.5 1.8 4.5 1.8 4.5;}.cls-3{stroke-dasharray:0.9 8.1 0.9 8.1 0.9 8.1;}.cls-4{stroke:#3e4f60;stroke-width:3.6px;}.cls-5{fill:#3e4f60;}.cls-6{fill:#4d6479;}.cls-7{font-size:13.13px;fill:#fff;font-family:MrEavesXLModOT-Bold, Mr Eaves XL Mod OT;font-weight:700;}</style></defs><title>single-item-icons</title><path class="cls-1" d="M14,33.06S30,46.56,50,46.56s36-13.5,36-13.5"/><path class="cls-2" d="M12.87,44a117.46,117.46,0,0,0,36.88,6.3A117.36,117.36,0,0,0,86.62,44"/><path class="cls-3" d="M14.87,54.27s16.84-.9,36.88-.9,36.87.9,36.87.9"/><path class="cls-4" d="M12.65,33.41V66.59A8.63,8.63,0,0,0,17,74.06L45.69,90.64a8.62,8.62,0,0,0,8.62,0L83,74.06a8.63,8.63,0,0,0,4.31-7.47V33.41A8.63,8.63,0,0,0,83,25.94L54.31,9.36a8.62,8.62,0,0,0-8.62,0L17,25.94A8.63,8.63,0,0,0,12.65,33.41Z"/><polygon class="cls-5" points="13.13 77.89 5 77.89 5 62.9 13.13 57.27 13.13 77.89"/><polygon class="cls-5" points="86.88 77.89 95 77.89 95 62.9 86.88 57.27 86.88 77.89"/><rect class="cls-6" x="5" y="62.9" width="90" height="15"/><text class="cls-7" transform="translate(17.75 74.03)">Central Flex</text></svg>