<svg id="Layer_1" data-name="Layer 1" xmlns="http://www.w3.org/2000/svg" viewBox="0 0 100 100"><defs><style>.cls-1,.cls-2,.cls-3,.cls-4{fill:none;stroke-miterlimit:10;}.cls-1,.cls-2,.cls-3{stroke:#f16145;stroke-linecap:round;}.cls-1{stroke-width:6.18px;}.cls-2,.cls-3{stroke-width:2.65px;opacity:0.5;}.cls-2{stroke-dasharray:1.8 4.5 1.8 4.5 1.8 4.5;}.cls-3{stroke-dasharray:0.9 8.1 0.9 8.1 0.9 8.1;}.cls-4{stroke:#3e4f60;stroke-width:3.6px;}.cls-5{fill:#3e4f60;}.cls-6{fill:#4d6479;}.cls-7{fill:#fff;}</style></defs><title>single-item-icons</title><path class="cls-1" d="M14,33.06S30,46.56,50,46.56s36-13.5,36-13.5"/><path class="cls-2" d="M12.87,44a117.46,117.46,0,0,0,36.88,6.3A117.36,117.36,0,0,0,86.62,44"/><path class="cls-3" d="M14.87,54.27s16.84-.9,36.88-.9,36.87.9,36.87.9"/><path class="cls-4" d="M12.65,33.41V66.59A8.63,8.63,0,0,0,17,74.06L45.69,90.64a8.62,8.62,0,0,0,8.62,0L83,74.06a8.63,8.63,0,0,0,4.31-7.47V33.41A8.63,8.63,0,0,0,83,25.94L54.31,9.36a8.62,8.62,0,0,0-8.62,0L17,25.94A8.63,8.63,0,0,0,12.65,33.41Z"/><polygon class="cls-5" points="13.13 77.89 5 77.89 5 62.9 13.13 57.27 13.13 77.89"/><polygon class="cls-5" points="86.88 77.89 95 77.89 95 62.9 86.88 57.27 86.88 77.89"/><rect class="cls-6" x="5" y="62.9" width="90" height="15"/><path class="cls-7" d="M22.39,74.2a4.11,4.11,0,1,1,0-8.22,4.76,4.76,0,0,1,2.75.8v1.46a3.85,3.85,0,0,0-2.58-1,2.82,2.82,0,0,0,0,5.64,3.85,3.85,0,0,0,2.58-1V73.4A4.83,4.83,0,0,1,22.39,74.2Z"/><path class="cls-7" d="M31.36,71.23H27.58a1.69,1.69,0,0,0,1.93,1.85,3,3,0,0,0,1.83-.67v1.1a3.78,3.78,0,0,1-2.31.67,3,3,0,0,1-.1-6,2.3,2.3,0,0,1,2.52,2.24A3.81,3.81,0,0,1,31.36,71.23ZM29,69.17a1.3,1.3,0,0,0-1.33,1.25h2.43A1,1,0,0,0,29,69.17Z"/><path class="cls-7" d="M36.83,74V70.89c0-1.1-.38-1.47-1.08-1.47a1.56,1.56,0,0,0-1.5,1.44V74H32.72V68.36h1.39l.07,1a2.4,2.4,0,0,1,2.1-1.21c1.51,0,2.07,1,2.07,2.45V74Z"/><path class="cls-7" d="M42,69.35V74H40.48V69.35H39.29v-1h1.19V66.81H42v1.55h1.2v1Z"/><path class="cls-7" d="M45.66,70.93V74H44.14V68.36h1.39l.07,1a2.39,2.39,0,0,1,2.11-1.19v1.48C46.67,69.43,45.66,70,45.66,70.93Z"/><path class="cls-7" d="M53.08,74l0-.91a2.58,2.58,0,0,1-2.12,1.06,3,3,0,0,1,0-6A2.61,2.61,0,0,1,53,69.26l0-.9h1.38V74Zm-1.69-4.7A1.88,1.88,0,1,0,53,71.19,1.67,1.67,0,0,0,51.39,69.33Z"/><path class="cls-7" d="M56,74V66.15h1.53V74Z"/><path class="cls-7" d="M63.21,67.4v1.9H66v1.23H63.21V74h-1.6V66.15h5V67.4Z"/><path class="cls-7" d="M67.49,74V66.15H69V74Z"/><path class="cls-7" d="M75.48,71.23H71.7a1.7,1.7,0,0,0,1.93,1.85,3,3,0,0,0,1.84-.67v1.1a3.82,3.82,0,0,1-2.31.67,3,3,0,0,1-.1-6,2.29,2.29,0,0,1,2.51,2.24A3.24,3.24,0,0,1,75.48,71.23Zm-2.39-2.06a1.29,1.29,0,0,0-1.32,1.25H74.2A1,1,0,0,0,73.09,69.17Z"/><path class="cls-7" d="M80.6,74l-1.46-2-1.47,2h-1.6l2.25-2.88-2.11-2.79h1.6l1.37,1.82,1.39-1.82h1.55L80,71.1,82.25,74Z"/></svg>