<svg id="Layer_1" data-name="Layer 1" xmlns="http://www.w3.org/2000/svg" viewBox="0 0 100 100"><defs><style>.cls-1{fill:#f16145;}.cls-2,.cls-3,.cls-4,.cls-5,.cls-6{fill:none;stroke-miterlimit:10;}.cls-2,.cls-3,.cls-4,.cls-5{stroke:#4d6479;stroke-linecap:square;stroke-width:1.04px;}.cls-3{stroke-dasharray:0.66 1.99 0.66 1.99;}.cls-4{stroke-dasharray:0.65 1.95 0.65 1.95;}.cls-5{stroke-dasharray:0.65 1.95 0.65 1.95 0.65 1.95;}.cls-6{stroke:#3e4f60;stroke-width:3.6px;}.cls-7{fill:#3e4f60;}.cls-8{fill:#4d6479;}.cls-9{fill:#fff;}</style></defs><title>single-item-icons</title><path class="cls-1" d="M14,28.17v8.37H28.7a11.51,11.51,0,0,0,5.39-1.61,9.49,9.49,0,0,1,4.58-1.18H61.33a9.49,9.49,0,0,1,4.58,1.18,11.51,11.51,0,0,0,5.39,1.61H86V28.17Z"/><line class="cls-2" x1="44.1" y1="44.78" x2="44.47" y2="44.41"/><line class="cls-3" x1="45.88" y1="43.01" x2="48.93" y2="39.96"/><polyline class="cls-2" points="49.63 39.26 50 38.89 50.37 39.26"/><line class="cls-3" x1="51.78" y1="40.66" x2="54.82" y2="43.71"/><line class="cls-2" x1="55.53" y1="44.41" x2="55.9" y2="44.78"/><line class="cls-2" x1="50.13" y1="42.44" x2="50.13" y2="42.97"/><line class="cls-4" x1="50.13" y1="44.92" x2="50.13" y2="49.15"/><line class="cls-5" x1="50.13" y1="50.13" x2="50.13" y2="56.97"/><line class="cls-2" x1="50.13" y1="57.95" x2="50.13" y2="58.47"/><path class="cls-6" d="M12.65,33.41V66.59A8.63,8.63,0,0,0,17,74.06L45.69,90.64a8.62,8.62,0,0,0,8.62,0L83,74.06a8.63,8.63,0,0,0,4.31-7.47V33.41A8.63,8.63,0,0,0,83,25.94L54.31,9.36a8.62,8.62,0,0,0-8.62,0L17,25.94A8.63,8.63,0,0,0,12.65,33.41Z"/><polygon class="cls-7" points="13.13 77.89 5 77.89 5 62.9 13.13 57.27 13.13 77.89"/><polygon class="cls-7" points="86.88 77.89 95 77.89 95 62.9 86.88 57.27 86.88 77.89"/><rect class="cls-8" x="5" y="62.9" width="90" height="15"/><path class="cls-9" d="M18,71.16h-1.4V74H15V66.15h3a2.51,2.51,0,1,1,0,5Zm-.27-3.87H16.62V70h1.13a1.37,1.37,0,1,0,0-2.73Z"/><path class="cls-9" d="M24.43,74.24a3,3,0,1,1,0-6.09,3,3,0,1,1,0,6.09Zm0-5a1.95,1.95,0,1,0,1.68,1.93A1.73,1.73,0,0,0,24.43,69.26Z"/><path class="cls-9" d="M34.91,74h-1l-1.36-3.42L31.18,74h-1L27.9,68.36h1.48L30.76,72l1.36-3.68h1L34.46,72l1.37-3.68h1.35Z"/><path class="cls-9" d="M44.46,74.2a4.11,4.11,0,1,1,0-8.22,4.7,4.7,0,0,1,2.74.8v1.46a3.83,3.83,0,0,0-2.57-1,2.82,2.82,0,0,0,0,5.64,3.83,3.83,0,0,0,2.57-1V73.4A4.78,4.78,0,0,1,44.46,74.2Z"/><path class="cls-9" d="M52.56,74V70.89c0-1.1-.38-1.47-1.08-1.47A1.56,1.56,0,0,0,50,70.86V74H48.45V66.15H50V69.3a2.54,2.54,0,0,1,2-1.1c1.51,0,2.07,1,2.07,2.45V74Z"/><path class="cls-9" d="M60.07,74l0-.91a2.58,2.58,0,0,1-2.12,1.06,3,3,0,0,1,0-6A2.61,2.61,0,0,1,60,69.26l0-.9h1.38V74Zm-1.69-4.7A1.88,1.88,0,1,0,60,71.19,1.67,1.67,0,0,0,58.38,69.33Z"/><path class="cls-9" d="M67.05,74V70.89c0-1.1-.38-1.47-1.08-1.47a1.56,1.56,0,0,0-1.5,1.44V74H62.94V68.36h1.39l.07,1a2.4,2.4,0,0,1,2.1-1.21c1.51,0,2.07,1,2.07,2.45V74Z"/><path class="cls-9" d="M74.16,74V70.89c0-1.1-.38-1.47-1.07-1.47a1.57,1.57,0,0,0-1.51,1.44V74H70.06V68.36h1.39l.06,1a2.41,2.41,0,0,1,2.1-1.21c1.51,0,2.08,1,2.08,2.45V74Z"/><path class="cls-9" d="M82.14,71.23H78.36a1.7,1.7,0,0,0,1.93,1.85,3,3,0,0,0,1.84-.67v1.1a3.8,3.8,0,0,1-2.31.67,3,3,0,0,1-.1-6,2.3,2.3,0,0,1,2.52,2.24A3.22,3.22,0,0,1,82.14,71.23Zm-2.38-2.06a1.29,1.29,0,0,0-1.33,1.25h2.43A1,1,0,0,0,79.76,69.17Z"/><path class="cls-9" d="M83.51,74V66.15H85V74Z"/></svg>