<svg id="Layer_1" data-name="Layer 1" xmlns="http://www.w3.org/2000/svg" viewBox="0 0 100 100"><defs><style>.cls-1{fill:#f16145;}.cls-2,.cls-3,.cls-4,.cls-5,.cls-6{fill:none;stroke-miterlimit:10;}.cls-2,.cls-3,.cls-4,.cls-5{stroke:#4d6479;stroke-linecap:square;stroke-width:1.04px;}.cls-3{stroke-dasharray:0.66 1.99 0.66 1.99;}.cls-4{stroke-dasharray:0.65 1.95 0.65 1.95;}.cls-5{stroke-dasharray:0.65 1.95 0.65 1.95 0.65 1.95;}.cls-6{stroke:#3e4f60;stroke-width:3.6px;}.cls-7{fill:#3e4f60;}.cls-8{fill:#4d6479;}.cls-9{font-size:13.13px;fill:#fff;font-family:MrEavesXLModOT-Bold, Mr Eaves XL Mod OT;font-weight:700;}.cls-10{letter-spacing:-0.01em;}</style></defs><title>single-item-icons</title><path class="cls-1" d="M14,28.17v8.37H28.7a11.51,11.51,0,0,0,5.39-1.61,9.49,9.49,0,0,1,4.58-1.18H61.33a9.49,9.49,0,0,1,4.58,1.18,11.51,11.51,0,0,0,5.39,1.61H86V28.17Z"/><line class="cls-2" x1="44.1" y1="44.78" x2="44.47" y2="44.41"/><line class="cls-3" x1="45.88" y1="43.01" x2="48.93" y2="39.96"/><polyline class="cls-2" points="49.63 39.26 50 38.89 50.37 39.26"/><line class="cls-3" x1="51.78" y1="40.66" x2="54.82" y2="43.71"/><line class="cls-2" x1="55.53" y1="44.41" x2="55.9" y2="44.78"/><line class="cls-2" x1="50.13" y1="42.44" x2="50.13" y2="42.97"/><line class="cls-4" x1="50.13" y1="44.92" x2="50.13" y2="49.15"/><line class="cls-5" x1="50.13" y1="50.13" x2="50.13" y2="56.97"/><line class="cls-2" x1="50.13" y1="57.95" x2="50.13" y2="58.47"/><path class="cls-6" d="M12.65,33.41V66.59A8.63,8.63,0,0,0,17,74.06L45.69,90.64a8.62,8.62,0,0,0,8.62,0L83,74.06a8.63,8.63,0,0,0,4.31-7.47V33.41A8.63,8.63,0,0,0,83,25.94L54.31,9.36a8.62,8.62,0,0,0-8.62,0L17,25.94A8.63,8.63,0,0,0,12.65,33.41Z"/><polygon class="cls-7" points="13.13 77.89 5 77.89 5 62.9 13.13 57.27 13.13 77.89"/><polygon class="cls-7" points="86.88 77.89 95 77.89 95 62.9 86.88 57.27 86.88 77.89"/><rect class="cls-8" x="5" y="62.9" width="90" height="15"/><text class="cls-9" transform="translate(14.22 74.03)">P<tspan class="cls-10" x="6.64" y="0">o</tspan><tspan x="13.64" y="0">w Channel</tspan></text></svg>