<svg xmlns="http://www.w3.org/2000/svg" viewBox="0 0 150 150"><defs><style>.cls-1{fill:#bbcada;}</style></defs><title>design-icons</title><g id="Layer_2" data-name="Layer 2"><path class="cls-1" d="M74.34,10.1a17.7,17.7,0,0,1,1.93,2.69,4.13,4.13,0,0,1,0,2.13c-.43,3.82.1,6.44,4.44,8.43,6.4,2.92,7.8,11.58,3.65,17.46a3.88,3.88,0,0,0-.69,3.91q3.69,11.4,7.11,22.88c.45,1.52,1.1,2.27,2.62,2.27h.36c1-.07,2-.1,3-.1,1.25,0,2.49,0,3.73.13.56,0,1.08.82,1.62,1.26-.54.41-1.06,1.15-1.62,1.18-1.22.06-2.43.08-3.69.08l-4.44,0c1.26,4.12,2.38,7.79,3.52,11.45,2.08,6.68,4.2,13.35,6.24,20A3.89,3.89,0,0,0,105,107c5.32,1.67,7.76,7.37,6,12.66-.54,1.57-.3,3.41-.39,5.13-.07,1.4,1.63,3.06-.66,4.2-.21.1.13,1.46.35,2.2,1,3.36,1,4.64-.36,6.87-2.7-1.84-2.83-5.05-4.66-7.11a12.05,12.05,0,0,1-2.56-2.47A5.63,5.63,0,0,0,99,125.33c-5.75-1.64-8.29-7.6-6.1-13.16a7.08,7.08,0,0,0,.22-4.27C90,97.23,86.7,86.6,83.45,76c-.85-2.77-1.13-3.64-2.67-3.64a19.43,19.43,0,0,0-3,.43c-1.49,1.49,1.27,5.42-2.4,5.42H75c-3.47-.25-1-3.61-2.21-5.29a11.87,11.87,0,0,0-3-.62c-1.61,0-2.21,1.06-3.16,3.9-3,9.11-6.13,18.21-9.05,27.35a4.81,4.81,0,0,0,.52,3.57c4,6.21.56,14.32-6.66,15.34a3.29,3.29,0,0,0-2.93,2.24c-.6,1.4-1,3.14-2.09,4-3.43,2.87-4.44,7.1-6.58,10.68-.11.18-.46.2-1.28.53,1.13-3.41,2.14-6.39,3.1-9.39.41-1.3,1-2.41,0-4-.6-1,.45-2.86.48-4.34a8.15,8.15,0,0,0-.57-4,10.11,10.11,0,0,1,4-14.34,4.19,4.19,0,0,0,2-1.94c3-9.58,5.89-19.21,9-29.44-1.18,0-2.27,0-3.32,0A16.76,16.76,0,0,1,51,72.42a9.3,9.3,0,0,1-2.67-1.27A7.7,7.7,0,0,1,50.81,70c6.44-.23,6.43-.19,8.29-6.32C61,57.3,63,51,64.86,44.58a4.53,4.53,0,0,0-.56-3.33c-4.94-7.15-2.24-16.13,6-19.2,1.4-.53,2-1.15,1.89-2.67a34.37,34.37,0,0,1,.09-6.73c.13-.93,1.35-1.7,2.08-2.55m0,32.13h.06a8.58,8.58,0,0,0,0-17.15h-.1a8.58,8.58,0,1,0,0,17.15M68.73,69.61h4.06c.75-1.69-.76-4.42,2.38-4.48h.09c3.21,0,1.51,3,2.46,4.53h3.8c-2-6.68-4-12.89-5.86-19.11l-.64.12c-2.07,6.25-4.15,12.5-6.29,18.94M49.87,117.16a4.39,4.39,0,0,0,.07-8.78h-.1a4.4,4.4,0,1,0,0,8.79h0m51.79,3.14h.14a4.47,4.47,0,0,0,4.28-4.58,4.41,4.41,0,0,0-4.37-4.33h-.13a4.46,4.46,0,0,0,.08,8.91M74.34,5.1a5,5,0,0,0-3.79,1.74l-.4.39A7.9,7.9,0,0,0,67.31,12a32.73,32.73,0,0,0-.21,6,17.58,17.58,0,0,0-9.5,10.59,17.81,17.81,0,0,0,2.31,15.14c-1.21,4.23-2.53,8.51-3.8,12.66q-.91,2.92-1.8,5.85c-.28.94-.59,2-.84,2.64-.71.06-1.76.1-2.72.13h-.12a8.47,8.47,0,0,0-4.15,1.44l-.38.23a5,5,0,0,0-.06,9l.48.28a10.15,10.15,0,0,0,3.21,1.38l0,0c-2.32,7.67-4.52,14.94-6.8,22.22A15.08,15.08,0,0,0,37,120.46,12.75,12.75,0,0,1,37,122c0,.16-.12.52-.19.77a8.18,8.18,0,0,0,.13,5.76c-.05.15-.11.31-.16.47-.66,2.08-1.36,4.17-2.1,6.4-.31.94-.64,1.92-1,2.93a5,5,0,0,0,6.6,6.21,3.7,3.7,0,0,1,.46-.16A5.55,5.55,0,0,0,44,141.94a44.85,44.85,0,0,0,2.05-4c1.06-2.23,2-4.16,3.45-5.41a11.27,11.27,0,0,0,3.14-5l.09-.24A14.53,14.53,0,0,0,63.3,119a15.24,15.24,0,0,0-.92-14.4C64.53,97.9,66.81,91.09,69,84.5l1.07-3.18a7.23,7.23,0,0,0,4.51,1.83c.28,0,.54,0,.79,0A7.16,7.16,0,0,0,80,81.7l.9,2.94c2.48,8.08,5.05,16.44,7.47,24.68a2.26,2.26,0,0,1-.07,1,15.29,15.29,0,0,0,.37,12.37,14.26,14.26,0,0,0,9,7.43l.19.06a5,5,0,0,1,.46.72,10.92,10.92,0,0,0,2.91,3.16l.37.31a11.88,11.88,0,0,1,.76,1.52,13.52,13.52,0,0,0,4.71,6.25,4.94,4.94,0,0,0,2.82.87,5.24,5.24,0,0,0,1-.1,5,5,0,0,0,3.21-2.27c2.23-3.6,2.18-6.42,1.14-10.13a7.28,7.28,0,0,0,.32-5.94l0-.07c0-.46,0-.91,0-1.32a10.74,10.74,0,0,1,.1-2,15.47,15.47,0,0,0-.74-11.9,14.15,14.15,0,0,0-8-7c-1.34-4.39-2.73-8.83-4.08-13.13q-1.08-3.43-2.15-6.87c-.51-1.64-1-3.28-1.53-5l1.62,0a6.63,6.63,0,0,0,4.33-2.12,1.85,1.85,0,0,0,.14-.14,5,5,0,0,0,.12-7.74l-.14-.15a6.6,6.6,0,0,0-4.37-2.28c-1.4-.09-2.76-.14-4.06-.14l-1.62,0c-2.3-7.67-4.47-14.63-6.6-21.23a18,18,0,0,0,2.57-14.73,15.09,15.09,0,0,0-8.33-10C81.16,18,81,18,81.27,15.49l0-.24a7.89,7.89,0,0,0-.53-4.63,14.45,14.45,0,0,0-1.93-2.89c-.17-.2-.34-.41-.49-.62a5.05,5.05,0,0,0-3.84-2Z"/></g></svg>