<svg xmlns="http://www.w3.org/2000/svg" viewBox="0 0 150 150"><defs><style>.cls-1{fill:#bbcada;}.cls-2,.cls-3{fill:none;stroke:#bbcada;stroke-linecap:round;stroke-linejoin:round;}.cls-2{stroke-width:5.01px;}.cls-3{stroke-width:3px;}</style></defs><title>design-icons</title><g id="Layer_2" data-name="Layer 2"><path class="cls-1" d="M87.17,5.64a6.6,6.6,0,0,1,6.58,6.57s-2,27.27-2,62.79,2,62.79,2,62.79a6.58,6.58,0,0,1-13.16,0s2-27.27,2-62.79-2-62.79-2-62.79a6.6,6.6,0,0,1,6.58-6.57m0-4A10.58,10.58,0,0,0,76.59,12.21a2.71,2.71,0,0,0,0,.29c0,.27,1.94,27.55,1.94,62.5s-1.92,62.23-1.94,62.5a2.71,2.71,0,0,0,0,.29,10.58,10.58,0,0,0,21.16,0c0-.1,0-.2,0-.29,0-.27-1.95-27.55-1.95-62.5s1.93-62.23,1.95-62.5c0-.09,0-.19,0-.29A10.59,10.59,0,0,0,87.17,1.64Z"/><path class="cls-1" d="M87.17,9.15c1.57,0,3,2.2,3,4.71-.06,1.27-1.37,27.59-1.37,61.14s1.31,59.87,1.37,61.14c0,2.51-1.39,4.71-3,4.71s-3-2.2-3-4.71c.06-1.27,1.37-27.59,1.37-61.14S84.26,15.13,84.2,13.86c0-2.51,1.39-4.71,3-4.71m0-1.65c-2.55,0-4.63,2.88-4.63,6.4,0,0,1.38,26.53,1.38,61.1s-1.38,61.1-1.38,61.1c0,3.52,2.08,6.4,4.63,6.4s4.62-2.88,4.62-6.4c0,0-1.38-26.53-1.38-61.1s1.38-61.1,1.38-61.1c0-3.52-2.08-6.4-4.62-6.4Z"/><path class="cls-1" d="M112.17,5.64a6.6,6.6,0,0,1,6.58,6.57s-2,27.27-2,62.79,2,62.79,2,62.79a6.58,6.58,0,0,1-13.16,0s2-27.27,2-62.79-2-62.79-2-62.79a6.6,6.6,0,0,1,6.58-6.57m0-4a10.58,10.58,0,0,0-10.58,10.57,2.71,2.71,0,0,0,0,.29c0,.27,1.94,27.55,1.94,62.5s-1.92,62.23-1.94,62.5a2.71,2.71,0,0,0,0,.29,10.58,10.58,0,0,0,21.16,0c0-.1,0-.2,0-.29,0-.27-1.95-27.55-1.95-62.5s1.93-62.23,1.95-62.5c0-.09,0-.19,0-.29A10.59,10.59,0,0,0,112.17,1.64Z"/><path class="cls-1" d="M112.17,9.15c1.57,0,3,2.2,3,4.71-.06,1.27-1.37,27.59-1.37,61.14s1.31,59.87,1.37,61.14c0,2.51-1.39,4.71-3,4.71s-3-2.2-3-4.71c.06-1.27,1.37-27.59,1.37-61.14s-1.31-59.87-1.37-61.14c0-2.51,1.39-4.71,3-4.71m0-1.65c-2.55,0-4.63,2.88-4.63,6.4,0,0,1.38,26.53,1.38,61.1s-1.38,61.1-1.38,61.1c0,3.52,2.08,6.4,4.63,6.4s4.62-2.88,4.62-6.4c0,0-1.38-26.53-1.38-61.1s1.38-61.1,1.38-61.1c0-3.52-2.08-6.4-4.62-6.4Z"/><path class="cls-2" d="M59.41,19.11C57.67,12.25,46.2,4.35,45.92,4.35h-.08c-.27,0-11.74,7.9-13.49,14.76a35,35,0,0,0-1,11.53,634.05,634.05,0,0,1,.74,104.22c-.24,3.27.46,6.62.94,9.95a.81.81,0,0,0,1.45.35c2.75-3.82,9.41-14.56,11.33-21.25,1.92,6.69,8.66,17.43,11.42,21.25a.81.81,0,0,0,1.45-.35c.48-3.33,1.18-6.68.94-9.95a633,633,0,0,1,.74-104.22A34.72,34.72,0,0,0,59.41,19.11Z"/><path class="cls-3" d="M40.84,136.37V47.93c0-17.77-7.05-29.87-7.05-29.87"/><path class="cls-3" d="M50.83,136.37V47.93c0-17.77,7.05-29.87,7.05-29.87"/></g></svg>