<svg xmlns="http://www.w3.org/2000/svg" viewBox="0 0 50 150"><defs><style>.cls-1{fill:#bbcada;}</style></defs><title>design-icons</title><g id="Layer_2" data-name="Layer 2"><path class="cls-1" d="M12.5,5.64a6.6,6.6,0,0,1,6.58,6.57s-2,27.27-2,62.79,2,62.79,2,62.79a6.58,6.58,0,0,1-13.16,0s2-27.27,2-62.79-2-62.79-2-62.79A6.6,6.6,0,0,1,12.5,5.64m0-4A10.59,10.59,0,0,0,1.92,12.21a2.71,2.71,0,0,0,0,.29c0,.27,2,27.55,2,62.5S2,137.23,1.93,137.5a2.71,2.71,0,0,0,0,.29,10.58,10.58,0,0,0,21.16,0,2.71,2.71,0,0,0,0-.29c0-.27-1.95-27.55-1.95-62.5s1.93-62.23,1.95-62.5a2.71,2.71,0,0,0,0-.29A10.59,10.59,0,0,0,12.5,1.64Z"/><path class="cls-1" d="M12.5,9.15c1.57,0,2.95,2.2,3,4.71C15.4,15.13,14.09,41.45,14.09,75s1.31,59.87,1.38,61.14c0,2.51-1.4,4.71-3,4.71s-2.95-2.2-3-4.71c.07-1.27,1.38-27.59,1.38-61.14S9.6,15.13,9.53,13.86c0-2.51,1.4-4.71,3-4.71m0-1.65c-2.54,0-4.62,2.88-4.62,6.4,0,0,1.37,26.53,1.37,61.1s-1.37,61.1-1.37,61.1c0,3.52,2.08,6.4,4.62,6.4s4.62-2.88,4.62-6.4c0,0-1.37-26.53-1.37-61.1s1.37-61.1,1.37-61.1c0-3.52-2.08-6.4-4.62-6.4Z"/><path class="cls-1" d="M37.5,5.64a6.6,6.6,0,0,1,6.58,6.57s-2,27.27-2,62.79,2,62.79,2,62.79a6.58,6.58,0,0,1-13.16,0s2-27.27,2-62.79-2-62.79-2-62.79A6.6,6.6,0,0,1,37.5,5.64m0-4A10.59,10.59,0,0,0,26.92,12.21a2.71,2.71,0,0,0,0,.29c0,.27,1.95,27.55,1.95,62.5S27,137.23,26.93,137.5a2.71,2.71,0,0,0,0,.29,10.58,10.58,0,0,0,21.16,0,2.71,2.71,0,0,0,0-.29c0-.27-2-27.55-2-62.5s1.93-62.23,2-62.5a2.71,2.71,0,0,0,0-.29A10.59,10.59,0,0,0,37.5,1.64Z"/><path class="cls-1" d="M37.5,9.15c1.57,0,3,2.2,3,4.71C40.4,15.13,39.09,41.45,39.09,75s1.31,59.87,1.38,61.14c0,2.51-1.4,4.71-3,4.71s-3-2.2-3-4.71c.07-1.27,1.38-27.59,1.38-61.14S34.6,15.13,34.53,13.86c0-2.51,1.4-4.71,3-4.71m0-1.65c-2.54,0-4.62,2.88-4.62,6.4,0,0,1.37,26.53,1.37,61.1s-1.37,61.1-1.37,61.1c0,3.52,2.08,6.4,4.62,6.4s4.62-2.88,4.62-6.4c0,0-1.37-26.53-1.37-61.1s1.37-61.1,1.37-61.1c0-3.52-2.08-6.4-4.62-6.4Z"/></g></svg>