<svg xmlns="http://www.w3.org/2000/svg" viewBox="0 0 150 150"><defs><style>.cls-1,.cls-2,.cls-3,.cls-4,.cls-5,.cls-6,.cls-8{fill:none;}.cls-1,.cls-2,.cls-3,.cls-4,.cls-5{stroke:#3e4f60;stroke-linecap:round;stroke-linejoin:round;}.cls-1{stroke-width:4.3px;}.cls-2{stroke-width:4.04px;}.cls-3{stroke-width:3.77px;}.cls-4{stroke-width:3.5px;}.cls-5{stroke-width:3.23px;}.cls-6{stroke:#bbcada;stroke-miterlimit:10;stroke-width:5px;}.cls-7{fill:#bbcada;}</style></defs><title>design-icons</title><g id="Layer_2" data-name="Layer 2"><path class="cls-1" d="M94.78,129.69s-5.38,6.46-16.14,7-.84,3.23-15.75-3.5-6.89-.27-22.2-7.26-14.82,4.44-19.91-14.46-.86-17.82-3.51-31.81-6.5-24.14,0-31.71S31.17,35.27,37.15,26.8s4.9-14.39,23.2-13.32,18.29.54,30.66,7,19.37-.28,27.44,6.32,10.22,4.44,12.91,17.89a74.17,74.17,0,0,1,0,26.36s5.92,14.53,5.92,25.83-5.38,14-8.61,19.36-11.83,1.62-16.67,5.92S99.08,126.47,94.78,129.69Z"/><path class="cls-2" d="M90.83,118.61s-4.28,5.13-12.84,5.56-.66,2.57-12.53-2.78-5.47-.21-17.65-5.78S36,119.14,32,104.11s-.68-14.17-2.79-25.3-5.17-19.2,0-25.22S40.24,43.5,45,36.76,48.9,25.32,63.44,26.18s14.55.42,24.4,5.56,15.4-.22,21.82,5S117.79,40.3,119.93,51a59,59,0,0,1,0,21s4.71,11.56,4.71,20.54-4.28,11.13-6.85,15.41-9.41,1.28-13.26,4.71S94.26,116,90.83,118.61Z"/><path class="cls-3" d="M86.89,107.52a13.7,13.7,0,0,1-9.54,4.13c-6.36.32-.5,1.91-9.31-2.06s-4.07-.16-13.11-4.29-8.75,2.62-11.76-8.54S42.66,86.23,41.09,78s-3.84-14.26,0-18.73,8.22-7.49,11.75-12.5,2.9-8.5,13.7-7.86,10.81.32,18.12,4.13,11.44-.16,16.21,3.73,6,2.63,7.63,10.57a43.83,43.83,0,0,1,0,15.58s3.5,8.58,3.5,15.25-3.18,8.27-5.09,11.45-7,1-9.85,3.49S89.43,105.62,86.89,107.52Z"/><path class="cls-4" d="M82.94,96.44a9,9,0,0,1-6.23,2.7c-4.16.21-.33,1.25-6.09-1.35S68,97.68,62.05,95s-5.72,1.72-7.69-5.58S54,82.52,53,77.11s-2.51-9.32,0-12.24,5.37-4.9,7.68-8.17,1.9-5.56,9-5.14,7.07.21,11.84,2.7,7.48-.11,10.6,2.44,4,1.72,5,6.91a28.62,28.62,0,0,1,0,10.18s2.28,5.61,2.28,10S97.27,89.17,96,91.24s-4.57.63-6.44,2.29S84.6,95.19,82.94,96.44Z"/><path class="cls-5" d="M79,85.35a4.24,4.24,0,0,1-2.93,1.27c-2,.1-.15.59-2.86-.63s-1.25,0-4-1.32-2.69.8-3.62-2.63-.15-3.23-.63-5.77-1.18-4.39,0-5.76a50.9,50.9,0,0,0,3.61-3.84c1.08-1.54.89-2.61,4.21-2.42s3.32.1,5.57,1.27,3.51,0,5,1.15,1.86.8,2.34,3.25a13.39,13.39,0,0,1,0,4.78,15.26,15.26,0,0,1,1.08,4.69c0,2-1,2.54-1.56,3.52s-2.15.29-3,1.07S79.77,84.77,79,85.35Z"/><path class="cls-6" d="M94.78,129.69s-5.38,6.46-16.14,7-.84,3.23-15.75-3.5-6.89-.27-22.2-7.26-14.82,4.44-19.91-14.46-.86-17.82-3.51-31.81-6.5-24.14,0-31.71S31.17,35.27,37.15,26.8s4.9-14.39,23.2-13.32,18.29.54,30.66,7,19.37-.28,27.44,6.32,10.22,4.44,12.91,17.89a74.17,74.17,0,0,1,0,26.36s5.92,14.53,5.92,25.83-5.38,14-8.61,19.36-11.83,1.62-16.67,5.92S99.08,126.47,94.78,129.69Z"/><path class="cls-6" d="M90.83,118.61s-4.28,5.13-12.84,5.56-.66,2.57-12.53-2.78-5.47-.21-17.65-5.78S36,119.14,32,104.11s-.68-14.17-2.79-25.3-5.17-19.2,0-25.22S40.24,43.5,45,36.76,48.9,25.32,63.44,26.18s14.55.42,24.4,5.56,15.4-.22,21.82,5S117.79,40.3,119.93,51a59,59,0,0,1,0,21s4.71,11.56,4.71,20.54-4.28,11.13-6.85,15.41-9.41,1.28-13.26,4.71S94.26,116,90.83,118.61Z"/><path class="cls-6" d="M86.89,107.52a13.7,13.7,0,0,1-9.54,4.13c-6.36.32-.5,1.91-9.31-2.06s-4.07-.16-13.11-4.29-8.75,2.62-11.76-8.54S42.66,86.23,41.09,78s-3.84-14.26,0-18.73,8.22-7.49,11.75-12.5,2.9-8.5,13.7-7.86,10.81.32,18.12,4.13,11.44-.16,16.21,3.73,6,2.63,7.63,10.57a43.83,43.83,0,0,1,0,15.58s3.5,8.58,3.5,15.25-3.18,8.27-5.09,11.45-7,1-9.85,3.49S89.43,105.62,86.89,107.52Z"/><path class="cls-6" d="M82.94,96.44a9,9,0,0,1-6.23,2.7c-4.16.21-.33,1.25-6.09-1.35S68,97.68,62.05,95s-5.72,1.72-7.69-5.58S54,82.52,53,77.11s-2.51-9.32,0-12.24,5.37-4.9,7.68-8.17,1.9-5.56,9-5.14,7.07.21,11.84,2.7,7.48-.11,10.6,2.44,4,1.72,5,6.91a28.62,28.62,0,0,1,0,10.18s2.28,5.61,2.28,10S97.27,89.17,96,91.24s-4.57.63-6.44,2.29S84.6,95.19,82.94,96.44Z"/><path class="cls-6" d="M79,85.35a4.24,4.24,0,0,1-2.93,1.27c-2,.1-.15.59-2.86-.63s-1.25,0-4-1.32-2.69.8-3.62-2.63-.15-3.23-.63-5.77-1.18-4.39,0-5.76a50.9,50.9,0,0,0,3.61-3.84c1.08-1.54.89-2.61,4.21-2.42s3.32.1,5.57,1.27,3.51,0,5,1.15,1.86.8,2.34,3.25a13.39,13.39,0,0,1,0,4.78,15.26,15.26,0,0,1,1.08,4.69c0,2-1,2.54-1.56,3.52s-2.15.29-3,1.07S79.77,84.77,79,85.35Z"/><path class="cls-7" d="M143.25,91.19c-.27-1.9.27-4.14,2-5-2.31-2.38-4.8-5.4-4-8.61.5-2,2.2-4,1.13-5.77-.77-1.25-2.63-1.48-3.37-2.74a3.84,3.84,0,0,1-.36-2.18c.38-6.49,4.16-13.52.72-19.05a4.87,4.87,0,0,1-1.13-2.58c0-.9.71-1.7.68-2.6-.07-1.67-2.33-2.34-3-3.88-1.09-2.65,3-6.12.91-8a6.14,6.14,0,0,0-2.1-.89c-3.57-1.34-4.15-6.54-7.47-8.41-2-1.11-4.46-.77-6.62-1.47s-3.85-2.37-5.94-3.26c-4.57-1.94-10.14.24-14.67-1.8-2.39-1.08-4.2-3.22-6.63-4.2-3.33-1.35-7.2-.29-10.66-1.24-3.16-.87-5.78-3.34-9-3.72-2.88-.34-5.68,1-8.57,1.19-4.67.24-9.43-2.73-13.81-1.11-2.5.92-4.4,3.22-7,3.69-3,.53-6.61-1.24-8.65.94-1.53,1.63-.95,4.5-2.46,6.15-.76.84-1.92,1.21-2.72,2-2.21,2.24-1.14,7.25-4.19,8-.83.21-1.72,0-2.56.14-3.15.67-2.41,5.39-3.76,8.31S15.27,38.93,12.33,40s-6,4.21-6,7.34C4.31,50,4.67,53.77,5.12,57.13c.35,2.61.75,5.34,2.28,7.5.65.92,1.5,1.71,2.14,2.65C13.72,73.44,7.31,81.7,8.63,89c.78,4.35,4.3,8.18,3.73,12.56a19.81,19.81,0,0,0-.51,3.4,10.19,10.19,0,0,0,1.32,3.72A20.08,20.08,0,0,1,15,118.49a7.8,7.8,0,0,0,.22,3.54,6,6,0,0,0,2.26,2.36,35.08,35.08,0,0,0,11.33,5.17c1.66.43,3.45.78,4.68,2,.9.86,1.39,2.08,2.3,2.92,2.35,2.17,6,1,9.24.76,5.63-.44,11.06,2.58,15,6.63a9.83,9.83,0,0,0,2.83,2.36,8.52,8.52,0,0,0,4,.44l23.71-1.12a11.25,11.25,0,0,0,4.5-.84c3.42-1.67,4.49-6.37,7.89-8.08,1.27-.64,2.74-.79,4-1.37,2.27-1,3.84-3.27,6.17-4.13s4.61-.23,6.94-.09c9.17.57,18.15-6.73,19.46-15.83a14.8,14.8,0,0,1,.85-4.2,20.4,20.4,0,0,1,2.47-3.41,11.25,11.25,0,0,0,1.92-8.83C144.4,94.86,143.52,93.09,143.25,91.19Zm-14.58,25c-3.22,5.38-11.83,1.62-16.67,5.92s-12.92,4.31-17.22,7.53c0,0-5.38,6.46-16.14,7s-.84,3.23-15.75-3.5-6.89-.27-22.2-7.26-14.82,4.44-19.91-14.46-.86-17.82-3.51-31.81-6.5-24.14,0-31.71S31.17,35.27,37.15,26.8s4.9-14.39,23.2-13.32,18.29.54,30.66,7,19.37-.28,27.44,6.32,10.22,4.44,12.91,17.89a74.17,74.17,0,0,1,0,26.36s5.92,14.53,5.92,25.83S131.9,110.86,128.67,116.24Z"/><path class="cls-8" d="M131.36,44.69c-2.69-13.45-4.84-11.3-12.91-17.89s-15.06.13-27.44-6.32-12.37-5.92-30.66-7S43.13,18.33,37.15,26.8,23.76,40.38,17.27,48s-2.65,17.72,0,31.71-1.58,12.91,3.51,31.81,4.6,7.46,19.91,14.46,7.28.54,22.2,7.26,5,4,15.75,3.5,16.14-7,16.14-7c4.3-3.22,12.37-3.22,17.22-7.53s13.45-.54,16.67-5.92,8.61-8.07,8.61-19.36-5.92-25.83-5.92-25.83A74.17,74.17,0,0,0,131.36,44.69Z"/></g></svg>