<svg xmlns="http://www.w3.org/2000/svg" viewBox="0 0 150 150"><defs><style>.cls-1{fill:#3e4f60;}</style></defs><title>design-icons</title><g id="Layer_2" data-name="Layer 2"><path class="cls-1" d="M62.4,72.31v15H41.57l20.83-15m1.54-5.44a2.33,2.33,0,0,0-.73.12L35.88,86.63a2.31,2.31,0,0,0,.73,4.5H63.94a2.31,2.31,0,0,0,2.3-2.31V69.18a2.31,2.31,0,0,0-2.3-2.31Z"/><path class="cls-1" d="M92.4,72.31l20.83,15H92.4v-15m-1.54-5.44a2.31,2.31,0,0,0-2.3,2.31V88.82a2.31,2.31,0,0,0,2.31,2.31h27.32a2.31,2.31,0,0,0,.73-4.5L91.6,67a2.43,2.43,0,0,0-.74-.12Z"/><path class="cls-1" d="M79.22,9.36h0M77.4,10.69c2.32,1.84,5.58,4.94,6.1,7a21.64,21.64,0,0,1,.6,7.07,465.11,465.11,0,0,0-.83,72.17,31.11,31.11,0,0,1-2.2-5.15,3.85,3.85,0,0,0-7.4,0,31.68,31.68,0,0,1-2.13,5.07,465.31,465.31,0,0,0-.84-72.09,21.64,21.64,0,0,1,.6-7.07c.52-2,3.78-5.13,6.1-7m0-4.69h-.06c-.2,0-8.53,5.74-9.79,10.72a25.11,25.11,0,0,0-.71,8.37,459.73,459.73,0,0,1,.53,75.68,34.31,34.31,0,0,0,.69,7.23.57.57,0,0,0,.58.5.56.56,0,0,0,.47-.24c2-2.78,6.84-10.58,8.23-15.44,1.39,4.86,6.29,12.66,8.29,15.44a.56.56,0,0,0,.47.24.59.59,0,0,0,.59-.5,35,35,0,0,0,.68-7.23,459.73,459.73,0,0,1,.53-75.68,25.37,25.37,0,0,0-.7-8.37C86,11.74,77.63,6,77.43,6Z"/><path class="cls-1" d="M73.2,106c1.14,7-2.18,14.63,4.2,21.06,6.27-6.53,3-14.18,3.75-21,5,9.17,4.16,30.2-4,40.65C69.2,133.47,69.1,119.86,73.2,106Z"/></g></svg>