<svg xmlns="http://www.w3.org/2000/svg" viewBox="0 0 150 150"><defs><style>.cls-1,.cls-2{fill:none;stroke:#bbcada;stroke-miterlimit:10;stroke-width:5px;}.cls-2{stroke-linecap:round;}</style></defs><title>design-icons</title><g id="Layer_2" data-name="Layer 2"><polygon id="_Path_" data-name="&lt;Path&gt;" class="cls-1" points="97.16 72.82 86.08 83.9 75 72.82 63.92 83.9 52.84 72.82 75 50.61 97.16 72.82"/><polyline id="_Path_2" data-name="&lt;Path&gt;" class="cls-2" points="41.4 84.21 75 50.61 108.6 84.21"/><polyline id="_Path_3" data-name="&lt;Path&gt;" class="cls-2" points="51.85 94.66 28.2 71.02 9.5 89.5"/><polyline id="_Path_4" data-name="&lt;Path&gt;" class="cls-2" points="98.15 94.66 131.8 61.02 140.31 71.22"/><g id="_Group_" data-name="&lt;Group&gt;"><line id="_Path_5" data-name="&lt;Path&gt;" class="cls-2" x1="49.05" y1="39.78" x2="40.23" y2="24.5"/><line id="_Path_6" data-name="&lt;Path&gt;" class="cls-2" x1="61.57" y1="34.6" x2="57" y2="17.54"/><line id="_Path_7" data-name="&lt;Path&gt;" class="cls-2" x1="75" y1="32.84" x2="75" y2="15.18"/><line id="_Path_8" data-name="&lt;Path&gt;" class="cls-2" x1="88.44" y1="34.6" x2="93" y2="17.54"/><line id="_Path_9" data-name="&lt;Path&gt;" class="cls-2" x1="100.95" y1="39.79" x2="109.78" y2="24.5"/><line id="_Path_10" data-name="&lt;Path&gt;" class="cls-2" x1="111.7" y1="48.04" x2="124.18" y2="35.55"/><line id="_Path_11" data-name="&lt;Path&gt;" class="cls-2" x1="25.82" y1="35.55" x2="38.3" y2="48.04"/></g><polyline id="_Path_12" data-name="&lt;Path&gt;" class="cls-2" points="140.31 113.5 75 113.33 9.69 113.5"/><line class="cls-2" x1="51.5" y1="141.5" x2="56.5" y2="114.5"/><line class="cls-2" x1="101.5" y1="141.5" x2="96.5" y2="114.5"/><line class="cls-2" x1="76.5" y1="141.5" x2="76.5" y2="134.5"/><line class="cls-2" x1="76.5" y1="123.5" x2="76.5" y2="116.5"/></g></svg>