<svg xmlns="http://www.w3.org/2000/svg" viewBox="0 0 150 150"><defs><style>.cls-1,.cls-2{fill:none;stroke:#bbcada;stroke-linecap:round;stroke-linejoin:round;}.cls-1{stroke-width:5.01px;}.cls-2{stroke-width:3px;}</style></defs><title>design-icons</title><g id="Layer_2" data-name="Layer 2"><path class="cls-1" d="M88.53,18.35C86.78,11.49,75.31,3.59,75,3.59H75c-.27,0-11.74,7.9-13.49,14.76a34.68,34.68,0,0,0-1,11.52,633.08,633.08,0,0,1,.73,104.23c-.24,3.27.46,6.62.94,9.94a.81.81,0,0,0,1.46.36C66.38,140.57,73,129.84,75,123.15c1.92,6.69,8.66,17.42,11.41,21.25a.81.81,0,0,0,1.46-.36c.48-3.32,1.18-6.67.94-9.94A633.08,633.08,0,0,1,89.5,29.87,34.68,34.68,0,0,0,88.53,18.35Z"/><path class="cls-2" d="M70,135.6V47.17c0-17.77-7-29.87-7-29.87"/><path class="cls-2" d="M80,135.6V47.17C80,29.4,87,17.3,87,17.3"/></g></svg>