<svg xmlns="http://www.w3.org/2000/svg" viewBox="0 0 150 150"><defs><style>.cls-1,.cls-2{fill:none;stroke:#3e4f60;stroke-linecap:round;stroke-linejoin:round;}.cls-1{stroke-width:5.01px;}.cls-2{stroke-width:3px;}</style></defs><title>design-icons</title><g id="Layer_2" data-name="Layer 2"><path class="cls-1" d="M88.53,19.18C86.78,12.33,75.31,4.42,75,4.42H75c-.27,0-11.74,7.91-13.49,14.76a34.76,34.76,0,0,0-1,11.53,633.08,633.08,0,0,1,.73,104.23c-.24,3.27.46,6.61.94,9.94a.81.81,0,0,0,1.46.36C66.38,141.41,73,130.67,75,124c1.92,6.69,8.66,17.43,11.41,21.26a.81.81,0,0,0,1.46-.36c.48-3.33,1.18-6.67.94-9.94A633.08,633.08,0,0,1,89.5,30.71,34.76,34.76,0,0,0,88.53,19.18Z"/><path class="cls-2" d="M70,136.44V48c0-17.77-7-29.87-7-29.87"/><path class="cls-2" d="M80,136.44V48c0-17.77,7-29.87,7-29.87"/></g></svg>