<svg xmlns="http://www.w3.org/2000/svg" viewBox="0 0 50 150"><defs><style>.cls-1{fill:#bbcada;}</style></defs><title>design-icons</title><g id="Layer_2" data-name="Layer 2"><path class="cls-1" d="M12.5,5.64a6.6,6.6,0,0,1,6.58,6.57s-2,27.27-2,62.79,2,62.79,2,62.79a6.58,6.58,0,0,1-13.16,0s2-27.27,2-62.79-2-62.79-2-62.79A6.6,6.6,0,0,1,12.5,5.64m0-4A10.59,10.59,0,0,0,1.92,12.21a2.71,2.71,0,0,0,0,.29c0,.27,2,27.55,2,62.5S2,137.23,1.93,137.5a2.71,2.71,0,0,0,0,.29,10.58,10.58,0,0,0,21.16,0,2.71,2.71,0,0,0,0-.29c0-.27-1.95-27.55-1.95-62.5s1.93-62.23,1.95-62.5a2.71,2.71,0,0,0,0-.29A10.59,10.59,0,0,0,12.5,1.64Z"/><path class="cls-1" d="M37.5,5.64a6.6,6.6,0,0,1,6.58,6.57s-2,27.27-2,62.79,2,62.79,2,62.79a6.58,6.58,0,0,1-13.16,0s2-27.27,2-62.79-2-62.79-2-62.79A6.6,6.6,0,0,1,37.5,5.64m0-4A10.59,10.59,0,0,0,26.92,12.21a2.71,2.71,0,0,0,0,.29c0,.27,1.95,27.55,1.95,62.5S27,137.23,26.93,137.5a2.71,2.71,0,0,0,0,.29,10.58,10.58,0,0,0,21.16,0,2.71,2.71,0,0,0,0-.29c0-.27-2-27.55-2-62.5s1.93-62.23,2-62.5a2.71,2.71,0,0,0,0-.29A10.59,10.59,0,0,0,37.5,1.64Z"/><path class="cls-1" d="M9.12,94.15c.12,4.23.13,8.45.16,12.68L9.17,119.5c-.05,4.23-.19,8.45-.33,12.68l-.13,3.16,0,.78c0,.23,0,.46,0,.69A7.45,7.45,0,0,0,9,138.22a5.75,5.75,0,0,0,1.33,2.41,3.05,3.05,0,0,0,2.19,1,3.05,3.05,0,0,0,2.19-1A5.87,5.87,0,0,0,16,138.22a7.45,7.45,0,0,0,.26-1.41c0-.23,0-.46,0-.69l0-.78-.13-3.16c-.14-4.23-.29-8.45-.33-12.68l-.12-12.67c0-4.23,0-8.45.17-12.68l.64,12.66.58,12.65.62,12.65.16,3.16,0,.8c0,.3,0,.6,0,.89a9.07,9.07,0,0,1-.31,1.7,7.4,7.4,0,0,1-1.69,3.09,4.71,4.71,0,0,1-3.38,1.58,4.75,4.75,0,0,1-3.38-1.58,7.4,7.4,0,0,1-1.69-3.09,9.07,9.07,0,0,1-.31-1.7c0-.29,0-.59,0-.89l0-.8.16-3.16.62-12.65.58-12.65Z"/><path class="cls-1" d="M15.88,55.85c-.12-4.23-.13-8.45-.16-12.68l.11-12.67c.05-4.23.19-8.45.33-12.68l.13-3.16,0-.78c0-.23,0-.46,0-.69A7.45,7.45,0,0,0,16,11.78a5.75,5.75,0,0,0-1.33-2.41,3.05,3.05,0,0,0-2.19-1,3.05,3.05,0,0,0-2.19,1A5.87,5.87,0,0,0,9,11.78a7.45,7.45,0,0,0-.26,1.41c0,.23,0,.46,0,.69l0,.78.13,3.16c.14,4.23.29,8.45.33,12.68l.12,12.67c0,4.23,0,8.45-.17,12.68L8.48,43.19,7.9,30.54,7.28,17.89l-.16-3.16,0-.8c0-.3,0-.6,0-.89a9.07,9.07,0,0,1,.31-1.7A7.4,7.4,0,0,1,9.12,8.25,4.71,4.71,0,0,1,12.5,6.67a4.75,4.75,0,0,1,3.38,1.58,7.4,7.4,0,0,1,1.69,3.09,9.07,9.07,0,0,1,.31,1.7c0,.29,0,.59,0,.89l0,.8-.16,3.16L17.1,30.54l-.58,12.65Z"/><path class="cls-1" d="M40.88,55.85c-.12-4.23-.13-8.45-.16-12.68l.11-12.67c.05-4.23.19-8.45.33-12.68l.13-3.16,0-.78c0-.23,0-.46,0-.69A7.45,7.45,0,0,0,41,11.78a5.75,5.75,0,0,0-1.33-2.41,2.83,2.83,0,0,0-4.38,0A5.87,5.87,0,0,0,34,11.78a7.45,7.45,0,0,0-.26,1.41c0,.23,0,.46,0,.69l0,.78.13,3.16c.14,4.23.29,8.45.33,12.68l.12,12.67c0,4.23,0,8.45-.17,12.68l-.64-12.66L32.9,30.54l-.62-12.65-.16-3.16,0-.8c0-.3,0-.6,0-.89a9.07,9.07,0,0,1,.31-1.7,7.4,7.4,0,0,1,1.69-3.09,4.41,4.41,0,0,1,6.76,0,7.4,7.4,0,0,1,1.69,3.09,9.07,9.07,0,0,1,.31,1.7c0,.29,0,.59,0,.89l0,.8-.16,3.16L42.1,30.54l-.58,12.65Z"/><path class="cls-1" d="M34.12,94.15c.12,4.23.13,8.45.16,12.68l-.11,12.67c-.05,4.23-.19,8.45-.33,12.68l-.13,3.16,0,.78c0,.23,0,.46,0,.69a7.45,7.45,0,0,0,.26,1.41,5.75,5.75,0,0,0,1.33,2.41,2.83,2.83,0,0,0,4.38,0A5.87,5.87,0,0,0,41,138.22a7.45,7.45,0,0,0,.26-1.41c0-.23,0-.46,0-.69l0-.78-.13-3.16c-.14-4.23-.29-8.45-.33-12.68l-.12-12.67c0-4.23,0-8.45.17-12.68l.64,12.66.58,12.65.62,12.65.16,3.16,0,.8c0,.3,0,.6,0,.89a9.07,9.07,0,0,1-.31,1.7,7.4,7.4,0,0,1-1.69,3.09,4.41,4.41,0,0,1-6.76,0,7.4,7.4,0,0,1-1.69-3.09,9.07,9.07,0,0,1-.31-1.7c0-.29,0-.59,0-.89l0-.8.16-3.16.62-12.65.58-12.65Z"/></g></svg>