<svg xmlns="http://www.w3.org/2000/svg" viewBox="0 0 150 150"><defs><style>.cls-1{fill:#bbcada;}</style></defs><title>design-icons</title><g id="Layer_2" data-name="Layer 2"><path class="cls-1" d="M62.5,6.39A6.6,6.6,0,0,1,69.08,13s-2,27.27-2,62.79,2,62.79,2,62.79a6.58,6.58,0,0,1-13.16,0s2-27.27,2-62.79-2-62.79-2-62.79A6.6,6.6,0,0,1,62.5,6.39m0-4A10.59,10.59,0,0,0,51.92,13a2.71,2.71,0,0,0,0,.29c0,.27,2,27.55,2,62.5s-1.93,62.23-2,62.5a2.71,2.71,0,0,0,0,.29,10.58,10.58,0,0,0,21.16,0,2.71,2.71,0,0,0,0-.29c0-.27-1.95-27.55-1.95-62.5s1.93-62.23,1.95-62.5a2.71,2.71,0,0,0,0-.29A10.59,10.59,0,0,0,62.5,2.39Z"/><path class="cls-1" d="M62.5,9.9c1.57,0,3,2.2,3,4.71-.07,1.27-1.38,27.59-1.38,61.14s1.31,59.87,1.38,61.14c0,2.51-1.4,4.71-3,4.71s-3-2.2-3-4.71c.07-1.27,1.38-27.59,1.38-61.14S59.6,15.88,59.53,14.61c0-2.51,1.4-4.71,3-4.71m0-1.65c-2.54,0-4.62,2.88-4.62,6.4,0,0,1.37,26.53,1.37,61.1s-1.37,61.1-1.37,61.1c0,3.52,2.08,6.4,4.62,6.4s4.62-2.88,4.62-6.4c0,0-1.37-26.53-1.37-61.1s1.37-61.1,1.37-61.1c0-3.52-2.08-6.4-4.62-6.4Z"/><path class="cls-1" d="M87.5,6.39A6.6,6.6,0,0,1,94.08,13s-2,27.27-2,62.79,2,62.79,2,62.79a6.58,6.58,0,0,1-13.16,0s2-27.27,2-62.79-2-62.79-2-62.79A6.6,6.6,0,0,1,87.5,6.39m0-4A10.59,10.59,0,0,0,76.92,13a2.71,2.71,0,0,0,0,.29c0,.27,1.95,27.55,1.95,62.5S77,138,76.93,138.25a2.71,2.71,0,0,0,0,.29,10.58,10.58,0,0,0,21.16,0,2.71,2.71,0,0,0,0-.29c0-.27-1.95-27.55-1.95-62.5s1.93-62.23,1.95-62.5a2.71,2.71,0,0,0,0-.29A10.59,10.59,0,0,0,87.5,2.39Z"/><path class="cls-1" d="M87.5,9.9c1.57,0,3,2.2,3,4.71-.07,1.27-1.38,27.59-1.38,61.14s1.31,59.87,1.38,61.14c0,2.51-1.4,4.71-3,4.71s-3-2.2-3-4.71c.07-1.27,1.38-27.59,1.38-61.14S84.6,15.88,84.53,14.61c0-2.51,1.4-4.71,3-4.71m0-1.65c-2.54,0-4.62,2.88-4.62,6.4,0,0,1.37,26.53,1.37,61.1s-1.37,61.1-1.37,61.1c0,3.52,2.08,6.4,4.62,6.4s4.62-2.88,4.62-6.4c0,0-1.37-26.53-1.37-61.1s1.37-61.1,1.37-61.1c0-3.52-2.08-6.4-4.62-6.4Z"/></g></svg>