<svg xmlns="http://www.w3.org/2000/svg" viewBox="0 0 50 150"><defs><style>.cls-1,.cls-2{fill:none;stroke:#bbcada;stroke-linecap:round;stroke-linejoin:round;}.cls-1{stroke-width:3px;}.cls-2{stroke-width:3px;}</style></defs><title>design-icons</title><g id="Layer_2" data-name="Layer 2"><path class="cls-1" d="M38.52,122.51C37.39,106.68,36.91,90.84,36.93,75s.46-31.68,1.59-47.51c.2-2.82.14-5.65.27-8.47A18.9,18.9,0,0,0,32.16,3.38H17.84A18.9,18.9,0,0,0,11.21,19c.13,2.82.07,5.65.27,8.47C12.61,43.32,13.09,59.16,13.07,75s-.46,31.68-1.59,47.51c-.2,2.82-.14,5.65-.27,8.47a18.9,18.9,0,0,0,6.63,15.64H32.16A18.9,18.9,0,0,0,38.79,131C38.66,128.16,38.72,125.33,38.52,122.51Z"/><path class="cls-2" d="M20.33,140.62a12.68,12.68,0,0,1-3.13-9.36c.06-1.24.08-2.48.1-3.72,0-1.61.06-3.13.17-4.6,1.1-15.4,1.62-31.09,1.6-47.95s-.5-32.53-1.6-47.93c-.11-1.47-.14-3-.17-4.6,0-1.24,0-2.48-.1-3.72a12.68,12.68,0,0,1,3.13-9.36h9.34a12.68,12.68,0,0,1,3.13,9.36c-.06,1.24-.08,2.48-.1,3.72,0,1.61-.06,3.13-.17,4.6-1.1,15.4-1.62,31.09-1.6,48s.5,32.53,1.6,47.93c.11,1.47.14,3,.17,4.6,0,1.24,0,2.48.1,3.72a12.68,12.68,0,0,1-3.13,9.36Z"/></g></svg>