<svg xmlns="http://www.w3.org/2000/svg" viewBox="0 0 150 150"><defs><style>.cls-1,.cls-2,.cls-4{fill:#bbcada;}.cls-2,.cls-3,.cls-4,.cls-5{stroke:#bbcada;stroke-miterlimit:10;}.cls-3,.cls-5{fill:none;}.cls-3,.cls-4,.cls-5{stroke-linecap:round;}.cls-3{stroke-width:5px;}.cls-4{stroke-width:1.81px;}.cls-5{stroke-width:3px;}</style></defs><title>design-icons</title><g id="Layer_2" data-name="Layer 2"><path class="cls-1" d="M107.11,74.65c-3.85-1.38-7.69-2.8-11.57-4.1A3.55,3.55,0,0,1,93,68.08c-1.71-5-3.55-10-5.41-14.93-1.69-4.53-6.37-7.4-10.48-6.41-3.81.93-5.58,3.86-6.48,7.31C69,60.46,67.54,66.92,66,73.36c-.06.26-.74,3.23-1.43,6.29,0,.13-.08.27-.11.39-1.95,8-3.83,16-5.79,24a11.28,11.28,0,0,1-1.36,3.29C53.16,114,48.92,120.46,44.77,127a6,6,0,0,0,2.7,8.91A5.65,5.65,0,0,0,55,133.75c4.87-7.55,9.71-15.1,14.46-22.72a17.67,17.67,0,0,0,1.86-4.66c.93-3.4,1.69-6.86,2.57-10.53l13.46,11L72.3,132.77c-.27.46-.76.93-.76,1.4a9,9,0,0,0,.5,2.23,11.3,11.3,0,0,0,2.18-.69c.36-.19.51-.79.75-1.2l11.55-19.83c.28-.49.62-.94.93-1.41a4.56,4.56,0,0,1,.33,2c0,4.88,0,9.77,0,14.65a5.29,5.29,0,0,0,3.15,5.24c4.53,2.06,9-.83,9-5.84,0-6.63-.06-13.26-.07-19.9,0-4.06.41-8.27-4.11-10.58,3.15-5.43,6.12-10.59,9.17-15.71a2.59,2.59,0,0,1,1.58-.88A4.24,4.24,0,0,0,110,78.46C110.21,76.74,109.19,75.4,107.11,74.65ZM93.45,96.42c-3.72-3.46-7.22-6.68-10.65-10a2.48,2.48,0,0,1-.57-1.85A25.29,25.29,0,0,1,83.44,79c1.28-3.17.11-5.69-1.25-8.27h0C81.92,70,79.82,65.5,79.59,65c-.42-1-1.34-2.13.15-2.77s1.7.9,2.14,1.81c1.44,3,2.91,6.08,4.24,9.17a5.77,5.77,0,0,0,3.64,3.45c4.13,1.46,8.19,3.1,12.45,4.74C99.25,86.43,96.38,91.38,93.45,96.42Z"/><path class="cls-2" d="M36.17,72.75A13.63,13.63,0,0,1,36.42,71q4.23-16.61,8.51-33.2a8.35,8.35,0,0,1,16.45,1.22,11,11,0,0,1-.45,3.72c-2.78,10.84-5.74,21.62-8.35,32.5C51.45,80,46.77,82,43.17,81.57,39.26,81.08,36.16,77.38,36.17,72.75Z"/><path class="cls-3" d="M7.5,134.88s1.09,3.62,5.79,3.62h95.87c4.7,0,5.79-3.62,5.79-3.62"/><path class="cls-3" d="M36.44,134.88s1.09,3.62,5.79,3.62H138.1c4.7,0,5.79-3.62,5.79-3.62"/><path class="cls-3" d="M48.79,99.41s3.78-.13,5-4.68L74.6,14.92c1.19-4.55-2-6.51-2-6.51"/><rect class="cls-1" x="97.52" y="36.01" width="3.09" height="5.79" transform="translate(20.04 -32.39) rotate(20.61)"/><rect class="cls-1" x="80.64" y="32.31" width="16.82" height="4.86" transform="translate(17.93 -29.13) rotate(20.61)"/><path class="cls-4" d="M93.64,25.78A8.67,8.67,0,0,0,84.34,28l15,5.64A8.58,8.58,0,0,0,93.64,25.78Z"/><path class="cls-5" d="M80.48,37.32a8.67,8.67,0,0,0,15.58,5.86"/></g></svg>