<svg xmlns="http://www.w3.org/2000/svg" viewBox="0 0 50 150"><defs><style>.cls-1,.cls-2{fill:none;stroke:#bbcada;stroke-linecap:round;stroke-linejoin:round;}.cls-1{stroke-width:3px;}.cls-2{stroke-width:3px;}</style></defs><title>design-icons</title><g id="Layer_2" data-name="Layer 2"><path class="cls-1" d="M36.34,75q0-24.82,1.84-49.65c.39-5.19.26-10.26-2.49-14.88C33.26,6.39,29.91,3.4,25,3.38s-8.26,3-10.69,7.09c-2.75,4.62-2.88,9.69-2.49,14.88Q13.68,50.18,13.66,75t-1.84,49.65c-.39,5.19-.26,10.26,2.49,14.88,2.43,4.08,5.78,7.07,10.69,7.09s8.26-3,10.69-7.09c2.75-4.62,2.88-9.69,2.49-14.88Q36.32,99.82,36.34,75Z"/><path class="cls-2" d="M21,144V4.38"/><path class="cls-2" d="M29,144V4.38"/></g></svg>