<svg xmlns="http://www.w3.org/2000/svg" viewBox="0 0 150 150"><defs><style>.cls-1{fill:#3e4f60;}.cls-2,.cls-3{fill:#fff;}.cls-3{fill-rule:evenodd;}</style></defs><title>design-icons</title><g id="Layer_2" data-name="Layer 2"><path class="cls-1" d="M30.61,86A17.06,17.06,0,0,1,46.34,96.4H91.9V32.9H8.16V96.4h6.71A17.09,17.09,0,0,1,30.61,86Z"/><path class="cls-1" d="M120,86A17.09,17.09,0,0,1,135.73,96.4h7.81V70.23l-8.37-26.17H96.09V96.4h8.17A17.06,17.06,0,0,1,120,86Z"/><path class="cls-1" d="M103.37,99.19H47.23a16.75,16.75,0,0,1,.36,5.59H103a16.75,16.75,0,0,1,.36-5.59Z"/><path class="cls-1" d="M14,99.19H2.58v5.59h11c0-.58-.08-1.16-.08-1.75A17.39,17.39,0,0,1,14,99.19Z"/><path class="cls-1" d="M147.42,99.19H136.61a16.81,16.81,0,0,1,.45,3.84c0,.59,0,1.17-.08,1.75h10.44Z"/><path class="cls-1" d="M133.52,99.19a13.79,13.79,0,0,0-1.12-2.79,14.07,14.07,0,0,0-24.82,0,14.26,14.26,0,0,0-1.66,6.63,14.56,14.56,0,0,0,.12,1.75,14.06,14.06,0,0,0,27.91,0,14.56,14.56,0,0,0,.12-1.75A13.92,13.92,0,0,0,133.52,99.19Zm-5.35,4.86a8.24,8.24,0,0,1-16.36,0,7.87,7.87,0,0,1,.25-3.27,7.73,7.73,0,0,1,.66-1.63,8.23,8.23,0,0,1,15.2,1.63,7.87,7.87,0,0,1,.25,3.27Z"/><path class="cls-1" d="M44.14,99.19A14.4,14.4,0,0,0,43,96.4a14.08,14.08,0,0,0-24.83,0,13.76,13.76,0,0,0-1.11,2.79,13.92,13.92,0,0,0-.55,3.84,14.56,14.56,0,0,0,.12,1.75,14.06,14.06,0,0,0,27.91,0,14.56,14.56,0,0,0,.12-1.75A14.3,14.3,0,0,0,44.14,99.19Zm-5.35,4.86a8.24,8.24,0,0,1-16.36,0,8.45,8.45,0,0,1-.07-1,8,8,0,0,1,.32-2.25,8.24,8.24,0,0,1,15.2-1.63,7.73,7.73,0,0,1,.66,1.63,7.87,7.87,0,0,1,.25,3.27Z"/><polygon class="cls-2" points="135.1 70.23 104.88 70.23 104.88 51.62 129.97 51.62 135.1 70.23"/><path class="cls-3" d="M60.06,62.51a.26.26,0,0,1,0,.24,8.46,8.46,0,0,1-.52,1.54,8.92,8.92,0,0,1-.68,1.3c-.2.29-.41.57-.62.84a3.41,3.41,0,0,1-1,.75,7.06,7.06,0,0,1-2.07.8,6.84,6.84,0,0,1-1.28.1,6.49,6.49,0,0,1-1.57-.24,8.59,8.59,0,0,1-1.7-.6,7.39,7.39,0,0,1-2.85-2.32,14.29,14.29,0,0,1-1.52-2.66,17.17,17.17,0,0,1-1.07-3.42c-.12-.58-.21-1.16-.3-1.75s-.1-.92-.15-1.38c0,0,0,0,0-.09s0,.07-.06.1c-.19.56-.38,1.11-.58,1.66s-.53,1.4-.8,2.1-.51,1.28-.78,1.92-.55,1.26-.84,1.89c-.38.82-.76,1.64-1.17,2.44s-.86,1.61-1.3,2.41-.91,1.56-1.4,2.31-1,1.42-1.53,2.1a21.7,21.7,0,0,1-1.81,2,16.56,16.56,0,0,1-3,2.35A9,9,0,0,1,29,78a8.51,8.51,0,0,1-1.34.22,7.4,7.4,0,0,1-1.76,0,6,6,0,0,1-1.56-.41A5.57,5.57,0,0,1,22.07,76a2.61,2.61,0,0,1-.5-1.2,2.8,2.8,0,0,1,0-1,1,1,0,0,1,.13-.33.23.23,0,0,1,.39,0,1.21,1.21,0,0,1,.25.3,3.93,3.93,0,0,0,1.48,1.44,4.41,4.41,0,0,0,1.4.49,6.51,6.51,0,0,0,1.59.09,7.55,7.55,0,0,0,1.63-.3,8.3,8.3,0,0,0,2.2-1.07,14.73,14.73,0,0,0,1.51-1.12,20.17,20.17,0,0,0,2-2,26.67,26.67,0,0,0,2.08-2.74c.52-.77,1-1.57,1.44-2.39q1-1.76,1.83-3.57c.47-1,.9-2,1.32-3,.21-.5.42-1,.62-1.52.27-.69.53-1.39.79-2.08s.45-1.25.66-1.88.42-1.26.63-1.89c.14-.45.27-.89.4-1.34s.3-1,.43-1.48c.19-.69.37-1.37.54-2.06s.32-1.38.48-2.08a7.43,7.43,0,0,0,.16-.82,1.26,1.26,0,0,1,.84-1.06,3.4,3.4,0,0,1,1-.23,2.49,2.49,0,0,1,.47,0,.77.77,0,0,1,.33.12c.09.06.11.09.08.21l-.24,1a7,7,0,0,0-.25,1.27c0,.3-.06.59-.08.88,0,.5-.06,1-.09,1.49,0,.33,0,.66,0,1s0,.75,0,1.12-.06.87-.08,1.3,0,1.09-.06,1.64,0,1,0,1.44,0,.79,0,1.19,0,.87.09,1.3.14,1.14.22,1.7a17,17,0,0,0,.5,2.22,11.91,11.91,0,0,0,1.23,2.92,4.89,4.89,0,0,0,1.88,1.84,4.65,4.65,0,0,0,2,.55,6.48,6.48,0,0,0,3.21-.71A9.64,9.64,0,0,0,59,63.65c.33-.33.62-.69.94-1C59.94,62.57,60,62.5,60.06,62.51Z"/><path class="cls-3" d="M63.86,53c0,.54,0,1.09,0,1.64s0,1.34,0,2c0,.45,0,.89.08,1.34s.11,1.13.18,1.7.19,1.21.32,1.8a15.09,15.09,0,0,0,1,2.87,8.26,8.26,0,0,0,1,1.65,4.74,4.74,0,0,0,1.92,1.45,5.14,5.14,0,0,0,2,.33A6.59,6.59,0,0,0,72.94,67a9.52,9.52,0,0,0,2.45-1.77c.31-.3.58-.63.87-1l.12-.14s.09-.05.11,0,.07.07.06.11a.75.75,0,0,1,0,.26c-.1.31-.21.62-.32.93a10.81,10.81,0,0,1-.81,1.68,6.46,6.46,0,0,1-.74,1,3.69,3.69,0,0,1-1,.7,6.39,6.39,0,0,1-2,.77,5.63,5.63,0,0,1-1.29.11,7,7,0,0,1-1.58-.24,8.11,8.11,0,0,1-1.71-.61,7.56,7.56,0,0,1-2.82-2.29,14.37,14.37,0,0,1-1.58-2.81,17.91,17.91,0,0,1-.89-2.68A20.42,20.42,0,0,1,61.4,59c-.07-.53-.14-1-.19-1.58s-.08-1.15-.1-1.72,0-.93,0-1.4,0-.67,0-1,0-.8.06-1.2a4.27,4.27,0,0,1,.18-1.18,1.65,1.65,0,0,1,.34-.64,1,1,0,0,1,1.14-.22,1.8,1.8,0,0,1,.86,1,3,3,0,0,1,.22,1.32l0,.63Z"/></g></svg>