<svg id="Layer_1" data-name="Layer 1" xmlns="http://www.w3.org/2000/svg" viewBox="0 0 100 100"><defs><style>.cls-1{fill:none;stroke:#3e4f60;stroke-miterlimit:10;stroke-width:3.6px;}.cls-2{fill:#3e4f60;}.cls-3{fill:#4d6479;}.cls-4{font-size:13.13px;font-family:MrEavesXLModOT-Bold, Mr Eaves XL Mod OT;font-weight:700;}.cls-4,.cls-6,.cls-7{fill:#fff;}.cls-5{letter-spacing:-0.01em;}.cls-7{fill-rule:evenodd;}</style></defs><title>single-item-icons</title><path class="cls-1" d="M12.65,31.23V64.4A8.62,8.62,0,0,0,17,71.87L45.69,88.46a8.62,8.62,0,0,0,8.62,0L83,71.87a8.62,8.62,0,0,0,4.31-7.47V31.23A8.62,8.62,0,0,0,83,23.76L54.31,7.18a8.62,8.62,0,0,0-8.62,0L17,23.76A8.62,8.62,0,0,0,12.65,31.23Z"/><polygon class="cls-2" points="13.13 75.71 5 75.71 5 60.71 13.13 55.09 13.13 75.71"/><polygon class="cls-2" points="86.88 75.71 95 75.71 95 60.71 86.88 55.09 86.88 75.71"/><rect class="cls-3" x="5" y="60.71" width="90" height="15"/><text class="cls-4" transform="translate(12.86 71.84)"><tspan class="cls-5">F</tspan><tspan x="5.8" y="0">ree Shipping</tspan></text><path class="cls-2" d="M34.11,44.21a6.59,6.59,0,0,1,6.06,4H57.71V23.78H25.47V48.23h2.58A6.58,6.58,0,0,1,34.11,44.21Z"/><path class="cls-2" d="M68.52,44.21a6.58,6.58,0,0,1,6.06,4h3V38.15L74.36,28.08h-15V48.23h3.14A6.59,6.59,0,0,1,68.52,44.21Z"/><path class="cls-2" d="M62.12,49.3H40.51a6.58,6.58,0,0,1,.17,1.48c0,.23,0,.45,0,.67H62c0-.22,0-.44,0-.67A6.58,6.58,0,0,1,62.12,49.3Z"/><path class="cls-2" d="M27.71,49.3H23.32v2.15h4.25c0-.22,0-.44,0-.67A6.58,6.58,0,0,1,27.71,49.3Z"/><path class="cls-2" d="M79.08,49.3H74.92a6.58,6.58,0,0,1,.17,1.48c0,.23,0,.45,0,.67h4Z"/><path class="cls-2" d="M73.73,49.3a5.84,5.84,0,0,0-.43-1.07,5.42,5.42,0,0,0-9.56,0,5.84,5.84,0,0,0-.43,1.07,5.57,5.57,0,0,0-.21,1.48,4.91,4.91,0,0,0,0,.67,5.41,5.41,0,0,0,10.74,0,4.91,4.91,0,0,0,0-.67A5.57,5.57,0,0,0,73.73,49.3Zm-2.06,1.87a3.17,3.17,0,0,1-6.3,0c0-.13,0-.26,0-.39a3.15,3.15,0,0,1,.12-.87,3.45,3.45,0,0,1,.25-.63,3.17,3.17,0,0,1,5.6,0,3.48,3.48,0,0,1,.26.63,3.58,3.58,0,0,1,.12.87A2.56,2.56,0,0,1,71.67,51.17Z"/><path class="cls-2" d="M39.32,49.3a5.84,5.84,0,0,0-.43-1.07,5.42,5.42,0,0,0-9.56,0,5.84,5.84,0,0,0-.43,1.07,5.57,5.57,0,0,0-.21,1.48,4.91,4.91,0,0,0,0,.67,5.41,5.41,0,0,0,10.74,0,4.91,4.91,0,0,0,.05-.67A5.57,5.57,0,0,0,39.32,49.3Zm-2.06,1.87a3.17,3.17,0,0,1-6.3,0,2.56,2.56,0,0,1,0-.39,3.16,3.16,0,0,1,.13-.87,2.85,2.85,0,0,1,.25-.63,3.17,3.17,0,0,1,5.6,0,2.85,2.85,0,0,1,.25.63,3.15,3.15,0,0,1,.12.87C37.28,50.91,37.27,51,37.26,51.17Z"/><polygon class="cls-6" points="74.34 38.15 62.7 38.15 62.7 30.99 72.36 30.99 74.34 38.15"/><path class="cls-7" d="M45.57,35.14a.1.1,0,0,1,0,.09,2.93,2.93,0,0,1-.2.59,3.93,3.93,0,0,1-.26.5,3.81,3.81,0,0,1-.24.32,1.28,1.28,0,0,1-.37.29,2.89,2.89,0,0,1-.8.31,2.63,2.63,0,0,1-.49,0,3.11,3.11,0,0,1-.6-.09A3.58,3.58,0,0,1,42,37a2.92,2.92,0,0,1-1.1-.9,5.38,5.38,0,0,1-.58-1,6.64,6.64,0,0,1-.41-1.31c-.05-.22-.08-.44-.11-.67s0-.35-.06-.53c0,0,0,0,0,0l0,0c-.07.21-.14.42-.22.63s-.2.54-.31.81-.19.49-.3.73-.21.49-.32.73-.29.63-.45.93-.33.62-.5.93-.34.6-.53.89-.38.54-.59.8a10.27,10.27,0,0,1-.7.78,5.87,5.87,0,0,1-1.14.9,3.73,3.73,0,0,1-.94.41,4.34,4.34,0,0,1-.52.09,3,3,0,0,1-.67,0,2,2,0,0,1-.6-.16,2.21,2.21,0,0,1-.89-.68,1.15,1.15,0,0,1-.19-.46,1.07,1.07,0,0,1,0-.4.5.5,0,0,1,.05-.13.09.09,0,0,1,.15,0,.47.47,0,0,1,.09.12,1.58,1.58,0,0,0,.57.55,1.74,1.74,0,0,0,.54.19,2.47,2.47,0,0,0,.61,0,2.6,2.6,0,0,0,.62-.11,3.52,3.52,0,0,0,.85-.41,5.79,5.79,0,0,0,.58-.43,8,8,0,0,0,.77-.77,10.15,10.15,0,0,0,.8-1.06A10.47,10.47,0,0,0,37,36.5c.25-.45.49-.91.71-1.37s.34-.76.5-1.15l.24-.59.3-.8c.09-.23.18-.47.26-.72l.24-.72.15-.51c.06-.19.12-.38.17-.57s.14-.53.2-.79.13-.53.19-.8c0-.1,0-.21.06-.31a.46.46,0,0,1,.32-.41,1.24,1.24,0,0,1,.38-.09,1.09,1.09,0,0,1,.18,0,.2.2,0,0,1,.13,0,.06.06,0,0,1,0,.08l-.09.37a2.73,2.73,0,0,0-.1.48l0,.34,0,.57c0,.13,0,.26,0,.38s0,.29,0,.43,0,.33,0,.5l0,.63c0,.18,0,.37,0,.55s0,.31,0,.46,0,.33,0,.5.05.43.08.65a8,8,0,0,0,.19.85,5,5,0,0,0,.48,1.12,1.89,1.89,0,0,0,.72.71,1.91,1.91,0,0,0,.75.21,2.39,2.39,0,0,0,1.23-.28,3.66,3.66,0,0,0,.94-.67l.36-.4A.06.06,0,0,1,45.57,35.14Z"/><path class="cls-7" d="M47,31.47c0,.21,0,.42,0,.63s0,.52,0,.78a4.36,4.36,0,0,0,0,.51l.06.65c0,.23.08.47.13.69a5.9,5.9,0,0,0,.36,1.1,3.14,3.14,0,0,0,.37.64,1.82,1.82,0,0,0,1.51.68,2.42,2.42,0,0,0,1-.27,3.53,3.53,0,0,0,.94-.68c.12-.12.22-.24.33-.36l0-.06,0,0a.05.05,0,0,1,0,.05.36.36,0,0,1,0,.1l-.12.35a4.85,4.85,0,0,1-.31.65,2.55,2.55,0,0,1-.29.38,1.11,1.11,0,0,1-.37.27,2.68,2.68,0,0,1-.77.3,2.81,2.81,0,0,1-.5,0,2.49,2.49,0,0,1-.6-.09,3.71,3.71,0,0,1-.66-.24,2.79,2.79,0,0,1-1.08-.88,5.38,5.38,0,0,1-.61-1.07,7.76,7.76,0,0,1-.34-1c-.06-.26-.11-.53-.15-.8s0-.4-.07-.6,0-.44,0-.66,0-.36,0-.54,0-.26,0-.39,0-.3,0-.46a1.76,1.76,0,0,1,.07-.45.7.7,0,0,1,.13-.24.37.37,0,0,1,.44-.09.7.7,0,0,1,.33.37,1.08,1.08,0,0,1,.08.5,1.93,1.93,0,0,1,0,.24Z"/></svg>