<?xml version="1.0" encoding="utf-8"?>
<!-- Generator: Adobe Illustrator 22.1.0, SVG Export Plug-In . SVG Version: 6.00 Build 0)  -->
<svg version="1.1" xmlns="http://www.w3.org/2000/svg" xmlns:xlink="http://www.w3.org/1999/xlink" x="0px" y="0px"
	 viewBox="0 0 190 54" style="enable-background:new 0 0 190 54;" xml:space="preserve">
<style type="text/css">
	.st0{fill-rule:evenodd;clip-rule:evenodd;fill:#FFFFFF;}
	.st1{fill:#FFFFFF;}
</style>
<g id="Mu">
	<g>
		<path class="st0" d="M160.6,29.8c0.1,0.1,0.1,0.2,0,0.4c-0.2,0.8-0.5,1.5-0.8,2.3c-0.3,0.7-0.6,1.3-1,1.9
			c-0.3,0.4-0.6,0.8-0.9,1.2c-0.4,0.5-0.9,0.8-1.4,1.1c-1,0.6-2,1-3.1,1.2c-0.6,0.1-1.3,0.2-1.9,0.2c-0.8,0-1.6-0.2-2.3-0.4
			c-0.9-0.2-1.7-0.5-2.5-0.9c-1.7-0.8-3.1-1.9-4.2-3.4c-0.9-1.2-1.6-2.5-2.2-3.9c-0.7-1.6-1.2-3.3-1.6-5.1c-0.2-0.9-0.3-1.7-0.4-2.6
			c-0.1-0.7-0.2-1.4-0.2-2c0,0,0-0.1,0-0.1c0,0.1-0.1,0.1-0.1,0.2c-0.3,0.8-0.6,1.6-0.9,2.4c-0.4,1-0.8,2.1-1.2,3.1
			c-0.4,1-0.8,1.9-1.2,2.8c-0.4,0.9-0.8,1.9-1.2,2.8c-0.6,1.2-1.1,2.4-1.7,3.6c-0.6,1.2-1.3,2.4-1.9,3.6c-0.6,1.2-1.3,2.3-2.1,3.4
			c-0.7,1.1-1.5,2.1-2.3,3.1c-0.8,1.1-1.7,2.1-2.7,3c-1.3,1.3-2.8,2.5-4.4,3.5c-1.1,0.7-2.3,1.2-3.6,1.6c-0.7,0.2-1.3,0.3-2,0.3
			c-0.9,0.1-1.7,0.1-2.6,0c-0.8-0.1-1.6-0.3-2.3-0.6c-1.4-0.6-2.5-1.5-3.4-2.6c-0.4-0.5-0.6-1.1-0.7-1.8c-0.1-0.5-0.1-1,0-1.5
			c0-0.2,0.1-0.3,0.2-0.5c0.1-0.2,0.4-0.3,0.6-0.1c0.1,0.1,0.3,0.3,0.4,0.5c0.5,0.9,1.3,1.6,2.2,2.1c0.6,0.4,1.3,0.6,2.1,0.7
			c0.8,0.1,1.6,0.2,2.4,0.1c0.8-0.1,1.6-0.2,2.4-0.4c1.2-0.4,2.2-0.9,3.3-1.6c0.8-0.5,1.5-1.1,2.2-1.7c1.1-0.9,2.1-1.9,3-3
			c1.1-1.3,2.1-2.6,3.1-4.1c0.8-1.1,1.5-2.3,2.1-3.5c1-1.7,1.9-3.5,2.7-5.3c0.7-1.5,1.3-2.9,2-4.4c0.3-0.7,0.6-1.5,0.9-2.3
			c0.4-1,0.8-2.1,1.2-3.1c0.3-0.9,0.7-1.8,1-2.8c0.3-0.9,0.6-1.9,0.9-2.8c0.2-0.7,0.4-1.3,0.6-2c0.2-0.7,0.4-1.5,0.6-2.2
			c0.3-1,0.5-2,0.8-3c0.3-1,0.5-2.1,0.7-3.1c0.1-0.4,0.2-0.8,0.2-1.2c0.1-0.8,0.5-1.3,1.2-1.6c0.5-0.2,1-0.3,1.5-0.3
			c0.2,0,0.5-0.1,0.7-0.1c0.2,0,0.3,0.1,0.5,0.2c0.1,0.1,0.2,0.1,0.1,0.3c-0.1,0.5-0.2,0.9-0.4,1.4c-0.2,0.6-0.3,1.2-0.4,1.9
			c0,0.4-0.1,0.9-0.1,1.3c-0.1,0.7-0.1,1.5-0.1,2.2c0,0.5-0.1,1-0.1,1.5c0,0.6,0,1.1-0.1,1.7c0,0.6-0.1,1.3-0.1,1.9
			c0,0.8-0.1,1.6-0.1,2.4c0,0.7,0,1.4,0,2.1c0,0.6,0,1.2,0.1,1.8c0,0.6,0.1,1.3,0.1,1.9c0.1,0.8,0.2,1.7,0.3,2.5
			c0.2,1.1,0.4,2.2,0.7,3.3c0.4,1.5,1,3,1.8,4.3c0.7,1.1,1.6,2.1,2.8,2.7c0.9,0.5,1.9,0.8,2.9,0.8c1.7,0.1,3.2-0.3,4.7-1.1
			c1.4-0.7,2.5-1.6,3.6-2.6c0.5-0.5,0.9-1,1.4-1.5C160.4,29.9,160.5,29.8,160.6,29.8z"/>
		<path class="st0" d="M166.2,15.7c0,0.8-0.1,1.6-0.1,2.4c0,1,0,2,0,3c0,0.7,0.1,1.3,0.1,2c0.1,0.8,0.2,1.7,0.3,2.5
			c0.1,0.9,0.3,1.8,0.5,2.7c0.3,1.5,0.8,2.9,1.4,4.2c0.4,0.9,0.8,1.7,1.4,2.4c0.8,1,1.7,1.7,2.8,2.1c1,0.4,1.9,0.5,3,0.5
			c1.4,0,2.7-0.4,4-1.1c1.4-0.7,2.5-1.6,3.6-2.6c0.5-0.4,0.9-0.9,1.3-1.4c0.1-0.1,0.1-0.1,0.2-0.2c0,0,0.1-0.1,0.2-0.1
			c0,0,0.1,0.1,0.1,0.2c0,0.1,0,0.3-0.1,0.4c-0.2,0.5-0.3,0.9-0.5,1.4c-0.3,0.9-0.7,1.7-1.2,2.5c-0.3,0.5-0.7,1-1.1,1.5
			c-0.4,0.4-0.9,0.7-1.4,1c-0.9,0.5-1.9,0.9-3,1.1c-0.6,0.1-1.3,0.2-1.9,0.2c-0.8,0-1.6-0.2-2.3-0.4c-0.9-0.2-1.7-0.5-2.5-0.9
			c-1.7-0.8-3.1-1.9-4.2-3.4c-1-1.3-1.7-2.7-2.3-4.1c-0.6-1.3-1-2.6-1.3-4c-0.2-1-0.4-2-0.6-3.1c-0.1-0.8-0.2-1.6-0.3-2.3
			c-0.1-0.8-0.1-1.7-0.2-2.5c0-0.7,0-1.4,0-2.1c0-0.5,0-1,0-1.5c0-0.6,0-1.2,0.1-1.8c0-0.6,0.1-1.2,0.3-1.8c0.1-0.3,0.3-0.7,0.5-0.9
			c0.5-0.5,1.1-0.6,1.7-0.3c0.6,0.3,1,0.8,1.3,1.4c0.3,0.6,0.4,1.3,0.3,1.9C166.3,15,166.3,15.4,166.2,15.7
			C166.3,15.7,166.3,15.7,166.2,15.7z"/>
	</g>
</g>
<g id="Gilson">
	<g>
		<path class="st1" d="M10.8,41.6c-1.6,0-2.9-0.2-4.1-0.7c-1.2-0.4-2.1-1-2.8-1.8c-0.7-0.8-1.3-1.7-1.7-2.9
			c-0.4-1.2-0.7-2.4-0.9-3.7C1.1,31.2,1,29.7,1,28v-8.7C1,11,4.3,6.8,10.9,6.8c1.6,0,3,0.2,4.1,0.7c1.2,0.5,2.1,1.2,2.8,2.1
			c0.7,0.9,1.3,2,1.6,3.2c0.4,1.2,0.6,2.6,0.6,4.3c0,0.2,0,0.6,0,1h-4.9v-1c0-0.8-0.1-1.5-0.1-2.1c-0.1-0.6-0.2-1.1-0.4-1.7
			c-0.2-0.6-0.4-1-0.8-1.4c-0.3-0.3-0.7-0.6-1.3-0.8c-0.5-0.2-1.2-0.3-1.9-0.3c-1,0-1.8,0.2-2.5,0.5c-0.7,0.4-1.2,0.9-1.6,1.6
			c-0.4,0.7-0.6,1.5-0.8,2.3C6,16,5.9,17,5.9,18.1v11c0,0.8,0,1.5,0.1,2.2c0.1,0.7,0.1,1.3,0.3,2c0.1,0.7,0.3,1.3,0.5,1.8
			C7,35.6,7.3,36,7.6,36.4c0.3,0.4,0.8,0.7,1.3,0.9c0.5,0.2,1.1,0.3,1.8,0.3c0.8,0,1.5-0.2,2.1-0.5c0.6-0.3,1.1-0.7,1.4-1.2
			c0.3-0.5,0.6-1.1,0.8-1.9c0.2-0.8,0.3-1.5,0.4-2.3c0.1-0.8,0.1-1.6,0.1-2.6v-1.2h-4.9v-3.6h9.8v17h-3.7l-1.2-3.7
			C14.7,40.3,13.1,41.6,10.8,41.6z"/>
		<path class="st1" d="M24.7,41.3V7.1h4.9v34.2H24.7z"/>
		<path class="st1" d="M34.8,41.3V7.1h4.9v30.5h8.5v3.7H34.8z"/>
		<path class="st1" d="M59.4,41.6c-3.1,0-5.4-0.9-7-2.7c-1.6-1.8-2.5-4.3-2.7-7.4l4.9-1.2c0.2,4.9,1.9,7.3,4.9,7.3
			c2.4,0,3.7-1.2,3.7-3.7c0-0.7-0.1-1.4-0.3-2c-0.2-0.6-0.5-1.2-0.9-1.7c-0.4-0.5-0.8-0.9-1.1-1.2c-0.3-0.3-0.8-0.7-1.4-1.2L53.3,23
			c-1.1-0.9-2-2-2.7-3.3c-0.7-1.4-1-2.9-1-4.6c0-2.5,0.8-4.5,2.3-6c1.6-1.5,3.6-2.2,6.2-2.2c2.8,0,5,0.7,6.6,2
			c1.6,1.4,2.6,3.3,3,5.7c0,0.3,0.1,0.6,0.1,1.1L63,16.9c0-0.2,0-0.5-0.1-1c-0.2-1.6-0.7-2.8-1.5-3.7c-0.8-0.9-1.9-1.4-3.3-1.4
			c-1.2,0-2.1,0.3-2.7,1c-0.6,0.7-1,1.6-1,2.7c0,1.9,0.8,3.5,2.4,4.8l6.1,4.9c3.3,2.6,4.9,5.8,4.9,9.4c0,2.5-0.8,4.5-2.3,5.9
			C64.1,40.9,62,41.6,59.4,41.6z"/>
		<path class="st1" d="M80.3,41.6c-1.7,0-3.2-0.3-4.4-0.8c-1.2-0.5-2.2-1.3-2.9-2.3c-0.7-1-1.3-2.2-1.6-3.5
			c-0.3-1.4-0.5-2.9-0.5-4.7V17.9c0-1.8,0.2-3.4,0.5-4.7c0.3-1.3,0.9-2.5,1.6-3.5c0.7-1,1.7-1.7,2.9-2.2c1.2-0.5,2.7-0.7,4.4-0.7
			c3.3,0,5.7,1,7.2,2.9c1.5,1.9,2.2,4.7,2.2,8.3v12.4c0,1.8-0.2,3.3-0.5,4.7c-0.3,1.4-0.9,2.5-1.6,3.5c-0.7,1-1.7,1.8-2.9,2.3
			C83.4,41.4,82,41.6,80.3,41.6z M76.7,36.1c0.7,1,1.8,1.5,3.6,1.5c1.7,0,2.9-0.5,3.6-1.5c0.7-1,1-2.5,1-4.6V16.7c0-2-0.3-3.5-1-4.4
			c-0.6-1-1.8-1.5-3.6-1.5c-1.7,0-2.9,0.5-3.6,1.5c-0.6,1-1,2.5-1,4.4v14.8C75.7,33.5,76.1,35.1,76.7,36.1z"/>
		<path class="st1" d="M94,41.3V7.1h3.7l8.5,21.1V7.1h4.9v34.2h-3.5l-8.7-22.7v22.7H94z"/>
	</g>
</g>
<g id="Trademark">
	<g>
		<path class="st1" d="M188.4,39.9c0,1.3-1,2.3-2.3,2.3c-1.3,0-2.3-1-2.3-2.3c0-1.3,1-2.3,2.3-2.3C187.4,37.7,188.4,38.7,188.4,39.9
			z M184.4,39.9c0,1,0.7,1.8,1.8,1.8c1,0,1.7-0.8,1.7-1.8c0-1-0.7-1.8-1.7-1.8C185.1,38.1,184.4,38.9,184.4,39.9z M185.8,41.1h-0.5
			v-2.3c0.2,0,0.5-0.1,0.9-0.1c0.4,0,0.6,0.1,0.8,0.2c0.1,0.1,0.2,0.3,0.2,0.5c0,0.2-0.2,0.4-0.5,0.5v0c0.2,0.1,0.3,0.2,0.4,0.5
			c0.1,0.3,0.1,0.5,0.2,0.6h-0.6c-0.1-0.1-0.1-0.3-0.2-0.5c0-0.2-0.2-0.4-0.5-0.4h-0.2V41.1z M185.8,39.8h0.2c0.3,0,0.5-0.1,0.5-0.3
			c0-0.2-0.2-0.3-0.5-0.3c-0.1,0-0.2,0-0.3,0V39.8z"/>
	</g>
</g>
</svg>
