<svg id="Layer_1" data-name="Layer 1" xmlns="http://www.w3.org/2000/svg" viewBox="0 0 100 100"><defs><style>.cls-1{fill:#3e4f60;}.cls-2{font-size:13.99px;}.cls-2,.cls-6{fill:#fff;font-family:MrEavesXLModOT-Bold, Mr Eaves XL Mod OT;font-weight:700;}.cls-3{letter-spacing:-0.03em;}.cls-4{fill:none;stroke:#3e4f60;stroke-miterlimit:10;stroke-width:3.6px;}.cls-5{fill:#4d6479;}.cls-6{font-size:13.13px;}</style></defs><title>google-rating</title><polygon class="cls-1" points="50 51.05 36.49 58.16 39.07 43.11 28.14 32.45 43.24 30.26 50 16.57 56.76 30.26 71.86 32.45 60.93 43.11 63.51 58.16 50 51.05"/><text class="cls-2" transform="translate(39.87 42.56)">4<tspan class="cls-3" x="7.67" y="0">.</tspan><tspan x="10.6" y="0">9</tspan></text><path class="cls-4" d="M12.65,33.41V66.59A8.63,8.63,0,0,0,17,74.06L45.69,90.64a8.62,8.62,0,0,0,8.62,0L83,74.06a8.63,8.63,0,0,0,4.31-7.47V33.41A8.63,8.63,0,0,0,83,25.94L54.31,9.36a8.62,8.62,0,0,0-8.62,0L17,25.94A8.63,8.63,0,0,0,12.65,33.41Z"/><polygon class="cls-1" points="13.13 77.89 5 77.89 5 62.9 13.13 57.27 13.13 77.89"/><polygon class="cls-1" points="86.88 77.89 95 77.89 95 62.9 86.88 57.27 86.88 77.89"/><rect class="cls-5" x="5" y="62.9" width="90" height="15"/><text class="cls-6" transform="translate(30.19 74.03)">Google</text></svg>