<svg id="Layer_1" data-name="Layer 1" xmlns="http://www.w3.org/2000/svg" viewBox="0 0 100 100"><defs><style>.cls-1{fill:#3e4f60;}.cls-2{fill:#fff;}.cls-3{fill:none;stroke:#3e4f60;stroke-miterlimit:10;stroke-width:3.6px;}.cls-4{fill:#4d6479;}</style></defs><title>single-item-icons</title><polygon class="cls-1" points="50 51.05 36.49 58.16 39.07 43.11 28.14 32.45 43.24 30.26 50 16.57 56.76 30.26 71.86 32.45 60.93 43.11 63.51 58.16 50 51.05"/><path class="cls-2" d="M45.68,40.5v2.06H44.05V40.5H40.19v-.87l4.16-5.54h1.33v5.22H47.2V40.5Zm-1.63-4.24-2.28,3.05h2.28Z"/><path class="cls-2" d="M48.36,42.56v-1.7h1.7v1.7Z"/><path class="cls-2" d="M53.5,42.77a3.61,3.61,0,0,1-2-.56V40.93a3.58,3.58,0,0,0,1.84.59c1.25,0,2.16-.71,2.21-2.9a2.35,2.35,0,0,1-1.94.94A2.6,2.6,0,0,1,51,36.75,2.89,2.89,0,0,1,54,33.88c1.34,0,3.17.69,3.17,4C57.2,40.85,55.93,42.77,53.5,42.77ZM54.1,35a1.5,1.5,0,0,0-1.47,1.68c0,1,.47,1.69,1.41,1.69a1.49,1.49,0,0,0,1.51-1.54C55.55,35.67,54.87,35,54.1,35Z"/><path class="cls-3" d="M12.65,33.41V66.59A8.63,8.63,0,0,0,17,74.06L45.69,90.64a8.62,8.62,0,0,0,8.62,0L83,74.06a8.63,8.63,0,0,0,4.31-7.47V33.41A8.63,8.63,0,0,0,83,25.94L54.31,9.36a8.62,8.62,0,0,0-8.62,0L17,25.94A8.63,8.63,0,0,0,12.65,33.41Z"/><polygon class="cls-1" points="13.13 77.89 5 77.89 5 62.9 13.13 57.27 13.13 77.89"/><polygon class="cls-1" points="86.88 77.89 95 77.89 95 62.9 86.88 57.27 86.88 77.89"/><rect class="cls-4" x="5" y="62.9" width="90" height="15"/><path class="cls-2" d="M34.79,74.25A4.14,4.14,0,1,1,34.9,66a4.87,4.87,0,0,1,2.79.8v1.46a3.89,3.89,0,0,0-2.63-1A2.89,2.89,0,0,0,35,73a3.33,3.33,0,0,0,1.53-.33V71.18H35.1V70H38v3.48A8.12,8.12,0,0,1,34.79,74.25Z"/><path class="cls-2" d="M42.39,74.24a3,3,0,1,1,3.18-3A3.06,3.06,0,0,1,42.39,74.24Zm0-5a1.95,1.95,0,1,0,1.68,1.93A1.73,1.73,0,0,0,42.39,69.26Z"/><path class="cls-2" d="M49.52,74.24a3,3,0,1,1,3.18-3A3.05,3.05,0,0,1,49.52,74.24Zm0-5a1.95,1.95,0,1,0,1.68,1.93A1.73,1.73,0,0,0,49.52,69.26Z"/><path class="cls-2" d="M56.49,76.7A5.49,5.49,0,0,1,54,76V74.87a4.31,4.31,0,0,0,2.46.73c.95,0,1.72-.55,1.72-2v-.37a2.55,2.55,0,0,1-2,.93,3,3,0,0,1,0-6,2.57,2.57,0,0,1,2.11,1.06l.06-.9H59.7v5.1C59.7,76.17,57.93,76.7,56.49,76.7Zm.14-7.37a1.88,1.88,0,1,0,1.62,1.86A1.66,1.66,0,0,0,56.63,69.33Z"/><path class="cls-2" d="M61.2,74V66.15h1.52V74Z"/><path class="cls-2" d="M69.19,71.23H65.42a1.69,1.69,0,0,0,1.92,1.85,3,3,0,0,0,1.84-.67v1.1a3.8,3.8,0,0,1-2.31.67,3,3,0,0,1-.1-6,2.31,2.31,0,0,1,2.52,2.24A3.22,3.22,0,0,1,69.19,71.23Zm-2.38-2.06a1.29,1.29,0,0,0-1.33,1.25h2.43A1,1,0,0,0,66.81,69.17Z"/></svg>