<svg id="Layer_1" data-name="Layer 1" xmlns="http://www.w3.org/2000/svg" viewBox="0 0 80 80"><defs><style>.cls-1{fill:#f16145;}.cls-2{fill:none;stroke:#fff;stroke-miterlimit:10;stroke-width:1.81px;}.cls-3{fill:#3e4f60;}.cls-4{fill:#fff;}</style></defs><title>single-item-icons</title><polygon class="cls-1" points="11.68 60.57 21.42 56.73 16.58 66.01 25.3 60.23 22.5 70.31 29.83 62.84 29.18 73.29 34.8 64.45 36.34 74.81 40 65 43.66 74.81 45.2 64.45 50.82 73.29 50.17 62.84 57.5 70.31 54.7 60.23 63.42 66.01 58.58 56.73 68.32 60.57 64.5 55.95 15.5 55.95 11.68 60.57"/><polygon class="cls-1" points="68.32 19.43 58.58 23.27 63.42 13.99 54.7 19.77 57.5 9.69 50.17 17.16 50.82 6.71 45.2 15.55 43.66 5.19 40 15 36.34 5.19 34.8 15.55 29.18 6.71 29.83 17.16 22.5 9.69 25.3 19.77 16.58 13.99 21.42 23.27 11.68 19.43 15.5 24.05 64.5 24.05 68.32 19.43"/><circle class="cls-2" cx="40" cy="40" r="20.79"/><polygon class="cls-3" points="66 26.72 62.23 26.72 58.84 26.72 21.16 26.72 17.77 26.72 13.99 26.72 3.88 26.72 3.88 53.28 13.99 53.28 17.77 53.28 21.16 53.28 58.84 53.28 62.23 53.28 66 53.28 76.13 53.28 76.13 26.72 66 26.72"/><path class="cls-4" d="M17.53,38.64V30.07h1.4v7.37h3.63v1.2Z"/><path class="cls-4" d="M24,38.64V30.07h1.4v8.57Z"/><path class="cls-4" d="M31.4,38.64l-2.48-7.15h-.05c.07,1.06.1,2.05.1,3v4.17H27.7V30.07h2l2.38,6.82h0l2.45-6.82h2v8.57H35.17V34.4c0-.42,0-1,0-1.66s0-1.1.06-1.24h0l-2.57,7.14Z"/><path class="cls-4" d="M38.77,38.64V30.07h1.4v8.57Z"/><path class="cls-4" d="M45.39,38.64H44V31.27H41.47v-1.2h6.44v1.2H45.39Z"/><path class="cls-4" d="M54.07,38.64H49.23V30.07h4.84v1.19H50.63v2.33h3.22v1.17H50.63v2.69h3.44Z"/><path class="cls-4" d="M62.89,34.27a4.26,4.26,0,0,1-1.18,3.25,4.7,4.7,0,0,1-3.39,1.12h-2.4V30.07h2.65a4.35,4.35,0,0,1,3.18,1.11A4.08,4.08,0,0,1,62.89,34.27Zm-1.48,0c0-2-1-3.07-2.87-3.07H57.32v6.21h1C60.38,37.46,61.41,36.42,61.41,34.32Z"/><path class="cls-4" d="M21.75,49H16.9V40.47h4.85v1.19H18.3V44h3.23v1.17H18.3v2.69h3.45Z"/><path class="cls-4" d="M30.56,44.68a4.29,4.29,0,0,1-1.17,3.24A4.74,4.74,0,0,1,26,49H23.6V40.47h2.65a4.37,4.37,0,0,1,3.18,1.11A4.12,4.12,0,0,1,30.56,44.68Zm-1.47,0c0-2-1-3.07-2.88-3.07H25v6.21h1C28.06,47.86,29.09,46.82,29.09,44.72Z"/><path class="cls-4" d="M32.4,49V40.47h1.4V49Z"/><path class="cls-4" d="M39,49h-1.4V41.68H35.1V40.47h6.44v1.21H39Z"/><path class="cls-4" d="M42.86,49V40.47h1.4V49Z"/><path class="cls-4" d="M54.12,44.75a4.68,4.68,0,0,1-1,3.25,4.4,4.4,0,0,1-5.94,0,4.7,4.7,0,0,1-1-3.28,4.65,4.65,0,0,1,1-3.25,3.87,3.87,0,0,1,3-1.14,3.76,3.76,0,0,1,2.95,1.15A4.68,4.68,0,0,1,54.12,44.75Zm-6.53,0a3.9,3.9,0,0,0,.63,2.4,2.28,2.28,0,0,0,1.9.81A2.24,2.24,0,0,0,52,47.15a3.86,3.86,0,0,0,.64-2.4A3.83,3.83,0,0,0,52,42.36a2.22,2.22,0,0,0-1.88-.82,2.25,2.25,0,0,0-1.9.82A3.76,3.76,0,0,0,47.59,44.75Z"/><path class="cls-4" d="M63.1,49H61.38l-4.21-6.83h-.05l0,.39c.06.72.09,1.39.09,2V49H56V40.47h1.7l4.2,6.8h0c0-.09,0-.42,0-1s0-1,0-1.32V40.47H63.1Z"/></svg>