<svg id="Layer_1" data-name="Layer 1" xmlns="http://www.w3.org/2000/svg" viewBox="0 0 80 80"><defs><style>.cls-1{fill:#f16145;}.cls-2{fill:none;stroke:#fff;stroke-miterlimit:10;stroke-width:1.81px;}.cls-3{fill:#3e4f60;}.cls-4{font-size:12px;fill:#fff;font-family:OpenSans-Semibold, Open Sans;font-weight:700;}</style></defs><title>single-item-icons</title><polygon class="cls-1" points="11.68 60.57 21.42 56.73 16.58 66.01 25.3 60.23 22.5 70.31 29.83 62.84 29.18 73.29 34.8 64.45 36.34 74.81 40 65 43.66 74.81 45.2 64.45 50.82 73.29 50.17 62.84 57.5 70.31 54.7 60.23 63.42 66.01 58.58 56.73 68.32 60.57 64.5 55.95 15.5 55.95 11.68 60.57"/><polygon class="cls-1" points="68.32 19.43 58.58 23.27 63.42 13.99 54.7 19.77 57.5 9.69 50.17 17.16 50.82 6.71 45.2 15.55 43.66 5.19 40 15 36.34 5.19 34.8 15.55 29.18 6.71 29.83 17.16 22.5 9.69 25.3 19.77 16.58 13.99 21.42 23.27 11.68 19.43 15.5 24.05 64.5 24.05 68.32 19.43"/><circle class="cls-2" cx="40" cy="40" r="20.79"/><polygon class="cls-3" points="66 26.72 62.23 26.72 58.84 26.72 21.16 26.72 17.77 26.72 13.99 26.72 3.88 26.72 3.88 53.28 13.99 53.28 17.77 53.28 21.16 53.28 58.84 53.28 62.23 53.28 66 53.28 76.13 53.28 76.13 26.72 66 26.72"/><text class="cls-4" transform="translate(16.4 38.64)">LIMITED<tspan x="-0.63" y="10.4">EDITION</tspan></text></svg>