<svg id="Layer_1" data-name="Layer 1" xmlns="http://www.w3.org/2000/svg" viewBox="0 0 100 100"><defs><style>.cls-1{fill:#f16145;}.cls-2,.cls-3,.cls-4,.cls-5,.cls-6{fill:none;stroke-miterlimit:10;}.cls-2,.cls-3,.cls-4,.cls-5{stroke:#4d6479;stroke-linecap:square;stroke-width:1.2px;}.cls-3{stroke-dasharray:0.76 2.29 0.76 2.29;}.cls-4{stroke-dasharray:0.87 2.61 0.87 2.61;}.cls-5{stroke-dasharray:0.87 2.61 0.87 2.61 0.87 2.61;}.cls-6{stroke:#3e4f60;stroke-width:3.6px;}.cls-7{fill:#3e4f60;}.cls-8{fill:#4d6479;}.cls-9{font-size:13.13px;fill:#fff;font-family:MrEavesXLModOT-Bold, Mr Eaves XL Mod OT;font-weight:700;}.cls-10{letter-spacing:0.02em;}.cls-11{letter-spacing:-0.01em;}</style></defs><title>single-item-icons</title><path class="cls-1" d="M40.6,29.34l-1.2,2.4s3.82-.26,5.79,1c2.75,1.74,3.81,3.83,6,3.83H86.34v-7.2Z"/><line class="cls-2" x1="32.4" y1="36.49" x2="33" y2="36.49"/><line class="cls-3" x1="35.29" y1="36.49" x2="40.25" y2="36.49"/><polyline class="cls-2" points="41.4 36.49 42 36.49 42 37.09"/><line class="cls-3" x1="42" y1="39.38" x2="42" y2="44.34"/><line class="cls-2" x1="42" y1="45.48" x2="42" y2="46.08"/><line class="cls-2" x1="39.21" y1="39.48" x2="38.78" y2="39.91"/><line class="cls-4" x1="36.94" y1="41.75" x2="32.94" y2="45.75"/><line class="cls-5" x1="32.02" y1="46.67" x2="25.56" y2="53.13"/><line class="cls-2" x1="24.64" y1="54.05" x2="24.22" y2="54.47"/><path class="cls-6" d="M12.79,33.41V66.59a8.65,8.65,0,0,0,4.31,7.47L45.83,90.64a8.64,8.64,0,0,0,8.63,0L83.18,74.06a8.64,8.64,0,0,0,4.32-7.47V33.41a8.64,8.64,0,0,0-4.32-7.47L54.46,9.36a8.64,8.64,0,0,0-8.63,0L17.1,25.94A8.65,8.65,0,0,0,12.79,33.41Z"/><polygon class="cls-7" points="13.13 77.89 5 77.89 5 62.9 13.13 57.27 13.13 77.89"/><polygon class="cls-7" points="86.88 77.89 95 77.89 95 62.9 86.88 57.27 86.88 77.89"/><rect class="cls-8" x="5" y="62.9" width="90" height="15"/><text class="cls-9" transform="translate(22.56 74.03)">So<tspan class="cls-10" x="13.52" y="0">f</tspan><tspan x="17.76" y="0">t </tspan><tspan class="cls-11" x="24.65" y="0">E</tspan><tspan x="30.97" y="0">dge</tspan></text></svg>