<svg id="Layer_1" data-name="Layer 1" xmlns="http://www.w3.org/2000/svg" viewBox="0 0 100 100"><defs><style>.cls-1{fill:#f16145;}.cls-2,.cls-3,.cls-4,.cls-5,.cls-6{fill:none;stroke-miterlimit:10;}.cls-2,.cls-3,.cls-4,.cls-5{stroke:#4d6479;stroke-linecap:square;stroke-width:1.2px;}.cls-3{stroke-dasharray:0.76 2.29 0.76 2.29;}.cls-4{stroke-dasharray:0.87 2.61 0.87 2.61;}.cls-5{stroke-dasharray:0.87 2.61 0.87 2.61 0.87 2.61;}.cls-6{stroke:#3e4f60;stroke-width:3.6px;}.cls-7{fill:#3e4f60;}.cls-8{fill:#4d6479;}.cls-9{fill:#fff;}</style></defs><title>single-item-icons</title><path class="cls-1" d="M40.6,29.34l-1.2,2.4s3.82-.26,5.79,1c2.75,1.74,3.81,3.83,6,3.83H86.34v-7.2Z"/><line class="cls-2" x1="32.4" y1="36.49" x2="33" y2="36.49"/><line class="cls-3" x1="35.29" y1="36.49" x2="40.25" y2="36.49"/><polyline class="cls-2" points="41.4 36.49 42 36.49 42 37.09"/><line class="cls-3" x1="42" y1="39.38" x2="42" y2="44.34"/><line class="cls-2" x1="42" y1="45.48" x2="42" y2="46.08"/><line class="cls-2" x1="39.21" y1="39.48" x2="38.78" y2="39.91"/><line class="cls-4" x1="36.94" y1="41.75" x2="32.94" y2="45.75"/><line class="cls-5" x1="32.02" y1="46.67" x2="25.56" y2="53.13"/><line class="cls-2" x1="24.64" y1="54.05" x2="24.22" y2="54.47"/><path class="cls-6" d="M12.79,33.41V66.59a8.65,8.65,0,0,0,4.31,7.47L45.83,90.64a8.64,8.64,0,0,0,8.63,0L83.18,74.06a8.64,8.64,0,0,0,4.32-7.47V33.41a8.64,8.64,0,0,0-4.32-7.47L54.46,9.36a8.64,8.64,0,0,0-8.63,0L17.1,25.94A8.65,8.65,0,0,0,12.79,33.41Z"/><polygon class="cls-7" points="13.13 77.89 5 77.89 5 62.9 13.13 57.27 13.13 77.89"/><polygon class="cls-7" points="86.88 77.89 95 77.89 95 62.9 86.88 57.27 86.88 77.89"/><rect class="cls-8" x="5" y="62.9" width="90" height="15"/><path class="cls-9" d="M25.69,74.18a4.23,4.23,0,0,1-2.8-1l.37-1.26A3.54,3.54,0,0,0,25.69,73c.78,0,1.39-.39,1.39-1.09s-.37-1-1.66-1.31c-1.65-.41-2.31-1.29-2.31-2.41,0-1.29,1-2.22,2.72-2.22a4,4,0,0,1,2.36.77l-.34,1.12a3.94,3.94,0,0,0-2-.68c-.78,0-1.24.34-1.24.9s.29.8,1.35,1.08c1.84.46,2.63,1.23,2.63,2.59C28.56,73.45,27.17,74.18,25.69,74.18Z"/><path class="cls-9" d="M32.52,74.24a3,3,0,1,1,3.18-3A3,3,0,0,1,32.52,74.24Zm0-5a1.95,1.95,0,1,0,1.68,1.93A1.73,1.73,0,0,0,32.52,69.26Z"/><path class="cls-9" d="M38.63,69.35V74H37.1V69.35H36v-1H37.1V68.3c0-1.65.84-2.28,2.2-2.28a3.84,3.84,0,0,1,.77.11v1a2.8,2.8,0,0,0-.54-.08c-.64,0-.9.27-.9,1.26v.08h1.44v1Z"/><path class="cls-9" d="M43.23,69.35V74H41.71V69.35H40.52v-1h1.19V66.81h1.52v1.55h1.2v1Z"/><path class="cls-9" d="M48,74V66.15h5.13V67.4H49.61v1.85h2.88v1.24H49.61v2.29h3.53V74Z"/><path class="cls-9" d="M58.79,74l-.06-.91a2.55,2.55,0,0,1-2.11,1.06,3,3,0,0,1,0-6,2.55,2.55,0,0,1,2,.93v-3h1.52V74Zm-1.7-4.7a1.88,1.88,0,1,0,1.62,1.86A1.66,1.66,0,0,0,57.09,69.33Z"/><path class="cls-9" d="M64.33,76.7a5.53,5.53,0,0,1-2.5-.67V74.87a4.34,4.34,0,0,0,2.47.73c.94,0,1.72-.55,1.72-2v-.37a2.56,2.56,0,0,1-2,.93,3,3,0,0,1,0-6,2.57,2.57,0,0,1,2.11,1.06l0-.9h1.38v5.1C67.54,76.16,65.77,76.7,64.33,76.7Zm.14-7.37a1.88,1.88,0,1,0,1.61,1.86A1.66,1.66,0,0,0,64.47,69.33Z"/><path class="cls-9" d="M74,71.23H70.23a1.7,1.7,0,0,0,1.93,1.85A3.08,3.08,0,0,0,74,72.41v1.1a3.82,3.82,0,0,1-2.31.67,3,3,0,0,1-.11-6,2.29,2.29,0,0,1,2.52,2.24A3.81,3.81,0,0,1,74,71.23Zm-2.39-2.06a1.29,1.29,0,0,0-1.32,1.25h2.42A1,1,0,0,0,71.62,69.17Z"/></svg>