<svg id="Layer_1" data-name="Layer 1" xmlns="http://www.w3.org/2000/svg" viewBox="0 0 100 100"><defs><style>.cls-1{fill:#3e4f60;}.cls-2{fill:#fff;}.cls-3{fill:none;stroke:#3e4f60;stroke-miterlimit:10;stroke-width:3.6px;}.cls-4{fill:#4d6479;}</style></defs><title>single-item-icons</title><path class="cls-1" d="M73.66,58.36C71.8,58,70,57.51,68.22,57.23a30.21,30.21,0,0,0-8.44-.12c-3.34.4-6.68.91-10,1.46a108.16,108.16,0,0,1-11,1.48,32.21,32.21,0,0,1-9.59-.78c-.75-.18-1.48-.43-2.23-.61-.38-.09-.49-.27-.49-.66q0-10.48,0-21,0-5.84,0-11.69v-.6c.46.13.85.23,1.22.35a29.39,29.39,0,0,0,8,1.21A50.59,50.59,0,0,0,45,25.55c3.91-.63,7.81-1.34,11.72-1.92A43,43,0,0,1,66,23.18a31.63,31.63,0,0,1,7.29,1.39c.35.11.35.32.35.59,0,4.27,0,8.54,0,12.81q0,9.95,0,19.88ZM71.2,55c0-.77,0-1.49,0-2.21,0-.35-.11-.49-.45-.56a30.19,30.19,0,0,0-7.58-.62c-2.7.15-5.4.44-8.08.84-4.74.7-9.44,1.59-14.18,2.29a33.79,33.79,0,0,1-9.58,0c-.79-.11-1.57-.24-2.38-.37V57a30.83,30.83,0,0,0,8.71.66c2.62-.21,5.25-.47,7.85-.86,4.29-.65,8.55-1.5,12.85-2.13a36.22,36.22,0,0,1,11,0ZM28.93,44.18c0,.83,0,1.63,0,2.42,0,.09.19.22.31.24a36.4,36.4,0,0,0,10.26.53c3.55-.25,7-1,10.54-1.57,3.1-.52,6.2-1,9.31-1.46a37.26,37.26,0,0,1,9.26,0c.84.1,1.67.27,2.58.42,0-.75,0-1.45,0-2.15,0-.38-.13-.51-.49-.57a35,35,0,0,0-6.93-.63,60.07,60.07,0,0,0-9.46,1c-4.46.74-8.92,1.53-13.39,2.19a33.9,33.9,0,0,1-9.49,0C30.63,44.46,29.81,44.32,28.93,44.18ZM71.2,49.85c0-.69,0-1.34,0-2,0-.46-.13-.65-.58-.73a36.35,36.35,0,0,0-7.86-.59A82.26,82.26,0,0,0,51,48.1,92.65,92.65,0,0,1,37.39,50a35.89,35.89,0,0,1-6.13-.31L29,49.3v2.54l.3.08a34.66,34.66,0,0,0,11.22.41c3.45-.42,6.88-1,10.31-1.6a96.93,96.93,0,0,1,10.33-1.48,41.22,41.22,0,0,1,7.93.22C69.74,49.56,70.43,49.71,71.2,49.85ZM49.61,30.41c7.16-1.73,14.28-2.82,21.58-1.11,0-1,0-2,0-2.91,0-.1-.21-.26-.33-.28-1.78-.26-3.56-.61-5.35-.74a36,36,0,0,0-8.79.51c-2.25.4-4.5.87-6.74,1.33a.5.5,0,0,0-.35.31C49.6,28.46,49.61,29.39,49.61,30.41ZM71.19,39.7c0-1,0-1.82,0-2.7,0-.08-.2-.21-.32-.23-1.93-.27-3.86-.63-5.8-.77a34.79,34.79,0,0,0-8.28.52c-2.28.39-4.53.87-6.8,1.33-.13,0-.34.17-.34.26,0,.87,0,1.75,0,2.68C56.76,39.09,63.87,37.94,71.19,39.7ZM49.61,35.47c7.16-1.73,14.28-2.82,21.58-1.11,0-.87,0-1.62,0-2.37,0-.11-.23-.26-.38-.29a33,33,0,0,0-7-.8,37.52,37.52,0,0,0-7.26.6c-2.15.38-4.29.83-6.44,1.26-.2,0-.49,0-.49.35Zm-11.92,1.8h.16c-.54-.76-.3-1.28.46-1.72-.86.15-1.34-.12-1.46-1-.12.92-.62,1.21-1.47,1,.29.3.67.47.76.74s-.11.65-.2,1.06c.35-.22.63-.54.92-.54S37.41,37.1,37.69,37.27Zm4.11,1.56,0-.15c-.79.34-1.31.2-1.42-.74-.19.37-.23.79-.46,1s-.65.14-1.1.21a5.1,5.1,0,0,0,.51.33.48.48,0,0,1,.25.74,3.32,3.32,0,0,0-.15.54l.09.12c.49-.7,1-.86,1.74-.17-.1-.48-.3-.85-.2-1.11S41.55,39.07,41.8,38.83Zm1.67-2.22c.52-.57,1-1,1.78-.27-.08-.46-.26-.83-.17-1.11s.45-.5.77-.82c-.45.06-.82.22-1.05.1s-.28-.53-.45-.9c-.15.42-.17.85-.4,1.07s-.66.2-1,.29l-.09.11C43.91,35.29,43.69,35.92,43.47,36.61ZM31.65,33.08c.19-.1.33-.16.45-.24a.53.53,0,0,1,.86.1,3.73,3.73,0,0,0,.51.41c-.1-.44-.3-.81-.21-1.08s.48-.4.73-.6c-.93.12-1.27-.44-1.41-1.25-.19.34-.25.75-.45.84s-.62-.05-.93-.09c0,0,0,0-.14.11.27.24.66.43.76.72S31.73,32.66,31.65,33.08Zm8.83-2.62-.16,0c-.11.32-.13.74-.35.92a2.91,2.91,0,0,1-1.07.25c.28.21.67.37.76.62s-.12.64-.22,1.08c.35-.27.6-.61.88-.64s.6.24,1,.39c-.08-.37-.29-.74-.2-1s.46-.49.71-.72v-.13C41.06,31.48,40.46,31.47,40.48,30.46Zm-7,10.27c-.08-.32-.29-.69-.2-1s.47-.43.79-.69a4,4,0,0,0-.6-.07.58.58,0,0,1-.68-.57,2.55,2.55,0,0,0-.21-.55c-.18.35-.26.76-.48.87s-.62-.06-.93-.1l-.08.09c.26.23.65.42.75.7s-.08.68-.17,1.19C32.39,39.82,32.91,40.25,33.46,40.73Z"/><path class="cls-2" d="M71.2,55l-1.83-.3a36.22,36.22,0,0,0-11,0c-4.3.63-8.56,1.48-12.85,2.13-2.6.39-5.23.65-7.85.86A30.83,30.83,0,0,1,29,57V54.37c.81.13,1.59.26,2.38.37a33.79,33.79,0,0,0,9.58,0c4.74-.7,9.44-1.59,14.18-2.29,2.68-.4,5.38-.69,8.08-.84a30.19,30.19,0,0,1,7.58.62c.34.07.46.21.45.56C71.18,53.52,71.2,54.24,71.2,55Z"/><path class="cls-2" d="M28.93,44.18c.88.14,1.7.28,2.52.39a33.9,33.9,0,0,0,9.49,0c4.47-.66,8.93-1.45,13.39-2.19a60.07,60.07,0,0,1,9.46-1,35,35,0,0,1,6.93.63c.36.06.5.19.49.57,0,.7,0,1.4,0,2.15-.91-.15-1.74-.32-2.58-.42a37.26,37.26,0,0,0-9.26,0c-3.11.41-6.21.94-9.31,1.46-3.5.59-7,1.32-10.54,1.57a36.4,36.4,0,0,1-10.26-.53c-.12,0-.31-.15-.31-.24C28.92,45.81,28.93,45,28.93,44.18Z"/><path class="cls-2" d="M71.2,49.85c-.77-.14-1.46-.29-2.16-.38a41.22,41.22,0,0,0-7.93-.22,96.93,96.93,0,0,0-10.33,1.48c-3.43.58-6.86,1.18-10.31,1.6a34.66,34.66,0,0,1-11.22-.41l-.3-.08V49.3l2.31.36a35.89,35.89,0,0,0,6.13.31A92.65,92.65,0,0,0,51,48.1a82.26,82.26,0,0,1,11.81-1.54,36.35,36.35,0,0,1,7.86.59c.45.08.61.27.58.73C71.17,48.51,71.2,49.16,71.2,49.85Z"/><path class="cls-2" d="M49.61,30.41c0-1,0-1.95,0-2.89a.5.5,0,0,1,.35-.31c2.24-.46,4.49-.93,6.74-1.33a36,36,0,0,1,8.79-.51c1.79.13,3.57.48,5.35.74.12,0,.33.18.33.28,0,.93,0,1.87,0,2.91C63.89,27.59,56.77,28.68,49.61,30.41Z"/><path class="cls-2" d="M71.19,39.7c-7.32-1.76-14.43-.61-21.58,1.09,0-.93,0-1.81,0-2.68,0-.09.21-.23.34-.26,2.27-.46,4.52-.94,6.8-1.33A34.79,34.79,0,0,1,65.05,36c1.94.14,3.87.5,5.8.77.12,0,.32.15.32.23C71.2,37.88,71.19,38.75,71.19,39.7Z"/><path class="cls-2" d="M49.61,35.47V33.11c0-.36.29-.31.49-.35,2.15-.43,4.29-.88,6.44-1.26a37.52,37.52,0,0,1,7.26-.6,33,33,0,0,1,7,.8c.15,0,.37.18.38.29,0,.75,0,1.5,0,2.37C63.89,32.65,56.77,33.74,49.61,35.47Z"/><path class="cls-2" d="M37.69,37.27c-.28-.17-.56-.48-.83-.47s-.57.32-.92.54c.09-.41.29-.78.2-1.06s-.47-.44-.76-.74c.85.19,1.35-.1,1.47-1,.12.9.6,1.17,1.46,1-.76.44-1,1-.46,1.72Z"/><path class="cls-2" d="M41.8,38.83c-.25.24-.62.45-.72.74s.1.63.2,1.11c-.7-.69-1.25-.53-1.74.17l-.09-.12a3.32,3.32,0,0,1,.15-.54.48.48,0,0,0-.25-.74,5.1,5.1,0,0,1-.51-.33c.45-.07.87,0,1.1-.21s.27-.6.46-1c.11.94.63,1.08,1.42.74Z"/><path class="cls-2" d="M43.47,36.61c.22-.69.44-1.32-.61-1.53L43,35c.34-.09.77-.08,1-.29s.25-.65.4-1.07c.17.37.23.78.45.9s.6,0,1.05-.1c-.32.32-.68.53-.77.82s.09.65.17,1.11C44.5,35.64,44,36,43.47,36.61Z"/><path class="cls-2" d="M31.65,33.08c.08-.42.27-.81.17-1.08s-.49-.48-.76-.72c.1-.08.12-.11.14-.11.31,0,.68.2.93.09s.26-.5.45-.84c.14.81.48,1.37,1.41,1.25-.25.2-.65.35-.73.6s.11.64.21,1.08a3.73,3.73,0,0,1-.51-.41.53.53,0,0,0-.86-.1C32,32.92,31.84,33,31.65,33.08Z"/><path class="cls-2" d="M40.48,30.46c0,1,.58,1,1.3.81v.13c-.25.23-.61.43-.71.72s.12.63.2,1c-.35-.15-.67-.42-1-.39s-.53.37-.88.64c.1-.44.31-.81.22-1.08s-.48-.41-.76-.62A2.91,2.91,0,0,0,40,31.42c.22-.18.24-.6.35-.92Z"/><path class="cls-2" d="M33.46,40.73c-.55-.48-1.07-.91-1.81-.09.09-.51.28-.9.17-1.19s-.49-.47-.75-.7l.08-.09c.31,0,.69.21.93.1s.3-.52.48-.87a2.55,2.55,0,0,1,.21.55.58.58,0,0,0,.68.57,4,4,0,0,1,.6.07c-.32.26-.71.43-.79.69S33.38,40.41,33.46,40.73Z"/><path class="cls-3" d="M12.65,33.41V66.59A8.63,8.63,0,0,0,17,74.06L45.69,90.64a8.62,8.62,0,0,0,8.62,0L83,74.06a8.63,8.63,0,0,0,4.31-7.47V33.41A8.63,8.63,0,0,0,83,25.94L54.31,9.36a8.62,8.62,0,0,0-8.62,0L17,25.94A8.63,8.63,0,0,0,12.65,33.41Z"/><polygon class="cls-1" points="13.13 77.89 5 77.89 5 62.9 13.13 57.27 13.13 77.89"/><polygon class="cls-1" points="86.88 77.89 95 77.89 95 62.9 86.88 57.27 86.88 77.89"/><rect class="cls-4" x="5" y="62.9" width="90" height="15"/><path class="cls-2" d="M20.74,74V69.2a6,6,0,0,1,.06-.75l-.29.75L18.4,74h-1L15.3,69.2c-.08-.19-.25-.67-.28-.75s0,.56,0,.75V74h-1.4V66.15h1.7L18,71.91l2.59-5.76H22.2V74Z"/><path class="cls-2" d="M28.27,74l-.06-.91a2.55,2.55,0,0,1-2.11,1.06,3,3,0,0,1,0-6,2.57,2.57,0,0,1,2.11,1.06l.06-.9h1.37V74Zm-1.7-4.7a1.88,1.88,0,1,0,1.62,1.86A1.66,1.66,0,0,0,26.57,69.33Z"/><path class="cls-2" d="M35.64,74l0-.91a2.55,2.55,0,0,1-2.11,1.06,3,3,0,0,1,0-6,2.56,2.56,0,0,1,2,.93v-3H37V74ZM34,69.33a1.89,1.89,0,1,0,1.61,1.86A1.66,1.66,0,0,0,34,69.33Z"/><path class="cls-2" d="M43.49,71.23H39.71a1.7,1.7,0,0,0,1.93,1.85,3.08,3.08,0,0,0,1.84-.67v1.1a3.82,3.82,0,0,1-2.31.67,3,3,0,0,1-.11-6,2.3,2.3,0,0,1,2.52,2.24A3.81,3.81,0,0,1,43.49,71.23ZM41.1,69.17a1.29,1.29,0,0,0-1.32,1.25H42.2A1,1,0,0,0,41.1,69.17Z"/><path class="cls-2" d="M47.44,67.4V66.15H49V67.4Zm0,6.63V68.36H49V74Z"/><path class="cls-2" d="M54.57,74V70.89c0-1.1-.38-1.47-1.08-1.47A1.57,1.57,0,0,0,52,70.86V74H50.46V68.36h1.39l.07,1A2.42,2.42,0,0,1,54,68.2c1.51,0,2.07,1,2.07,2.45V74Z"/><path class="cls-2" d="M63.83,74.25c-2.07,0-3.62-1.19-3.62-3.86V66.15h1.63v4.19c0,1.71.73,2.53,2,2.53s2-.82,2-2.53V66.15h1.56v4.24C67.44,73.06,65.91,74.25,63.83,74.25Z"/><path class="cls-2" d="M71.38,74.18a4.2,4.2,0,0,1-2.79-1L69,71.94A3.56,3.56,0,0,0,71.38,73c.79,0,1.39-.39,1.39-1.09s-.37-1-1.65-1.31c-1.66-.41-2.31-1.28-2.31-2.41,0-1.29,1-2.22,2.71-2.22a4.05,4.05,0,0,1,2.37.77l-.34,1.12a4,4,0,0,0-2-.68c-.77,0-1.23.34-1.23.9s.29.8,1.35,1.08c1.84.46,2.62,1.23,2.62,2.6C74.25,73.45,72.86,74.18,71.38,74.18Z"/><path class="cls-2" d="M80.84,74l-.8-2H76.85l-.8,2H74.5l3.35-7.88H79.1L82.44,74Zm-2.39-5.92L77.29,71h2.32Z"/></svg>